; NON-PLATED HOLES START AT T1
; THROUGH (PLATED) HOLES START AT T100
M48
INCH
T100C0.027559
T101C0.041361
T102C0.035000
T103C0.035433
T104C0.045000
T105C0.037500
T106C0.040000
T107C0.030000
T108C0.088356
T109C0.050000
T110C0.015748
T111C0.041333
%
T100
X000784Y025971
X003784Y025971
X000784Y030971
X003784Y030971
X003784Y028971
X003784Y026971
X000784Y028971
X000784Y026971
X000784Y024971
X003784Y031971
X000784Y031971
X003784Y024971
X003784Y029971
X000784Y029971
X003784Y027971
X000784Y027971
T101
X004908Y014107
X004908Y008915
X004908Y003685
T102
X000920Y018294
X000920Y021294
X000920Y016294
X000920Y019294
X004237Y033972
X005583Y034940
X002168Y027900
X000920Y023294
X000920Y022294
X004720Y032937
X006401Y027225
X008212Y034142
X011212Y034142
X007566Y037198
X008929Y031527
X011212Y035142
X005583Y037940
X002168Y024900
X007782Y038180
X008212Y035142
X004237Y036972
X003920Y020294
X003920Y017294
X004878Y028602
X004878Y025602
X003920Y022294
X011212Y033142
X000920Y020294
X000920Y017294
X008212Y033142
X007782Y039180
X003920Y016294
X007929Y031527
X003920Y021294
X011212Y036142
X008212Y036142
X003920Y018294
X003920Y023294
X010566Y037198
X006401Y026225
X004720Y029937
X003920Y019294
T103
X007128Y033166
X007128Y036166
T104
X011230Y019882
X011230Y009017
X011230Y023525
X011230Y005363
X009990Y005362
X006742Y012697
X009990Y023525
X001893Y033027
X006742Y019882
X009990Y019882
X009990Y009017
X006742Y005363
X009990Y001767
X001893Y037515
X009990Y016301
X011230Y012697
X001893Y034267
X006742Y016301
X009990Y012697
X006742Y001767
X011230Y016301
X006742Y009017
X011230Y001767
X006742Y023525
T105
X008873Y021691
X010795Y021691
X008120Y006927
X008115Y010651
X007924Y018166
X006264Y014030
X006198Y006927
X008186Y024709
X006239Y030102
X008186Y014030
X006002Y018166
X002138Y031311
X006264Y024709
X006194Y010651
X002138Y029389
X006239Y032024
T106
X005457Y042034
X007457Y041034
X003457Y042034
X003457Y041034
X007457Y042034
X005457Y041034
X006457Y041034
X009457Y042034
X009457Y041034
X006457Y042034
X002457Y041034
X004457Y041034
X008457Y042034
X008457Y041034
X004457Y042034
X002457Y042034
T107
X009273Y039140
X005011Y022617
X011273Y039140
X000932Y024164
X005011Y024617
X002932Y024164
T108
X001955Y011166
X001955Y000743
X001955Y015049
X001955Y009857
X001955Y005974
X001955Y004626
T109
X009564Y026034
X009564Y029735
X009564Y027885
T110
X005173Y016234
X007307Y022212
X002944Y010579
X003656Y015306
X001994Y016219
X007729Y021323
X004707Y015279
T111
X004908Y006915
X004908Y001685
X004908Y012107
X004908Y002685
X004908Y007915
X004908Y013107
T00
M30
