G04 MADE WITH FRITZING*
G04 WWW.FRITZING.ORG*
G04 DOUBLE SIDED*
G04 HOLES PLATED*
G04 CONTOUR ON CENTER OF CONTOUR VECTOR*
%ASAXBY*%
%FSLAX23Y23*%
%MOIN*%
%OFA0B0*%
%SFA1.0B1.0*%
%ADD10C,0.005000*%
%ADD10C,0.008*%
%LNCONTOUR*%
G90*
G70*
G54D10*
G54D10*
X36Y4331D02*
X37Y4331D01*
X38Y4331D01*
X39Y4331D01*
X40Y4331D01*
X41Y4331D01*
X42Y4331D01*
X43Y4331D01*
X44Y4331D01*
X45Y4331D01*
X46Y4331D01*
X47Y4331D01*
X48Y4331D01*
X49Y4331D01*
X50Y4331D01*
X51Y4331D01*
X52Y4331D01*
X53Y4331D01*
X54Y4331D01*
X55Y4331D01*
X56Y4331D01*
X57Y4331D01*
X58Y4331D01*
X59Y4331D01*
X60Y4331D01*
X61Y4331D01*
X62Y4331D01*
X63Y4331D01*
X64Y4331D01*
X65Y4331D01*
X66Y4331D01*
X67Y4331D01*
X68Y4331D01*
X69Y4331D01*
X70Y4331D01*
X71Y4331D01*
X72Y4331D01*
X73Y4331D01*
X74Y4331D01*
X75Y4331D01*
X76Y4331D01*
X77Y4331D01*
X78Y4331D01*
X79Y4331D01*
X80Y4331D01*
X81Y4331D01*
X82Y4331D01*
X83Y4331D01*
X84Y4331D01*
X85Y4331D01*
X86Y4331D01*
X87Y4331D01*
X88Y4331D01*
X89Y4331D01*
X90Y4331D01*
X91Y4331D01*
X92Y4331D01*
X93Y4331D01*
X94Y4331D01*
X95Y4331D01*
X96Y4331D01*
X97Y4331D01*
X98Y4331D01*
X99Y4331D01*
X100Y4331D01*
X101Y4331D01*
X102Y4331D01*
X103Y4331D01*
X104Y4331D01*
X105Y4331D01*
X106Y4331D01*
X107Y4331D01*
X108Y4331D01*
X109Y4331D01*
X110Y4331D01*
X111Y4331D01*
X112Y4331D01*
X113Y4331D01*
X114Y4331D01*
X115Y4331D01*
X116Y4331D01*
X117Y4331D01*
X118Y4331D01*
X119Y4331D01*
X120Y4331D01*
X121Y4331D01*
X122Y4331D01*
X123Y4331D01*
X124Y4331D01*
X125Y4331D01*
X126Y4331D01*
X127Y4331D01*
X128Y4331D01*
X129Y4331D01*
X130Y4331D01*
X131Y4331D01*
X132Y4331D01*
X133Y4331D01*
X134Y4331D01*
X135Y4331D01*
X136Y4331D01*
X137Y4331D01*
X138Y4331D01*
X139Y4331D01*
X140Y4331D01*
X141Y4331D01*
X142Y4331D01*
X143Y4331D01*
X144Y4331D01*
X145Y4331D01*
X146Y4331D01*
X147Y4331D01*
X148Y4331D01*
X149Y4331D01*
X150Y4331D01*
X151Y4331D01*
X152Y4331D01*
X153Y4331D01*
X154Y4331D01*
X155Y4331D01*
X156Y4331D01*
X157Y4331D01*
X158Y4331D01*
X159Y4331D01*
X160Y4331D01*
X161Y4331D01*
X162Y4331D01*
X163Y4331D01*
X164Y4331D01*
X165Y4331D01*
X166Y4331D01*
X167Y4331D01*
X168Y4331D01*
X169Y4331D01*
X170Y4331D01*
X171Y4331D01*
X172Y4331D01*
X173Y4331D01*
X174Y4331D01*
X175Y4331D01*
X176Y4331D01*
X177Y4331D01*
X178Y4331D01*
X179Y4331D01*
X180Y4331D01*
X181Y4331D01*
X182Y4331D01*
X183Y4331D01*
X184Y4331D01*
X185Y4331D01*
X186Y4331D01*
X187Y4331D01*
X188Y4331D01*
X189Y4331D01*
X190Y4331D01*
X191Y4331D01*
X192Y4331D01*
X193Y4331D01*
X194Y4331D01*
X195Y4331D01*
X196Y4331D01*
X197Y4331D01*
X198Y4331D01*
X199Y4331D01*
X200Y4331D01*
X201Y4331D01*
X202Y4331D01*
X203Y4331D01*
X204Y4331D01*
X205Y4331D01*
X206Y4331D01*
X207Y4331D01*
X208Y4331D01*
X209Y4331D01*
X210Y4331D01*
X211Y4331D01*
X212Y4331D01*
X213Y4331D01*
X214Y4331D01*
X215Y4331D01*
X216Y4331D01*
X217Y4331D01*
X218Y4331D01*
X219Y4331D01*
X220Y4331D01*
X221Y4331D01*
X222Y4331D01*
X223Y4331D01*
X224Y4331D01*
X225Y4331D01*
X226Y4331D01*
X227Y4331D01*
X228Y4331D01*
X229Y4331D01*
X230Y4331D01*
X231Y4331D01*
X232Y4331D01*
X233Y4331D01*
X234Y4331D01*
X235Y4331D01*
X236Y4331D01*
X237Y4331D01*
X238Y4331D01*
X239Y4331D01*
X240Y4331D01*
X241Y4331D01*
X242Y4331D01*
X243Y4331D01*
X244Y4331D01*
X245Y4331D01*
X246Y4331D01*
X247Y4331D01*
X248Y4331D01*
X249Y4331D01*
X250Y4331D01*
X251Y4331D01*
X252Y4331D01*
X253Y4331D01*
X254Y4331D01*
X255Y4331D01*
X256Y4331D01*
X257Y4331D01*
X258Y4331D01*
X259Y4331D01*
X260Y4331D01*
X261Y4331D01*
X262Y4331D01*
X263Y4331D01*
X264Y4331D01*
X265Y4331D01*
X266Y4331D01*
X267Y4331D01*
X268Y4331D01*
X269Y4331D01*
X270Y4331D01*
X271Y4331D01*
X272Y4331D01*
X273Y4331D01*
X274Y4331D01*
X275Y4331D01*
X276Y4331D01*
X277Y4331D01*
X278Y4331D01*
X279Y4331D01*
X280Y4331D01*
X281Y4331D01*
X282Y4331D01*
X283Y4331D01*
X284Y4331D01*
X285Y4331D01*
X286Y4331D01*
X287Y4331D01*
X288Y4331D01*
X289Y4331D01*
X290Y4331D01*
X291Y4331D01*
X292Y4331D01*
X293Y4331D01*
X294Y4331D01*
X295Y4331D01*
X296Y4331D01*
X297Y4331D01*
X298Y4331D01*
X299Y4331D01*
X300Y4331D01*
X301Y4331D01*
X302Y4331D01*
X303Y4331D01*
X304Y4331D01*
X305Y4331D01*
X306Y4331D01*
X307Y4331D01*
X308Y4331D01*
X309Y4331D01*
X310Y4331D01*
X311Y4331D01*
X312Y4331D01*
X313Y4331D01*
X314Y4331D01*
X315Y4331D01*
X316Y4331D01*
X317Y4331D01*
X318Y4331D01*
X319Y4331D01*
X320Y4331D01*
X321Y4331D01*
X322Y4331D01*
X323Y4331D01*
X324Y4331D01*
X325Y4331D01*
X326Y4331D01*
X327Y4331D01*
X328Y4331D01*
X329Y4331D01*
X330Y4331D01*
X331Y4331D01*
X332Y4331D01*
X333Y4331D01*
X334Y4331D01*
X335Y4331D01*
X336Y4331D01*
X337Y4331D01*
X338Y4331D01*
X339Y4331D01*
X340Y4331D01*
X341Y4331D01*
X342Y4331D01*
X343Y4331D01*
X344Y4331D01*
X345Y4331D01*
X346Y4331D01*
X347Y4331D01*
X348Y4331D01*
X349Y4331D01*
X350Y4331D01*
X351Y4331D01*
X352Y4331D01*
X353Y4331D01*
X354Y4331D01*
X355Y4331D01*
X356Y4331D01*
X357Y4331D01*
X358Y4331D01*
X359Y4331D01*
X360Y4331D01*
X361Y4331D01*
X362Y4331D01*
X363Y4331D01*
X364Y4331D01*
X365Y4331D01*
X366Y4331D01*
X367Y4331D01*
X368Y4331D01*
X369Y4331D01*
X370Y4331D01*
X371Y4331D01*
X372Y4331D01*
X373Y4331D01*
X374Y4331D01*
X375Y4331D01*
X376Y4331D01*
X377Y4331D01*
X378Y4331D01*
X379Y4331D01*
X380Y4331D01*
X381Y4331D01*
X382Y4331D01*
X383Y4331D01*
X384Y4331D01*
X385Y4331D01*
X386Y4331D01*
X387Y4331D01*
X388Y4331D01*
X389Y4331D01*
X390Y4331D01*
X391Y4331D01*
X392Y4331D01*
X393Y4331D01*
X394Y4331D01*
X395Y4331D01*
X396Y4331D01*
X397Y4331D01*
X398Y4331D01*
X399Y4331D01*
X400Y4331D01*
X401Y4331D01*
X402Y4331D01*
X403Y4331D01*
X404Y4331D01*
X405Y4331D01*
X406Y4331D01*
X407Y4331D01*
X408Y4331D01*
X409Y4331D01*
X410Y4331D01*
X411Y4331D01*
X412Y4331D01*
X413Y4331D01*
X414Y4331D01*
X415Y4331D01*
X416Y4331D01*
X417Y4331D01*
X418Y4331D01*
X419Y4331D01*
X420Y4331D01*
X421Y4331D01*
X422Y4331D01*
X423Y4331D01*
X424Y4331D01*
X425Y4331D01*
X426Y4331D01*
X427Y4331D01*
X428Y4331D01*
X429Y4331D01*
X430Y4331D01*
X431Y4331D01*
X432Y4331D01*
X433Y4331D01*
X434Y4331D01*
X435Y4331D01*
X436Y4331D01*
X437Y4331D01*
X438Y4331D01*
X439Y4331D01*
X440Y4331D01*
X441Y4331D01*
X442Y4331D01*
X443Y4331D01*
X444Y4331D01*
X445Y4331D01*
X446Y4331D01*
X447Y4331D01*
X448Y4331D01*
X449Y4331D01*
X450Y4331D01*
X451Y4331D01*
X452Y4331D01*
X453Y4331D01*
X454Y4331D01*
X455Y4331D01*
X456Y4331D01*
X457Y4331D01*
X458Y4331D01*
X459Y4331D01*
X460Y4331D01*
X461Y4331D01*
X462Y4331D01*
X463Y4331D01*
X464Y4331D01*
X465Y4331D01*
X466Y4331D01*
X467Y4331D01*
X468Y4331D01*
X469Y4331D01*
X470Y4331D01*
X471Y4331D01*
X472Y4331D01*
X473Y4331D01*
X474Y4331D01*
X475Y4331D01*
X476Y4331D01*
X477Y4331D01*
X478Y4331D01*
X479Y4331D01*
X480Y4331D01*
X481Y4331D01*
X482Y4331D01*
X483Y4331D01*
X484Y4331D01*
X485Y4331D01*
X486Y4331D01*
X487Y4331D01*
X488Y4331D01*
X489Y4331D01*
X490Y4331D01*
X491Y4331D01*
X492Y4331D01*
X493Y4331D01*
X494Y4331D01*
X495Y4331D01*
X496Y4331D01*
X497Y4331D01*
X498Y4331D01*
X499Y4331D01*
X500Y4331D01*
X501Y4331D01*
X502Y4331D01*
X503Y4331D01*
X504Y4331D01*
X505Y4331D01*
X506Y4331D01*
X507Y4331D01*
X508Y4331D01*
X509Y4331D01*
X510Y4331D01*
X511Y4331D01*
X512Y4331D01*
X513Y4331D01*
X514Y4331D01*
X515Y4331D01*
X516Y4331D01*
X517Y4331D01*
X518Y4331D01*
X519Y4331D01*
X520Y4331D01*
X521Y4331D01*
X522Y4331D01*
X523Y4331D01*
X524Y4331D01*
X525Y4331D01*
X526Y4331D01*
X527Y4331D01*
X528Y4331D01*
X529Y4331D01*
X530Y4331D01*
X531Y4331D01*
X532Y4331D01*
X533Y4331D01*
X534Y4331D01*
X535Y4331D01*
X536Y4331D01*
X537Y4331D01*
X538Y4331D01*
X539Y4331D01*
X540Y4331D01*
X541Y4331D01*
X542Y4331D01*
X543Y4331D01*
X544Y4331D01*
X545Y4331D01*
X546Y4331D01*
X547Y4331D01*
X548Y4331D01*
X549Y4331D01*
X550Y4331D01*
X551Y4331D01*
X552Y4331D01*
X553Y4331D01*
X554Y4331D01*
X555Y4331D01*
X556Y4331D01*
X557Y4331D01*
X558Y4331D01*
X559Y4331D01*
X560Y4331D01*
X561Y4331D01*
X562Y4331D01*
X563Y4331D01*
X564Y4331D01*
X565Y4331D01*
X566Y4331D01*
X567Y4331D01*
X568Y4331D01*
X569Y4331D01*
X570Y4331D01*
X571Y4331D01*
X572Y4331D01*
X573Y4331D01*
X574Y4331D01*
X575Y4331D01*
X576Y4331D01*
X577Y4331D01*
X578Y4331D01*
X579Y4331D01*
X580Y4331D01*
X581Y4331D01*
X582Y4331D01*
X583Y4331D01*
X584Y4331D01*
X585Y4331D01*
X586Y4331D01*
X587Y4331D01*
X588Y4331D01*
X589Y4331D01*
X590Y4331D01*
X591Y4331D01*
X592Y4331D01*
X593Y4331D01*
X594Y4331D01*
X595Y4331D01*
X596Y4331D01*
X597Y4331D01*
X598Y4331D01*
X599Y4331D01*
X600Y4331D01*
X601Y4331D01*
X602Y4331D01*
X603Y4331D01*
X604Y4331D01*
X605Y4331D01*
X606Y4331D01*
X607Y4331D01*
X608Y4331D01*
X609Y4331D01*
X610Y4331D01*
X611Y4331D01*
X612Y4331D01*
X613Y4331D01*
X614Y4331D01*
X615Y4331D01*
X616Y4331D01*
X617Y4331D01*
X618Y4331D01*
X619Y4331D01*
X620Y4331D01*
X621Y4331D01*
X622Y4331D01*
X623Y4331D01*
X624Y4331D01*
X625Y4331D01*
X626Y4331D01*
X627Y4331D01*
X628Y4331D01*
X629Y4331D01*
X630Y4331D01*
X631Y4331D01*
X632Y4331D01*
X633Y4331D01*
X634Y4331D01*
X635Y4331D01*
X636Y4331D01*
X637Y4331D01*
X638Y4331D01*
X639Y4331D01*
X640Y4331D01*
X641Y4331D01*
X642Y4331D01*
X643Y4331D01*
X644Y4331D01*
X645Y4331D01*
X646Y4331D01*
X647Y4331D01*
X648Y4331D01*
X649Y4331D01*
X650Y4331D01*
X651Y4331D01*
X652Y4331D01*
X653Y4331D01*
X654Y4331D01*
X655Y4331D01*
X656Y4331D01*
X657Y4331D01*
X658Y4331D01*
X659Y4331D01*
X660Y4331D01*
X661Y4331D01*
X662Y4331D01*
X663Y4331D01*
X664Y4331D01*
X665Y4331D01*
X666Y4331D01*
X667Y4331D01*
X668Y4331D01*
X669Y4331D01*
X670Y4331D01*
X671Y4331D01*
X672Y4331D01*
X673Y4331D01*
X674Y4331D01*
X675Y4331D01*
X676Y4331D01*
X677Y4331D01*
X678Y4331D01*
X679Y4331D01*
X680Y4331D01*
X681Y4331D01*
X682Y4331D01*
X683Y4331D01*
X684Y4331D01*
X685Y4331D01*
X686Y4331D01*
X687Y4331D01*
X688Y4331D01*
X689Y4331D01*
X690Y4331D01*
X691Y4331D01*
X692Y4331D01*
X693Y4331D01*
X694Y4331D01*
X695Y4331D01*
X696Y4331D01*
X697Y4331D01*
X698Y4331D01*
X699Y4331D01*
X700Y4331D01*
X701Y4331D01*
X702Y4331D01*
X703Y4331D01*
X704Y4331D01*
X705Y4331D01*
X706Y4331D01*
X707Y4331D01*
X708Y4331D01*
X709Y4331D01*
X710Y4331D01*
X711Y4331D01*
X712Y4331D01*
X713Y4331D01*
X714Y4331D01*
X715Y4331D01*
X716Y4331D01*
X717Y4331D01*
X718Y4331D01*
X719Y4331D01*
X720Y4331D01*
X721Y4331D01*
X722Y4331D01*
X723Y4331D01*
X724Y4331D01*
X725Y4331D01*
X726Y4331D01*
X727Y4331D01*
X728Y4331D01*
X729Y4331D01*
X730Y4331D01*
X731Y4331D01*
X732Y4331D01*
X733Y4331D01*
X734Y4331D01*
X735Y4331D01*
X736Y4331D01*
X737Y4331D01*
X738Y4331D01*
X739Y4331D01*
X740Y4331D01*
X741Y4331D01*
X742Y4331D01*
X743Y4331D01*
X744Y4331D01*
X745Y4331D01*
X746Y4331D01*
X747Y4331D01*
X748Y4331D01*
X749Y4331D01*
X750Y4331D01*
X751Y4331D01*
X752Y4331D01*
X753Y4331D01*
X754Y4331D01*
X755Y4331D01*
X756Y4331D01*
X757Y4331D01*
X758Y4331D01*
X759Y4331D01*
X760Y4331D01*
X761Y4331D01*
X762Y4331D01*
X763Y4331D01*
X764Y4331D01*
X765Y4331D01*
X766Y4331D01*
X767Y4331D01*
X768Y4331D01*
X769Y4331D01*
X770Y4331D01*
X771Y4331D01*
X772Y4331D01*
X773Y4331D01*
X774Y4331D01*
X775Y4331D01*
X776Y4331D01*
X777Y4331D01*
X778Y4331D01*
X779Y4331D01*
X780Y4331D01*
X781Y4331D01*
X782Y4331D01*
X783Y4331D01*
X784Y4331D01*
X785Y4331D01*
X786Y4331D01*
X787Y4331D01*
X788Y4331D01*
X789Y4331D01*
X790Y4331D01*
X791Y4331D01*
X792Y4331D01*
X793Y4331D01*
X794Y4331D01*
X795Y4331D01*
X796Y4331D01*
X797Y4331D01*
X798Y4331D01*
X799Y4331D01*
X800Y4331D01*
X801Y4331D01*
X802Y4331D01*
X803Y4331D01*
X804Y4331D01*
X805Y4331D01*
X806Y4331D01*
X807Y4331D01*
X808Y4331D01*
X809Y4331D01*
X810Y4331D01*
X811Y4331D01*
X812Y4331D01*
X813Y4331D01*
X814Y4331D01*
X815Y4331D01*
X816Y4331D01*
X817Y4331D01*
X818Y4331D01*
X819Y4331D01*
X820Y4331D01*
X821Y4331D01*
X822Y4331D01*
X823Y4331D01*
X824Y4331D01*
X825Y4331D01*
X826Y4331D01*
X827Y4331D01*
X828Y4331D01*
X829Y4331D01*
X830Y4331D01*
X831Y4331D01*
X832Y4331D01*
X833Y4331D01*
X834Y4331D01*
X835Y4331D01*
X836Y4331D01*
X837Y4331D01*
X838Y4331D01*
X839Y4331D01*
X840Y4331D01*
X841Y4331D01*
X842Y4331D01*
X843Y4331D01*
X844Y4331D01*
X845Y4331D01*
X846Y4331D01*
X847Y4331D01*
X848Y4331D01*
X849Y4331D01*
X850Y4331D01*
X851Y4331D01*
X852Y4331D01*
X853Y4331D01*
X854Y4331D01*
X855Y4331D01*
X856Y4331D01*
X857Y4331D01*
X858Y4331D01*
X859Y4331D01*
X860Y4331D01*
X861Y4331D01*
X862Y4331D01*
X863Y4331D01*
X864Y4331D01*
X865Y4331D01*
X866Y4331D01*
X867Y4331D01*
X868Y4331D01*
X869Y4331D01*
X870Y4331D01*
X871Y4331D01*
X872Y4331D01*
X873Y4331D01*
X874Y4331D01*
X875Y4331D01*
X876Y4331D01*
X877Y4331D01*
X878Y4331D01*
X879Y4331D01*
X880Y4331D01*
X881Y4331D01*
X882Y4331D01*
X883Y4331D01*
X884Y4331D01*
X885Y4331D01*
X886Y4331D01*
X887Y4331D01*
X888Y4331D01*
X889Y4331D01*
X890Y4331D01*
X891Y4331D01*
X892Y4331D01*
X893Y4331D01*
X894Y4331D01*
X895Y4331D01*
X896Y4331D01*
X897Y4331D01*
X898Y4331D01*
X899Y4331D01*
X900Y4331D01*
X901Y4331D01*
X902Y4331D01*
X903Y4331D01*
X904Y4331D01*
X905Y4331D01*
X906Y4331D01*
X907Y4331D01*
X908Y4331D01*
X909Y4331D01*
X910Y4331D01*
X911Y4331D01*
X912Y4331D01*
X913Y4331D01*
X914Y4331D01*
X915Y4331D01*
X916Y4331D01*
X917Y4331D01*
X918Y4331D01*
X919Y4331D01*
X920Y4331D01*
X921Y4331D01*
X922Y4331D01*
X923Y4331D01*
X924Y4331D01*
X925Y4331D01*
X926Y4331D01*
X927Y4331D01*
X928Y4331D01*
X929Y4331D01*
X930Y4331D01*
X931Y4331D01*
X932Y4331D01*
X933Y4331D01*
X934Y4331D01*
X935Y4331D01*
X936Y4331D01*
X937Y4331D01*
X938Y4331D01*
X939Y4331D01*
X940Y4331D01*
X941Y4331D01*
X942Y4331D01*
X943Y4331D01*
X944Y4331D01*
X945Y4331D01*
X946Y4331D01*
X947Y4331D01*
X948Y4331D01*
X949Y4331D01*
X950Y4331D01*
X951Y4331D01*
X952Y4331D01*
X953Y4331D01*
X954Y4331D01*
X955Y4331D01*
X956Y4331D01*
X957Y4331D01*
X958Y4331D01*
X959Y4331D01*
X960Y4331D01*
X961Y4331D01*
X962Y4331D01*
X963Y4331D01*
X964Y4331D01*
X965Y4331D01*
X966Y4331D01*
X967Y4331D01*
X968Y4331D01*
X969Y4331D01*
X970Y4331D01*
X971Y4331D01*
X972Y4331D01*
X973Y4331D01*
X974Y4331D01*
X975Y4331D01*
X976Y4331D01*
X977Y4331D01*
X978Y4331D01*
X979Y4331D01*
X980Y4331D01*
X981Y4331D01*
X982Y4331D01*
X983Y4331D01*
X984Y4331D01*
X985Y4331D01*
X986Y4331D01*
X987Y4331D01*
X988Y4331D01*
X989Y4331D01*
X990Y4331D01*
X991Y4331D01*
X992Y4331D01*
X993Y4331D01*
X994Y4331D01*
X995Y4331D01*
X996Y4331D01*
X997Y4331D01*
X998Y4331D01*
X999Y4331D01*
X1000Y4331D01*
X1001Y4331D01*
X1002Y4331D01*
X1003Y4331D01*
X1004Y4331D01*
X1005Y4331D01*
X1006Y4331D01*
X1007Y4331D01*
X1008Y4331D01*
X1009Y4331D01*
X1010Y4331D01*
X1011Y4331D01*
X1012Y4331D01*
X1013Y4331D01*
X1014Y4331D01*
X1015Y4331D01*
X1016Y4331D01*
X1017Y4331D01*
X1018Y4331D01*
X1019Y4331D01*
X1020Y4331D01*
X1021Y4331D01*
X1022Y4331D01*
X1023Y4331D01*
X1024Y4331D01*
X1025Y4331D01*
X1026Y4331D01*
X1027Y4331D01*
X1028Y4331D01*
X1029Y4331D01*
X1030Y4331D01*
X1031Y4331D01*
X1032Y4331D01*
X1033Y4331D01*
X1034Y4331D01*
X1035Y4331D01*
X1036Y4331D01*
X1037Y4331D01*
X1038Y4331D01*
X1039Y4331D01*
X1040Y4331D01*
X1041Y4331D01*
X1042Y4331D01*
X1043Y4331D01*
X1044Y4331D01*
X1045Y4331D01*
X1046Y4331D01*
X1047Y4331D01*
X1048Y4331D01*
X1049Y4331D01*
X1050Y4331D01*
X1051Y4331D01*
X1052Y4331D01*
X1053Y4331D01*
X1054Y4331D01*
X1055Y4331D01*
X1056Y4331D01*
X1057Y4331D01*
X1058Y4331D01*
X1059Y4331D01*
X1060Y4331D01*
X1061Y4331D01*
X1062Y4331D01*
X1063Y4331D01*
X1064Y4331D01*
X1065Y4331D01*
X1066Y4331D01*
X1067Y4331D01*
X1068Y4331D01*
X1069Y4331D01*
X1070Y4331D01*
X1071Y4331D01*
X1072Y4331D01*
X1073Y4331D01*
X1074Y4331D01*
X1075Y4331D01*
X1076Y4331D01*
X1077Y4331D01*
X1078Y4331D01*
X1079Y4331D01*
X1080Y4331D01*
X1081Y4331D01*
X1082Y4331D01*
X1083Y4331D01*
X1084Y4331D01*
X1085Y4331D01*
X1086Y4331D01*
X1087Y4331D01*
X1088Y4331D01*
X1089Y4331D01*
X1090Y4331D01*
X1091Y4331D01*
X1092Y4331D01*
X1093Y4331D01*
X1094Y4331D01*
X1095Y4331D01*
X1096Y4331D01*
X1097Y4331D01*
X1098Y4331D01*
X1099Y4331D01*
X1100Y4331D01*
X1101Y4331D01*
X1102Y4331D01*
X1103Y4331D01*
X1104Y4331D01*
X1105Y4331D01*
X1106Y4331D01*
X1107Y4331D01*
X1108Y4331D01*
X1109Y4331D01*
X1110Y4331D01*
X1111Y4331D01*
X1112Y4331D01*
X1113Y4331D01*
X1114Y4331D01*
X1115Y4331D01*
X1116Y4331D01*
X1117Y4331D01*
X1118Y4331D01*
X1119Y4331D01*
X1120Y4331D01*
X1121Y4331D01*
X1122Y4331D01*
X1123Y4331D01*
X1124Y4331D01*
X1125Y4331D01*
X1126Y4331D01*
X1127Y4331D01*
X1128Y4331D01*
X1129Y4331D01*
X1130Y4331D01*
X1131Y4331D01*
X1132Y4331D01*
X1133Y4331D01*
X1134Y4331D01*
X1135Y4331D01*
X1136Y4331D01*
X1137Y4331D01*
X1138Y4331D01*
X1139Y4331D01*
X1140Y4331D01*
X1141Y4331D01*
X1142Y4331D01*
X1143Y4331D01*
X1144Y4331D01*
X1145Y4330D01*
X1146Y4330D01*
X1147Y4330D01*
X1148Y4329D01*
X1149Y4329D01*
X1150Y4329D01*
X1151Y4328D01*
X1152Y4328D01*
X1153Y4327D01*
X1154Y4327D01*
X1155Y4326D01*
X1156Y4325D01*
X1157Y4325D01*
X1158Y4324D01*
X1159Y4323D01*
X1160Y4322D01*
X1161Y4321D01*
X1162Y4320D01*
X1163Y4319D01*
X1164Y4318D01*
X1165Y4317D01*
X1165Y4316D01*
X1166Y4315D01*
X1167Y4314D01*
X1168Y4313D01*
X1168Y4312D01*
X1169Y4311D01*
X1169Y4310D01*
X1170Y4309D01*
X1170Y4308D01*
X1171Y4307D01*
X1171Y4306D01*
X1172Y4305D01*
X1172Y4304D01*
X1173Y4303D01*
X1173Y4302D01*
X1174Y4301D01*
X1174Y4299D01*
X1175Y4298D01*
X1175Y4296D01*
X1176Y4295D01*
X1176Y4293D01*
X1177Y4292D01*
X1177Y4289D01*
X1178Y4288D01*
X1178Y4284D01*
X1179Y4283D01*
X1179Y4277D01*
X1180Y4276D01*
X1180Y57D01*
X1179Y56D01*
X1179Y50D01*
X1178Y49D01*
X1178Y45D01*
X1177Y44D01*
X1177Y41D01*
X1176Y40D01*
X1176Y38D01*
X1175Y37D01*
X1175Y35D01*
X1174Y34D01*
X1174Y32D01*
X1173Y31D01*
X1173Y30D01*
X1172Y29D01*
X1172Y28D01*
X1171Y27D01*
X1171Y26D01*
X1170Y25D01*
X1170Y24D01*
X1169Y23D01*
X1169Y22D01*
X1168Y21D01*
X1168Y20D01*
X1167Y19D01*
X1166Y18D01*
X1165Y17D01*
X1165Y16D01*
X1164Y15D01*
X1163Y14D01*
X1162Y13D01*
X1161Y12D01*
X1160Y11D01*
X1159Y10D01*
X1158Y9D01*
X1157Y8D01*
X1156Y8D01*
X1155Y7D01*
X1154Y6D01*
X1153Y6D01*
X1152Y5D01*
X1151Y5D01*
X1150Y4D01*
X1149Y4D01*
X1148Y4D01*
X1147Y3D01*
X1146Y3D01*
X1145Y3D01*
X1144Y2D01*
X1143Y2D01*
X1142Y2D01*
X1141Y2D01*
X1140Y2D01*
X1139Y2D01*
X1138Y2D01*
X1137Y2D01*
X1136Y2D01*
X1135Y2D01*
X1134Y2D01*
X1133Y2D01*
X1132Y2D01*
X1131Y2D01*
X1130Y2D01*
X1129Y2D01*
X1128Y2D01*
X1127Y2D01*
X1126Y2D01*
X1125Y2D01*
X1124Y2D01*
X1123Y2D01*
X1122Y2D01*
X1121Y2D01*
X1120Y2D01*
X1119Y2D01*
X1118Y2D01*
X1117Y2D01*
X1116Y2D01*
X1115Y2D01*
X1114Y2D01*
X1113Y2D01*
X1112Y2D01*
X1111Y2D01*
X1110Y2D01*
X1109Y2D01*
X1108Y2D01*
X1107Y2D01*
X1106Y2D01*
X1105Y2D01*
X1104Y2D01*
X1103Y2D01*
X1102Y2D01*
X1101Y2D01*
X1100Y2D01*
X1099Y2D01*
X1098Y2D01*
X1097Y2D01*
X1096Y2D01*
X1095Y2D01*
X1094Y2D01*
X1093Y2D01*
X1092Y2D01*
X1091Y2D01*
X1090Y2D01*
X1089Y2D01*
X1088Y2D01*
X1087Y2D01*
X1086Y2D01*
X1085Y2D01*
X1084Y2D01*
X1083Y2D01*
X1082Y2D01*
X1081Y2D01*
X1080Y2D01*
X1079Y2D01*
X1078Y2D01*
X1077Y2D01*
X1076Y2D01*
X1075Y2D01*
X1074Y2D01*
X1073Y2D01*
X1072Y2D01*
X1071Y2D01*
X1070Y2D01*
X1069Y2D01*
X1068Y2D01*
X1067Y2D01*
X1066Y2D01*
X1065Y2D01*
X1064Y2D01*
X1063Y2D01*
X1062Y2D01*
X1061Y2D01*
X1060Y2D01*
X1059Y2D01*
X1058Y2D01*
X1057Y2D01*
X1056Y2D01*
X1055Y2D01*
X1054Y2D01*
X1053Y2D01*
X1052Y2D01*
X1051Y2D01*
X1050Y2D01*
X1049Y2D01*
X1048Y2D01*
X1047Y2D01*
X1046Y2D01*
X1045Y2D01*
X1044Y2D01*
X1043Y2D01*
X1042Y2D01*
X1041Y2D01*
X1040Y2D01*
X1039Y2D01*
X1038Y2D01*
X1037Y2D01*
X1036Y2D01*
X1035Y2D01*
X1034Y2D01*
X1033Y2D01*
X1032Y2D01*
X1031Y2D01*
X1030Y2D01*
X1029Y2D01*
X1028Y2D01*
X1027Y2D01*
X1026Y2D01*
X1025Y2D01*
X1024Y2D01*
X1023Y2D01*
X1022Y2D01*
X1021Y2D01*
X1020Y2D01*
X1019Y2D01*
X1018Y2D01*
X1017Y2D01*
X1016Y2D01*
X1015Y2D01*
X1014Y2D01*
X1013Y2D01*
X1012Y2D01*
X1011Y2D01*
X1010Y2D01*
X1009Y2D01*
X1008Y2D01*
X1007Y2D01*
X1006Y2D01*
X1005Y2D01*
X1004Y2D01*
X1003Y2D01*
X1002Y2D01*
X1001Y2D01*
X1000Y2D01*
X999Y2D01*
X998Y2D01*
X997Y2D01*
X996Y2D01*
X995Y2D01*
X994Y2D01*
X993Y2D01*
X992Y2D01*
X991Y2D01*
X990Y2D01*
X989Y2D01*
X988Y2D01*
X987Y2D01*
X986Y2D01*
X985Y2D01*
X984Y2D01*
X983Y2D01*
X982Y2D01*
X981Y2D01*
X980Y2D01*
X979Y2D01*
X978Y2D01*
X977Y2D01*
X976Y2D01*
X975Y2D01*
X974Y2D01*
X973Y2D01*
X972Y2D01*
X971Y2D01*
X970Y2D01*
X969Y2D01*
X968Y2D01*
X967Y2D01*
X966Y2D01*
X965Y2D01*
X964Y2D01*
X963Y2D01*
X962Y2D01*
X961Y2D01*
X960Y2D01*
X959Y2D01*
X958Y2D01*
X957Y2D01*
X956Y2D01*
X955Y2D01*
X954Y2D01*
X953Y2D01*
X952Y2D01*
X951Y2D01*
X950Y2D01*
X949Y2D01*
X948Y2D01*
X947Y2D01*
X946Y2D01*
X945Y2D01*
X944Y2D01*
X943Y2D01*
X942Y2D01*
X941Y2D01*
X940Y2D01*
X939Y2D01*
X938Y2D01*
X937Y2D01*
X936Y2D01*
X935Y2D01*
X934Y2D01*
X933Y2D01*
X932Y2D01*
X931Y2D01*
X930Y2D01*
X929Y2D01*
X928Y2D01*
X927Y2D01*
X926Y2D01*
X925Y2D01*
X924Y2D01*
X923Y2D01*
X922Y2D01*
X921Y2D01*
X920Y2D01*
X919Y2D01*
X918Y2D01*
X917Y2D01*
X916Y2D01*
X915Y2D01*
X914Y2D01*
X913Y2D01*
X912Y2D01*
X911Y2D01*
X910Y2D01*
X909Y2D01*
X908Y2D01*
X907Y2D01*
X906Y2D01*
X905Y2D01*
X904Y2D01*
X903Y2D01*
X902Y2D01*
X901Y2D01*
X900Y2D01*
X899Y2D01*
X898Y2D01*
X897Y2D01*
X896Y2D01*
X895Y2D01*
X894Y2D01*
X893Y2D01*
X892Y2D01*
X891Y2D01*
X890Y2D01*
X889Y2D01*
X888Y2D01*
X887Y2D01*
X886Y2D01*
X885Y2D01*
X884Y2D01*
X883Y2D01*
X882Y2D01*
X881Y2D01*
X880Y2D01*
X879Y2D01*
X878Y2D01*
X877Y2D01*
X876Y2D01*
X875Y2D01*
X874Y2D01*
X873Y2D01*
X872Y2D01*
X871Y2D01*
X870Y2D01*
X869Y2D01*
X868Y2D01*
X867Y2D01*
X866Y2D01*
X865Y2D01*
X864Y2D01*
X863Y2D01*
X862Y2D01*
X861Y2D01*
X860Y2D01*
X859Y2D01*
X858Y2D01*
X857Y2D01*
X856Y2D01*
X855Y2D01*
X854Y2D01*
X853Y2D01*
X852Y2D01*
X851Y2D01*
X850Y2D01*
X849Y2D01*
X848Y2D01*
X847Y2D01*
X846Y2D01*
X845Y2D01*
X844Y2D01*
X843Y2D01*
X842Y2D01*
X841Y2D01*
X840Y2D01*
X839Y2D01*
X838Y2D01*
X837Y2D01*
X836Y2D01*
X835Y2D01*
X834Y2D01*
X833Y2D01*
X832Y2D01*
X831Y2D01*
X830Y2D01*
X829Y2D01*
X828Y2D01*
X827Y2D01*
X826Y2D01*
X825Y2D01*
X824Y2D01*
X823Y2D01*
X822Y2D01*
X821Y2D01*
X820Y2D01*
X819Y2D01*
X818Y2D01*
X817Y2D01*
X816Y2D01*
X815Y2D01*
X814Y2D01*
X813Y2D01*
X812Y2D01*
X811Y2D01*
X810Y2D01*
X809Y2D01*
X808Y2D01*
X807Y2D01*
X806Y2D01*
X805Y2D01*
X804Y2D01*
X803Y2D01*
X802Y2D01*
X801Y2D01*
X800Y2D01*
X799Y2D01*
X798Y2D01*
X797Y2D01*
X796Y2D01*
X795Y2D01*
X794Y2D01*
X793Y2D01*
X792Y2D01*
X791Y2D01*
X790Y2D01*
X789Y2D01*
X788Y2D01*
X787Y2D01*
X786Y2D01*
X785Y2D01*
X784Y2D01*
X783Y2D01*
X782Y2D01*
X781Y2D01*
X780Y2D01*
X779Y2D01*
X778Y2D01*
X777Y2D01*
X776Y2D01*
X775Y2D01*
X774Y2D01*
X773Y2D01*
X772Y2D01*
X771Y2D01*
X770Y2D01*
X769Y2D01*
X768Y2D01*
X767Y2D01*
X766Y2D01*
X765Y2D01*
X764Y2D01*
X763Y2D01*
X762Y2D01*
X761Y2D01*
X760Y2D01*
X759Y2D01*
X758Y2D01*
X757Y2D01*
X756Y2D01*
X755Y2D01*
X754Y2D01*
X753Y2D01*
X752Y2D01*
X751Y2D01*
X750Y2D01*
X749Y2D01*
X748Y2D01*
X747Y2D01*
X746Y2D01*
X745Y2D01*
X744Y2D01*
X743Y2D01*
X742Y2D01*
X741Y2D01*
X740Y2D01*
X739Y2D01*
X738Y2D01*
X737Y2D01*
X736Y2D01*
X735Y2D01*
X734Y2D01*
X733Y2D01*
X732Y2D01*
X731Y2D01*
X730Y2D01*
X729Y2D01*
X728Y2D01*
X727Y2D01*
X726Y2D01*
X725Y2D01*
X724Y2D01*
X723Y2D01*
X722Y2D01*
X721Y2D01*
X720Y2D01*
X719Y2D01*
X718Y2D01*
X717Y2D01*
X716Y2D01*
X715Y2D01*
X714Y2D01*
X713Y2D01*
X712Y2D01*
X711Y2D01*
X710Y2D01*
X709Y2D01*
X708Y2D01*
X707Y2D01*
X706Y2D01*
X705Y2D01*
X704Y2D01*
X703Y2D01*
X702Y2D01*
X701Y2D01*
X700Y2D01*
X699Y2D01*
X698Y2D01*
X697Y2D01*
X696Y2D01*
X695Y2D01*
X694Y2D01*
X693Y2D01*
X692Y2D01*
X691Y2D01*
X690Y2D01*
X689Y2D01*
X688Y2D01*
X687Y2D01*
X686Y2D01*
X685Y2D01*
X684Y2D01*
X683Y2D01*
X682Y2D01*
X681Y2D01*
X680Y2D01*
X679Y2D01*
X678Y2D01*
X677Y2D01*
X676Y2D01*
X675Y2D01*
X674Y2D01*
X673Y2D01*
X672Y2D01*
X671Y2D01*
X670Y2D01*
X669Y2D01*
X668Y2D01*
X667Y2D01*
X666Y2D01*
X665Y2D01*
X664Y2D01*
X663Y2D01*
X662Y2D01*
X661Y2D01*
X660Y2D01*
X659Y2D01*
X658Y2D01*
X657Y2D01*
X656Y2D01*
X655Y2D01*
X654Y2D01*
X653Y2D01*
X652Y2D01*
X651Y2D01*
X650Y2D01*
X649Y2D01*
X648Y2D01*
X647Y2D01*
X646Y2D01*
X645Y2D01*
X644Y2D01*
X643Y2D01*
X642Y2D01*
X641Y2D01*
X640Y2D01*
X639Y2D01*
X638Y2D01*
X637Y2D01*
X636Y2D01*
X635Y2D01*
X634Y2D01*
X633Y2D01*
X632Y2D01*
X631Y2D01*
X630Y2D01*
X629Y2D01*
X628Y2D01*
X627Y2D01*
X626Y2D01*
X625Y2D01*
X624Y2D01*
X623Y2D01*
X622Y2D01*
X621Y2D01*
X620Y2D01*
X619Y2D01*
X618Y2D01*
X617Y2D01*
X616Y2D01*
X615Y2D01*
X614Y2D01*
X613Y2D01*
X612Y2D01*
X611Y2D01*
X610Y2D01*
X609Y2D01*
X608Y2D01*
X607Y2D01*
X606Y2D01*
X605Y2D01*
X604Y2D01*
X603Y2D01*
X602Y2D01*
X601Y2D01*
X600Y2D01*
X599Y2D01*
X598Y2D01*
X597Y2D01*
X596Y2D01*
X595Y2D01*
X594Y2D01*
X593Y2D01*
X592Y2D01*
X591Y2D01*
X590Y2D01*
X589Y2D01*
X588Y2D01*
X587Y2D01*
X586Y2D01*
X585Y2D01*
X584Y2D01*
X583Y2D01*
X582Y2D01*
X581Y2D01*
X580Y2D01*
X579Y2D01*
X578Y2D01*
X577Y2D01*
X576Y2D01*
X575Y2D01*
X574Y2D01*
X573Y2D01*
X572Y2D01*
X571Y2D01*
X570Y2D01*
X569Y2D01*
X568Y2D01*
X567Y2D01*
X566Y2D01*
X565Y2D01*
X564Y2D01*
X563Y2D01*
X562Y2D01*
X561Y2D01*
X560Y2D01*
X559Y2D01*
X558Y2D01*
X557Y2D01*
X556Y2D01*
X555Y2D01*
X554Y2D01*
X553Y2D01*
X552Y2D01*
X551Y2D01*
X550Y2D01*
X549Y2D01*
X548Y2D01*
X547Y2D01*
X546Y2D01*
X545Y2D01*
X544Y2D01*
X543Y2D01*
X542Y2D01*
X541Y2D01*
X540Y2D01*
X539Y2D01*
X538Y2D01*
X537Y2D01*
X536Y2D01*
X535Y2D01*
X534Y2D01*
X533Y2D01*
X532Y2D01*
X531Y2D01*
X530Y2D01*
X529Y2D01*
X528Y2D01*
X527Y2D01*
X526Y2D01*
X525Y2D01*
X524Y2D01*
X523Y2D01*
X522Y2D01*
X521Y2D01*
X520Y2D01*
X519Y2D01*
X518Y2D01*
X517Y2D01*
X516Y2D01*
X515Y2D01*
X514Y2D01*
X513Y2D01*
X512Y2D01*
X511Y2D01*
X510Y2D01*
X509Y2D01*
X508Y2D01*
X507Y2D01*
X506Y2D01*
X505Y2D01*
X504Y2D01*
X503Y2D01*
X502Y2D01*
X501Y2D01*
X500Y2D01*
X499Y2D01*
X498Y2D01*
X497Y2D01*
X496Y2D01*
X495Y2D01*
X494Y2D01*
X493Y2D01*
X492Y2D01*
X491Y2D01*
X490Y2D01*
X489Y2D01*
X488Y2D01*
X487Y2D01*
X486Y2D01*
X485Y2D01*
X484Y2D01*
X483Y2D01*
X482Y2D01*
X481Y2D01*
X480Y2D01*
X479Y2D01*
X478Y2D01*
X477Y2D01*
X476Y2D01*
X475Y2D01*
X474Y2D01*
X473Y2D01*
X472Y2D01*
X471Y2D01*
X470Y2D01*
X469Y2D01*
X468Y2D01*
X467Y2D01*
X466Y2D01*
X465Y2D01*
X464Y2D01*
X463Y2D01*
X462Y2D01*
X461Y2D01*
X460Y2D01*
X459Y2D01*
X458Y2D01*
X457Y2D01*
X456Y2D01*
X455Y2D01*
X454Y2D01*
X453Y2D01*
X452Y2D01*
X451Y2D01*
X450Y2D01*
X449Y2D01*
X448Y2D01*
X447Y2D01*
X446Y2D01*
X445Y2D01*
X444Y2D01*
X443Y2D01*
X442Y2D01*
X441Y2D01*
X440Y2D01*
X439Y2D01*
X438Y2D01*
X437Y2D01*
X436Y2D01*
X435Y2D01*
X434Y2D01*
X433Y2D01*
X432Y2D01*
X431Y2D01*
X430Y2D01*
X429Y2D01*
X428Y2D01*
X427Y2D01*
X426Y2D01*
X425Y2D01*
X424Y2D01*
X423Y2D01*
X422Y2D01*
X421Y2D01*
X420Y2D01*
X419Y2D01*
X418Y2D01*
X417Y2D01*
X416Y2D01*
X415Y2D01*
X414Y2D01*
X413Y2D01*
X412Y2D01*
X411Y2D01*
X410Y2D01*
X409Y2D01*
X408Y2D01*
X407Y2D01*
X406Y2D01*
X405Y2D01*
X404Y2D01*
X403Y2D01*
X402Y2D01*
X401Y2D01*
X400Y2D01*
X399Y2D01*
X398Y2D01*
X397Y2D01*
X396Y2D01*
X395Y2D01*
X394Y2D01*
X393Y2D01*
X392Y2D01*
X391Y2D01*
X390Y2D01*
X389Y2D01*
X388Y2D01*
X387Y2D01*
X386Y2D01*
X385Y2D01*
X384Y2D01*
X383Y2D01*
X382Y2D01*
X381Y2D01*
X380Y2D01*
X379Y2D01*
X378Y2D01*
X377Y2D01*
X376Y2D01*
X375Y2D01*
X374Y2D01*
X373Y2D01*
X372Y2D01*
X371Y2D01*
X370Y2D01*
X369Y2D01*
X368Y2D01*
X367Y2D01*
X366Y2D01*
X365Y2D01*
X364Y2D01*
X363Y2D01*
X362Y2D01*
X361Y2D01*
X360Y2D01*
X359Y2D01*
X358Y2D01*
X357Y2D01*
X356Y2D01*
X355Y2D01*
X354Y2D01*
X353Y2D01*
X352Y2D01*
X351Y2D01*
X350Y2D01*
X349Y2D01*
X348Y2D01*
X347Y2D01*
X346Y2D01*
X345Y2D01*
X344Y2D01*
X343Y2D01*
X342Y2D01*
X341Y2D01*
X340Y2D01*
X339Y2D01*
X338Y2D01*
X337Y2D01*
X336Y2D01*
X335Y2D01*
X334Y2D01*
X333Y2D01*
X332Y2D01*
X331Y2D01*
X330Y2D01*
X329Y2D01*
X328Y2D01*
X327Y2D01*
X326Y2D01*
X325Y2D01*
X324Y2D01*
X323Y2D01*
X322Y2D01*
X321Y2D01*
X320Y2D01*
X319Y2D01*
X318Y2D01*
X317Y2D01*
X316Y2D01*
X315Y2D01*
X314Y2D01*
X313Y2D01*
X312Y2D01*
X311Y2D01*
X310Y2D01*
X309Y2D01*
X308Y2D01*
X307Y2D01*
X306Y2D01*
X305Y2D01*
X304Y2D01*
X303Y2D01*
X302Y2D01*
X301Y2D01*
X300Y2D01*
X299Y2D01*
X298Y2D01*
X297Y2D01*
X296Y2D01*
X295Y2D01*
X294Y2D01*
X293Y2D01*
X292Y2D01*
X291Y2D01*
X290Y2D01*
X289Y2D01*
X288Y2D01*
X287Y2D01*
X286Y2D01*
X285Y2D01*
X284Y2D01*
X283Y2D01*
X282Y2D01*
X281Y2D01*
X280Y2D01*
X279Y2D01*
X278Y2D01*
X277Y2D01*
X276Y2D01*
X275Y2D01*
X274Y2D01*
X273Y2D01*
X272Y2D01*
X271Y2D01*
X270Y2D01*
X269Y2D01*
X268Y2D01*
X267Y2D01*
X266Y2D01*
X265Y2D01*
X264Y2D01*
X263Y2D01*
X262Y2D01*
X261Y2D01*
X260Y2D01*
X259Y2D01*
X258Y2D01*
X257Y2D01*
X256Y2D01*
X255Y2D01*
X254Y2D01*
X253Y2D01*
X252Y2D01*
X251Y2D01*
X250Y2D01*
X249Y2D01*
X248Y2D01*
X247Y2D01*
X246Y2D01*
X245Y2D01*
X244Y2D01*
X243Y2D01*
X242Y2D01*
X241Y2D01*
X240Y2D01*
X239Y2D01*
X238Y2D01*
X237Y2D01*
X236Y2D01*
X235Y2D01*
X234Y2D01*
X233Y2D01*
X232Y2D01*
X231Y2D01*
X230Y2D01*
X229Y2D01*
X228Y2D01*
X227Y2D01*
X226Y2D01*
X225Y2D01*
X224Y2D01*
X223Y2D01*
X222Y2D01*
X221Y2D01*
X220Y2D01*
X219Y2D01*
X218Y2D01*
X217Y2D01*
X216Y2D01*
X215Y2D01*
X214Y2D01*
X213Y2D01*
X212Y2D01*
X211Y2D01*
X210Y2D01*
X209Y2D01*
X208Y2D01*
X207Y2D01*
X206Y2D01*
X205Y2D01*
X204Y2D01*
X203Y2D01*
X202Y2D01*
X201Y2D01*
X200Y2D01*
X199Y2D01*
X198Y2D01*
X197Y2D01*
X196Y2D01*
X195Y2D01*
X194Y2D01*
X193Y2D01*
X192Y2D01*
X191Y2D01*
X190Y2D01*
X189Y2D01*
X188Y2D01*
X187Y2D01*
X186Y2D01*
X185Y2D01*
X184Y2D01*
X183Y2D01*
X182Y2D01*
X181Y2D01*
X180Y2D01*
X179Y2D01*
X178Y2D01*
X177Y2D01*
X176Y2D01*
X175Y2D01*
X174Y2D01*
X173Y2D01*
X172Y2D01*
X171Y2D01*
X170Y2D01*
X169Y2D01*
X168Y2D01*
X167Y2D01*
X166Y2D01*
X165Y2D01*
X164Y2D01*
X163Y2D01*
X162Y2D01*
X161Y2D01*
X160Y2D01*
X159Y2D01*
X158Y2D01*
X157Y2D01*
X156Y2D01*
X155Y2D01*
X154Y2D01*
X153Y2D01*
X152Y2D01*
X151Y2D01*
X150Y2D01*
X149Y2D01*
X148Y2D01*
X147Y2D01*
X146Y2D01*
X145Y2D01*
X144Y2D01*
X143Y2D01*
X142Y2D01*
X141Y2D01*
X140Y2D01*
X139Y2D01*
X138Y2D01*
X137Y2D01*
X136Y2D01*
X135Y2D01*
X134Y2D01*
X133Y2D01*
X132Y2D01*
X131Y2D01*
X130Y2D01*
X129Y2D01*
X128Y2D01*
X127Y2D01*
X126Y2D01*
X125Y2D01*
X124Y2D01*
X123Y2D01*
X122Y2D01*
X121Y2D01*
X120Y2D01*
X119Y2D01*
X118Y2D01*
X117Y2D01*
X116Y2D01*
X115Y2D01*
X114Y2D01*
X113Y2D01*
X112Y2D01*
X111Y2D01*
X110Y2D01*
X109Y2D01*
X108Y2D01*
X107Y2D01*
X106Y2D01*
X105Y2D01*
X104Y2D01*
X103Y2D01*
X102Y2D01*
X101Y2D01*
X100Y2D01*
X99Y2D01*
X98Y2D01*
X97Y2D01*
X96Y2D01*
X95Y2D01*
X94Y2D01*
X93Y2D01*
X92Y2D01*
X91Y2D01*
X90Y2D01*
X89Y2D01*
X88Y2D01*
X87Y2D01*
X86Y2D01*
X85Y2D01*
X84Y2D01*
X83Y2D01*
X82Y2D01*
X81Y2D01*
X80Y2D01*
X79Y2D01*
X78Y2D01*
X77Y2D01*
X76Y2D01*
X75Y2D01*
X74Y2D01*
X73Y2D01*
X72Y2D01*
X71Y2D01*
X70Y2D01*
X69Y2D01*
X68Y2D01*
X67Y2D01*
X66Y2D01*
X65Y2D01*
X64Y2D01*
X63Y2D01*
X62Y2D01*
X61Y2D01*
X60Y2D01*
X59Y2D01*
X58Y2D01*
X57Y2D01*
X56Y2D01*
X55Y2D01*
X54Y2D01*
X53Y2D01*
X52Y2D01*
X51Y2D01*
X50Y2D01*
X49Y2D01*
X48Y2D01*
X47Y2D01*
X46Y2D01*
X45Y2D01*
X44Y2D01*
X43Y2D01*
X42Y2D01*
X41Y2D01*
X40Y2D01*
X39Y2D01*
X38Y2D01*
X37Y2D01*
X36Y2D01*
X35Y3D01*
X34Y3D01*
X33Y3D01*
X32Y4D01*
X31Y4D01*
X30Y4D01*
X29Y5D01*
X28Y5D01*
X27Y6D01*
X26Y6D01*
X25Y7D01*
X24Y8D01*
X23Y8D01*
X22Y9D01*
X21Y10D01*
X20Y11D01*
X19Y12D01*
X18Y13D01*
X17Y14D01*
X16Y15D01*
X15Y16D01*
X15Y17D01*
X14Y18D01*
X13Y19D01*
X12Y20D01*
X12Y21D01*
X11Y22D01*
X11Y23D01*
X10Y24D01*
X10Y25D01*
X9Y26D01*
X9Y27D01*
X8Y28D01*
X8Y29D01*
X7Y30D01*
X7Y31D01*
X6Y32D01*
X6Y34D01*
X5Y35D01*
X5Y37D01*
X4Y38D01*
X4Y40D01*
X3Y41D01*
X3Y44D01*
X2Y45D01*
X2Y49D01*
X1Y50D01*
X1Y56D01*
X0Y57D01*
X0Y4276D01*
X1Y4277D01*
X1Y4283D01*
X2Y4284D01*
X2Y4288D01*
X3Y4289D01*
X3Y4292D01*
X4Y4293D01*
X4Y4295D01*
X5Y4296D01*
X5Y4298D01*
X6Y4299D01*
X6Y4301D01*
X7Y4302D01*
X7Y4303D01*
X8Y4304D01*
X8Y4305D01*
X9Y4306D01*
X9Y4307D01*
X10Y4308D01*
X10Y4309D01*
X11Y4310D01*
X11Y4311D01*
X12Y4312D01*
X12Y4313D01*
X13Y4314D01*
X14Y4315D01*
X15Y4316D01*
X15Y4317D01*
X16Y4318D01*
X17Y4319D01*
X18Y4320D01*
X19Y4321D01*
X20Y4322D01*
X21Y4323D01*
X22Y4324D01*
X23Y4325D01*
X24Y4325D01*
X25Y4326D01*
X26Y4327D01*
X27Y4327D01*
X28Y4328D01*
X29Y4328D01*
X30Y4329D01*
X31Y4329D01*
X32Y4329D01*
X33Y4330D01*
X34Y4330D01*
X35Y4330D01*
X36Y4331D01*
D02*
G04 End of contour*
M02*