G04 MADE WITH FRITZING*
G04 WWW.FRITZING.ORG*
G04 DOUBLE SIDED*
G04 HOLES PLATED*
G04 CONTOUR ON CENTER OF CONTOUR VECTOR*
%ASAXBY*%
%FSLAX23Y23*%
%MOIN*%
%OFA0B0*%
%SFA1.0B1.0*%
%ADD10C,0.077559*%
%ADD11C,0.095000*%
%ADD12C,0.097500*%
%ADD13C,0.084000*%
%ADD14C,0.100000*%
%ADD15C,0.049370*%
%ADD16C,0.085000*%
%ADD17C,0.084667*%
%ADD18C,0.084695*%
%ADD19C,0.134033*%
%ADD20C,0.080000*%
%ADD21R,0.077559X0.077559*%
%ADD22R,0.084000X0.084000*%
%ADD23R,0.100000X0.100000*%
%ADD24R,0.085000X0.085000*%
%LNMASK0*%
G90*
G70*
G54D10*
X78Y2497D03*
X378Y2497D03*
X78Y2597D03*
X378Y2597D03*
X78Y2697D03*
X378Y2697D03*
X78Y2797D03*
X378Y2797D03*
X78Y2897D03*
X378Y2897D03*
X78Y2997D03*
X378Y2997D03*
X78Y3097D03*
X378Y3097D03*
X78Y3197D03*
X378Y3197D03*
X78Y2497D03*
X378Y2497D03*
X78Y2597D03*
X378Y2597D03*
X78Y2697D03*
X378Y2697D03*
X78Y2797D03*
X378Y2797D03*
X78Y2897D03*
X378Y2897D03*
X78Y2997D03*
X378Y2997D03*
X78Y3097D03*
X378Y3097D03*
X78Y3197D03*
X378Y3197D03*
G54D11*
X1123Y177D03*
X999Y177D03*
X674Y177D03*
X1123Y536D03*
X999Y536D03*
X674Y536D03*
X1123Y1270D03*
X999Y1270D03*
X674Y1270D03*
X1123Y902D03*
X999Y902D03*
X674Y902D03*
X1123Y1630D03*
X999Y1630D03*
X674Y1630D03*
X1123Y1988D03*
X999Y1988D03*
X674Y1988D03*
X1123Y2353D03*
X999Y2353D03*
X674Y2353D03*
X189Y3303D03*
X189Y3427D03*
X189Y3752D03*
G54D12*
X812Y693D03*
X620Y693D03*
X812Y693D03*
X620Y693D03*
X812Y1065D03*
X619Y1065D03*
X812Y1065D03*
X619Y1065D03*
X626Y1403D03*
X819Y1403D03*
X626Y1403D03*
X819Y1403D03*
X792Y1817D03*
X600Y1817D03*
X792Y1817D03*
X600Y1817D03*
X887Y2169D03*
X1080Y2169D03*
X887Y2169D03*
X1080Y2169D03*
X626Y2471D03*
X819Y2471D03*
X626Y2471D03*
X819Y2471D03*
X624Y3202D03*
X624Y3010D03*
X214Y3131D03*
X214Y2939D03*
G54D13*
X946Y4203D03*
X846Y4203D03*
X746Y4203D03*
X646Y4203D03*
X546Y4203D03*
X446Y4203D03*
X346Y4203D03*
X246Y4203D03*
X946Y4103D03*
X846Y4103D03*
X746Y4103D03*
X646Y4103D03*
X546Y4103D03*
X446Y4103D03*
X346Y4103D03*
X246Y4103D03*
X946Y4203D03*
X846Y4203D03*
X746Y4203D03*
X646Y4203D03*
X546Y4203D03*
X446Y4203D03*
X346Y4203D03*
X246Y4203D03*
X946Y4103D03*
X846Y4103D03*
X746Y4103D03*
X646Y4103D03*
X546Y4103D03*
X446Y4103D03*
X346Y4103D03*
X246Y4103D03*
X713Y3617D03*
X713Y3317D03*
G54D14*
X956Y2789D03*
X956Y2603D03*
X956Y2974D03*
G54D15*
X471Y1528D03*
X731Y2221D03*
X294Y1058D03*
X199Y1622D03*
X366Y1531D03*
G54D16*
X821Y3614D03*
X1121Y3614D03*
X821Y3514D03*
X1121Y3514D03*
X821Y3414D03*
X1121Y3414D03*
X821Y3314D03*
X1121Y3314D03*
X793Y3153D03*
X893Y3153D03*
X640Y2723D03*
X640Y2623D03*
X778Y3918D03*
X778Y3818D03*
X392Y2329D03*
X92Y2329D03*
X392Y2229D03*
X92Y2229D03*
X392Y2129D03*
X92Y2129D03*
X392Y2029D03*
X92Y2029D03*
X392Y1929D03*
X92Y1929D03*
X392Y1829D03*
X92Y1829D03*
X392Y1729D03*
X92Y1729D03*
X392Y1629D03*
X92Y1629D03*
X392Y2329D03*
X92Y2329D03*
X392Y2229D03*
X92Y2229D03*
X392Y2129D03*
X92Y2129D03*
X392Y2029D03*
X92Y2029D03*
X392Y1929D03*
X92Y1929D03*
X392Y1829D03*
X92Y1829D03*
X392Y1729D03*
X92Y1729D03*
X392Y1629D03*
X92Y1629D03*
G54D17*
X491Y692D03*
X491Y792D03*
G54D18*
X491Y892D03*
G54D19*
X196Y597D03*
X196Y986D03*
G54D17*
X491Y169D03*
X491Y269D03*
G54D18*
X491Y369D03*
G54D19*
X196Y74D03*
X196Y463D03*
G54D17*
X491Y1211D03*
X491Y1311D03*
G54D18*
X491Y1411D03*
G54D19*
X196Y1117D03*
X196Y1505D03*
G54D16*
X217Y2490D03*
X217Y2790D03*
X1057Y3720D03*
X757Y3720D03*
X558Y3794D03*
X558Y3494D03*
X424Y3397D03*
X424Y3697D03*
X472Y3294D03*
X472Y2994D03*
X488Y2860D03*
X488Y2560D03*
G54D20*
X1127Y3914D03*
X927Y3914D03*
X293Y2416D03*
X93Y2416D03*
X501Y2462D03*
X501Y2262D03*
G54D15*
X517Y1623D03*
X773Y2132D03*
G54D21*
X78Y2497D03*
X78Y2497D03*
G54D22*
X946Y4103D03*
X946Y4103D03*
G54D23*
X956Y2974D03*
G54D24*
X821Y3614D03*
X793Y3153D03*
X640Y2723D03*
X778Y3918D03*
X392Y2329D03*
X392Y2329D03*
G04 End of Mask0*
M02*