G04 MADE WITH FRITZING*
G04 WWW.FRITZING.ORG*
G04 DOUBLE SIDED*
G04 HOLES PLATED*
G04 CONTOUR ON CENTER OF CONTOUR VECTOR*
%ASAXBY*%
%FSLAX23Y23*%
%MOIN*%
%OFA0B0*%
%SFA1.0B1.0*%
%ADD10R,0.173200X0.063000X0.157200X0.047000*%
%ADD11C,0.008000*%
%ADD12C,0.010000*%
%ADD13R,0.001000X0.001000*%
%LNSILK0*%
G90*
G70*
G54D11*
X513Y4040D02*
X678Y4040D01*
X678Y3985D01*
X513Y3985D01*
X513Y4040D01*
D02*
G54D12*
X28Y2447D02*
X28Y3247D01*
D02*
X28Y3247D02*
X428Y3247D01*
D02*
X442Y2379D02*
X442Y1579D01*
D02*
X442Y1579D02*
X42Y1579D01*
D02*
X42Y1579D02*
X42Y2379D01*
X855Y755D02*
X855Y780D01*
X579Y780D01*
X579Y755D01*
D02*
X579Y630D02*
X579Y605D01*
X855Y605D01*
X855Y630D01*
D02*
X854Y1128D02*
X854Y1153D01*
X579Y1153D01*
X579Y1128D01*
D02*
X579Y1003D02*
X579Y978D01*
X854Y978D01*
X854Y1003D01*
D02*
X859Y1466D02*
X859Y1491D01*
X584Y1491D01*
X584Y1466D01*
D02*
X835Y1879D02*
X835Y1904D01*
X560Y1904D01*
X560Y1879D01*
D02*
X560Y1754D02*
X560Y1729D01*
X835Y1729D01*
X835Y1754D01*
D02*
X844Y2107D02*
X844Y2082D01*
X1120Y2082D01*
X1120Y2107D01*
D02*
X1120Y2232D02*
X1120Y2257D01*
X844Y2257D01*
X844Y2232D01*
D02*
X859Y2533D02*
X859Y2558D01*
X584Y2558D01*
X584Y2533D01*
D02*
G54D13*
X49Y4330D02*
X1143Y4330D01*
X49Y4329D02*
X1143Y4329D01*
X49Y4328D02*
X1143Y4328D01*
X49Y4327D02*
X56Y4327D01*
X1136Y4327D02*
X1143Y4327D01*
X49Y4326D02*
X56Y4326D01*
X1136Y4326D02*
X1143Y4326D01*
X49Y4325D02*
X56Y4325D01*
X1136Y4325D02*
X1143Y4325D01*
X49Y4324D02*
X56Y4324D01*
X1136Y4324D02*
X1143Y4324D01*
X49Y4323D02*
X56Y4323D01*
X1136Y4323D02*
X1143Y4323D01*
X49Y4322D02*
X56Y4322D01*
X1136Y4322D02*
X1143Y4322D01*
X49Y4321D02*
X56Y4321D01*
X1136Y4321D02*
X1143Y4321D01*
X49Y4320D02*
X56Y4320D01*
X1136Y4320D02*
X1143Y4320D01*
X49Y4319D02*
X56Y4319D01*
X1136Y4319D02*
X1143Y4319D01*
X49Y4318D02*
X56Y4318D01*
X1136Y4318D02*
X1143Y4318D01*
X49Y4317D02*
X56Y4317D01*
X1136Y4317D02*
X1143Y4317D01*
X49Y4316D02*
X56Y4316D01*
X1136Y4316D02*
X1143Y4316D01*
X49Y4315D02*
X56Y4315D01*
X1136Y4315D02*
X1143Y4315D01*
X49Y4314D02*
X56Y4314D01*
X1136Y4314D02*
X1143Y4314D01*
X49Y4313D02*
X56Y4313D01*
X1136Y4313D02*
X1143Y4313D01*
X49Y4312D02*
X56Y4312D01*
X1136Y4312D02*
X1143Y4312D01*
X49Y4311D02*
X56Y4311D01*
X1136Y4311D02*
X1143Y4311D01*
X49Y4310D02*
X56Y4310D01*
X1136Y4310D02*
X1143Y4310D01*
X49Y4309D02*
X56Y4309D01*
X1136Y4309D02*
X1143Y4309D01*
X49Y4308D02*
X56Y4308D01*
X1136Y4308D02*
X1143Y4308D01*
X49Y4307D02*
X56Y4307D01*
X1136Y4307D02*
X1143Y4307D01*
X49Y4306D02*
X56Y4306D01*
X1136Y4306D02*
X1143Y4306D01*
X49Y4305D02*
X56Y4305D01*
X1136Y4305D02*
X1143Y4305D01*
X49Y4304D02*
X56Y4304D01*
X1136Y4304D02*
X1143Y4304D01*
X49Y4303D02*
X56Y4303D01*
X1136Y4303D02*
X1143Y4303D01*
X49Y4302D02*
X56Y4302D01*
X1136Y4302D02*
X1143Y4302D01*
X49Y4301D02*
X56Y4301D01*
X1136Y4301D02*
X1143Y4301D01*
X49Y4300D02*
X56Y4300D01*
X1136Y4300D02*
X1143Y4300D01*
X49Y4299D02*
X56Y4299D01*
X1136Y4299D02*
X1143Y4299D01*
X49Y4298D02*
X56Y4298D01*
X1136Y4298D02*
X1143Y4298D01*
X49Y4297D02*
X56Y4297D01*
X1136Y4297D02*
X1143Y4297D01*
X49Y4296D02*
X56Y4296D01*
X1136Y4296D02*
X1143Y4296D01*
X49Y4295D02*
X56Y4295D01*
X1136Y4295D02*
X1143Y4295D01*
X49Y4294D02*
X56Y4294D01*
X1136Y4294D02*
X1143Y4294D01*
X49Y4293D02*
X56Y4293D01*
X1136Y4293D02*
X1143Y4293D01*
X49Y4292D02*
X56Y4292D01*
X86Y4292D02*
X1099Y4292D01*
X1136Y4292D02*
X1143Y4292D01*
X49Y4291D02*
X56Y4291D01*
X85Y4291D02*
X1100Y4291D01*
X1136Y4291D02*
X1143Y4291D01*
X49Y4290D02*
X56Y4290D01*
X85Y4290D02*
X1100Y4290D01*
X1136Y4290D02*
X1143Y4290D01*
X49Y4289D02*
X56Y4289D01*
X85Y4289D02*
X1100Y4289D01*
X1136Y4289D02*
X1143Y4289D01*
X49Y4288D02*
X56Y4288D01*
X85Y4288D02*
X1100Y4288D01*
X1136Y4288D02*
X1143Y4288D01*
X49Y4287D02*
X56Y4287D01*
X85Y4287D02*
X1100Y4287D01*
X1136Y4287D02*
X1143Y4287D01*
X49Y4286D02*
X56Y4286D01*
X85Y4286D02*
X1100Y4286D01*
X1136Y4286D02*
X1143Y4286D01*
X49Y4285D02*
X56Y4285D01*
X85Y4285D02*
X1100Y4285D01*
X1136Y4285D02*
X1143Y4285D01*
X49Y4284D02*
X56Y4284D01*
X85Y4284D02*
X93Y4284D01*
X1092Y4284D02*
X1100Y4284D01*
X1136Y4284D02*
X1143Y4284D01*
X49Y4283D02*
X56Y4283D01*
X85Y4283D02*
X92Y4283D01*
X1093Y4283D02*
X1100Y4283D01*
X1136Y4283D02*
X1143Y4283D01*
X49Y4282D02*
X56Y4282D01*
X85Y4282D02*
X92Y4282D01*
X1093Y4282D02*
X1100Y4282D01*
X1136Y4282D02*
X1143Y4282D01*
X49Y4281D02*
X56Y4281D01*
X85Y4281D02*
X92Y4281D01*
X1093Y4281D02*
X1100Y4281D01*
X1136Y4281D02*
X1143Y4281D01*
X49Y4280D02*
X56Y4280D01*
X85Y4280D02*
X92Y4280D01*
X1093Y4280D02*
X1100Y4280D01*
X1136Y4280D02*
X1143Y4280D01*
X49Y4279D02*
X56Y4279D01*
X85Y4279D02*
X92Y4279D01*
X1093Y4279D02*
X1100Y4279D01*
X1136Y4279D02*
X1143Y4279D01*
X49Y4278D02*
X56Y4278D01*
X85Y4278D02*
X92Y4278D01*
X1093Y4278D02*
X1100Y4278D01*
X1136Y4278D02*
X1143Y4278D01*
X49Y4277D02*
X56Y4277D01*
X85Y4277D02*
X92Y4277D01*
X1093Y4277D02*
X1100Y4277D01*
X1136Y4277D02*
X1143Y4277D01*
X49Y4276D02*
X56Y4276D01*
X85Y4276D02*
X92Y4276D01*
X1093Y4276D02*
X1100Y4276D01*
X1136Y4276D02*
X1143Y4276D01*
X49Y4275D02*
X56Y4275D01*
X85Y4275D02*
X92Y4275D01*
X1093Y4275D02*
X1100Y4275D01*
X1136Y4275D02*
X1143Y4275D01*
X49Y4274D02*
X56Y4274D01*
X85Y4274D02*
X92Y4274D01*
X1093Y4274D02*
X1100Y4274D01*
X1136Y4274D02*
X1143Y4274D01*
X49Y4273D02*
X56Y4273D01*
X85Y4273D02*
X92Y4273D01*
X1093Y4273D02*
X1100Y4273D01*
X1136Y4273D02*
X1143Y4273D01*
X49Y4272D02*
X56Y4272D01*
X85Y4272D02*
X92Y4272D01*
X1093Y4272D02*
X1100Y4272D01*
X1136Y4272D02*
X1143Y4272D01*
X49Y4271D02*
X56Y4271D01*
X85Y4271D02*
X92Y4271D01*
X1093Y4271D02*
X1100Y4271D01*
X1136Y4271D02*
X1143Y4271D01*
X49Y4270D02*
X56Y4270D01*
X85Y4270D02*
X92Y4270D01*
X1093Y4270D02*
X1100Y4270D01*
X1136Y4270D02*
X1143Y4270D01*
X49Y4269D02*
X56Y4269D01*
X85Y4269D02*
X92Y4269D01*
X1093Y4269D02*
X1100Y4269D01*
X1136Y4269D02*
X1143Y4269D01*
X49Y4268D02*
X56Y4268D01*
X85Y4268D02*
X92Y4268D01*
X1093Y4268D02*
X1100Y4268D01*
X1136Y4268D02*
X1143Y4268D01*
X49Y4267D02*
X56Y4267D01*
X85Y4267D02*
X92Y4267D01*
X1093Y4267D02*
X1100Y4267D01*
X1136Y4267D02*
X1143Y4267D01*
X49Y4266D02*
X56Y4266D01*
X85Y4266D02*
X92Y4266D01*
X1093Y4266D02*
X1100Y4266D01*
X1136Y4266D02*
X1143Y4266D01*
X49Y4265D02*
X56Y4265D01*
X85Y4265D02*
X92Y4265D01*
X1093Y4265D02*
X1100Y4265D01*
X1136Y4265D02*
X1143Y4265D01*
X49Y4264D02*
X56Y4264D01*
X85Y4264D02*
X92Y4264D01*
X1093Y4264D02*
X1100Y4264D01*
X1136Y4264D02*
X1143Y4264D01*
X49Y4263D02*
X56Y4263D01*
X85Y4263D02*
X92Y4263D01*
X1093Y4263D02*
X1100Y4263D01*
X1136Y4263D02*
X1143Y4263D01*
X49Y4262D02*
X56Y4262D01*
X85Y4262D02*
X92Y4262D01*
X1093Y4262D02*
X1100Y4262D01*
X1136Y4262D02*
X1143Y4262D01*
X49Y4261D02*
X56Y4261D01*
X85Y4261D02*
X92Y4261D01*
X1093Y4261D02*
X1100Y4261D01*
X1136Y4261D02*
X1143Y4261D01*
X49Y4260D02*
X56Y4260D01*
X85Y4260D02*
X92Y4260D01*
X1093Y4260D02*
X1100Y4260D01*
X1136Y4260D02*
X1143Y4260D01*
X49Y4259D02*
X56Y4259D01*
X85Y4259D02*
X92Y4259D01*
X1093Y4259D02*
X1100Y4259D01*
X1136Y4259D02*
X1143Y4259D01*
X49Y4258D02*
X56Y4258D01*
X85Y4258D02*
X92Y4258D01*
X1093Y4258D02*
X1100Y4258D01*
X1136Y4258D02*
X1143Y4258D01*
X49Y4257D02*
X56Y4257D01*
X85Y4257D02*
X92Y4257D01*
X1093Y4257D02*
X1100Y4257D01*
X1136Y4257D02*
X1143Y4257D01*
X49Y4256D02*
X56Y4256D01*
X85Y4256D02*
X92Y4256D01*
X1093Y4256D02*
X1100Y4256D01*
X1136Y4256D02*
X1143Y4256D01*
X49Y4255D02*
X56Y4255D01*
X85Y4255D02*
X92Y4255D01*
X1093Y4255D02*
X1100Y4255D01*
X1136Y4255D02*
X1143Y4255D01*
X49Y4254D02*
X56Y4254D01*
X85Y4254D02*
X92Y4254D01*
X1093Y4254D02*
X1100Y4254D01*
X1136Y4254D02*
X1143Y4254D01*
X49Y4253D02*
X56Y4253D01*
X85Y4253D02*
X92Y4253D01*
X1093Y4253D02*
X1100Y4253D01*
X1136Y4253D02*
X1143Y4253D01*
X49Y4252D02*
X56Y4252D01*
X85Y4252D02*
X92Y4252D01*
X1093Y4252D02*
X1100Y4252D01*
X1136Y4252D02*
X1143Y4252D01*
X49Y4251D02*
X56Y4251D01*
X85Y4251D02*
X92Y4251D01*
X1093Y4251D02*
X1100Y4251D01*
X1136Y4251D02*
X1143Y4251D01*
X49Y4250D02*
X56Y4250D01*
X85Y4250D02*
X92Y4250D01*
X1093Y4250D02*
X1100Y4250D01*
X1136Y4250D02*
X1143Y4250D01*
X49Y4249D02*
X56Y4249D01*
X85Y4249D02*
X92Y4249D01*
X1093Y4249D02*
X1100Y4249D01*
X1136Y4249D02*
X1143Y4249D01*
X49Y4248D02*
X56Y4248D01*
X85Y4248D02*
X92Y4248D01*
X1093Y4248D02*
X1100Y4248D01*
X1136Y4248D02*
X1143Y4248D01*
X49Y4247D02*
X56Y4247D01*
X85Y4247D02*
X92Y4247D01*
X1093Y4247D02*
X1100Y4247D01*
X1136Y4247D02*
X1143Y4247D01*
X49Y4246D02*
X56Y4246D01*
X85Y4246D02*
X92Y4246D01*
X1093Y4246D02*
X1100Y4246D01*
X1136Y4246D02*
X1143Y4246D01*
X49Y4245D02*
X56Y4245D01*
X85Y4245D02*
X92Y4245D01*
X1093Y4245D02*
X1100Y4245D01*
X1136Y4245D02*
X1143Y4245D01*
X49Y4244D02*
X56Y4244D01*
X85Y4244D02*
X92Y4244D01*
X1093Y4244D02*
X1100Y4244D01*
X1136Y4244D02*
X1143Y4244D01*
X49Y4243D02*
X56Y4243D01*
X85Y4243D02*
X92Y4243D01*
X1093Y4243D02*
X1100Y4243D01*
X1136Y4243D02*
X1143Y4243D01*
X49Y4242D02*
X56Y4242D01*
X85Y4242D02*
X92Y4242D01*
X1093Y4242D02*
X1100Y4242D01*
X1136Y4242D02*
X1143Y4242D01*
X49Y4241D02*
X56Y4241D01*
X85Y4241D02*
X92Y4241D01*
X1093Y4241D02*
X1100Y4241D01*
X1136Y4241D02*
X1143Y4241D01*
X49Y4240D02*
X56Y4240D01*
X85Y4240D02*
X92Y4240D01*
X1093Y4240D02*
X1100Y4240D01*
X1136Y4240D02*
X1143Y4240D01*
X49Y4239D02*
X56Y4239D01*
X85Y4239D02*
X92Y4239D01*
X1093Y4239D02*
X1100Y4239D01*
X1136Y4239D02*
X1143Y4239D01*
X49Y4238D02*
X56Y4238D01*
X85Y4238D02*
X92Y4238D01*
X1093Y4238D02*
X1100Y4238D01*
X1136Y4238D02*
X1143Y4238D01*
X49Y4237D02*
X56Y4237D01*
X85Y4237D02*
X92Y4237D01*
X1093Y4237D02*
X1100Y4237D01*
X1136Y4237D02*
X1143Y4237D01*
X49Y4236D02*
X56Y4236D01*
X85Y4236D02*
X92Y4236D01*
X1093Y4236D02*
X1100Y4236D01*
X1136Y4236D02*
X1143Y4236D01*
X49Y4235D02*
X56Y4235D01*
X85Y4235D02*
X92Y4235D01*
X1093Y4235D02*
X1100Y4235D01*
X1136Y4235D02*
X1143Y4235D01*
X49Y4234D02*
X56Y4234D01*
X85Y4234D02*
X92Y4234D01*
X1093Y4234D02*
X1100Y4234D01*
X1136Y4234D02*
X1143Y4234D01*
X49Y4233D02*
X56Y4233D01*
X85Y4233D02*
X92Y4233D01*
X1093Y4233D02*
X1100Y4233D01*
X1136Y4233D02*
X1143Y4233D01*
X49Y4232D02*
X56Y4232D01*
X85Y4232D02*
X92Y4232D01*
X1093Y4232D02*
X1100Y4232D01*
X1136Y4232D02*
X1143Y4232D01*
X49Y4231D02*
X56Y4231D01*
X85Y4231D02*
X92Y4231D01*
X1093Y4231D02*
X1100Y4231D01*
X1136Y4231D02*
X1143Y4231D01*
X49Y4230D02*
X56Y4230D01*
X85Y4230D02*
X92Y4230D01*
X1093Y4230D02*
X1100Y4230D01*
X1136Y4230D02*
X1143Y4230D01*
X49Y4229D02*
X56Y4229D01*
X85Y4229D02*
X92Y4229D01*
X1093Y4229D02*
X1100Y4229D01*
X1136Y4229D02*
X1143Y4229D01*
X49Y4228D02*
X56Y4228D01*
X85Y4228D02*
X92Y4228D01*
X1093Y4228D02*
X1100Y4228D01*
X1136Y4228D02*
X1143Y4228D01*
X49Y4227D02*
X56Y4227D01*
X85Y4227D02*
X92Y4227D01*
X1093Y4227D02*
X1100Y4227D01*
X1136Y4227D02*
X1143Y4227D01*
X49Y4226D02*
X56Y4226D01*
X85Y4226D02*
X92Y4226D01*
X1093Y4226D02*
X1100Y4226D01*
X1136Y4226D02*
X1143Y4226D01*
X49Y4225D02*
X56Y4225D01*
X85Y4225D02*
X92Y4225D01*
X1093Y4225D02*
X1100Y4225D01*
X1136Y4225D02*
X1143Y4225D01*
X49Y4224D02*
X56Y4224D01*
X85Y4224D02*
X92Y4224D01*
X1093Y4224D02*
X1100Y4224D01*
X1136Y4224D02*
X1143Y4224D01*
X49Y4223D02*
X56Y4223D01*
X85Y4223D02*
X92Y4223D01*
X1093Y4223D02*
X1100Y4223D01*
X1136Y4223D02*
X1143Y4223D01*
X49Y4222D02*
X56Y4222D01*
X85Y4222D02*
X92Y4222D01*
X1093Y4222D02*
X1100Y4222D01*
X1136Y4222D02*
X1143Y4222D01*
X49Y4221D02*
X56Y4221D01*
X85Y4221D02*
X92Y4221D01*
X1093Y4221D02*
X1100Y4221D01*
X1136Y4221D02*
X1143Y4221D01*
X49Y4220D02*
X56Y4220D01*
X85Y4220D02*
X92Y4220D01*
X1093Y4220D02*
X1100Y4220D01*
X1136Y4220D02*
X1143Y4220D01*
X49Y4219D02*
X56Y4219D01*
X85Y4219D02*
X92Y4219D01*
X1093Y4219D02*
X1100Y4219D01*
X1136Y4219D02*
X1143Y4219D01*
X49Y4218D02*
X56Y4218D01*
X85Y4218D02*
X92Y4218D01*
X1093Y4218D02*
X1100Y4218D01*
X1136Y4218D02*
X1143Y4218D01*
X49Y4217D02*
X56Y4217D01*
X85Y4217D02*
X92Y4217D01*
X1093Y4217D02*
X1100Y4217D01*
X1136Y4217D02*
X1143Y4217D01*
X49Y4216D02*
X56Y4216D01*
X85Y4216D02*
X92Y4216D01*
X1093Y4216D02*
X1100Y4216D01*
X1136Y4216D02*
X1143Y4216D01*
X49Y4215D02*
X56Y4215D01*
X85Y4215D02*
X92Y4215D01*
X1093Y4215D02*
X1100Y4215D01*
X1136Y4215D02*
X1143Y4215D01*
X49Y4214D02*
X56Y4214D01*
X85Y4214D02*
X92Y4214D01*
X1093Y4214D02*
X1100Y4214D01*
X1136Y4214D02*
X1143Y4214D01*
X49Y4213D02*
X56Y4213D01*
X85Y4213D02*
X92Y4213D01*
X1093Y4213D02*
X1100Y4213D01*
X1136Y4213D02*
X1143Y4213D01*
X49Y4212D02*
X56Y4212D01*
X85Y4212D02*
X92Y4212D01*
X1093Y4212D02*
X1100Y4212D01*
X1136Y4212D02*
X1143Y4212D01*
X49Y4211D02*
X56Y4211D01*
X85Y4211D02*
X92Y4211D01*
X1093Y4211D02*
X1100Y4211D01*
X1136Y4211D02*
X1143Y4211D01*
X49Y4210D02*
X56Y4210D01*
X85Y4210D02*
X92Y4210D01*
X1093Y4210D02*
X1100Y4210D01*
X1136Y4210D02*
X1143Y4210D01*
X49Y4209D02*
X56Y4209D01*
X85Y4209D02*
X92Y4209D01*
X1093Y4209D02*
X1100Y4209D01*
X1136Y4209D02*
X1143Y4209D01*
X49Y4208D02*
X56Y4208D01*
X85Y4208D02*
X92Y4208D01*
X1093Y4208D02*
X1100Y4208D01*
X1136Y4208D02*
X1143Y4208D01*
X49Y4207D02*
X56Y4207D01*
X85Y4207D02*
X92Y4207D01*
X1093Y4207D02*
X1100Y4207D01*
X1136Y4207D02*
X1143Y4207D01*
X49Y4206D02*
X56Y4206D01*
X85Y4206D02*
X92Y4206D01*
X1093Y4206D02*
X1100Y4206D01*
X1136Y4206D02*
X1143Y4206D01*
X49Y4205D02*
X56Y4205D01*
X85Y4205D02*
X92Y4205D01*
X1093Y4205D02*
X1100Y4205D01*
X1136Y4205D02*
X1143Y4205D01*
X49Y4204D02*
X56Y4204D01*
X85Y4204D02*
X92Y4204D01*
X1093Y4204D02*
X1100Y4204D01*
X1136Y4204D02*
X1143Y4204D01*
X49Y4203D02*
X56Y4203D01*
X85Y4203D02*
X92Y4203D01*
X1093Y4203D02*
X1100Y4203D01*
X1136Y4203D02*
X1143Y4203D01*
X49Y4202D02*
X56Y4202D01*
X85Y4202D02*
X92Y4202D01*
X1093Y4202D02*
X1100Y4202D01*
X1136Y4202D02*
X1143Y4202D01*
X49Y4201D02*
X56Y4201D01*
X85Y4201D02*
X92Y4201D01*
X1093Y4201D02*
X1100Y4201D01*
X1136Y4201D02*
X1143Y4201D01*
X49Y4200D02*
X56Y4200D01*
X85Y4200D02*
X92Y4200D01*
X1093Y4200D02*
X1100Y4200D01*
X1136Y4200D02*
X1143Y4200D01*
X49Y4199D02*
X56Y4199D01*
X85Y4199D02*
X92Y4199D01*
X1093Y4199D02*
X1100Y4199D01*
X1136Y4199D02*
X1143Y4199D01*
X49Y4198D02*
X56Y4198D01*
X85Y4198D02*
X92Y4198D01*
X1093Y4198D02*
X1100Y4198D01*
X1136Y4198D02*
X1143Y4198D01*
X49Y4197D02*
X56Y4197D01*
X85Y4197D02*
X92Y4197D01*
X1093Y4197D02*
X1100Y4197D01*
X1136Y4197D02*
X1143Y4197D01*
X49Y4196D02*
X56Y4196D01*
X85Y4196D02*
X92Y4196D01*
X1093Y4196D02*
X1100Y4196D01*
X1136Y4196D02*
X1143Y4196D01*
X49Y4195D02*
X56Y4195D01*
X85Y4195D02*
X92Y4195D01*
X1093Y4195D02*
X1100Y4195D01*
X1136Y4195D02*
X1143Y4195D01*
X49Y4194D02*
X56Y4194D01*
X85Y4194D02*
X92Y4194D01*
X1093Y4194D02*
X1100Y4194D01*
X1136Y4194D02*
X1143Y4194D01*
X49Y4193D02*
X56Y4193D01*
X85Y4193D02*
X92Y4193D01*
X1093Y4193D02*
X1100Y4193D01*
X1136Y4193D02*
X1143Y4193D01*
X49Y4192D02*
X56Y4192D01*
X85Y4192D02*
X92Y4192D01*
X1093Y4192D02*
X1100Y4192D01*
X1136Y4192D02*
X1143Y4192D01*
X49Y4191D02*
X56Y4191D01*
X85Y4191D02*
X92Y4191D01*
X1093Y4191D02*
X1100Y4191D01*
X1136Y4191D02*
X1143Y4191D01*
X49Y4190D02*
X56Y4190D01*
X85Y4190D02*
X92Y4190D01*
X1093Y4190D02*
X1100Y4190D01*
X1136Y4190D02*
X1143Y4190D01*
X49Y4189D02*
X56Y4189D01*
X85Y4189D02*
X92Y4189D01*
X1093Y4189D02*
X1100Y4189D01*
X1136Y4189D02*
X1143Y4189D01*
X49Y4188D02*
X56Y4188D01*
X85Y4188D02*
X92Y4188D01*
X1093Y4188D02*
X1100Y4188D01*
X1136Y4188D02*
X1143Y4188D01*
X49Y4187D02*
X56Y4187D01*
X85Y4187D02*
X92Y4187D01*
X1093Y4187D02*
X1100Y4187D01*
X1136Y4187D02*
X1143Y4187D01*
X49Y4186D02*
X56Y4186D01*
X85Y4186D02*
X92Y4186D01*
X1093Y4186D02*
X1100Y4186D01*
X1136Y4186D02*
X1143Y4186D01*
X49Y4185D02*
X56Y4185D01*
X85Y4185D02*
X92Y4185D01*
X1093Y4185D02*
X1100Y4185D01*
X1136Y4185D02*
X1143Y4185D01*
X49Y4184D02*
X56Y4184D01*
X85Y4184D02*
X92Y4184D01*
X1093Y4184D02*
X1100Y4184D01*
X1136Y4184D02*
X1143Y4184D01*
X49Y4183D02*
X56Y4183D01*
X85Y4183D02*
X92Y4183D01*
X1093Y4183D02*
X1100Y4183D01*
X1136Y4183D02*
X1143Y4183D01*
X49Y4182D02*
X56Y4182D01*
X85Y4182D02*
X92Y4182D01*
X1093Y4182D02*
X1100Y4182D01*
X1136Y4182D02*
X1143Y4182D01*
X49Y4181D02*
X56Y4181D01*
X85Y4181D02*
X92Y4181D01*
X160Y4181D02*
X173Y4181D01*
X1093Y4181D02*
X1100Y4181D01*
X1136Y4181D02*
X1143Y4181D01*
X49Y4180D02*
X56Y4180D01*
X85Y4180D02*
X92Y4180D01*
X159Y4180D02*
X175Y4180D01*
X1093Y4180D02*
X1100Y4180D01*
X1136Y4180D02*
X1143Y4180D01*
X49Y4179D02*
X56Y4179D01*
X85Y4179D02*
X92Y4179D01*
X159Y4179D02*
X176Y4179D01*
X1093Y4179D02*
X1100Y4179D01*
X1136Y4179D02*
X1143Y4179D01*
X49Y4178D02*
X56Y4178D01*
X85Y4178D02*
X92Y4178D01*
X159Y4178D02*
X177Y4178D01*
X1093Y4178D02*
X1100Y4178D01*
X1136Y4178D02*
X1143Y4178D01*
X49Y4177D02*
X56Y4177D01*
X85Y4177D02*
X92Y4177D01*
X159Y4177D02*
X178Y4177D01*
X1093Y4177D02*
X1100Y4177D01*
X1136Y4177D02*
X1143Y4177D01*
X49Y4176D02*
X56Y4176D01*
X85Y4176D02*
X92Y4176D01*
X159Y4176D02*
X178Y4176D01*
X1093Y4176D02*
X1100Y4176D01*
X1136Y4176D02*
X1143Y4176D01*
X49Y4175D02*
X56Y4175D01*
X85Y4175D02*
X92Y4175D01*
X160Y4175D02*
X179Y4175D01*
X1093Y4175D02*
X1100Y4175D01*
X1136Y4175D02*
X1143Y4175D01*
X49Y4174D02*
X56Y4174D01*
X85Y4174D02*
X92Y4174D01*
X171Y4174D02*
X179Y4174D01*
X1093Y4174D02*
X1100Y4174D01*
X1136Y4174D02*
X1143Y4174D01*
X49Y4173D02*
X56Y4173D01*
X85Y4173D02*
X92Y4173D01*
X173Y4173D02*
X179Y4173D01*
X1093Y4173D02*
X1100Y4173D01*
X1136Y4173D02*
X1143Y4173D01*
X49Y4172D02*
X56Y4172D01*
X85Y4172D02*
X92Y4172D01*
X173Y4172D02*
X179Y4172D01*
X1093Y4172D02*
X1100Y4172D01*
X1136Y4172D02*
X1143Y4172D01*
X49Y4171D02*
X56Y4171D01*
X85Y4171D02*
X92Y4171D01*
X128Y4171D02*
X131Y4171D01*
X173Y4171D02*
X179Y4171D01*
X1093Y4171D02*
X1100Y4171D01*
X1136Y4171D02*
X1143Y4171D01*
X49Y4170D02*
X56Y4170D01*
X85Y4170D02*
X92Y4170D01*
X127Y4170D02*
X132Y4170D01*
X173Y4170D02*
X179Y4170D01*
X1093Y4170D02*
X1100Y4170D01*
X1136Y4170D02*
X1143Y4170D01*
X49Y4169D02*
X56Y4169D01*
X85Y4169D02*
X92Y4169D01*
X126Y4169D02*
X132Y4169D01*
X173Y4169D02*
X179Y4169D01*
X1093Y4169D02*
X1100Y4169D01*
X1136Y4169D02*
X1143Y4169D01*
X49Y4168D02*
X56Y4168D01*
X85Y4168D02*
X92Y4168D01*
X126Y4168D02*
X132Y4168D01*
X173Y4168D02*
X179Y4168D01*
X1093Y4168D02*
X1100Y4168D01*
X1136Y4168D02*
X1143Y4168D01*
X49Y4167D02*
X56Y4167D01*
X85Y4167D02*
X92Y4167D01*
X126Y4167D02*
X132Y4167D01*
X173Y4167D02*
X179Y4167D01*
X1093Y4167D02*
X1100Y4167D01*
X1136Y4167D02*
X1143Y4167D01*
X49Y4166D02*
X56Y4166D01*
X85Y4166D02*
X92Y4166D01*
X126Y4166D02*
X132Y4166D01*
X173Y4166D02*
X179Y4166D01*
X1093Y4166D02*
X1100Y4166D01*
X1136Y4166D02*
X1143Y4166D01*
X49Y4165D02*
X56Y4165D01*
X85Y4165D02*
X92Y4165D01*
X126Y4165D02*
X132Y4165D01*
X173Y4165D02*
X179Y4165D01*
X1093Y4165D02*
X1100Y4165D01*
X1136Y4165D02*
X1143Y4165D01*
X49Y4164D02*
X56Y4164D01*
X85Y4164D02*
X92Y4164D01*
X126Y4164D02*
X132Y4164D01*
X173Y4164D02*
X179Y4164D01*
X1093Y4164D02*
X1100Y4164D01*
X1136Y4164D02*
X1143Y4164D01*
X49Y4163D02*
X56Y4163D01*
X85Y4163D02*
X92Y4163D01*
X126Y4163D02*
X132Y4163D01*
X173Y4163D02*
X179Y4163D01*
X1093Y4163D02*
X1100Y4163D01*
X1136Y4163D02*
X1143Y4163D01*
X49Y4162D02*
X56Y4162D01*
X85Y4162D02*
X92Y4162D01*
X126Y4162D02*
X132Y4162D01*
X172Y4162D02*
X179Y4162D01*
X1093Y4162D02*
X1100Y4162D01*
X1136Y4162D02*
X1143Y4162D01*
X49Y4161D02*
X56Y4161D01*
X85Y4161D02*
X92Y4161D01*
X126Y4161D02*
X133Y4161D01*
X171Y4161D02*
X179Y4161D01*
X1093Y4161D02*
X1100Y4161D01*
X1136Y4161D02*
X1143Y4161D01*
X49Y4160D02*
X56Y4160D01*
X85Y4160D02*
X92Y4160D01*
X126Y4160D02*
X178Y4160D01*
X1093Y4160D02*
X1100Y4160D01*
X1136Y4160D02*
X1143Y4160D01*
X49Y4159D02*
X56Y4159D01*
X85Y4159D02*
X92Y4159D01*
X126Y4159D02*
X178Y4159D01*
X1093Y4159D02*
X1100Y4159D01*
X1136Y4159D02*
X1143Y4159D01*
X49Y4158D02*
X56Y4158D01*
X85Y4158D02*
X92Y4158D01*
X126Y4158D02*
X177Y4158D01*
X1093Y4158D02*
X1100Y4158D01*
X1136Y4158D02*
X1143Y4158D01*
X49Y4157D02*
X56Y4157D01*
X85Y4157D02*
X92Y4157D01*
X126Y4157D02*
X176Y4157D01*
X1093Y4157D02*
X1100Y4157D01*
X1136Y4157D02*
X1143Y4157D01*
X49Y4156D02*
X56Y4156D01*
X85Y4156D02*
X92Y4156D01*
X126Y4156D02*
X175Y4156D01*
X1093Y4156D02*
X1100Y4156D01*
X1136Y4156D02*
X1143Y4156D01*
X49Y4155D02*
X56Y4155D01*
X85Y4155D02*
X92Y4155D01*
X126Y4155D02*
X174Y4155D01*
X1093Y4155D02*
X1100Y4155D01*
X1136Y4155D02*
X1143Y4155D01*
X49Y4154D02*
X56Y4154D01*
X85Y4154D02*
X92Y4154D01*
X126Y4154D02*
X170Y4154D01*
X1093Y4154D02*
X1100Y4154D01*
X1136Y4154D02*
X1143Y4154D01*
X49Y4153D02*
X56Y4153D01*
X85Y4153D02*
X92Y4153D01*
X126Y4153D02*
X132Y4153D01*
X1093Y4153D02*
X1100Y4153D01*
X1136Y4153D02*
X1143Y4153D01*
X49Y4152D02*
X56Y4152D01*
X85Y4152D02*
X92Y4152D01*
X126Y4152D02*
X132Y4152D01*
X1093Y4152D02*
X1100Y4152D01*
X1136Y4152D02*
X1143Y4152D01*
X49Y4151D02*
X56Y4151D01*
X85Y4151D02*
X92Y4151D01*
X126Y4151D02*
X132Y4151D01*
X1093Y4151D02*
X1100Y4151D01*
X1136Y4151D02*
X1143Y4151D01*
X49Y4150D02*
X56Y4150D01*
X85Y4150D02*
X92Y4150D01*
X126Y4150D02*
X132Y4150D01*
X1093Y4150D02*
X1100Y4150D01*
X1136Y4150D02*
X1143Y4150D01*
X49Y4149D02*
X56Y4149D01*
X85Y4149D02*
X92Y4149D01*
X127Y4149D02*
X132Y4149D01*
X1093Y4149D02*
X1100Y4149D01*
X1136Y4149D02*
X1143Y4149D01*
X49Y4148D02*
X56Y4148D01*
X85Y4148D02*
X92Y4148D01*
X128Y4148D02*
X131Y4148D01*
X1093Y4148D02*
X1100Y4148D01*
X1136Y4148D02*
X1143Y4148D01*
X49Y4147D02*
X56Y4147D01*
X85Y4147D02*
X92Y4147D01*
X1093Y4147D02*
X1100Y4147D01*
X1136Y4147D02*
X1143Y4147D01*
X49Y4146D02*
X56Y4146D01*
X85Y4146D02*
X92Y4146D01*
X1093Y4146D02*
X1100Y4146D01*
X1136Y4146D02*
X1143Y4146D01*
X49Y4145D02*
X56Y4145D01*
X85Y4145D02*
X92Y4145D01*
X1093Y4145D02*
X1100Y4145D01*
X1136Y4145D02*
X1143Y4145D01*
X49Y4144D02*
X56Y4144D01*
X85Y4144D02*
X92Y4144D01*
X1093Y4144D02*
X1100Y4144D01*
X1136Y4144D02*
X1143Y4144D01*
X49Y4143D02*
X56Y4143D01*
X85Y4143D02*
X92Y4143D01*
X1093Y4143D02*
X1100Y4143D01*
X1136Y4143D02*
X1143Y4143D01*
X49Y4142D02*
X56Y4142D01*
X85Y4142D02*
X92Y4142D01*
X1093Y4142D02*
X1100Y4142D01*
X1136Y4142D02*
X1143Y4142D01*
X49Y4141D02*
X56Y4141D01*
X85Y4141D02*
X92Y4141D01*
X1093Y4141D02*
X1100Y4141D01*
X1136Y4141D02*
X1143Y4141D01*
X49Y4140D02*
X56Y4140D01*
X85Y4140D02*
X92Y4140D01*
X1093Y4140D02*
X1100Y4140D01*
X1136Y4140D02*
X1143Y4140D01*
X49Y4139D02*
X56Y4139D01*
X85Y4139D02*
X92Y4139D01*
X1093Y4139D02*
X1100Y4139D01*
X1136Y4139D02*
X1143Y4139D01*
X49Y4138D02*
X56Y4138D01*
X85Y4138D02*
X92Y4138D01*
X1093Y4138D02*
X1100Y4138D01*
X1136Y4138D02*
X1143Y4138D01*
X49Y4137D02*
X56Y4137D01*
X85Y4137D02*
X92Y4137D01*
X1093Y4137D02*
X1100Y4137D01*
X1136Y4137D02*
X1143Y4137D01*
X49Y4136D02*
X56Y4136D01*
X85Y4136D02*
X92Y4136D01*
X1093Y4136D02*
X1100Y4136D01*
X1136Y4136D02*
X1143Y4136D01*
X49Y4135D02*
X56Y4135D01*
X85Y4135D02*
X92Y4135D01*
X1093Y4135D02*
X1100Y4135D01*
X1136Y4135D02*
X1143Y4135D01*
X49Y4134D02*
X56Y4134D01*
X85Y4134D02*
X92Y4134D01*
X1093Y4134D02*
X1100Y4134D01*
X1136Y4134D02*
X1143Y4134D01*
X49Y4133D02*
X56Y4133D01*
X85Y4133D02*
X92Y4133D01*
X1093Y4133D02*
X1100Y4133D01*
X1136Y4133D02*
X1143Y4133D01*
X49Y4132D02*
X56Y4132D01*
X85Y4132D02*
X92Y4132D01*
X1093Y4132D02*
X1100Y4132D01*
X1136Y4132D02*
X1143Y4132D01*
X49Y4131D02*
X56Y4131D01*
X85Y4131D02*
X92Y4131D01*
X128Y4131D02*
X130Y4131D01*
X175Y4131D02*
X177Y4131D01*
X1093Y4131D02*
X1100Y4131D01*
X1136Y4131D02*
X1143Y4131D01*
X49Y4130D02*
X56Y4130D01*
X85Y4130D02*
X92Y4130D01*
X127Y4130D02*
X132Y4130D01*
X174Y4130D02*
X179Y4130D01*
X1093Y4130D02*
X1100Y4130D01*
X1136Y4130D02*
X1143Y4130D01*
X49Y4129D02*
X56Y4129D01*
X85Y4129D02*
X92Y4129D01*
X126Y4129D02*
X132Y4129D01*
X174Y4129D02*
X179Y4129D01*
X1093Y4129D02*
X1100Y4129D01*
X1136Y4129D02*
X1143Y4129D01*
X49Y4128D02*
X56Y4128D01*
X85Y4128D02*
X92Y4128D01*
X126Y4128D02*
X132Y4128D01*
X173Y4128D02*
X179Y4128D01*
X1093Y4128D02*
X1100Y4128D01*
X1136Y4128D02*
X1143Y4128D01*
X49Y4127D02*
X56Y4127D01*
X85Y4127D02*
X92Y4127D01*
X126Y4127D02*
X132Y4127D01*
X173Y4127D02*
X179Y4127D01*
X1093Y4127D02*
X1100Y4127D01*
X1136Y4127D02*
X1143Y4127D01*
X49Y4126D02*
X56Y4126D01*
X85Y4126D02*
X92Y4126D01*
X126Y4126D02*
X132Y4126D01*
X173Y4126D02*
X179Y4126D01*
X1093Y4126D02*
X1100Y4126D01*
X1136Y4126D02*
X1143Y4126D01*
X49Y4125D02*
X56Y4125D01*
X85Y4125D02*
X92Y4125D01*
X126Y4125D02*
X132Y4125D01*
X173Y4125D02*
X179Y4125D01*
X1093Y4125D02*
X1100Y4125D01*
X1136Y4125D02*
X1143Y4125D01*
X49Y4124D02*
X56Y4124D01*
X85Y4124D02*
X92Y4124D01*
X126Y4124D02*
X132Y4124D01*
X152Y4124D02*
X154Y4124D01*
X173Y4124D02*
X179Y4124D01*
X1093Y4124D02*
X1100Y4124D01*
X1136Y4124D02*
X1143Y4124D01*
X49Y4123D02*
X56Y4123D01*
X85Y4123D02*
X92Y4123D01*
X126Y4123D02*
X132Y4123D01*
X150Y4123D02*
X155Y4123D01*
X173Y4123D02*
X179Y4123D01*
X1093Y4123D02*
X1100Y4123D01*
X1136Y4123D02*
X1143Y4123D01*
X49Y4122D02*
X56Y4122D01*
X85Y4122D02*
X92Y4122D01*
X126Y4122D02*
X132Y4122D01*
X150Y4122D02*
X156Y4122D01*
X173Y4122D02*
X179Y4122D01*
X1093Y4122D02*
X1100Y4122D01*
X1136Y4122D02*
X1143Y4122D01*
X49Y4121D02*
X56Y4121D01*
X85Y4121D02*
X92Y4121D01*
X126Y4121D02*
X132Y4121D01*
X150Y4121D02*
X156Y4121D01*
X173Y4121D02*
X179Y4121D01*
X1093Y4121D02*
X1100Y4121D01*
X1136Y4121D02*
X1143Y4121D01*
X49Y4120D02*
X56Y4120D01*
X85Y4120D02*
X92Y4120D01*
X126Y4120D02*
X132Y4120D01*
X150Y4120D02*
X156Y4120D01*
X173Y4120D02*
X179Y4120D01*
X1093Y4120D02*
X1100Y4120D01*
X1136Y4120D02*
X1143Y4120D01*
X49Y4119D02*
X56Y4119D01*
X85Y4119D02*
X92Y4119D01*
X126Y4119D02*
X132Y4119D01*
X150Y4119D02*
X156Y4119D01*
X173Y4119D02*
X179Y4119D01*
X1093Y4119D02*
X1100Y4119D01*
X1136Y4119D02*
X1143Y4119D01*
X49Y4118D02*
X56Y4118D01*
X85Y4118D02*
X92Y4118D01*
X126Y4118D02*
X132Y4118D01*
X150Y4118D02*
X156Y4118D01*
X173Y4118D02*
X179Y4118D01*
X1093Y4118D02*
X1100Y4118D01*
X1136Y4118D02*
X1143Y4118D01*
X49Y4117D02*
X56Y4117D01*
X85Y4117D02*
X92Y4117D01*
X126Y4117D02*
X132Y4117D01*
X150Y4117D02*
X156Y4117D01*
X173Y4117D02*
X179Y4117D01*
X1093Y4117D02*
X1100Y4117D01*
X1136Y4117D02*
X1143Y4117D01*
X49Y4116D02*
X56Y4116D01*
X85Y4116D02*
X92Y4116D01*
X126Y4116D02*
X132Y4116D01*
X150Y4116D02*
X156Y4116D01*
X173Y4116D02*
X179Y4116D01*
X1093Y4116D02*
X1100Y4116D01*
X1136Y4116D02*
X1143Y4116D01*
X49Y4115D02*
X56Y4115D01*
X85Y4115D02*
X92Y4115D01*
X126Y4115D02*
X132Y4115D01*
X150Y4115D02*
X156Y4115D01*
X173Y4115D02*
X179Y4115D01*
X1093Y4115D02*
X1100Y4115D01*
X1136Y4115D02*
X1143Y4115D01*
X49Y4114D02*
X56Y4114D01*
X85Y4114D02*
X92Y4114D01*
X126Y4114D02*
X132Y4114D01*
X150Y4114D02*
X156Y4114D01*
X173Y4114D02*
X179Y4114D01*
X1093Y4114D02*
X1100Y4114D01*
X1136Y4114D02*
X1143Y4114D01*
X49Y4113D02*
X56Y4113D01*
X85Y4113D02*
X92Y4113D01*
X126Y4113D02*
X132Y4113D01*
X150Y4113D02*
X156Y4113D01*
X173Y4113D02*
X179Y4113D01*
X1093Y4113D02*
X1100Y4113D01*
X1136Y4113D02*
X1143Y4113D01*
X49Y4112D02*
X56Y4112D01*
X85Y4112D02*
X92Y4112D01*
X126Y4112D02*
X132Y4112D01*
X150Y4112D02*
X156Y4112D01*
X173Y4112D02*
X179Y4112D01*
X1093Y4112D02*
X1100Y4112D01*
X1136Y4112D02*
X1143Y4112D01*
X49Y4111D02*
X56Y4111D01*
X85Y4111D02*
X92Y4111D01*
X126Y4111D02*
X132Y4111D01*
X150Y4111D02*
X156Y4111D01*
X173Y4111D02*
X179Y4111D01*
X1093Y4111D02*
X1100Y4111D01*
X1136Y4111D02*
X1143Y4111D01*
X49Y4110D02*
X56Y4110D01*
X85Y4110D02*
X92Y4110D01*
X126Y4110D02*
X132Y4110D01*
X150Y4110D02*
X156Y4110D01*
X173Y4110D02*
X179Y4110D01*
X1093Y4110D02*
X1100Y4110D01*
X1136Y4110D02*
X1143Y4110D01*
X49Y4109D02*
X56Y4109D01*
X85Y4109D02*
X92Y4109D01*
X126Y4109D02*
X132Y4109D01*
X150Y4109D02*
X156Y4109D01*
X173Y4109D02*
X179Y4109D01*
X1093Y4109D02*
X1100Y4109D01*
X1136Y4109D02*
X1143Y4109D01*
X49Y4108D02*
X56Y4108D01*
X85Y4108D02*
X92Y4108D01*
X126Y4108D02*
X132Y4108D01*
X150Y4108D02*
X156Y4108D01*
X173Y4108D02*
X179Y4108D01*
X1093Y4108D02*
X1100Y4108D01*
X1136Y4108D02*
X1143Y4108D01*
X49Y4107D02*
X56Y4107D01*
X85Y4107D02*
X92Y4107D01*
X126Y4107D02*
X132Y4107D01*
X150Y4107D02*
X156Y4107D01*
X173Y4107D02*
X179Y4107D01*
X1093Y4107D02*
X1100Y4107D01*
X1136Y4107D02*
X1143Y4107D01*
X49Y4106D02*
X56Y4106D01*
X85Y4106D02*
X92Y4106D01*
X126Y4106D02*
X132Y4106D01*
X149Y4106D02*
X156Y4106D01*
X173Y4106D02*
X179Y4106D01*
X1093Y4106D02*
X1100Y4106D01*
X1136Y4106D02*
X1143Y4106D01*
X49Y4105D02*
X56Y4105D01*
X85Y4105D02*
X92Y4105D01*
X126Y4105D02*
X132Y4105D01*
X149Y4105D02*
X157Y4105D01*
X173Y4105D02*
X179Y4105D01*
X1093Y4105D02*
X1100Y4105D01*
X1136Y4105D02*
X1143Y4105D01*
X49Y4104D02*
X56Y4104D01*
X85Y4104D02*
X92Y4104D01*
X126Y4104D02*
X133Y4104D01*
X147Y4104D02*
X159Y4104D01*
X173Y4104D02*
X179Y4104D01*
X1093Y4104D02*
X1100Y4104D01*
X1136Y4104D02*
X1143Y4104D01*
X49Y4103D02*
X56Y4103D01*
X85Y4103D02*
X92Y4103D01*
X126Y4103D02*
X179Y4103D01*
X1093Y4103D02*
X1100Y4103D01*
X1136Y4103D02*
X1143Y4103D01*
X49Y4102D02*
X56Y4102D01*
X85Y4102D02*
X92Y4102D01*
X127Y4102D02*
X179Y4102D01*
X1093Y4102D02*
X1100Y4102D01*
X1136Y4102D02*
X1143Y4102D01*
X49Y4101D02*
X56Y4101D01*
X85Y4101D02*
X92Y4101D01*
X127Y4101D02*
X179Y4101D01*
X1093Y4101D02*
X1100Y4101D01*
X1136Y4101D02*
X1143Y4101D01*
X49Y4100D02*
X56Y4100D01*
X85Y4100D02*
X92Y4100D01*
X128Y4100D02*
X178Y4100D01*
X1093Y4100D02*
X1100Y4100D01*
X1136Y4100D02*
X1143Y4100D01*
X49Y4099D02*
X56Y4099D01*
X85Y4099D02*
X92Y4099D01*
X128Y4099D02*
X152Y4099D01*
X154Y4099D02*
X177Y4099D01*
X1093Y4099D02*
X1100Y4099D01*
X1136Y4099D02*
X1143Y4099D01*
X49Y4098D02*
X56Y4098D01*
X85Y4098D02*
X92Y4098D01*
X130Y4098D02*
X150Y4098D01*
X156Y4098D02*
X176Y4098D01*
X1093Y4098D02*
X1100Y4098D01*
X1136Y4098D02*
X1143Y4098D01*
X49Y4097D02*
X56Y4097D01*
X85Y4097D02*
X92Y4097D01*
X132Y4097D02*
X147Y4097D01*
X159Y4097D02*
X174Y4097D01*
X1093Y4097D02*
X1100Y4097D01*
X1136Y4097D02*
X1143Y4097D01*
X49Y4096D02*
X56Y4096D01*
X85Y4096D02*
X92Y4096D01*
X1093Y4096D02*
X1100Y4096D01*
X1136Y4096D02*
X1143Y4096D01*
X49Y4095D02*
X56Y4095D01*
X85Y4095D02*
X92Y4095D01*
X1093Y4095D02*
X1100Y4095D01*
X1136Y4095D02*
X1143Y4095D01*
X49Y4094D02*
X56Y4094D01*
X85Y4094D02*
X92Y4094D01*
X1093Y4094D02*
X1100Y4094D01*
X1136Y4094D02*
X1143Y4094D01*
X49Y4093D02*
X56Y4093D01*
X85Y4093D02*
X92Y4093D01*
X1093Y4093D02*
X1100Y4093D01*
X1136Y4093D02*
X1143Y4093D01*
X49Y4092D02*
X56Y4092D01*
X85Y4092D02*
X92Y4092D01*
X1093Y4092D02*
X1100Y4092D01*
X1136Y4092D02*
X1143Y4092D01*
X49Y4091D02*
X56Y4091D01*
X85Y4091D02*
X92Y4091D01*
X1093Y4091D02*
X1100Y4091D01*
X1136Y4091D02*
X1143Y4091D01*
X49Y4090D02*
X56Y4090D01*
X85Y4090D02*
X92Y4090D01*
X1093Y4090D02*
X1100Y4090D01*
X1136Y4090D02*
X1143Y4090D01*
X49Y4089D02*
X56Y4089D01*
X85Y4089D02*
X92Y4089D01*
X1093Y4089D02*
X1100Y4089D01*
X1136Y4089D02*
X1143Y4089D01*
X49Y4088D02*
X56Y4088D01*
X85Y4088D02*
X92Y4088D01*
X1093Y4088D02*
X1100Y4088D01*
X1136Y4088D02*
X1143Y4088D01*
X49Y4087D02*
X56Y4087D01*
X85Y4087D02*
X92Y4087D01*
X1093Y4087D02*
X1100Y4087D01*
X1136Y4087D02*
X1143Y4087D01*
X49Y4086D02*
X56Y4086D01*
X85Y4086D02*
X92Y4086D01*
X1093Y4086D02*
X1100Y4086D01*
X1136Y4086D02*
X1143Y4086D01*
X49Y4085D02*
X56Y4085D01*
X85Y4085D02*
X92Y4085D01*
X1093Y4085D02*
X1100Y4085D01*
X1136Y4085D02*
X1143Y4085D01*
X49Y4084D02*
X56Y4084D01*
X85Y4084D02*
X92Y4084D01*
X1093Y4084D02*
X1100Y4084D01*
X1136Y4084D02*
X1143Y4084D01*
X49Y4083D02*
X56Y4083D01*
X85Y4083D02*
X92Y4083D01*
X1093Y4083D02*
X1100Y4083D01*
X1136Y4083D02*
X1143Y4083D01*
X49Y4082D02*
X56Y4082D01*
X85Y4082D02*
X92Y4082D01*
X1093Y4082D02*
X1100Y4082D01*
X1136Y4082D02*
X1143Y4082D01*
X49Y4081D02*
X56Y4081D01*
X85Y4081D02*
X92Y4081D01*
X1093Y4081D02*
X1100Y4081D01*
X1136Y4081D02*
X1143Y4081D01*
X49Y4080D02*
X56Y4080D01*
X85Y4080D02*
X92Y4080D01*
X1093Y4080D02*
X1100Y4080D01*
X1136Y4080D02*
X1143Y4080D01*
X49Y4079D02*
X56Y4079D01*
X85Y4079D02*
X92Y4079D01*
X1093Y4079D02*
X1100Y4079D01*
X1136Y4079D02*
X1143Y4079D01*
X49Y4078D02*
X56Y4078D01*
X85Y4078D02*
X92Y4078D01*
X1093Y4078D02*
X1100Y4078D01*
X1136Y4078D02*
X1143Y4078D01*
X49Y4077D02*
X56Y4077D01*
X85Y4077D02*
X92Y4077D01*
X1093Y4077D02*
X1100Y4077D01*
X1136Y4077D02*
X1143Y4077D01*
X49Y4076D02*
X56Y4076D01*
X85Y4076D02*
X92Y4076D01*
X1093Y4076D02*
X1100Y4076D01*
X1136Y4076D02*
X1143Y4076D01*
X49Y4075D02*
X56Y4075D01*
X85Y4075D02*
X92Y4075D01*
X1093Y4075D02*
X1100Y4075D01*
X1136Y4075D02*
X1143Y4075D01*
X49Y4074D02*
X56Y4074D01*
X85Y4074D02*
X92Y4074D01*
X1093Y4074D02*
X1100Y4074D01*
X1136Y4074D02*
X1143Y4074D01*
X49Y4073D02*
X56Y4073D01*
X85Y4073D02*
X92Y4073D01*
X1093Y4073D02*
X1100Y4073D01*
X1136Y4073D02*
X1143Y4073D01*
X49Y4072D02*
X56Y4072D01*
X85Y4072D02*
X92Y4072D01*
X1093Y4072D02*
X1100Y4072D01*
X1136Y4072D02*
X1143Y4072D01*
X49Y4071D02*
X56Y4071D01*
X85Y4071D02*
X92Y4071D01*
X1093Y4071D02*
X1100Y4071D01*
X1136Y4071D02*
X1143Y4071D01*
X49Y4070D02*
X56Y4070D01*
X85Y4070D02*
X92Y4070D01*
X1093Y4070D02*
X1100Y4070D01*
X1136Y4070D02*
X1143Y4070D01*
X49Y4069D02*
X56Y4069D01*
X85Y4069D02*
X92Y4069D01*
X1093Y4069D02*
X1100Y4069D01*
X1136Y4069D02*
X1143Y4069D01*
X49Y4068D02*
X56Y4068D01*
X85Y4068D02*
X92Y4068D01*
X1093Y4068D02*
X1100Y4068D01*
X1136Y4068D02*
X1143Y4068D01*
X49Y4067D02*
X56Y4067D01*
X85Y4067D02*
X92Y4067D01*
X1093Y4067D02*
X1100Y4067D01*
X1136Y4067D02*
X1143Y4067D01*
X49Y4066D02*
X56Y4066D01*
X85Y4066D02*
X92Y4066D01*
X1093Y4066D02*
X1100Y4066D01*
X1136Y4066D02*
X1143Y4066D01*
X49Y4065D02*
X56Y4065D01*
X85Y4065D02*
X92Y4065D01*
X1093Y4065D02*
X1100Y4065D01*
X1136Y4065D02*
X1143Y4065D01*
X49Y4064D02*
X56Y4064D01*
X85Y4064D02*
X92Y4064D01*
X1093Y4064D02*
X1100Y4064D01*
X1136Y4064D02*
X1143Y4064D01*
X49Y4063D02*
X56Y4063D01*
X85Y4063D02*
X92Y4063D01*
X1093Y4063D02*
X1100Y4063D01*
X1136Y4063D02*
X1143Y4063D01*
X49Y4062D02*
X56Y4062D01*
X85Y4062D02*
X92Y4062D01*
X1093Y4062D02*
X1100Y4062D01*
X1136Y4062D02*
X1143Y4062D01*
X49Y4061D02*
X56Y4061D01*
X85Y4061D02*
X92Y4061D01*
X1093Y4061D02*
X1100Y4061D01*
X1136Y4061D02*
X1143Y4061D01*
X49Y4060D02*
X56Y4060D01*
X85Y4060D02*
X92Y4060D01*
X1093Y4060D02*
X1100Y4060D01*
X1136Y4060D02*
X1143Y4060D01*
X49Y4059D02*
X56Y4059D01*
X85Y4059D02*
X92Y4059D01*
X1093Y4059D02*
X1100Y4059D01*
X1136Y4059D02*
X1143Y4059D01*
X49Y4058D02*
X56Y4058D01*
X85Y4058D02*
X92Y4058D01*
X1093Y4058D02*
X1100Y4058D01*
X1136Y4058D02*
X1143Y4058D01*
X49Y4057D02*
X56Y4057D01*
X85Y4057D02*
X92Y4057D01*
X1093Y4057D02*
X1100Y4057D01*
X1136Y4057D02*
X1143Y4057D01*
X49Y4056D02*
X56Y4056D01*
X85Y4056D02*
X92Y4056D01*
X1093Y4056D02*
X1100Y4056D01*
X1136Y4056D02*
X1143Y4056D01*
X49Y4055D02*
X56Y4055D01*
X85Y4055D02*
X92Y4055D01*
X1093Y4055D02*
X1100Y4055D01*
X1136Y4055D02*
X1143Y4055D01*
X49Y4054D02*
X56Y4054D01*
X85Y4054D02*
X92Y4054D01*
X1093Y4054D02*
X1100Y4054D01*
X1136Y4054D02*
X1143Y4054D01*
X49Y4053D02*
X56Y4053D01*
X85Y4053D02*
X92Y4053D01*
X1093Y4053D02*
X1100Y4053D01*
X1136Y4053D02*
X1143Y4053D01*
X49Y4052D02*
X56Y4052D01*
X85Y4052D02*
X92Y4052D01*
X1093Y4052D02*
X1100Y4052D01*
X1136Y4052D02*
X1143Y4052D01*
X49Y4051D02*
X56Y4051D01*
X85Y4051D02*
X92Y4051D01*
X1093Y4051D02*
X1100Y4051D01*
X1136Y4051D02*
X1143Y4051D01*
X49Y4050D02*
X56Y4050D01*
X85Y4050D02*
X92Y4050D01*
X1093Y4050D02*
X1100Y4050D01*
X1136Y4050D02*
X1143Y4050D01*
X49Y4049D02*
X56Y4049D01*
X85Y4049D02*
X92Y4049D01*
X1093Y4049D02*
X1100Y4049D01*
X1136Y4049D02*
X1143Y4049D01*
X49Y4048D02*
X56Y4048D01*
X85Y4048D02*
X92Y4048D01*
X1093Y4048D02*
X1100Y4048D01*
X1136Y4048D02*
X1143Y4048D01*
X49Y4047D02*
X56Y4047D01*
X85Y4047D02*
X92Y4047D01*
X1093Y4047D02*
X1100Y4047D01*
X1136Y4047D02*
X1143Y4047D01*
X49Y4046D02*
X56Y4046D01*
X85Y4046D02*
X92Y4046D01*
X1093Y4046D02*
X1100Y4046D01*
X1136Y4046D02*
X1143Y4046D01*
X49Y4045D02*
X56Y4045D01*
X85Y4045D02*
X92Y4045D01*
X1093Y4045D02*
X1100Y4045D01*
X1136Y4045D02*
X1143Y4045D01*
X49Y4044D02*
X56Y4044D01*
X85Y4044D02*
X92Y4044D01*
X1093Y4044D02*
X1100Y4044D01*
X1136Y4044D02*
X1143Y4044D01*
X49Y4043D02*
X56Y4043D01*
X85Y4043D02*
X92Y4043D01*
X1093Y4043D02*
X1100Y4043D01*
X1136Y4043D02*
X1143Y4043D01*
X49Y4042D02*
X56Y4042D01*
X85Y4042D02*
X92Y4042D01*
X1093Y4042D02*
X1100Y4042D01*
X1136Y4042D02*
X1143Y4042D01*
X49Y4041D02*
X56Y4041D01*
X85Y4041D02*
X92Y4041D01*
X1093Y4041D02*
X1100Y4041D01*
X1136Y4041D02*
X1143Y4041D01*
X49Y4040D02*
X56Y4040D01*
X85Y4040D02*
X92Y4040D01*
X1093Y4040D02*
X1100Y4040D01*
X1136Y4040D02*
X1143Y4040D01*
X49Y4039D02*
X56Y4039D01*
X85Y4039D02*
X92Y4039D01*
X1093Y4039D02*
X1100Y4039D01*
X1136Y4039D02*
X1143Y4039D01*
X49Y4038D02*
X56Y4038D01*
X85Y4038D02*
X92Y4038D01*
X1093Y4038D02*
X1100Y4038D01*
X1136Y4038D02*
X1143Y4038D01*
X49Y4037D02*
X56Y4037D01*
X85Y4037D02*
X92Y4037D01*
X1093Y4037D02*
X1100Y4037D01*
X1136Y4037D02*
X1143Y4037D01*
X49Y4036D02*
X56Y4036D01*
X85Y4036D02*
X92Y4036D01*
X1093Y4036D02*
X1100Y4036D01*
X1136Y4036D02*
X1143Y4036D01*
X49Y4035D02*
X56Y4035D01*
X85Y4035D02*
X92Y4035D01*
X1093Y4035D02*
X1100Y4035D01*
X1136Y4035D02*
X1143Y4035D01*
X49Y4034D02*
X56Y4034D01*
X85Y4034D02*
X92Y4034D01*
X1093Y4034D02*
X1100Y4034D01*
X1136Y4034D02*
X1143Y4034D01*
X49Y4033D02*
X56Y4033D01*
X85Y4033D02*
X92Y4033D01*
X1093Y4033D02*
X1100Y4033D01*
X1136Y4033D02*
X1143Y4033D01*
X49Y4032D02*
X56Y4032D01*
X85Y4032D02*
X506Y4032D01*
X679Y4032D02*
X1100Y4032D01*
X1136Y4032D02*
X1143Y4032D01*
X49Y4031D02*
X56Y4031D01*
X85Y4031D02*
X506Y4031D01*
X679Y4031D02*
X1100Y4031D01*
X1136Y4031D02*
X1143Y4031D01*
X49Y4030D02*
X56Y4030D01*
X85Y4030D02*
X506Y4030D01*
X679Y4030D02*
X1100Y4030D01*
X1136Y4030D02*
X1143Y4030D01*
X49Y4029D02*
X56Y4029D01*
X85Y4029D02*
X506Y4029D01*
X679Y4029D02*
X1100Y4029D01*
X1136Y4029D02*
X1143Y4029D01*
X49Y4028D02*
X56Y4028D01*
X85Y4028D02*
X506Y4028D01*
X679Y4028D02*
X1100Y4028D01*
X1136Y4028D02*
X1143Y4028D01*
X49Y4027D02*
X56Y4027D01*
X85Y4027D02*
X506Y4027D01*
X679Y4027D02*
X1100Y4027D01*
X1136Y4027D02*
X1143Y4027D01*
X49Y4026D02*
X56Y4026D01*
X85Y4026D02*
X506Y4026D01*
X679Y4026D02*
X1100Y4026D01*
X1136Y4026D02*
X1143Y4026D01*
X49Y4025D02*
X56Y4025D01*
X85Y4025D02*
X506Y4025D01*
X679Y4025D02*
X1100Y4025D01*
X1136Y4025D02*
X1143Y4025D01*
X49Y4024D02*
X56Y4024D01*
X1136Y4024D02*
X1143Y4024D01*
X49Y4023D02*
X56Y4023D01*
X1136Y4023D02*
X1143Y4023D01*
X49Y4022D02*
X56Y4022D01*
X1136Y4022D02*
X1143Y4022D01*
X49Y4021D02*
X56Y4021D01*
X1136Y4021D02*
X1143Y4021D01*
X49Y4020D02*
X56Y4020D01*
X1136Y4020D02*
X1143Y4020D01*
X49Y4019D02*
X56Y4019D01*
X1136Y4019D02*
X1143Y4019D01*
X49Y4018D02*
X56Y4018D01*
X1136Y4018D02*
X1143Y4018D01*
X49Y4017D02*
X56Y4017D01*
X1136Y4017D02*
X1143Y4017D01*
X49Y4016D02*
X56Y4016D01*
X1136Y4016D02*
X1143Y4016D01*
X49Y4015D02*
X56Y4015D01*
X1136Y4015D02*
X1143Y4015D01*
X49Y4014D02*
X56Y4014D01*
X1136Y4014D02*
X1143Y4014D01*
X49Y4013D02*
X56Y4013D01*
X1136Y4013D02*
X1143Y4013D01*
X49Y4012D02*
X56Y4012D01*
X1136Y4012D02*
X1143Y4012D01*
X49Y4011D02*
X56Y4011D01*
X1136Y4011D02*
X1143Y4011D01*
X49Y4010D02*
X56Y4010D01*
X1136Y4010D02*
X1143Y4010D01*
X49Y4009D02*
X56Y4009D01*
X1136Y4009D02*
X1143Y4009D01*
X49Y4008D02*
X56Y4008D01*
X1136Y4008D02*
X1143Y4008D01*
X49Y4007D02*
X56Y4007D01*
X1136Y4007D02*
X1143Y4007D01*
X49Y4006D02*
X56Y4006D01*
X1136Y4006D02*
X1143Y4006D01*
X49Y4005D02*
X56Y4005D01*
X1136Y4005D02*
X1143Y4005D01*
X49Y4004D02*
X56Y4004D01*
X1136Y4004D02*
X1143Y4004D01*
X49Y4003D02*
X56Y4003D01*
X1136Y4003D02*
X1143Y4003D01*
X49Y4002D02*
X56Y4002D01*
X1136Y4002D02*
X1143Y4002D01*
X49Y4001D02*
X56Y4001D01*
X1136Y4001D02*
X1143Y4001D01*
X49Y4000D02*
X56Y4000D01*
X1136Y4000D02*
X1143Y4000D01*
X49Y3999D02*
X56Y3999D01*
X1136Y3999D02*
X1143Y3999D01*
X49Y3998D02*
X56Y3998D01*
X1136Y3998D02*
X1143Y3998D01*
X49Y3997D02*
X56Y3997D01*
X1136Y3997D02*
X1143Y3997D01*
X49Y3996D02*
X56Y3996D01*
X1136Y3996D02*
X1143Y3996D01*
X49Y3995D02*
X56Y3995D01*
X1136Y3995D02*
X1143Y3995D01*
X49Y3994D02*
X56Y3994D01*
X1136Y3994D02*
X1143Y3994D01*
X49Y3993D02*
X56Y3993D01*
X1136Y3993D02*
X1143Y3993D01*
X49Y3992D02*
X56Y3992D01*
X1136Y3992D02*
X1143Y3992D01*
X49Y3991D02*
X56Y3991D01*
X1136Y3991D02*
X1143Y3991D01*
X49Y3990D02*
X56Y3990D01*
X1136Y3990D02*
X1143Y3990D01*
X49Y3989D02*
X1143Y3989D01*
X49Y3988D02*
X1143Y3988D01*
X49Y3987D02*
X1143Y3987D01*
X49Y3986D02*
X1143Y3986D01*
X49Y3985D02*
X1143Y3985D01*
X49Y3984D02*
X1143Y3984D01*
X49Y3983D02*
X1143Y3983D01*
X49Y3982D02*
X1143Y3982D01*
X139Y3926D02*
X146Y3926D01*
X306Y3926D02*
X313Y3926D01*
X472Y3926D02*
X480Y3926D01*
X639Y3926D02*
X647Y3926D01*
X138Y3925D02*
X147Y3925D01*
X305Y3925D02*
X314Y3925D01*
X472Y3925D02*
X481Y3925D01*
X638Y3925D02*
X648Y3925D01*
X137Y3924D02*
X148Y3924D01*
X304Y3924D02*
X315Y3924D01*
X471Y3924D02*
X481Y3924D01*
X638Y3924D02*
X648Y3924D01*
X95Y3923D02*
X110Y3923D01*
X137Y3923D02*
X148Y3923D01*
X262Y3923D02*
X276Y3923D01*
X304Y3923D02*
X315Y3923D01*
X429Y3923D02*
X443Y3923D01*
X471Y3923D02*
X482Y3923D01*
X595Y3923D02*
X610Y3923D01*
X638Y3923D02*
X648Y3923D01*
X94Y3922D02*
X111Y3922D01*
X137Y3922D02*
X148Y3922D01*
X261Y3922D02*
X277Y3922D01*
X304Y3922D02*
X315Y3922D01*
X428Y3922D02*
X444Y3922D01*
X471Y3922D02*
X482Y3922D01*
X594Y3922D02*
X611Y3922D01*
X638Y3922D02*
X648Y3922D01*
X93Y3921D02*
X111Y3921D01*
X137Y3921D02*
X148Y3921D01*
X260Y3921D02*
X278Y3921D01*
X304Y3921D02*
X315Y3921D01*
X427Y3921D02*
X445Y3921D01*
X471Y3921D02*
X482Y3921D01*
X594Y3921D02*
X612Y3921D01*
X638Y3921D02*
X648Y3921D01*
X93Y3920D02*
X111Y3920D01*
X137Y3920D02*
X148Y3920D01*
X260Y3920D02*
X278Y3920D01*
X304Y3920D02*
X315Y3920D01*
X427Y3920D02*
X445Y3920D01*
X471Y3920D02*
X482Y3920D01*
X594Y3920D02*
X612Y3920D01*
X638Y3920D02*
X648Y3920D01*
X93Y3919D02*
X111Y3919D01*
X137Y3919D02*
X148Y3919D01*
X260Y3919D02*
X278Y3919D01*
X304Y3919D02*
X315Y3919D01*
X427Y3919D02*
X445Y3919D01*
X471Y3919D02*
X481Y3919D01*
X594Y3919D02*
X612Y3919D01*
X638Y3919D02*
X648Y3919D01*
X93Y3918D02*
X111Y3918D01*
X138Y3918D02*
X147Y3918D01*
X260Y3918D02*
X278Y3918D01*
X305Y3918D02*
X314Y3918D01*
X427Y3918D02*
X444Y3918D01*
X471Y3918D02*
X481Y3918D01*
X594Y3918D02*
X611Y3918D01*
X638Y3918D02*
X648Y3918D01*
X93Y3917D02*
X110Y3917D01*
X139Y3917D02*
X147Y3917D01*
X260Y3917D02*
X277Y3917D01*
X305Y3917D02*
X313Y3917D01*
X427Y3917D02*
X444Y3917D01*
X472Y3917D02*
X480Y3917D01*
X594Y3917D02*
X611Y3917D01*
X639Y3917D02*
X647Y3917D01*
X93Y3916D02*
X108Y3916D01*
X141Y3916D02*
X144Y3916D01*
X260Y3916D02*
X275Y3916D01*
X308Y3916D02*
X311Y3916D01*
X427Y3916D02*
X441Y3916D01*
X474Y3916D02*
X478Y3916D01*
X594Y3916D02*
X608Y3916D01*
X641Y3916D02*
X645Y3916D01*
X93Y3915D02*
X100Y3915D01*
X260Y3915D02*
X267Y3915D01*
X427Y3915D02*
X434Y3915D01*
X594Y3915D02*
X600Y3915D01*
X93Y3914D02*
X100Y3914D01*
X260Y3914D02*
X267Y3914D01*
X427Y3914D02*
X434Y3914D01*
X594Y3914D02*
X600Y3914D01*
X93Y3913D02*
X100Y3913D01*
X260Y3913D02*
X267Y3913D01*
X427Y3913D02*
X434Y3913D01*
X594Y3913D02*
X600Y3913D01*
X93Y3912D02*
X100Y3912D01*
X260Y3912D02*
X267Y3912D01*
X427Y3912D02*
X434Y3912D01*
X594Y3912D02*
X600Y3912D01*
X93Y3911D02*
X100Y3911D01*
X260Y3911D02*
X267Y3911D01*
X427Y3911D02*
X434Y3911D01*
X594Y3911D02*
X600Y3911D01*
X93Y3910D02*
X100Y3910D01*
X260Y3910D02*
X267Y3910D01*
X427Y3910D02*
X434Y3910D01*
X594Y3910D02*
X600Y3910D01*
X93Y3909D02*
X100Y3909D01*
X260Y3909D02*
X267Y3909D01*
X427Y3909D02*
X434Y3909D01*
X594Y3909D02*
X600Y3909D01*
X93Y3908D02*
X100Y3908D01*
X260Y3908D02*
X267Y3908D01*
X427Y3908D02*
X434Y3908D01*
X594Y3908D02*
X600Y3908D01*
X25Y3907D02*
X44Y3907D01*
X93Y3907D02*
X100Y3907D01*
X140Y3907D02*
X157Y3907D01*
X191Y3907D02*
X211Y3907D01*
X260Y3907D02*
X267Y3907D01*
X306Y3907D02*
X324Y3907D01*
X358Y3907D02*
X378Y3907D01*
X427Y3907D02*
X434Y3907D01*
X473Y3907D02*
X491Y3907D01*
X525Y3907D02*
X545Y3907D01*
X594Y3907D02*
X600Y3907D01*
X640Y3907D02*
X657Y3907D01*
X23Y3906D02*
X47Y3906D01*
X93Y3906D02*
X100Y3906D01*
X138Y3906D02*
X158Y3906D01*
X190Y3906D02*
X214Y3906D01*
X260Y3906D02*
X267Y3906D01*
X305Y3906D02*
X325Y3906D01*
X357Y3906D02*
X381Y3906D01*
X427Y3906D02*
X434Y3906D01*
X472Y3906D02*
X492Y3906D01*
X524Y3906D02*
X548Y3906D01*
X594Y3906D02*
X600Y3906D01*
X639Y3906D02*
X659Y3906D01*
X23Y3905D02*
X49Y3905D01*
X93Y3905D02*
X100Y3905D01*
X138Y3905D02*
X159Y3905D01*
X189Y3905D02*
X216Y3905D01*
X260Y3905D02*
X267Y3905D01*
X304Y3905D02*
X326Y3905D01*
X356Y3905D02*
X382Y3905D01*
X427Y3905D02*
X434Y3905D01*
X471Y3905D02*
X493Y3905D01*
X523Y3905D02*
X549Y3905D01*
X594Y3905D02*
X600Y3905D01*
X638Y3905D02*
X659Y3905D01*
X22Y3904D02*
X50Y3904D01*
X93Y3904D02*
X100Y3904D01*
X137Y3904D02*
X159Y3904D01*
X189Y3904D02*
X217Y3904D01*
X260Y3904D02*
X267Y3904D01*
X304Y3904D02*
X326Y3904D01*
X356Y3904D02*
X384Y3904D01*
X427Y3904D02*
X434Y3904D01*
X471Y3904D02*
X493Y3904D01*
X523Y3904D02*
X551Y3904D01*
X594Y3904D02*
X600Y3904D01*
X638Y3904D02*
X660Y3904D01*
X22Y3903D02*
X51Y3903D01*
X93Y3903D02*
X100Y3903D01*
X137Y3903D02*
X159Y3903D01*
X189Y3903D02*
X218Y3903D01*
X260Y3903D02*
X267Y3903D01*
X304Y3903D02*
X326Y3903D01*
X356Y3903D02*
X385Y3903D01*
X427Y3903D02*
X434Y3903D01*
X471Y3903D02*
X493Y3903D01*
X523Y3903D02*
X552Y3903D01*
X594Y3903D02*
X600Y3903D01*
X638Y3903D02*
X660Y3903D01*
X23Y3902D02*
X52Y3902D01*
X93Y3902D02*
X100Y3902D01*
X137Y3902D02*
X159Y3902D01*
X189Y3902D02*
X219Y3902D01*
X260Y3902D02*
X267Y3902D01*
X304Y3902D02*
X326Y3902D01*
X356Y3902D02*
X386Y3902D01*
X427Y3902D02*
X434Y3902D01*
X471Y3902D02*
X493Y3902D01*
X523Y3902D02*
X553Y3902D01*
X594Y3902D02*
X600Y3902D01*
X638Y3902D02*
X659Y3902D01*
X23Y3901D02*
X53Y3901D01*
X93Y3901D02*
X100Y3901D01*
X137Y3901D02*
X158Y3901D01*
X190Y3901D02*
X220Y3901D01*
X260Y3901D02*
X267Y3901D01*
X304Y3901D02*
X325Y3901D01*
X357Y3901D02*
X387Y3901D01*
X427Y3901D02*
X434Y3901D01*
X471Y3901D02*
X492Y3901D01*
X524Y3901D02*
X554Y3901D01*
X594Y3901D02*
X600Y3901D01*
X638Y3901D02*
X659Y3901D01*
X25Y3900D02*
X54Y3900D01*
X93Y3900D02*
X100Y3900D01*
X137Y3900D02*
X157Y3900D01*
X191Y3900D02*
X221Y3900D01*
X260Y3900D02*
X267Y3900D01*
X304Y3900D02*
X324Y3900D01*
X358Y3900D02*
X388Y3900D01*
X427Y3900D02*
X434Y3900D01*
X471Y3900D02*
X491Y3900D01*
X525Y3900D02*
X555Y3900D01*
X594Y3900D02*
X600Y3900D01*
X638Y3900D02*
X657Y3900D01*
X44Y3899D02*
X55Y3899D01*
X93Y3899D02*
X100Y3899D01*
X137Y3899D02*
X144Y3899D01*
X211Y3899D02*
X222Y3899D01*
X260Y3899D02*
X267Y3899D01*
X304Y3899D02*
X311Y3899D01*
X378Y3899D02*
X389Y3899D01*
X427Y3899D02*
X434Y3899D01*
X471Y3899D02*
X478Y3899D01*
X545Y3899D02*
X556Y3899D01*
X594Y3899D02*
X600Y3899D01*
X638Y3899D02*
X644Y3899D01*
X46Y3898D02*
X56Y3898D01*
X93Y3898D02*
X100Y3898D01*
X137Y3898D02*
X144Y3898D01*
X212Y3898D02*
X223Y3898D01*
X260Y3898D02*
X267Y3898D01*
X304Y3898D02*
X311Y3898D01*
X379Y3898D02*
X390Y3898D01*
X427Y3898D02*
X434Y3898D01*
X471Y3898D02*
X478Y3898D01*
X546Y3898D02*
X557Y3898D01*
X594Y3898D02*
X600Y3898D01*
X638Y3898D02*
X644Y3898D01*
X47Y3897D02*
X57Y3897D01*
X93Y3897D02*
X100Y3897D01*
X137Y3897D02*
X144Y3897D01*
X214Y3897D02*
X224Y3897D01*
X260Y3897D02*
X267Y3897D01*
X304Y3897D02*
X311Y3897D01*
X380Y3897D02*
X391Y3897D01*
X427Y3897D02*
X434Y3897D01*
X471Y3897D02*
X478Y3897D01*
X547Y3897D02*
X558Y3897D01*
X594Y3897D02*
X600Y3897D01*
X638Y3897D02*
X644Y3897D01*
X48Y3896D02*
X58Y3896D01*
X93Y3896D02*
X100Y3896D01*
X137Y3896D02*
X144Y3896D01*
X215Y3896D02*
X225Y3896D01*
X260Y3896D02*
X267Y3896D01*
X304Y3896D02*
X311Y3896D01*
X382Y3896D02*
X392Y3896D01*
X427Y3896D02*
X434Y3896D01*
X471Y3896D02*
X478Y3896D01*
X548Y3896D02*
X558Y3896D01*
X594Y3896D02*
X600Y3896D01*
X638Y3896D02*
X644Y3896D01*
X49Y3895D02*
X58Y3895D01*
X93Y3895D02*
X100Y3895D01*
X137Y3895D02*
X144Y3895D01*
X216Y3895D02*
X225Y3895D01*
X260Y3895D02*
X267Y3895D01*
X304Y3895D02*
X311Y3895D01*
X383Y3895D02*
X392Y3895D01*
X427Y3895D02*
X434Y3895D01*
X471Y3895D02*
X478Y3895D01*
X550Y3895D02*
X559Y3895D01*
X594Y3895D02*
X600Y3895D01*
X638Y3895D02*
X644Y3895D01*
X50Y3894D02*
X59Y3894D01*
X93Y3894D02*
X100Y3894D01*
X137Y3894D02*
X144Y3894D01*
X217Y3894D02*
X226Y3894D01*
X260Y3894D02*
X267Y3894D01*
X304Y3894D02*
X311Y3894D01*
X384Y3894D02*
X392Y3894D01*
X427Y3894D02*
X434Y3894D01*
X471Y3894D02*
X478Y3894D01*
X551Y3894D02*
X559Y3894D01*
X594Y3894D02*
X600Y3894D01*
X638Y3894D02*
X644Y3894D01*
X51Y3893D02*
X59Y3893D01*
X93Y3893D02*
X100Y3893D01*
X137Y3893D02*
X144Y3893D01*
X218Y3893D02*
X226Y3893D01*
X260Y3893D02*
X267Y3893D01*
X304Y3893D02*
X311Y3893D01*
X385Y3893D02*
X393Y3893D01*
X427Y3893D02*
X434Y3893D01*
X471Y3893D02*
X478Y3893D01*
X552Y3893D02*
X560Y3893D01*
X594Y3893D02*
X600Y3893D01*
X638Y3893D02*
X644Y3893D01*
X52Y3892D02*
X59Y3892D01*
X93Y3892D02*
X100Y3892D01*
X137Y3892D02*
X144Y3892D01*
X219Y3892D02*
X226Y3892D01*
X260Y3892D02*
X267Y3892D01*
X304Y3892D02*
X311Y3892D01*
X386Y3892D02*
X393Y3892D01*
X427Y3892D02*
X434Y3892D01*
X471Y3892D02*
X478Y3892D01*
X553Y3892D02*
X560Y3892D01*
X594Y3892D02*
X600Y3892D01*
X638Y3892D02*
X644Y3892D01*
X53Y3891D02*
X59Y3891D01*
X93Y3891D02*
X100Y3891D01*
X137Y3891D02*
X144Y3891D01*
X219Y3891D02*
X226Y3891D01*
X260Y3891D02*
X267Y3891D01*
X304Y3891D02*
X311Y3891D01*
X386Y3891D02*
X393Y3891D01*
X427Y3891D02*
X434Y3891D01*
X471Y3891D02*
X478Y3891D01*
X553Y3891D02*
X560Y3891D01*
X594Y3891D02*
X600Y3891D01*
X638Y3891D02*
X644Y3891D01*
X53Y3890D02*
X60Y3890D01*
X93Y3890D02*
X100Y3890D01*
X137Y3890D02*
X144Y3890D01*
X220Y3890D02*
X226Y3890D01*
X260Y3890D02*
X267Y3890D01*
X304Y3890D02*
X311Y3890D01*
X386Y3890D02*
X393Y3890D01*
X427Y3890D02*
X434Y3890D01*
X471Y3890D02*
X478Y3890D01*
X553Y3890D02*
X560Y3890D01*
X594Y3890D02*
X600Y3890D01*
X638Y3890D02*
X644Y3890D01*
X53Y3889D02*
X60Y3889D01*
X93Y3889D02*
X100Y3889D01*
X137Y3889D02*
X144Y3889D01*
X220Y3889D02*
X226Y3889D01*
X260Y3889D02*
X267Y3889D01*
X304Y3889D02*
X311Y3889D01*
X386Y3889D02*
X393Y3889D01*
X427Y3889D02*
X434Y3889D01*
X471Y3889D02*
X478Y3889D01*
X553Y3889D02*
X560Y3889D01*
X594Y3889D02*
X600Y3889D01*
X638Y3889D02*
X644Y3889D01*
X53Y3888D02*
X60Y3888D01*
X93Y3888D02*
X100Y3888D01*
X137Y3888D02*
X144Y3888D01*
X220Y3888D02*
X226Y3888D01*
X260Y3888D02*
X267Y3888D01*
X304Y3888D02*
X311Y3888D01*
X386Y3888D02*
X393Y3888D01*
X427Y3888D02*
X434Y3888D01*
X471Y3888D02*
X478Y3888D01*
X553Y3888D02*
X560Y3888D01*
X594Y3888D02*
X600Y3888D01*
X638Y3888D02*
X644Y3888D01*
X53Y3887D02*
X60Y3887D01*
X93Y3887D02*
X100Y3887D01*
X137Y3887D02*
X144Y3887D01*
X220Y3887D02*
X226Y3887D01*
X260Y3887D02*
X267Y3887D01*
X304Y3887D02*
X311Y3887D01*
X386Y3887D02*
X393Y3887D01*
X427Y3887D02*
X434Y3887D01*
X471Y3887D02*
X478Y3887D01*
X553Y3887D02*
X560Y3887D01*
X594Y3887D02*
X600Y3887D01*
X638Y3887D02*
X644Y3887D01*
X53Y3886D02*
X60Y3886D01*
X93Y3886D02*
X100Y3886D01*
X137Y3886D02*
X144Y3886D01*
X220Y3886D02*
X226Y3886D01*
X260Y3886D02*
X267Y3886D01*
X304Y3886D02*
X311Y3886D01*
X386Y3886D02*
X393Y3886D01*
X427Y3886D02*
X434Y3886D01*
X471Y3886D02*
X478Y3886D01*
X553Y3886D02*
X560Y3886D01*
X594Y3886D02*
X600Y3886D01*
X638Y3886D02*
X644Y3886D01*
X53Y3885D02*
X60Y3885D01*
X93Y3885D02*
X100Y3885D01*
X137Y3885D02*
X144Y3885D01*
X220Y3885D02*
X226Y3885D01*
X260Y3885D02*
X267Y3885D01*
X304Y3885D02*
X311Y3885D01*
X386Y3885D02*
X393Y3885D01*
X427Y3885D02*
X434Y3885D01*
X471Y3885D02*
X478Y3885D01*
X553Y3885D02*
X560Y3885D01*
X594Y3885D02*
X600Y3885D01*
X638Y3885D02*
X644Y3885D01*
X53Y3884D02*
X60Y3884D01*
X93Y3884D02*
X100Y3884D01*
X137Y3884D02*
X144Y3884D01*
X220Y3884D02*
X226Y3884D01*
X260Y3884D02*
X267Y3884D01*
X304Y3884D02*
X311Y3884D01*
X386Y3884D02*
X393Y3884D01*
X427Y3884D02*
X434Y3884D01*
X471Y3884D02*
X478Y3884D01*
X553Y3884D02*
X560Y3884D01*
X594Y3884D02*
X600Y3884D01*
X638Y3884D02*
X644Y3884D01*
X53Y3883D02*
X60Y3883D01*
X93Y3883D02*
X100Y3883D01*
X137Y3883D02*
X144Y3883D01*
X220Y3883D02*
X226Y3883D01*
X260Y3883D02*
X267Y3883D01*
X304Y3883D02*
X311Y3883D01*
X386Y3883D02*
X393Y3883D01*
X427Y3883D02*
X434Y3883D01*
X471Y3883D02*
X478Y3883D01*
X553Y3883D02*
X560Y3883D01*
X594Y3883D02*
X600Y3883D01*
X638Y3883D02*
X644Y3883D01*
X53Y3882D02*
X60Y3882D01*
X93Y3882D02*
X100Y3882D01*
X137Y3882D02*
X144Y3882D01*
X220Y3882D02*
X226Y3882D01*
X260Y3882D02*
X267Y3882D01*
X304Y3882D02*
X311Y3882D01*
X386Y3882D02*
X393Y3882D01*
X427Y3882D02*
X434Y3882D01*
X471Y3882D02*
X478Y3882D01*
X553Y3882D02*
X560Y3882D01*
X594Y3882D02*
X600Y3882D01*
X638Y3882D02*
X644Y3882D01*
X53Y3881D02*
X60Y3881D01*
X93Y3881D02*
X100Y3881D01*
X137Y3881D02*
X144Y3881D01*
X220Y3881D02*
X226Y3881D01*
X260Y3881D02*
X267Y3881D01*
X304Y3881D02*
X311Y3881D01*
X386Y3881D02*
X393Y3881D01*
X427Y3881D02*
X434Y3881D01*
X471Y3881D02*
X478Y3881D01*
X553Y3881D02*
X560Y3881D01*
X594Y3881D02*
X600Y3881D01*
X638Y3881D02*
X644Y3881D01*
X53Y3880D02*
X59Y3880D01*
X93Y3880D02*
X100Y3880D01*
X137Y3880D02*
X144Y3880D01*
X219Y3880D02*
X226Y3880D01*
X260Y3880D02*
X267Y3880D01*
X304Y3880D02*
X311Y3880D01*
X386Y3880D02*
X393Y3880D01*
X427Y3880D02*
X434Y3880D01*
X471Y3880D02*
X478Y3880D01*
X553Y3880D02*
X560Y3880D01*
X594Y3880D02*
X600Y3880D01*
X638Y3880D02*
X644Y3880D01*
X52Y3879D02*
X59Y3879D01*
X93Y3879D02*
X100Y3879D01*
X137Y3879D02*
X144Y3879D01*
X219Y3879D02*
X226Y3879D01*
X260Y3879D02*
X267Y3879D01*
X304Y3879D02*
X311Y3879D01*
X386Y3879D02*
X393Y3879D01*
X427Y3879D02*
X434Y3879D01*
X471Y3879D02*
X478Y3879D01*
X553Y3879D02*
X560Y3879D01*
X594Y3879D02*
X600Y3879D01*
X638Y3879D02*
X644Y3879D01*
X51Y3878D02*
X59Y3878D01*
X93Y3878D02*
X100Y3878D01*
X137Y3878D02*
X144Y3878D01*
X218Y3878D02*
X226Y3878D01*
X260Y3878D02*
X267Y3878D01*
X304Y3878D02*
X311Y3878D01*
X385Y3878D02*
X393Y3878D01*
X427Y3878D02*
X434Y3878D01*
X471Y3878D02*
X478Y3878D01*
X552Y3878D02*
X560Y3878D01*
X594Y3878D02*
X600Y3878D01*
X638Y3878D02*
X644Y3878D01*
X50Y3877D02*
X59Y3877D01*
X93Y3877D02*
X100Y3877D01*
X137Y3877D02*
X144Y3877D01*
X217Y3877D02*
X226Y3877D01*
X260Y3877D02*
X267Y3877D01*
X304Y3877D02*
X311Y3877D01*
X384Y3877D02*
X392Y3877D01*
X427Y3877D02*
X434Y3877D01*
X471Y3877D02*
X478Y3877D01*
X551Y3877D02*
X559Y3877D01*
X594Y3877D02*
X600Y3877D01*
X638Y3877D02*
X644Y3877D01*
X49Y3876D02*
X58Y3876D01*
X93Y3876D02*
X100Y3876D01*
X137Y3876D02*
X144Y3876D01*
X216Y3876D02*
X225Y3876D01*
X260Y3876D02*
X267Y3876D01*
X304Y3876D02*
X311Y3876D01*
X383Y3876D02*
X392Y3876D01*
X427Y3876D02*
X434Y3876D01*
X471Y3876D02*
X478Y3876D01*
X550Y3876D02*
X559Y3876D01*
X594Y3876D02*
X600Y3876D01*
X638Y3876D02*
X644Y3876D01*
X48Y3875D02*
X58Y3875D01*
X93Y3875D02*
X100Y3875D01*
X137Y3875D02*
X144Y3875D01*
X215Y3875D02*
X225Y3875D01*
X260Y3875D02*
X267Y3875D01*
X304Y3875D02*
X311Y3875D01*
X382Y3875D02*
X392Y3875D01*
X427Y3875D02*
X434Y3875D01*
X471Y3875D02*
X478Y3875D01*
X548Y3875D02*
X558Y3875D01*
X594Y3875D02*
X600Y3875D01*
X638Y3875D02*
X644Y3875D01*
X47Y3874D02*
X57Y3874D01*
X93Y3874D02*
X100Y3874D01*
X137Y3874D02*
X144Y3874D01*
X214Y3874D02*
X224Y3874D01*
X260Y3874D02*
X267Y3874D01*
X304Y3874D02*
X311Y3874D01*
X380Y3874D02*
X391Y3874D01*
X427Y3874D02*
X434Y3874D01*
X471Y3874D02*
X478Y3874D01*
X547Y3874D02*
X558Y3874D01*
X594Y3874D02*
X600Y3874D01*
X638Y3874D02*
X644Y3874D01*
X46Y3873D02*
X56Y3873D01*
X93Y3873D02*
X100Y3873D01*
X137Y3873D02*
X144Y3873D01*
X212Y3873D02*
X223Y3873D01*
X260Y3873D02*
X267Y3873D01*
X304Y3873D02*
X311Y3873D01*
X379Y3873D02*
X390Y3873D01*
X427Y3873D02*
X434Y3873D01*
X471Y3873D02*
X478Y3873D01*
X546Y3873D02*
X557Y3873D01*
X594Y3873D02*
X600Y3873D01*
X638Y3873D02*
X644Y3873D01*
X44Y3872D02*
X55Y3872D01*
X93Y3872D02*
X100Y3872D01*
X137Y3872D02*
X144Y3872D01*
X211Y3872D02*
X222Y3872D01*
X260Y3872D02*
X267Y3872D01*
X304Y3872D02*
X311Y3872D01*
X378Y3872D02*
X389Y3872D01*
X427Y3872D02*
X434Y3872D01*
X471Y3872D02*
X478Y3872D01*
X545Y3872D02*
X556Y3872D01*
X594Y3872D02*
X600Y3872D01*
X638Y3872D02*
X644Y3872D01*
X24Y3871D02*
X54Y3871D01*
X84Y3871D02*
X109Y3871D01*
X137Y3871D02*
X144Y3871D01*
X191Y3871D02*
X221Y3871D01*
X251Y3871D02*
X276Y3871D01*
X304Y3871D02*
X311Y3871D01*
X358Y3871D02*
X388Y3871D01*
X418Y3871D02*
X443Y3871D01*
X471Y3871D02*
X478Y3871D01*
X525Y3871D02*
X555Y3871D01*
X584Y3871D02*
X610Y3871D01*
X638Y3871D02*
X644Y3871D01*
X23Y3870D02*
X53Y3870D01*
X83Y3870D02*
X110Y3870D01*
X137Y3870D02*
X144Y3870D01*
X190Y3870D02*
X220Y3870D01*
X249Y3870D02*
X277Y3870D01*
X304Y3870D02*
X311Y3870D01*
X357Y3870D02*
X387Y3870D01*
X416Y3870D02*
X444Y3870D01*
X471Y3870D02*
X478Y3870D01*
X524Y3870D02*
X553Y3870D01*
X583Y3870D02*
X611Y3870D01*
X638Y3870D02*
X644Y3870D01*
X23Y3869D02*
X52Y3869D01*
X82Y3869D02*
X111Y3869D01*
X137Y3869D02*
X144Y3869D01*
X189Y3869D02*
X219Y3869D01*
X249Y3869D02*
X278Y3869D01*
X304Y3869D02*
X311Y3869D01*
X356Y3869D02*
X386Y3869D01*
X416Y3869D02*
X445Y3869D01*
X471Y3869D02*
X478Y3869D01*
X523Y3869D02*
X552Y3869D01*
X582Y3869D02*
X611Y3869D01*
X638Y3869D02*
X644Y3869D01*
X22Y3868D02*
X51Y3868D01*
X82Y3868D02*
X111Y3868D01*
X137Y3868D02*
X144Y3868D01*
X189Y3868D02*
X218Y3868D01*
X249Y3868D02*
X278Y3868D01*
X304Y3868D02*
X311Y3868D01*
X356Y3868D02*
X384Y3868D01*
X415Y3868D02*
X445Y3868D01*
X471Y3868D02*
X478Y3868D01*
X523Y3868D02*
X551Y3868D01*
X582Y3868D02*
X612Y3868D01*
X638Y3868D02*
X644Y3868D01*
X22Y3867D02*
X50Y3867D01*
X82Y3867D02*
X111Y3867D01*
X137Y3867D02*
X144Y3867D01*
X189Y3867D02*
X216Y3867D01*
X249Y3867D02*
X278Y3867D01*
X304Y3867D02*
X311Y3867D01*
X356Y3867D02*
X383Y3867D01*
X415Y3867D02*
X445Y3867D01*
X471Y3867D02*
X478Y3867D01*
X523Y3867D02*
X550Y3867D01*
X582Y3867D02*
X612Y3867D01*
X638Y3867D02*
X644Y3867D01*
X23Y3866D02*
X48Y3866D01*
X82Y3866D02*
X111Y3866D01*
X137Y3866D02*
X144Y3866D01*
X189Y3866D02*
X215Y3866D01*
X249Y3866D02*
X278Y3866D01*
X304Y3866D02*
X311Y3866D01*
X356Y3866D02*
X382Y3866D01*
X416Y3866D02*
X445Y3866D01*
X471Y3866D02*
X478Y3866D01*
X523Y3866D02*
X549Y3866D01*
X583Y3866D02*
X611Y3866D01*
X638Y3866D02*
X644Y3866D01*
X23Y3865D02*
X47Y3865D01*
X83Y3865D02*
X110Y3865D01*
X137Y3865D02*
X144Y3865D01*
X190Y3865D02*
X214Y3865D01*
X250Y3865D02*
X277Y3865D01*
X304Y3865D02*
X311Y3865D01*
X357Y3865D02*
X380Y3865D01*
X416Y3865D02*
X444Y3865D01*
X471Y3865D02*
X478Y3865D01*
X524Y3865D02*
X547Y3865D01*
X583Y3865D02*
X611Y3865D01*
X638Y3865D02*
X644Y3865D01*
X25Y3864D02*
X44Y3864D01*
X84Y3864D02*
X109Y3864D01*
X137Y3864D02*
X144Y3864D01*
X192Y3864D02*
X211Y3864D01*
X251Y3864D02*
X276Y3864D01*
X304Y3864D02*
X311Y3864D01*
X358Y3864D02*
X378Y3864D01*
X418Y3864D02*
X442Y3864D01*
X471Y3864D02*
X478Y3864D01*
X525Y3864D02*
X544Y3864D01*
X585Y3864D02*
X609Y3864D01*
X638Y3864D02*
X644Y3864D01*
X137Y3863D02*
X144Y3863D01*
X304Y3863D02*
X311Y3863D01*
X471Y3863D02*
X478Y3863D01*
X638Y3863D02*
X644Y3863D01*
X137Y3862D02*
X144Y3862D01*
X304Y3862D02*
X311Y3862D01*
X471Y3862D02*
X478Y3862D01*
X638Y3862D02*
X644Y3862D01*
X137Y3861D02*
X144Y3861D01*
X162Y3861D02*
X165Y3861D01*
X304Y3861D02*
X311Y3861D01*
X329Y3861D02*
X332Y3861D01*
X471Y3861D02*
X478Y3861D01*
X496Y3861D02*
X499Y3861D01*
X638Y3861D02*
X644Y3861D01*
X663Y3861D02*
X666Y3861D01*
X137Y3860D02*
X144Y3860D01*
X161Y3860D02*
X166Y3860D01*
X304Y3860D02*
X311Y3860D01*
X328Y3860D02*
X333Y3860D01*
X471Y3860D02*
X478Y3860D01*
X495Y3860D02*
X500Y3860D01*
X638Y3860D02*
X644Y3860D01*
X662Y3860D02*
X667Y3860D01*
X137Y3859D02*
X144Y3859D01*
X161Y3859D02*
X167Y3859D01*
X304Y3859D02*
X311Y3859D01*
X327Y3859D02*
X334Y3859D01*
X471Y3859D02*
X478Y3859D01*
X494Y3859D02*
X500Y3859D01*
X638Y3859D02*
X644Y3859D01*
X661Y3859D02*
X667Y3859D01*
X137Y3858D02*
X144Y3858D01*
X160Y3858D02*
X167Y3858D01*
X304Y3858D02*
X311Y3858D01*
X327Y3858D02*
X334Y3858D01*
X471Y3858D02*
X478Y3858D01*
X494Y3858D02*
X501Y3858D01*
X638Y3858D02*
X645Y3858D01*
X661Y3858D02*
X667Y3858D01*
X137Y3857D02*
X145Y3857D01*
X160Y3857D02*
X167Y3857D01*
X304Y3857D02*
X311Y3857D01*
X326Y3857D02*
X334Y3857D01*
X471Y3857D02*
X478Y3857D01*
X493Y3857D02*
X501Y3857D01*
X638Y3857D02*
X645Y3857D01*
X660Y3857D02*
X667Y3857D01*
X138Y3856D02*
X146Y3856D01*
X159Y3856D02*
X167Y3856D01*
X305Y3856D02*
X312Y3856D01*
X326Y3856D02*
X334Y3856D01*
X471Y3856D02*
X479Y3856D01*
X492Y3856D02*
X500Y3856D01*
X638Y3856D02*
X646Y3856D01*
X659Y3856D02*
X667Y3856D01*
X138Y3855D02*
X166Y3855D01*
X305Y3855D02*
X333Y3855D01*
X472Y3855D02*
X500Y3855D01*
X638Y3855D02*
X667Y3855D01*
X138Y3854D02*
X166Y3854D01*
X305Y3854D02*
X333Y3854D01*
X472Y3854D02*
X500Y3854D01*
X639Y3854D02*
X667Y3854D01*
X139Y3853D02*
X165Y3853D01*
X306Y3853D02*
X332Y3853D01*
X473Y3853D02*
X499Y3853D01*
X639Y3853D02*
X666Y3853D01*
X140Y3852D02*
X165Y3852D01*
X306Y3852D02*
X332Y3852D01*
X473Y3852D02*
X498Y3852D01*
X640Y3852D02*
X665Y3852D01*
X140Y3851D02*
X164Y3851D01*
X307Y3851D02*
X331Y3851D01*
X474Y3851D02*
X497Y3851D01*
X641Y3851D02*
X664Y3851D01*
X142Y3850D02*
X163Y3850D01*
X308Y3850D02*
X329Y3850D01*
X475Y3850D02*
X496Y3850D01*
X642Y3850D02*
X663Y3850D01*
X143Y3849D02*
X161Y3849D01*
X310Y3849D02*
X328Y3849D01*
X477Y3849D02*
X495Y3849D01*
X644Y3849D02*
X662Y3849D01*
X145Y3848D02*
X159Y3848D01*
X312Y3848D02*
X326Y3848D01*
X479Y3848D02*
X492Y3848D01*
X646Y3848D02*
X659Y3848D01*
X425Y3247D02*
X433Y3247D01*
X424Y3246D02*
X433Y3246D01*
X424Y3245D02*
X433Y3245D01*
X424Y3244D02*
X433Y3244D01*
X424Y3243D02*
X433Y3243D01*
X424Y3242D02*
X433Y3242D01*
X424Y3241D02*
X433Y3241D01*
X424Y3240D02*
X433Y3240D01*
X424Y3239D02*
X433Y3239D01*
X424Y3238D02*
X433Y3238D01*
X424Y3237D02*
X433Y3237D01*
X424Y3236D02*
X433Y3236D01*
X424Y3235D02*
X433Y3235D01*
X424Y3234D02*
X433Y3234D01*
X424Y3233D02*
X433Y3233D01*
X424Y3232D02*
X433Y3232D01*
X424Y3231D02*
X433Y3231D01*
X424Y3230D02*
X433Y3230D01*
X424Y3229D02*
X433Y3229D01*
X424Y3228D02*
X433Y3228D01*
X424Y3227D02*
X433Y3227D01*
X424Y3226D02*
X433Y3226D01*
X424Y3225D02*
X433Y3225D01*
X424Y3224D02*
X433Y3224D01*
X424Y3223D02*
X433Y3223D01*
X424Y3222D02*
X433Y3222D01*
X424Y3221D02*
X433Y3221D01*
X424Y3220D02*
X433Y3220D01*
X424Y3219D02*
X433Y3219D01*
X424Y3218D02*
X433Y3218D01*
X424Y3217D02*
X433Y3217D01*
X424Y3216D02*
X433Y3216D01*
X424Y3215D02*
X433Y3215D01*
X424Y3214D02*
X433Y3214D01*
X424Y3213D02*
X433Y3213D01*
X424Y3212D02*
X433Y3212D01*
X424Y3211D02*
X433Y3211D01*
X424Y3210D02*
X433Y3210D01*
X424Y3209D02*
X433Y3209D01*
X424Y3208D02*
X433Y3208D01*
X424Y3207D02*
X433Y3207D01*
X424Y3206D02*
X433Y3206D01*
X424Y3205D02*
X433Y3205D01*
X424Y3204D02*
X433Y3204D01*
X424Y3203D02*
X433Y3203D01*
X424Y3202D02*
X433Y3202D01*
X424Y3201D02*
X433Y3201D01*
X424Y3200D02*
X433Y3200D01*
X424Y3199D02*
X433Y3199D01*
X424Y3198D02*
X433Y3198D01*
X424Y3197D02*
X433Y3197D01*
X424Y3196D02*
X433Y3196D01*
X424Y3195D02*
X433Y3195D01*
X424Y3194D02*
X433Y3194D01*
X424Y3193D02*
X433Y3193D01*
X424Y3192D02*
X433Y3192D01*
X424Y3191D02*
X433Y3191D01*
X424Y3190D02*
X433Y3190D01*
X424Y3189D02*
X433Y3189D01*
X424Y3188D02*
X433Y3188D01*
X424Y3187D02*
X433Y3187D01*
X424Y3186D02*
X433Y3186D01*
X424Y3185D02*
X433Y3185D01*
X424Y3184D02*
X433Y3184D01*
X424Y3183D02*
X433Y3183D01*
X424Y3182D02*
X433Y3182D01*
X424Y3181D02*
X433Y3181D01*
X424Y3180D02*
X433Y3180D01*
X424Y3179D02*
X433Y3179D01*
X424Y3178D02*
X433Y3178D01*
X424Y3177D02*
X433Y3177D01*
X424Y3176D02*
X433Y3176D01*
X424Y3175D02*
X433Y3175D01*
X424Y3174D02*
X433Y3174D01*
X424Y3173D02*
X433Y3173D01*
X424Y3172D02*
X433Y3172D01*
X424Y3171D02*
X433Y3171D01*
X424Y3170D02*
X433Y3170D01*
X424Y3169D02*
X433Y3169D01*
X424Y3168D02*
X433Y3168D01*
X424Y3167D02*
X433Y3167D01*
X424Y3166D02*
X433Y3166D01*
X424Y3165D02*
X433Y3165D01*
X424Y3164D02*
X433Y3164D01*
X424Y3163D02*
X433Y3163D01*
X424Y3162D02*
X433Y3162D01*
X424Y3161D02*
X433Y3161D01*
X424Y3160D02*
X433Y3160D01*
X424Y3159D02*
X433Y3159D01*
X424Y3158D02*
X433Y3158D01*
X424Y3157D02*
X433Y3157D01*
X424Y3156D02*
X433Y3156D01*
X424Y3155D02*
X433Y3155D01*
X424Y3154D02*
X433Y3154D01*
X424Y3153D02*
X433Y3153D01*
X424Y3152D02*
X433Y3152D01*
X424Y3151D02*
X433Y3151D01*
X424Y3150D02*
X433Y3150D01*
X424Y3149D02*
X433Y3149D01*
X424Y3148D02*
X433Y3148D01*
X424Y3147D02*
X433Y3147D01*
X424Y3146D02*
X433Y3146D01*
X424Y3145D02*
X433Y3145D01*
X424Y3144D02*
X433Y3144D01*
X424Y3143D02*
X433Y3143D01*
X424Y3142D02*
X433Y3142D01*
X424Y3141D02*
X433Y3141D01*
X424Y3140D02*
X433Y3140D01*
X424Y3139D02*
X433Y3139D01*
X424Y3138D02*
X433Y3138D01*
X424Y3137D02*
X433Y3137D01*
X424Y3136D02*
X433Y3136D01*
X424Y3135D02*
X433Y3135D01*
X424Y3134D02*
X433Y3134D01*
X424Y3133D02*
X433Y3133D01*
X424Y3132D02*
X433Y3132D01*
X424Y3131D02*
X433Y3131D01*
X424Y3130D02*
X433Y3130D01*
X424Y3129D02*
X433Y3129D01*
X424Y3128D02*
X433Y3128D01*
X424Y3127D02*
X433Y3127D01*
X424Y3126D02*
X433Y3126D01*
X424Y3125D02*
X433Y3125D01*
X424Y3124D02*
X433Y3124D01*
X424Y3123D02*
X433Y3123D01*
X424Y3122D02*
X433Y3122D01*
X424Y3121D02*
X433Y3121D01*
X424Y3120D02*
X433Y3120D01*
X424Y3119D02*
X433Y3119D01*
X424Y3118D02*
X433Y3118D01*
X424Y3117D02*
X433Y3117D01*
X424Y3116D02*
X433Y3116D01*
X424Y3115D02*
X433Y3115D01*
X424Y3114D02*
X433Y3114D01*
X424Y3113D02*
X433Y3113D01*
X424Y3112D02*
X433Y3112D01*
X424Y3111D02*
X433Y3111D01*
X424Y3110D02*
X433Y3110D01*
X424Y3109D02*
X433Y3109D01*
X424Y3108D02*
X433Y3108D01*
X424Y3107D02*
X433Y3107D01*
X424Y3106D02*
X433Y3106D01*
X424Y3105D02*
X433Y3105D01*
X424Y3104D02*
X433Y3104D01*
X424Y3103D02*
X433Y3103D01*
X424Y3102D02*
X433Y3102D01*
X424Y3101D02*
X433Y3101D01*
X424Y3100D02*
X433Y3100D01*
X424Y3099D02*
X433Y3099D01*
X424Y3098D02*
X433Y3098D01*
X424Y3097D02*
X433Y3097D01*
X424Y3096D02*
X433Y3096D01*
X424Y3095D02*
X433Y3095D01*
X424Y3094D02*
X433Y3094D01*
X424Y3093D02*
X433Y3093D01*
X424Y3092D02*
X433Y3092D01*
X424Y3091D02*
X433Y3091D01*
X424Y3090D02*
X433Y3090D01*
X424Y3089D02*
X433Y3089D01*
X424Y3088D02*
X433Y3088D01*
X424Y3087D02*
X433Y3087D01*
X424Y3086D02*
X433Y3086D01*
X424Y3085D02*
X433Y3085D01*
X424Y3084D02*
X433Y3084D01*
X424Y3083D02*
X433Y3083D01*
X424Y3082D02*
X433Y3082D01*
X424Y3081D02*
X433Y3081D01*
X424Y3080D02*
X433Y3080D01*
X424Y3079D02*
X433Y3079D01*
X424Y3078D02*
X433Y3078D01*
X424Y3077D02*
X433Y3077D01*
X424Y3076D02*
X433Y3076D01*
X424Y3075D02*
X433Y3075D01*
X424Y3074D02*
X433Y3074D01*
X424Y3073D02*
X433Y3073D01*
X424Y3072D02*
X433Y3072D01*
X424Y3071D02*
X433Y3071D01*
X424Y3070D02*
X433Y3070D01*
X424Y3069D02*
X433Y3069D01*
X424Y3068D02*
X433Y3068D01*
X424Y3067D02*
X433Y3067D01*
X424Y3066D02*
X433Y3066D01*
X424Y3065D02*
X433Y3065D01*
X424Y3064D02*
X433Y3064D01*
X424Y3063D02*
X433Y3063D01*
X424Y3062D02*
X433Y3062D01*
X424Y3061D02*
X433Y3061D01*
X424Y3060D02*
X433Y3060D01*
X424Y3059D02*
X433Y3059D01*
X424Y3058D02*
X433Y3058D01*
X424Y3057D02*
X433Y3057D01*
X424Y3056D02*
X433Y3056D01*
X424Y3055D02*
X433Y3055D01*
X424Y3054D02*
X433Y3054D01*
X424Y3053D02*
X433Y3053D01*
X424Y3052D02*
X433Y3052D01*
X424Y3051D02*
X433Y3051D01*
X424Y3050D02*
X433Y3050D01*
X424Y3049D02*
X433Y3049D01*
X424Y3048D02*
X433Y3048D01*
X424Y3047D02*
X433Y3047D01*
X424Y3046D02*
X433Y3046D01*
X424Y3045D02*
X433Y3045D01*
X424Y3044D02*
X433Y3044D01*
X424Y3043D02*
X433Y3043D01*
X424Y3042D02*
X433Y3042D01*
X424Y3041D02*
X433Y3041D01*
X424Y3040D02*
X433Y3040D01*
X424Y3039D02*
X433Y3039D01*
X424Y3038D02*
X433Y3038D01*
X424Y3037D02*
X433Y3037D01*
X424Y3036D02*
X433Y3036D01*
X424Y3035D02*
X433Y3035D01*
X424Y3034D02*
X433Y3034D01*
X424Y3033D02*
X433Y3033D01*
X424Y3032D02*
X433Y3032D01*
X424Y3031D02*
X433Y3031D01*
X424Y3030D02*
X433Y3030D01*
X424Y3029D02*
X433Y3029D01*
X424Y3028D02*
X433Y3028D01*
X424Y3027D02*
X433Y3027D01*
X424Y3026D02*
X433Y3026D01*
X424Y3025D02*
X433Y3025D01*
X424Y3024D02*
X433Y3024D01*
X424Y3023D02*
X433Y3023D01*
X424Y3022D02*
X433Y3022D01*
X424Y3021D02*
X433Y3021D01*
X424Y3020D02*
X433Y3020D01*
X424Y3019D02*
X433Y3019D01*
X424Y3018D02*
X433Y3018D01*
X424Y3017D02*
X433Y3017D01*
X424Y3016D02*
X433Y3016D01*
X424Y3015D02*
X433Y3015D01*
X424Y3014D02*
X433Y3014D01*
X424Y3013D02*
X433Y3013D01*
X424Y3012D02*
X433Y3012D01*
X424Y3011D02*
X433Y3011D01*
X424Y3010D02*
X433Y3010D01*
X424Y3009D02*
X432Y3009D01*
X424Y3008D02*
X432Y3008D01*
X424Y3007D02*
X432Y3007D01*
X424Y3006D02*
X431Y3006D01*
X424Y3005D02*
X431Y3005D01*
X424Y3004D02*
X431Y3004D01*
X424Y3003D02*
X431Y3003D01*
X424Y3002D02*
X430Y3002D01*
X424Y3001D02*
X430Y3001D01*
X424Y3000D02*
X430Y3000D01*
X424Y2999D02*
X430Y2999D01*
X424Y2998D02*
X430Y2998D01*
X424Y2997D02*
X430Y2997D01*
X424Y2996D02*
X430Y2996D01*
X424Y2995D02*
X430Y2995D01*
X424Y2994D02*
X430Y2994D01*
X424Y2993D02*
X430Y2993D01*
X424Y2992D02*
X430Y2992D01*
X424Y2991D02*
X430Y2991D01*
X424Y2990D02*
X430Y2990D01*
X424Y2989D02*
X430Y2989D01*
X424Y2988D02*
X430Y2988D01*
X424Y2987D02*
X430Y2987D01*
X424Y2986D02*
X430Y2986D01*
X424Y2985D02*
X430Y2985D01*
X424Y2984D02*
X431Y2984D01*
X424Y2983D02*
X431Y2983D01*
X424Y2982D02*
X431Y2982D01*
X424Y2981D02*
X432Y2981D01*
X424Y2980D02*
X432Y2980D01*
X424Y2979D02*
X432Y2979D01*
X424Y2978D02*
X433Y2978D01*
X424Y2977D02*
X433Y2977D01*
X424Y2976D02*
X433Y2976D01*
X424Y2975D02*
X433Y2975D01*
X424Y2974D02*
X433Y2974D01*
X424Y2973D02*
X433Y2973D01*
X424Y2972D02*
X433Y2972D01*
X424Y2971D02*
X433Y2971D01*
X424Y2970D02*
X433Y2970D01*
X424Y2969D02*
X433Y2969D01*
X424Y2968D02*
X433Y2968D01*
X424Y2967D02*
X433Y2967D01*
X424Y2966D02*
X433Y2966D01*
X424Y2965D02*
X433Y2965D01*
X424Y2964D02*
X433Y2964D01*
X424Y2963D02*
X433Y2963D01*
X424Y2962D02*
X433Y2962D01*
X424Y2961D02*
X433Y2961D01*
X424Y2960D02*
X433Y2960D01*
X424Y2959D02*
X433Y2959D01*
X424Y2958D02*
X433Y2958D01*
X424Y2957D02*
X433Y2957D01*
X424Y2956D02*
X433Y2956D01*
X424Y2955D02*
X433Y2955D01*
X424Y2954D02*
X433Y2954D01*
X424Y2953D02*
X433Y2953D01*
X424Y2952D02*
X433Y2952D01*
X424Y2951D02*
X433Y2951D01*
X424Y2950D02*
X433Y2950D01*
X424Y2949D02*
X433Y2949D01*
X424Y2948D02*
X433Y2948D01*
X424Y2947D02*
X433Y2947D01*
X424Y2946D02*
X433Y2946D01*
X424Y2945D02*
X433Y2945D01*
X424Y2944D02*
X433Y2944D01*
X424Y2943D02*
X433Y2943D01*
X424Y2942D02*
X433Y2942D01*
X424Y2941D02*
X433Y2941D01*
X424Y2940D02*
X433Y2940D01*
X424Y2939D02*
X433Y2939D01*
X424Y2938D02*
X433Y2938D01*
X424Y2937D02*
X433Y2937D01*
X424Y2936D02*
X433Y2936D01*
X424Y2935D02*
X433Y2935D01*
X424Y2934D02*
X433Y2934D01*
X424Y2933D02*
X433Y2933D01*
X424Y2932D02*
X433Y2932D01*
X424Y2931D02*
X433Y2931D01*
X424Y2930D02*
X433Y2930D01*
X424Y2929D02*
X433Y2929D01*
X424Y2928D02*
X433Y2928D01*
X424Y2927D02*
X433Y2927D01*
X424Y2926D02*
X433Y2926D01*
X424Y2925D02*
X433Y2925D01*
X424Y2924D02*
X433Y2924D01*
X424Y2923D02*
X433Y2923D01*
X424Y2922D02*
X433Y2922D01*
X424Y2921D02*
X433Y2921D01*
X424Y2920D02*
X433Y2920D01*
X424Y2919D02*
X433Y2919D01*
X424Y2918D02*
X433Y2918D01*
X424Y2917D02*
X433Y2917D01*
X424Y2916D02*
X433Y2916D01*
X424Y2915D02*
X433Y2915D01*
X424Y2914D02*
X433Y2914D01*
X424Y2913D02*
X433Y2913D01*
X424Y2912D02*
X433Y2912D01*
X424Y2911D02*
X433Y2911D01*
X424Y2910D02*
X433Y2910D01*
X424Y2909D02*
X433Y2909D01*
X424Y2908D02*
X433Y2908D01*
X424Y2907D02*
X433Y2907D01*
X424Y2906D02*
X433Y2906D01*
X424Y2905D02*
X433Y2905D01*
X424Y2904D02*
X433Y2904D01*
X424Y2903D02*
X433Y2903D01*
X424Y2902D02*
X433Y2902D01*
X424Y2901D02*
X433Y2901D01*
X424Y2900D02*
X433Y2900D01*
X424Y2899D02*
X433Y2899D01*
X424Y2898D02*
X433Y2898D01*
X424Y2897D02*
X433Y2897D01*
X424Y2896D02*
X433Y2896D01*
X424Y2895D02*
X433Y2895D01*
X424Y2894D02*
X433Y2894D01*
X424Y2893D02*
X433Y2893D01*
X424Y2892D02*
X433Y2892D01*
X424Y2891D02*
X433Y2891D01*
X424Y2890D02*
X433Y2890D01*
X424Y2889D02*
X433Y2889D01*
X424Y2888D02*
X433Y2888D01*
X424Y2887D02*
X433Y2887D01*
X424Y2886D02*
X433Y2886D01*
X424Y2885D02*
X433Y2885D01*
X424Y2884D02*
X433Y2884D01*
X424Y2883D02*
X433Y2883D01*
X424Y2882D02*
X433Y2882D01*
X424Y2881D02*
X433Y2881D01*
X424Y2880D02*
X433Y2880D01*
X424Y2879D02*
X433Y2879D01*
X424Y2878D02*
X433Y2878D01*
X424Y2877D02*
X433Y2877D01*
X424Y2876D02*
X433Y2876D01*
X424Y2875D02*
X433Y2875D01*
X424Y2874D02*
X433Y2874D01*
X424Y2873D02*
X433Y2873D01*
X424Y2872D02*
X433Y2872D01*
X424Y2871D02*
X433Y2871D01*
X424Y2870D02*
X433Y2870D01*
X424Y2869D02*
X433Y2869D01*
X424Y2868D02*
X433Y2868D01*
X424Y2867D02*
X433Y2867D01*
X424Y2866D02*
X433Y2866D01*
X424Y2865D02*
X433Y2865D01*
X424Y2864D02*
X433Y2864D01*
X424Y2863D02*
X433Y2863D01*
X424Y2862D02*
X433Y2862D01*
X424Y2861D02*
X433Y2861D01*
X424Y2860D02*
X433Y2860D01*
X424Y2859D02*
X433Y2859D01*
X424Y2858D02*
X433Y2858D01*
X424Y2857D02*
X433Y2857D01*
X424Y2856D02*
X433Y2856D01*
X424Y2855D02*
X433Y2855D01*
X424Y2854D02*
X433Y2854D01*
X424Y2853D02*
X433Y2853D01*
X424Y2852D02*
X433Y2852D01*
X424Y2851D02*
X433Y2851D01*
X424Y2850D02*
X433Y2850D01*
X424Y2849D02*
X433Y2849D01*
X424Y2848D02*
X433Y2848D01*
X424Y2847D02*
X433Y2847D01*
X424Y2846D02*
X433Y2846D01*
X424Y2845D02*
X433Y2845D01*
X424Y2844D02*
X433Y2844D01*
X424Y2843D02*
X433Y2843D01*
X424Y2842D02*
X433Y2842D01*
X424Y2841D02*
X433Y2841D01*
X424Y2840D02*
X433Y2840D01*
X424Y2839D02*
X433Y2839D01*
X424Y2838D02*
X433Y2838D01*
X424Y2837D02*
X433Y2837D01*
X424Y2836D02*
X433Y2836D01*
X424Y2835D02*
X433Y2835D01*
X424Y2834D02*
X433Y2834D01*
X424Y2833D02*
X433Y2833D01*
X424Y2832D02*
X433Y2832D01*
X424Y2831D02*
X433Y2831D01*
X424Y2830D02*
X433Y2830D01*
X424Y2829D02*
X433Y2829D01*
X424Y2828D02*
X433Y2828D01*
X424Y2827D02*
X433Y2827D01*
X424Y2826D02*
X433Y2826D01*
X424Y2825D02*
X433Y2825D01*
X424Y2824D02*
X433Y2824D01*
X424Y2823D02*
X433Y2823D01*
X424Y2822D02*
X433Y2822D01*
X424Y2821D02*
X433Y2821D01*
X424Y2820D02*
X433Y2820D01*
X424Y2819D02*
X433Y2819D01*
X424Y2818D02*
X433Y2818D01*
X424Y2817D02*
X433Y2817D01*
X424Y2816D02*
X433Y2816D01*
X424Y2815D02*
X433Y2815D01*
X424Y2814D02*
X433Y2814D01*
X424Y2813D02*
X433Y2813D01*
X271Y2812D02*
X294Y2812D01*
X424Y2812D02*
X433Y2812D01*
X270Y2811D02*
X295Y2811D01*
X424Y2811D02*
X433Y2811D01*
X269Y2810D02*
X295Y2810D01*
X424Y2810D02*
X433Y2810D01*
X269Y2809D02*
X295Y2809D01*
X424Y2809D02*
X433Y2809D01*
X269Y2808D02*
X295Y2808D01*
X424Y2808D02*
X433Y2808D01*
X269Y2807D02*
X295Y2807D01*
X424Y2807D02*
X433Y2807D01*
X269Y2806D02*
X295Y2806D01*
X424Y2806D02*
X433Y2806D01*
X269Y2805D02*
X275Y2805D01*
X289Y2805D02*
X295Y2805D01*
X318Y2805D02*
X321Y2805D01*
X424Y2805D02*
X433Y2805D01*
X269Y2804D02*
X275Y2804D01*
X289Y2804D02*
X295Y2804D01*
X317Y2804D02*
X322Y2804D01*
X424Y2804D02*
X433Y2804D01*
X269Y2803D02*
X275Y2803D01*
X289Y2803D02*
X295Y2803D01*
X317Y2803D02*
X322Y2803D01*
X424Y2803D02*
X433Y2803D01*
X269Y2802D02*
X275Y2802D01*
X289Y2802D02*
X295Y2802D01*
X317Y2802D02*
X323Y2802D01*
X424Y2802D02*
X433Y2802D01*
X269Y2801D02*
X275Y2801D01*
X289Y2801D02*
X295Y2801D01*
X317Y2801D02*
X323Y2801D01*
X424Y2801D02*
X433Y2801D01*
X269Y2800D02*
X275Y2800D01*
X289Y2800D02*
X295Y2800D01*
X317Y2800D02*
X323Y2800D01*
X424Y2800D02*
X433Y2800D01*
X269Y2799D02*
X275Y2799D01*
X289Y2799D02*
X295Y2799D01*
X317Y2799D02*
X323Y2799D01*
X424Y2799D02*
X433Y2799D01*
X269Y2798D02*
X275Y2798D01*
X289Y2798D02*
X295Y2798D01*
X317Y2798D02*
X323Y2798D01*
X424Y2798D02*
X433Y2798D01*
X269Y2797D02*
X275Y2797D01*
X289Y2797D02*
X295Y2797D01*
X317Y2797D02*
X323Y2797D01*
X424Y2797D02*
X433Y2797D01*
X269Y2796D02*
X275Y2796D01*
X289Y2796D02*
X295Y2796D01*
X317Y2796D02*
X323Y2796D01*
X424Y2796D02*
X433Y2796D01*
X269Y2795D02*
X275Y2795D01*
X289Y2795D02*
X295Y2795D01*
X317Y2795D02*
X323Y2795D01*
X424Y2795D02*
X433Y2795D01*
X269Y2794D02*
X275Y2794D01*
X289Y2794D02*
X295Y2794D01*
X317Y2794D02*
X323Y2794D01*
X424Y2794D02*
X433Y2794D01*
X269Y2793D02*
X275Y2793D01*
X289Y2793D02*
X295Y2793D01*
X317Y2793D02*
X323Y2793D01*
X424Y2793D02*
X433Y2793D01*
X269Y2792D02*
X275Y2792D01*
X289Y2792D02*
X295Y2792D01*
X317Y2792D02*
X323Y2792D01*
X424Y2792D02*
X433Y2792D01*
X269Y2791D02*
X275Y2791D01*
X289Y2791D02*
X295Y2791D01*
X317Y2791D02*
X323Y2791D01*
X424Y2791D02*
X433Y2791D01*
X269Y2790D02*
X275Y2790D01*
X289Y2790D02*
X295Y2790D01*
X317Y2790D02*
X323Y2790D01*
X424Y2790D02*
X433Y2790D01*
X269Y2789D02*
X275Y2789D01*
X289Y2789D02*
X295Y2789D01*
X317Y2789D02*
X323Y2789D01*
X424Y2789D02*
X433Y2789D01*
X269Y2788D02*
X275Y2788D01*
X289Y2788D02*
X295Y2788D01*
X317Y2788D02*
X323Y2788D01*
X424Y2788D02*
X433Y2788D01*
X269Y2787D02*
X275Y2787D01*
X289Y2787D02*
X295Y2787D01*
X317Y2787D02*
X323Y2787D01*
X424Y2787D02*
X433Y2787D01*
X269Y2786D02*
X275Y2786D01*
X289Y2786D02*
X295Y2786D01*
X317Y2786D02*
X323Y2786D01*
X424Y2786D02*
X433Y2786D01*
X269Y2785D02*
X323Y2785D01*
X424Y2785D02*
X433Y2785D01*
X269Y2784D02*
X323Y2784D01*
X424Y2784D02*
X433Y2784D01*
X269Y2783D02*
X323Y2783D01*
X424Y2783D02*
X433Y2783D01*
X269Y2782D02*
X323Y2782D01*
X424Y2782D02*
X433Y2782D01*
X270Y2781D02*
X322Y2781D01*
X424Y2781D02*
X433Y2781D01*
X270Y2780D02*
X322Y2780D01*
X424Y2780D02*
X433Y2780D01*
X271Y2779D02*
X321Y2779D01*
X424Y2779D02*
X433Y2779D01*
X424Y2778D02*
X433Y2778D01*
X424Y2777D02*
X433Y2777D01*
X424Y2776D02*
X433Y2776D01*
X424Y2775D02*
X433Y2775D01*
X424Y2774D02*
X433Y2774D01*
X424Y2773D02*
X433Y2773D01*
X424Y2772D02*
X433Y2772D01*
X424Y2771D02*
X433Y2771D01*
X424Y2770D02*
X433Y2770D01*
X424Y2769D02*
X433Y2769D01*
X424Y2768D02*
X433Y2768D01*
X424Y2767D02*
X433Y2767D01*
X424Y2766D02*
X433Y2766D01*
X424Y2765D02*
X433Y2765D01*
X424Y2764D02*
X433Y2764D01*
X424Y2763D02*
X433Y2763D01*
X424Y2762D02*
X433Y2762D01*
X289Y2761D02*
X291Y2761D01*
X424Y2761D02*
X433Y2761D01*
X288Y2760D02*
X292Y2760D01*
X424Y2760D02*
X433Y2760D01*
X287Y2759D02*
X293Y2759D01*
X424Y2759D02*
X433Y2759D01*
X287Y2758D02*
X293Y2758D01*
X424Y2758D02*
X433Y2758D01*
X272Y2757D02*
X314Y2757D01*
X424Y2757D02*
X433Y2757D01*
X270Y2756D02*
X316Y2756D01*
X424Y2756D02*
X433Y2756D01*
X270Y2755D02*
X316Y2755D01*
X424Y2755D02*
X433Y2755D01*
X269Y2754D02*
X317Y2754D01*
X424Y2754D02*
X433Y2754D01*
X269Y2753D02*
X316Y2753D01*
X424Y2753D02*
X433Y2753D01*
X270Y2752D02*
X316Y2752D01*
X424Y2752D02*
X433Y2752D01*
X271Y2751D02*
X315Y2751D01*
X424Y2751D02*
X433Y2751D01*
X287Y2750D02*
X293Y2750D01*
X424Y2750D02*
X433Y2750D01*
X287Y2749D02*
X293Y2749D01*
X424Y2749D02*
X433Y2749D01*
X287Y2748D02*
X293Y2748D01*
X424Y2748D02*
X433Y2748D01*
X287Y2747D02*
X293Y2747D01*
X424Y2747D02*
X433Y2747D01*
X287Y2746D02*
X293Y2746D01*
X424Y2746D02*
X433Y2746D01*
X287Y2745D02*
X293Y2745D01*
X424Y2745D02*
X433Y2745D01*
X287Y2744D02*
X293Y2744D01*
X424Y2744D02*
X433Y2744D01*
X287Y2743D02*
X293Y2743D01*
X424Y2743D02*
X433Y2743D01*
X287Y2742D02*
X293Y2742D01*
X424Y2742D02*
X433Y2742D01*
X287Y2741D02*
X293Y2741D01*
X424Y2741D02*
X433Y2741D01*
X287Y2740D02*
X293Y2740D01*
X424Y2740D02*
X433Y2740D01*
X287Y2739D02*
X293Y2739D01*
X424Y2739D02*
X433Y2739D01*
X287Y2738D02*
X293Y2738D01*
X424Y2738D02*
X433Y2738D01*
X287Y2737D02*
X293Y2737D01*
X424Y2737D02*
X433Y2737D01*
X287Y2736D02*
X320Y2736D01*
X424Y2736D02*
X433Y2736D01*
X287Y2735D02*
X322Y2735D01*
X424Y2735D02*
X433Y2735D01*
X287Y2734D02*
X322Y2734D01*
X424Y2734D02*
X433Y2734D01*
X287Y2733D02*
X322Y2733D01*
X424Y2733D02*
X433Y2733D01*
X287Y2732D02*
X322Y2732D01*
X424Y2732D02*
X433Y2732D01*
X287Y2731D02*
X322Y2731D01*
X424Y2731D02*
X433Y2731D01*
X287Y2730D02*
X321Y2730D01*
X424Y2730D02*
X433Y2730D01*
X424Y2729D02*
X433Y2729D01*
X424Y2728D02*
X433Y2728D01*
X424Y2727D02*
X433Y2727D01*
X424Y2726D02*
X433Y2726D01*
X424Y2725D02*
X433Y2725D01*
X424Y2724D02*
X433Y2724D01*
X424Y2723D02*
X433Y2723D01*
X424Y2722D02*
X433Y2722D01*
X424Y2721D02*
X433Y2721D01*
X424Y2720D02*
X433Y2720D01*
X424Y2719D02*
X433Y2719D01*
X424Y2718D02*
X433Y2718D01*
X424Y2717D02*
X433Y2717D01*
X424Y2716D02*
X433Y2716D01*
X424Y2715D02*
X433Y2715D01*
X424Y2714D02*
X433Y2714D01*
X424Y2713D02*
X433Y2713D01*
X274Y2712D02*
X318Y2712D01*
X424Y2712D02*
X433Y2712D01*
X272Y2711D02*
X319Y2711D01*
X424Y2711D02*
X433Y2711D01*
X271Y2710D02*
X321Y2710D01*
X424Y2710D02*
X433Y2710D01*
X271Y2709D02*
X321Y2709D01*
X424Y2709D02*
X433Y2709D01*
X270Y2708D02*
X322Y2708D01*
X424Y2708D02*
X433Y2708D01*
X270Y2707D02*
X322Y2707D01*
X424Y2707D02*
X433Y2707D01*
X269Y2706D02*
X322Y2706D01*
X424Y2706D02*
X433Y2706D01*
X269Y2705D02*
X275Y2705D01*
X316Y2705D02*
X323Y2705D01*
X424Y2705D02*
X433Y2705D01*
X269Y2704D02*
X275Y2704D01*
X317Y2704D02*
X323Y2704D01*
X424Y2704D02*
X433Y2704D01*
X269Y2703D02*
X275Y2703D01*
X317Y2703D02*
X323Y2703D01*
X424Y2703D02*
X433Y2703D01*
X269Y2702D02*
X275Y2702D01*
X317Y2702D02*
X323Y2702D01*
X424Y2702D02*
X433Y2702D01*
X269Y2701D02*
X275Y2701D01*
X317Y2701D02*
X323Y2701D01*
X424Y2701D02*
X433Y2701D01*
X269Y2700D02*
X275Y2700D01*
X317Y2700D02*
X323Y2700D01*
X424Y2700D02*
X433Y2700D01*
X269Y2699D02*
X275Y2699D01*
X317Y2699D02*
X323Y2699D01*
X424Y2699D02*
X433Y2699D01*
X269Y2698D02*
X275Y2698D01*
X317Y2698D02*
X323Y2698D01*
X424Y2698D02*
X433Y2698D01*
X269Y2697D02*
X275Y2697D01*
X317Y2697D02*
X323Y2697D01*
X424Y2697D02*
X433Y2697D01*
X269Y2696D02*
X275Y2696D01*
X317Y2696D02*
X323Y2696D01*
X424Y2696D02*
X433Y2696D01*
X269Y2695D02*
X275Y2695D01*
X317Y2695D02*
X323Y2695D01*
X424Y2695D02*
X433Y2695D01*
X269Y2694D02*
X275Y2694D01*
X317Y2694D02*
X323Y2694D01*
X424Y2694D02*
X433Y2694D01*
X269Y2693D02*
X275Y2693D01*
X317Y2693D02*
X323Y2693D01*
X424Y2693D02*
X433Y2693D01*
X269Y2692D02*
X275Y2692D01*
X317Y2692D02*
X323Y2692D01*
X424Y2692D02*
X433Y2692D01*
X269Y2691D02*
X275Y2691D01*
X317Y2691D02*
X323Y2691D01*
X424Y2691D02*
X433Y2691D01*
X269Y2690D02*
X275Y2690D01*
X317Y2690D02*
X323Y2690D01*
X424Y2690D02*
X433Y2690D01*
X269Y2689D02*
X275Y2689D01*
X317Y2689D02*
X323Y2689D01*
X424Y2689D02*
X433Y2689D01*
X269Y2688D02*
X275Y2688D01*
X317Y2688D02*
X323Y2688D01*
X424Y2688D02*
X433Y2688D01*
X269Y2687D02*
X275Y2687D01*
X317Y2687D02*
X323Y2687D01*
X424Y2687D02*
X433Y2687D01*
X269Y2686D02*
X275Y2686D01*
X317Y2686D02*
X323Y2686D01*
X424Y2686D02*
X433Y2686D01*
X269Y2685D02*
X276Y2685D01*
X316Y2685D02*
X323Y2685D01*
X424Y2685D02*
X433Y2685D01*
X269Y2684D02*
X322Y2684D01*
X424Y2684D02*
X433Y2684D01*
X270Y2683D02*
X322Y2683D01*
X424Y2683D02*
X433Y2683D01*
X270Y2682D02*
X322Y2682D01*
X424Y2682D02*
X433Y2682D01*
X271Y2681D02*
X321Y2681D01*
X424Y2681D02*
X433Y2681D01*
X271Y2680D02*
X321Y2680D01*
X424Y2680D02*
X433Y2680D01*
X273Y2679D02*
X319Y2679D01*
X424Y2679D02*
X433Y2679D01*
X275Y2678D02*
X317Y2678D01*
X424Y2678D02*
X433Y2678D01*
X424Y2677D02*
X433Y2677D01*
X424Y2676D02*
X433Y2676D01*
X424Y2675D02*
X433Y2675D01*
X424Y2674D02*
X433Y2674D01*
X424Y2673D02*
X433Y2673D01*
X424Y2672D02*
X433Y2672D01*
X424Y2671D02*
X433Y2671D01*
X424Y2670D02*
X433Y2670D01*
X424Y2669D02*
X433Y2669D01*
X424Y2668D02*
X433Y2668D01*
X424Y2667D02*
X433Y2667D01*
X424Y2666D02*
X433Y2666D01*
X424Y2665D02*
X433Y2665D01*
X424Y2664D02*
X433Y2664D01*
X424Y2663D02*
X433Y2663D01*
X424Y2662D02*
X433Y2662D01*
X424Y2661D02*
X433Y2661D01*
X288Y2660D02*
X292Y2660D01*
X424Y2660D02*
X433Y2660D01*
X287Y2659D02*
X293Y2659D01*
X424Y2659D02*
X433Y2659D01*
X287Y2658D02*
X293Y2658D01*
X424Y2658D02*
X433Y2658D01*
X287Y2657D02*
X293Y2657D01*
X424Y2657D02*
X433Y2657D01*
X271Y2656D02*
X315Y2656D01*
X424Y2656D02*
X433Y2656D01*
X270Y2655D02*
X316Y2655D01*
X424Y2655D02*
X433Y2655D01*
X270Y2654D02*
X316Y2654D01*
X424Y2654D02*
X433Y2654D01*
X269Y2653D02*
X317Y2653D01*
X424Y2653D02*
X433Y2653D01*
X270Y2652D02*
X316Y2652D01*
X424Y2652D02*
X433Y2652D01*
X270Y2651D02*
X316Y2651D01*
X424Y2651D02*
X433Y2651D01*
X272Y2650D02*
X314Y2650D01*
X424Y2650D02*
X433Y2650D01*
X287Y2649D02*
X293Y2649D01*
X424Y2649D02*
X433Y2649D01*
X287Y2648D02*
X293Y2648D01*
X424Y2648D02*
X433Y2648D01*
X287Y2647D02*
X293Y2647D01*
X424Y2647D02*
X433Y2647D01*
X287Y2646D02*
X293Y2646D01*
X424Y2646D02*
X433Y2646D01*
X287Y2645D02*
X293Y2645D01*
X424Y2645D02*
X433Y2645D01*
X287Y2644D02*
X293Y2644D01*
X424Y2644D02*
X433Y2644D01*
X287Y2643D02*
X293Y2643D01*
X424Y2643D02*
X433Y2643D01*
X287Y2642D02*
X293Y2642D01*
X424Y2642D02*
X433Y2642D01*
X287Y2641D02*
X293Y2641D01*
X424Y2641D02*
X433Y2641D01*
X287Y2640D02*
X293Y2640D01*
X424Y2640D02*
X433Y2640D01*
X287Y2639D02*
X293Y2639D01*
X424Y2639D02*
X433Y2639D01*
X287Y2638D02*
X293Y2638D01*
X424Y2638D02*
X433Y2638D01*
X287Y2637D02*
X293Y2637D01*
X424Y2637D02*
X433Y2637D01*
X287Y2636D02*
X294Y2636D01*
X424Y2636D02*
X433Y2636D01*
X287Y2635D02*
X321Y2635D01*
X424Y2635D02*
X433Y2635D01*
X287Y2634D02*
X322Y2634D01*
X424Y2634D02*
X433Y2634D01*
X287Y2633D02*
X322Y2633D01*
X424Y2633D02*
X433Y2633D01*
X287Y2632D02*
X322Y2632D01*
X424Y2632D02*
X433Y2632D01*
X287Y2631D02*
X322Y2631D01*
X424Y2631D02*
X433Y2631D01*
X287Y2630D02*
X321Y2630D01*
X424Y2630D02*
X433Y2630D01*
X288Y2629D02*
X319Y2629D01*
X424Y2629D02*
X433Y2629D01*
X424Y2628D02*
X433Y2628D01*
X424Y2627D02*
X433Y2627D01*
X424Y2626D02*
X433Y2626D01*
X424Y2625D02*
X433Y2625D01*
X424Y2624D02*
X433Y2624D01*
X424Y2623D02*
X433Y2623D01*
X424Y2622D02*
X433Y2622D01*
X424Y2621D02*
X433Y2621D01*
X424Y2620D02*
X433Y2620D01*
X424Y2619D02*
X433Y2619D01*
X424Y2618D02*
X433Y2618D01*
X424Y2617D02*
X433Y2617D01*
X424Y2616D02*
X433Y2616D01*
X424Y2615D02*
X433Y2615D01*
X424Y2614D02*
X433Y2614D01*
X296Y2613D02*
X296Y2613D01*
X424Y2613D02*
X433Y2613D01*
X291Y2612D02*
X301Y2612D01*
X424Y2612D02*
X433Y2612D01*
X289Y2611D02*
X303Y2611D01*
X424Y2611D02*
X433Y2611D01*
X287Y2610D02*
X305Y2610D01*
X424Y2610D02*
X433Y2610D01*
X285Y2609D02*
X307Y2609D01*
X424Y2609D02*
X433Y2609D01*
X283Y2608D02*
X309Y2608D01*
X424Y2608D02*
X433Y2608D01*
X281Y2607D02*
X311Y2607D01*
X424Y2607D02*
X433Y2607D01*
X279Y2606D02*
X313Y2606D01*
X424Y2606D02*
X433Y2606D01*
X277Y2605D02*
X291Y2605D01*
X300Y2605D02*
X315Y2605D01*
X424Y2605D02*
X433Y2605D01*
X275Y2604D02*
X289Y2604D01*
X302Y2604D02*
X317Y2604D01*
X424Y2604D02*
X433Y2604D01*
X273Y2603D02*
X287Y2603D01*
X304Y2603D02*
X318Y2603D01*
X424Y2603D02*
X433Y2603D01*
X272Y2602D02*
X285Y2602D01*
X306Y2602D02*
X320Y2602D01*
X424Y2602D02*
X433Y2602D01*
X271Y2601D02*
X283Y2601D01*
X308Y2601D02*
X320Y2601D01*
X424Y2601D02*
X433Y2601D01*
X271Y2600D02*
X281Y2600D01*
X310Y2600D02*
X321Y2600D01*
X424Y2600D02*
X433Y2600D01*
X270Y2599D02*
X280Y2599D01*
X312Y2599D02*
X322Y2599D01*
X424Y2599D02*
X433Y2599D01*
X270Y2598D02*
X278Y2598D01*
X314Y2598D02*
X322Y2598D01*
X424Y2598D02*
X433Y2598D01*
X270Y2597D02*
X276Y2597D01*
X316Y2597D02*
X322Y2597D01*
X424Y2597D02*
X433Y2597D01*
X270Y2596D02*
X276Y2596D01*
X316Y2596D02*
X322Y2596D01*
X424Y2596D02*
X433Y2596D01*
X269Y2595D02*
X275Y2595D01*
X316Y2595D02*
X322Y2595D01*
X424Y2595D02*
X433Y2595D01*
X269Y2594D02*
X275Y2594D01*
X317Y2594D02*
X323Y2594D01*
X424Y2594D02*
X433Y2594D01*
X269Y2593D02*
X275Y2593D01*
X317Y2593D02*
X323Y2593D01*
X424Y2593D02*
X433Y2593D01*
X269Y2592D02*
X275Y2592D01*
X317Y2592D02*
X323Y2592D01*
X424Y2592D02*
X433Y2592D01*
X269Y2591D02*
X275Y2591D01*
X317Y2591D02*
X323Y2591D01*
X424Y2591D02*
X433Y2591D01*
X269Y2590D02*
X323Y2590D01*
X424Y2590D02*
X433Y2590D01*
X269Y2589D02*
X323Y2589D01*
X424Y2589D02*
X433Y2589D01*
X269Y2588D02*
X323Y2588D01*
X424Y2588D02*
X433Y2588D01*
X269Y2587D02*
X323Y2587D01*
X424Y2587D02*
X433Y2587D01*
X269Y2586D02*
X323Y2586D01*
X424Y2586D02*
X433Y2586D01*
X269Y2585D02*
X323Y2585D01*
X424Y2585D02*
X433Y2585D01*
X269Y2584D02*
X323Y2584D01*
X424Y2584D02*
X433Y2584D01*
X269Y2583D02*
X276Y2583D01*
X316Y2583D02*
X323Y2583D01*
X424Y2583D02*
X433Y2583D01*
X269Y2582D02*
X275Y2582D01*
X316Y2582D02*
X323Y2582D01*
X424Y2582D02*
X433Y2582D01*
X269Y2581D02*
X275Y2581D01*
X316Y2581D02*
X323Y2581D01*
X424Y2581D02*
X433Y2581D01*
X269Y2580D02*
X275Y2580D01*
X316Y2580D02*
X323Y2580D01*
X424Y2580D02*
X433Y2580D01*
X270Y2579D02*
X275Y2579D01*
X317Y2579D02*
X322Y2579D01*
X424Y2579D02*
X433Y2579D01*
X270Y2578D02*
X275Y2578D01*
X317Y2578D02*
X322Y2578D01*
X424Y2578D02*
X433Y2578D01*
X271Y2577D02*
X274Y2577D01*
X318Y2577D02*
X321Y2577D01*
X424Y2577D02*
X433Y2577D01*
X424Y2576D02*
X433Y2576D01*
X424Y2575D02*
X433Y2575D01*
X424Y2574D02*
X433Y2574D01*
X424Y2573D02*
X433Y2573D01*
X424Y2572D02*
X433Y2572D01*
X424Y2571D02*
X433Y2571D01*
X424Y2570D02*
X433Y2570D01*
X424Y2569D02*
X433Y2569D01*
X424Y2568D02*
X433Y2568D01*
X424Y2567D02*
X433Y2567D01*
X424Y2566D02*
X433Y2566D01*
X424Y2565D02*
X433Y2565D01*
X424Y2564D02*
X433Y2564D01*
X424Y2563D02*
X433Y2563D01*
X424Y2562D02*
X433Y2562D01*
X271Y2561D02*
X274Y2561D01*
X318Y2561D02*
X321Y2561D01*
X424Y2561D02*
X433Y2561D01*
X270Y2560D02*
X275Y2560D01*
X317Y2560D02*
X322Y2560D01*
X424Y2560D02*
X433Y2560D01*
X269Y2559D02*
X275Y2559D01*
X317Y2559D02*
X322Y2559D01*
X424Y2559D02*
X433Y2559D01*
X269Y2558D02*
X275Y2558D01*
X317Y2558D02*
X323Y2558D01*
X424Y2558D02*
X433Y2558D01*
X269Y2557D02*
X275Y2557D01*
X317Y2557D02*
X323Y2557D01*
X424Y2557D02*
X433Y2557D01*
X269Y2556D02*
X275Y2556D01*
X317Y2556D02*
X323Y2556D01*
X424Y2556D02*
X433Y2556D01*
X269Y2555D02*
X275Y2555D01*
X317Y2555D02*
X323Y2555D01*
X424Y2555D02*
X433Y2555D01*
X269Y2554D02*
X275Y2554D01*
X317Y2554D02*
X323Y2554D01*
X424Y2554D02*
X433Y2554D01*
X269Y2553D02*
X275Y2553D01*
X317Y2553D02*
X323Y2553D01*
X424Y2553D02*
X433Y2553D01*
X269Y2552D02*
X275Y2552D01*
X317Y2552D02*
X323Y2552D01*
X424Y2552D02*
X433Y2552D01*
X269Y2551D02*
X275Y2551D01*
X317Y2551D02*
X323Y2551D01*
X424Y2551D02*
X433Y2551D01*
X269Y2550D02*
X275Y2550D01*
X317Y2550D02*
X323Y2550D01*
X424Y2550D02*
X433Y2550D01*
X269Y2549D02*
X275Y2549D01*
X317Y2549D02*
X323Y2549D01*
X424Y2549D02*
X433Y2549D01*
X269Y2548D02*
X275Y2548D01*
X317Y2548D02*
X323Y2548D01*
X424Y2548D02*
X433Y2548D01*
X269Y2547D02*
X275Y2547D01*
X317Y2547D02*
X323Y2547D01*
X424Y2547D02*
X433Y2547D01*
X723Y2547D02*
X725Y2547D01*
X752Y2547D02*
X754Y2547D01*
X269Y2546D02*
X275Y2546D01*
X317Y2546D02*
X323Y2546D01*
X424Y2546D02*
X433Y2546D01*
X723Y2546D02*
X726Y2546D01*
X751Y2546D02*
X754Y2546D01*
X269Y2545D02*
X275Y2545D01*
X316Y2545D02*
X322Y2545D01*
X424Y2545D02*
X433Y2545D01*
X723Y2545D02*
X726Y2545D01*
X751Y2545D02*
X754Y2545D01*
X270Y2544D02*
X276Y2544D01*
X316Y2544D02*
X322Y2544D01*
X424Y2544D02*
X433Y2544D01*
X723Y2544D02*
X726Y2544D01*
X751Y2544D02*
X754Y2544D01*
X270Y2543D02*
X277Y2543D01*
X315Y2543D02*
X322Y2543D01*
X424Y2543D02*
X433Y2543D01*
X723Y2543D02*
X726Y2543D01*
X751Y2543D02*
X754Y2543D01*
X270Y2542D02*
X278Y2542D01*
X314Y2542D02*
X322Y2542D01*
X424Y2542D02*
X433Y2542D01*
X723Y2542D02*
X726Y2542D01*
X751Y2542D02*
X754Y2542D01*
X270Y2541D02*
X280Y2541D01*
X312Y2541D02*
X322Y2541D01*
X424Y2541D02*
X433Y2541D01*
X723Y2541D02*
X726Y2541D01*
X751Y2541D02*
X754Y2541D01*
X271Y2540D02*
X282Y2540D01*
X310Y2540D02*
X321Y2540D01*
X424Y2540D02*
X433Y2540D01*
X723Y2540D02*
X726Y2540D01*
X751Y2540D02*
X754Y2540D01*
X272Y2539D02*
X284Y2539D01*
X308Y2539D02*
X320Y2539D01*
X424Y2539D02*
X433Y2539D01*
X723Y2539D02*
X754Y2539D01*
X273Y2538D02*
X286Y2538D01*
X306Y2538D02*
X319Y2538D01*
X424Y2538D02*
X433Y2538D01*
X723Y2538D02*
X754Y2538D01*
X274Y2537D02*
X288Y2537D01*
X304Y2537D02*
X318Y2537D01*
X424Y2537D02*
X433Y2537D01*
X723Y2537D02*
X754Y2537D01*
X275Y2536D02*
X290Y2536D01*
X302Y2536D02*
X317Y2536D01*
X424Y2536D02*
X433Y2536D01*
X723Y2536D02*
X754Y2536D01*
X277Y2535D02*
X292Y2535D01*
X300Y2535D02*
X315Y2535D01*
X424Y2535D02*
X433Y2535D01*
X751Y2535D02*
X754Y2535D01*
X279Y2534D02*
X313Y2534D01*
X424Y2534D02*
X433Y2534D01*
X751Y2534D02*
X754Y2534D01*
X281Y2533D02*
X311Y2533D01*
X424Y2533D02*
X433Y2533D01*
X751Y2533D02*
X754Y2533D01*
X283Y2532D02*
X309Y2532D01*
X424Y2532D02*
X433Y2532D01*
X751Y2532D02*
X754Y2532D01*
X285Y2531D02*
X307Y2531D01*
X424Y2531D02*
X433Y2531D01*
X744Y2531D02*
X754Y2531D01*
X287Y2530D02*
X305Y2530D01*
X424Y2530D02*
X433Y2530D01*
X743Y2530D02*
X754Y2530D01*
X289Y2529D02*
X303Y2529D01*
X424Y2529D02*
X433Y2529D01*
X743Y2529D02*
X754Y2529D01*
X292Y2528D02*
X300Y2528D01*
X424Y2528D02*
X433Y2528D01*
X743Y2528D02*
X754Y2528D01*
X424Y2527D02*
X433Y2527D01*
X744Y2527D02*
X753Y2527D01*
X424Y2526D02*
X433Y2526D01*
X424Y2525D02*
X433Y2525D01*
X424Y2524D02*
X433Y2524D01*
X424Y2523D02*
X433Y2523D01*
X424Y2522D02*
X433Y2522D01*
X424Y2521D02*
X433Y2521D01*
X424Y2520D02*
X433Y2520D01*
X424Y2519D02*
X433Y2519D01*
X424Y2518D02*
X433Y2518D01*
X424Y2517D02*
X433Y2517D01*
X725Y2517D02*
X752Y2517D01*
X424Y2516D02*
X433Y2516D01*
X724Y2516D02*
X753Y2516D01*
X424Y2515D02*
X433Y2515D01*
X723Y2515D02*
X754Y2515D01*
X424Y2514D02*
X433Y2514D01*
X723Y2514D02*
X754Y2514D01*
X424Y2513D02*
X433Y2513D01*
X723Y2513D02*
X726Y2513D01*
X751Y2513D02*
X754Y2513D01*
X424Y2512D02*
X433Y2512D01*
X723Y2512D02*
X726Y2512D01*
X751Y2512D02*
X754Y2512D01*
X424Y2511D02*
X433Y2511D01*
X723Y2511D02*
X726Y2511D01*
X751Y2511D02*
X754Y2511D01*
X424Y2510D02*
X433Y2510D01*
X723Y2510D02*
X726Y2510D01*
X751Y2510D02*
X754Y2510D01*
X424Y2509D02*
X433Y2509D01*
X723Y2509D02*
X726Y2509D01*
X751Y2509D02*
X754Y2509D01*
X424Y2508D02*
X433Y2508D01*
X723Y2508D02*
X726Y2508D01*
X751Y2508D02*
X754Y2508D01*
X424Y2507D02*
X433Y2507D01*
X723Y2507D02*
X726Y2507D01*
X751Y2507D02*
X754Y2507D01*
X424Y2506D02*
X433Y2506D01*
X723Y2506D02*
X726Y2506D01*
X751Y2506D02*
X754Y2506D01*
X424Y2505D02*
X433Y2505D01*
X723Y2505D02*
X726Y2505D01*
X751Y2505D02*
X754Y2505D01*
X424Y2504D02*
X433Y2504D01*
X723Y2504D02*
X726Y2504D01*
X751Y2504D02*
X754Y2504D01*
X424Y2503D02*
X433Y2503D01*
X723Y2503D02*
X726Y2503D01*
X751Y2503D02*
X754Y2503D01*
X424Y2502D02*
X433Y2502D01*
X723Y2502D02*
X726Y2502D01*
X751Y2502D02*
X754Y2502D01*
X424Y2501D02*
X433Y2501D01*
X723Y2501D02*
X726Y2501D01*
X750Y2501D02*
X754Y2501D01*
X424Y2500D02*
X433Y2500D01*
X723Y2500D02*
X754Y2500D01*
X424Y2499D02*
X433Y2499D01*
X723Y2499D02*
X754Y2499D01*
X424Y2498D02*
X433Y2498D01*
X724Y2498D02*
X753Y2498D01*
X424Y2497D02*
X433Y2497D01*
X726Y2497D02*
X751Y2497D01*
X424Y2496D02*
X433Y2496D01*
X424Y2495D02*
X433Y2495D01*
X424Y2494D02*
X433Y2494D01*
X424Y2493D02*
X433Y2493D01*
X424Y2492D02*
X433Y2492D01*
X424Y2491D02*
X433Y2491D01*
X424Y2490D02*
X433Y2490D01*
X424Y2489D02*
X433Y2489D01*
X424Y2488D02*
X433Y2488D01*
X424Y2487D02*
X433Y2487D01*
X725Y2487D02*
X752Y2487D01*
X424Y2486D02*
X433Y2486D01*
X724Y2486D02*
X753Y2486D01*
X424Y2485D02*
X433Y2485D01*
X723Y2485D02*
X754Y2485D01*
X424Y2484D02*
X433Y2484D01*
X723Y2484D02*
X754Y2484D01*
X424Y2483D02*
X433Y2483D01*
X723Y2483D02*
X726Y2483D01*
X751Y2483D02*
X754Y2483D01*
X424Y2482D02*
X433Y2482D01*
X723Y2482D02*
X726Y2482D01*
X751Y2482D02*
X754Y2482D01*
X424Y2481D02*
X433Y2481D01*
X723Y2481D02*
X726Y2481D01*
X751Y2481D02*
X754Y2481D01*
X424Y2480D02*
X433Y2480D01*
X723Y2480D02*
X726Y2480D01*
X751Y2480D02*
X754Y2480D01*
X424Y2479D02*
X433Y2479D01*
X723Y2479D02*
X726Y2479D01*
X751Y2479D02*
X754Y2479D01*
X424Y2478D02*
X433Y2478D01*
X723Y2478D02*
X726Y2478D01*
X751Y2478D02*
X754Y2478D01*
X424Y2477D02*
X433Y2477D01*
X723Y2477D02*
X726Y2477D01*
X751Y2477D02*
X754Y2477D01*
X424Y2476D02*
X433Y2476D01*
X723Y2476D02*
X726Y2476D01*
X751Y2476D02*
X754Y2476D01*
X424Y2475D02*
X433Y2475D01*
X723Y2475D02*
X726Y2475D01*
X751Y2475D02*
X754Y2475D01*
X424Y2474D02*
X433Y2474D01*
X723Y2474D02*
X726Y2474D01*
X751Y2474D02*
X754Y2474D01*
X424Y2473D02*
X433Y2473D01*
X723Y2473D02*
X726Y2473D01*
X751Y2473D02*
X754Y2473D01*
X424Y2472D02*
X433Y2472D01*
X723Y2472D02*
X726Y2472D01*
X751Y2472D02*
X754Y2472D01*
X424Y2471D02*
X433Y2471D01*
X723Y2471D02*
X726Y2471D01*
X751Y2471D02*
X754Y2471D01*
X424Y2470D02*
X433Y2470D01*
X723Y2470D02*
X754Y2470D01*
X424Y2469D02*
X433Y2469D01*
X723Y2469D02*
X754Y2469D01*
X424Y2468D02*
X433Y2468D01*
X724Y2468D02*
X753Y2468D01*
X424Y2467D02*
X433Y2467D01*
X725Y2467D02*
X751Y2467D01*
X424Y2466D02*
X433Y2466D01*
X424Y2465D02*
X433Y2465D01*
X424Y2464D02*
X433Y2464D01*
X424Y2463D02*
X433Y2463D01*
X424Y2462D02*
X433Y2462D01*
X424Y2461D02*
X433Y2461D01*
X424Y2460D02*
X433Y2460D01*
X424Y2459D02*
X433Y2459D01*
X424Y2458D02*
X433Y2458D01*
X424Y2457D02*
X433Y2457D01*
X734Y2457D02*
X752Y2457D01*
X424Y2456D02*
X433Y2456D01*
X732Y2456D02*
X754Y2456D01*
X424Y2455D02*
X433Y2455D01*
X732Y2455D02*
X754Y2455D01*
X424Y2454D02*
X433Y2454D01*
X732Y2454D02*
X754Y2454D01*
X424Y2453D02*
X433Y2453D01*
X733Y2453D02*
X753Y2453D01*
X30Y2452D02*
X75Y2452D01*
X113Y2452D02*
X178Y2452D01*
X313Y2452D02*
X433Y2452D01*
X735Y2452D02*
X739Y2452D01*
X29Y2451D02*
X73Y2451D01*
X114Y2451D02*
X178Y2451D01*
X314Y2451D02*
X433Y2451D01*
X734Y2451D02*
X738Y2451D01*
X29Y2450D02*
X71Y2450D01*
X116Y2450D02*
X178Y2450D01*
X316Y2450D02*
X433Y2450D01*
X733Y2450D02*
X737Y2450D01*
X29Y2449D02*
X70Y2449D01*
X118Y2449D02*
X178Y2449D01*
X318Y2449D02*
X433Y2449D01*
X733Y2449D02*
X737Y2449D01*
X29Y2448D02*
X69Y2448D01*
X119Y2448D02*
X178Y2448D01*
X319Y2448D02*
X433Y2448D01*
X732Y2448D02*
X736Y2448D01*
X29Y2447D02*
X67Y2447D01*
X120Y2447D02*
X178Y2447D01*
X320Y2447D02*
X428Y2447D01*
X732Y2447D02*
X735Y2447D01*
X29Y2446D02*
X66Y2446D01*
X121Y2446D02*
X178Y2446D01*
X321Y2446D02*
X428Y2446D01*
X732Y2446D02*
X735Y2446D01*
X29Y2445D02*
X65Y2445D01*
X122Y2445D02*
X178Y2445D01*
X322Y2445D02*
X428Y2445D01*
X732Y2445D02*
X735Y2445D01*
X29Y2444D02*
X64Y2444D01*
X123Y2444D02*
X178Y2444D01*
X323Y2444D02*
X428Y2444D01*
X732Y2444D02*
X735Y2444D01*
X29Y2443D02*
X63Y2443D01*
X124Y2443D02*
X178Y2443D01*
X324Y2443D02*
X428Y2443D01*
X732Y2443D02*
X735Y2443D01*
X732Y2442D02*
X735Y2442D01*
X732Y2441D02*
X752Y2441D01*
X732Y2440D02*
X754Y2440D01*
X733Y2439D02*
X754Y2439D01*
X734Y2438D02*
X754Y2438D01*
X736Y2437D02*
X753Y2437D01*
X723Y2427D02*
X753Y2427D01*
X723Y2426D02*
X754Y2426D01*
X723Y2425D02*
X754Y2425D01*
X723Y2424D02*
X754Y2424D01*
X723Y2423D02*
X752Y2423D01*
X723Y2422D02*
X726Y2422D01*
X733Y2422D02*
X737Y2422D01*
X723Y2421D02*
X726Y2421D01*
X733Y2421D02*
X737Y2421D01*
X723Y2420D02*
X726Y2420D01*
X733Y2420D02*
X737Y2420D01*
X723Y2419D02*
X726Y2419D01*
X733Y2419D02*
X737Y2419D01*
X723Y2418D02*
X726Y2418D01*
X733Y2418D02*
X737Y2418D01*
X723Y2417D02*
X726Y2417D01*
X733Y2417D02*
X737Y2417D01*
X723Y2416D02*
X726Y2416D01*
X733Y2416D02*
X737Y2416D01*
X723Y2415D02*
X726Y2415D01*
X733Y2415D02*
X737Y2415D01*
X723Y2414D02*
X726Y2414D01*
X733Y2414D02*
X737Y2414D01*
X582Y2413D02*
X586Y2413D01*
X723Y2413D02*
X726Y2413D01*
X733Y2413D02*
X737Y2413D01*
X858Y2413D02*
X861Y2413D01*
X581Y2412D02*
X587Y2412D01*
X723Y2412D02*
X726Y2412D01*
X733Y2412D02*
X736Y2412D01*
X856Y2412D02*
X863Y2412D01*
X580Y2411D02*
X588Y2411D01*
X723Y2411D02*
X726Y2411D01*
X734Y2411D02*
X736Y2411D01*
X856Y2411D02*
X863Y2411D01*
X580Y2410D02*
X588Y2410D01*
X723Y2410D02*
X726Y2410D01*
X855Y2410D02*
X864Y2410D01*
X580Y2409D02*
X589Y2409D01*
X723Y2409D02*
X726Y2409D01*
X855Y2409D02*
X864Y2409D01*
X580Y2408D02*
X589Y2408D01*
X723Y2408D02*
X726Y2408D01*
X855Y2408D02*
X864Y2408D01*
X580Y2407D02*
X589Y2407D01*
X723Y2407D02*
X725Y2407D01*
X855Y2407D02*
X864Y2407D01*
X580Y2406D02*
X589Y2406D01*
X855Y2406D02*
X864Y2406D01*
X580Y2405D02*
X589Y2405D01*
X855Y2405D02*
X864Y2405D01*
X580Y2404D02*
X589Y2404D01*
X855Y2404D02*
X864Y2404D01*
X580Y2403D02*
X589Y2403D01*
X855Y2403D02*
X864Y2403D01*
X580Y2402D02*
X589Y2402D01*
X855Y2402D02*
X864Y2402D01*
X580Y2401D02*
X589Y2401D01*
X855Y2401D02*
X864Y2401D01*
X580Y2400D02*
X589Y2400D01*
X855Y2400D02*
X864Y2400D01*
X580Y2399D02*
X589Y2399D01*
X855Y2399D02*
X864Y2399D01*
X580Y2398D02*
X589Y2398D01*
X855Y2398D02*
X864Y2398D01*
X580Y2397D02*
X589Y2397D01*
X855Y2397D02*
X864Y2397D01*
X580Y2396D02*
X589Y2396D01*
X855Y2396D02*
X864Y2396D01*
X580Y2395D02*
X589Y2395D01*
X855Y2395D02*
X864Y2395D01*
X580Y2394D02*
X589Y2394D01*
X855Y2394D02*
X864Y2394D01*
X580Y2393D02*
X589Y2393D01*
X855Y2393D02*
X864Y2393D01*
X580Y2392D02*
X589Y2392D01*
X855Y2392D02*
X864Y2392D01*
X580Y2391D02*
X589Y2391D01*
X855Y2391D02*
X864Y2391D01*
X580Y2390D02*
X589Y2390D01*
X855Y2390D02*
X864Y2390D01*
X580Y2389D02*
X589Y2389D01*
X855Y2389D02*
X864Y2389D01*
X580Y2388D02*
X643Y2388D01*
X707Y2388D02*
X864Y2388D01*
X580Y2387D02*
X641Y2387D01*
X708Y2387D02*
X864Y2387D01*
X580Y2386D02*
X640Y2386D01*
X709Y2386D02*
X864Y2386D01*
X580Y2385D02*
X639Y2385D01*
X710Y2385D02*
X864Y2385D01*
X43Y2384D02*
X70Y2384D01*
X117Y2384D02*
X192Y2384D01*
X317Y2384D02*
X442Y2384D01*
X580Y2384D02*
X639Y2384D01*
X711Y2384D02*
X864Y2384D01*
X43Y2383D02*
X72Y2383D01*
X116Y2383D02*
X192Y2383D01*
X316Y2383D02*
X442Y2383D01*
X580Y2383D02*
X638Y2383D01*
X712Y2383D02*
X864Y2383D01*
X43Y2382D02*
X73Y2382D01*
X114Y2382D02*
X192Y2382D01*
X314Y2382D02*
X442Y2382D01*
X580Y2382D02*
X637Y2382D01*
X712Y2382D02*
X864Y2382D01*
X43Y2381D02*
X75Y2381D01*
X112Y2381D02*
X192Y2381D01*
X312Y2381D02*
X442Y2381D01*
X580Y2381D02*
X636Y2381D01*
X713Y2381D02*
X864Y2381D01*
X43Y2380D02*
X77Y2380D01*
X110Y2380D02*
X192Y2380D01*
X310Y2380D02*
X442Y2380D01*
X580Y2380D02*
X635Y2380D01*
X714Y2380D02*
X864Y2380D01*
X43Y2379D02*
X80Y2379D01*
X108Y2379D02*
X192Y2379D01*
X308Y2379D02*
X442Y2379D01*
X580Y2379D02*
X635Y2379D01*
X715Y2379D02*
X864Y2379D01*
X43Y2378D02*
X83Y2378D01*
X104Y2378D02*
X192Y2378D01*
X304Y2378D02*
X442Y2378D01*
X43Y2377D02*
X88Y2377D01*
X99Y2377D02*
X192Y2377D01*
X299Y2377D02*
X442Y2377D01*
X43Y2376D02*
X192Y2376D01*
X293Y2376D02*
X442Y2376D01*
X43Y2375D02*
X192Y2375D01*
X293Y2375D02*
X442Y2375D01*
X990Y2237D02*
X992Y2237D01*
X1018Y2237D02*
X1020Y2237D01*
X989Y2236D02*
X992Y2236D01*
X1017Y2236D02*
X1020Y2236D01*
X989Y2235D02*
X992Y2235D01*
X1017Y2235D02*
X1021Y2235D01*
X989Y2234D02*
X992Y2234D01*
X1017Y2234D02*
X1021Y2234D01*
X989Y2233D02*
X992Y2233D01*
X1017Y2233D02*
X1021Y2233D01*
X989Y2232D02*
X992Y2232D01*
X1017Y2232D02*
X1021Y2232D01*
X989Y2231D02*
X992Y2231D01*
X1017Y2231D02*
X1021Y2231D01*
X989Y2230D02*
X992Y2230D01*
X1017Y2230D02*
X1021Y2230D01*
X989Y2229D02*
X1021Y2229D01*
X989Y2228D02*
X1021Y2228D01*
X989Y2227D02*
X1021Y2227D01*
X989Y2226D02*
X1021Y2226D01*
X1017Y2225D02*
X1021Y2225D01*
X1017Y2224D02*
X1021Y2224D01*
X1017Y2223D02*
X1021Y2223D01*
X1017Y2222D02*
X1021Y2222D01*
X1011Y2221D02*
X1021Y2221D01*
X1009Y2220D02*
X1021Y2220D01*
X1009Y2219D02*
X1021Y2219D01*
X1009Y2218D02*
X1020Y2218D01*
X1010Y2217D02*
X1019Y2217D01*
X992Y2207D02*
X1018Y2207D01*
X990Y2206D02*
X1019Y2206D01*
X990Y2205D02*
X1020Y2205D01*
X989Y2204D02*
X1020Y2204D01*
X989Y2203D02*
X992Y2203D01*
X1017Y2203D02*
X1021Y2203D01*
X989Y2202D02*
X992Y2202D01*
X1017Y2202D02*
X1021Y2202D01*
X989Y2201D02*
X992Y2201D01*
X1017Y2201D02*
X1021Y2201D01*
X989Y2200D02*
X992Y2200D01*
X1017Y2200D02*
X1021Y2200D01*
X989Y2199D02*
X992Y2199D01*
X1017Y2199D02*
X1021Y2199D01*
X989Y2198D02*
X992Y2198D01*
X1017Y2198D02*
X1021Y2198D01*
X989Y2197D02*
X992Y2197D01*
X1017Y2197D02*
X1021Y2197D01*
X989Y2196D02*
X992Y2196D01*
X1017Y2196D02*
X1021Y2196D01*
X989Y2195D02*
X992Y2195D01*
X1017Y2195D02*
X1021Y2195D01*
X989Y2194D02*
X992Y2194D01*
X1017Y2194D02*
X1021Y2194D01*
X989Y2193D02*
X992Y2193D01*
X1017Y2193D02*
X1021Y2193D01*
X989Y2192D02*
X992Y2192D01*
X1017Y2192D02*
X1021Y2192D01*
X989Y2191D02*
X993Y2191D01*
X1017Y2191D02*
X1021Y2191D01*
X989Y2190D02*
X1020Y2190D01*
X990Y2189D02*
X1020Y2189D01*
X990Y2188D02*
X1019Y2188D01*
X992Y2187D02*
X1018Y2187D01*
X992Y2177D02*
X1018Y2177D01*
X990Y2176D02*
X1019Y2176D01*
X990Y2175D02*
X1020Y2175D01*
X989Y2174D02*
X1020Y2174D01*
X989Y2173D02*
X993Y2173D01*
X1017Y2173D02*
X1021Y2173D01*
X989Y2172D02*
X992Y2172D01*
X1017Y2172D02*
X1021Y2172D01*
X989Y2171D02*
X992Y2171D01*
X1017Y2171D02*
X1021Y2171D01*
X989Y2170D02*
X992Y2170D01*
X1017Y2170D02*
X1021Y2170D01*
X989Y2169D02*
X992Y2169D01*
X1017Y2169D02*
X1021Y2169D01*
X989Y2168D02*
X992Y2168D01*
X1017Y2168D02*
X1021Y2168D01*
X989Y2167D02*
X992Y2167D01*
X1017Y2167D02*
X1021Y2167D01*
X989Y2166D02*
X992Y2166D01*
X1017Y2166D02*
X1021Y2166D01*
X989Y2165D02*
X992Y2165D01*
X1017Y2165D02*
X1021Y2165D01*
X989Y2164D02*
X992Y2164D01*
X1017Y2164D02*
X1021Y2164D01*
X989Y2163D02*
X992Y2163D01*
X1017Y2163D02*
X1021Y2163D01*
X989Y2162D02*
X992Y2162D01*
X1017Y2162D02*
X1021Y2162D01*
X989Y2161D02*
X992Y2161D01*
X1017Y2161D02*
X1021Y2161D01*
X989Y2160D02*
X1020Y2160D01*
X990Y2159D02*
X1020Y2159D01*
X990Y2158D02*
X1019Y2158D01*
X992Y2157D02*
X1018Y2157D01*
X998Y2146D02*
X1020Y2146D01*
X998Y2145D02*
X1021Y2145D01*
X998Y2144D02*
X1020Y2144D01*
X999Y2143D02*
X1019Y2143D01*
X1001Y2142D02*
X1005Y2142D01*
X1000Y2141D02*
X1004Y2141D01*
X1000Y2140D02*
X1004Y2140D01*
X999Y2139D02*
X1003Y2139D01*
X999Y2138D02*
X1002Y2138D01*
X998Y2137D02*
X1002Y2137D01*
X998Y2136D02*
X1001Y2136D01*
X998Y2135D02*
X1001Y2135D01*
X998Y2134D02*
X1001Y2134D01*
X998Y2133D02*
X1001Y2133D01*
X998Y2132D02*
X1001Y2132D01*
X998Y2131D02*
X1003Y2131D01*
X999Y2130D02*
X1020Y2130D01*
X999Y2129D02*
X1021Y2129D01*
X1000Y2128D02*
X1020Y2128D01*
X1002Y2127D02*
X1019Y2127D01*
X990Y2117D02*
X1019Y2117D01*
X989Y2116D02*
X1020Y2116D01*
X989Y2115D02*
X1021Y2115D01*
X989Y2114D02*
X1020Y2114D01*
X989Y2113D02*
X1019Y2113D01*
X989Y2112D02*
X992Y2112D01*
X1000Y2112D02*
X1003Y2112D01*
X989Y2111D02*
X992Y2111D01*
X1000Y2111D02*
X1003Y2111D01*
X989Y2110D02*
X992Y2110D01*
X1000Y2110D02*
X1003Y2110D01*
X989Y2109D02*
X992Y2109D01*
X1000Y2109D02*
X1003Y2109D01*
X989Y2108D02*
X992Y2108D01*
X1000Y2108D02*
X1003Y2108D01*
X989Y2107D02*
X992Y2107D01*
X1000Y2107D02*
X1003Y2107D01*
X989Y2106D02*
X992Y2106D01*
X1000Y2106D02*
X1003Y2106D01*
X989Y2105D02*
X992Y2105D01*
X1000Y2105D02*
X1003Y2105D01*
X989Y2104D02*
X992Y2104D01*
X1000Y2104D02*
X1003Y2104D01*
X989Y2103D02*
X992Y2103D01*
X1000Y2103D02*
X1003Y2103D01*
X989Y2102D02*
X992Y2102D01*
X1000Y2102D02*
X1003Y2102D01*
X989Y2101D02*
X992Y2101D01*
X1000Y2101D02*
X1002Y2101D01*
X989Y2100D02*
X992Y2100D01*
X989Y2099D02*
X992Y2099D01*
X989Y2098D02*
X992Y2098D01*
X990Y2097D02*
X992Y2097D01*
X194Y2046D02*
X228Y2046D01*
X193Y2045D02*
X228Y2045D01*
X193Y2044D02*
X228Y2044D01*
X192Y2043D02*
X228Y2043D01*
X193Y2042D02*
X228Y2042D01*
X193Y2041D02*
X228Y2041D01*
X195Y2040D02*
X228Y2040D01*
X222Y2039D02*
X228Y2039D01*
X222Y2038D02*
X228Y2038D01*
X222Y2037D02*
X228Y2037D01*
X222Y2036D02*
X228Y2036D01*
X222Y2035D02*
X228Y2035D01*
X222Y2034D02*
X228Y2034D01*
X222Y2033D02*
X228Y2033D01*
X222Y2032D02*
X228Y2032D01*
X222Y2031D02*
X228Y2031D01*
X222Y2030D02*
X228Y2030D01*
X222Y2029D02*
X228Y2029D01*
X222Y2028D02*
X228Y2028D01*
X222Y2027D02*
X228Y2027D01*
X202Y2026D02*
X242Y2026D01*
X199Y2025D02*
X244Y2025D01*
X199Y2024D02*
X245Y2024D01*
X198Y2023D02*
X245Y2023D01*
X198Y2022D02*
X245Y2022D01*
X199Y2021D02*
X245Y2021D01*
X199Y2020D02*
X244Y2020D01*
X202Y2019D02*
X242Y2019D01*
X222Y2018D02*
X228Y2018D01*
X222Y2017D02*
X228Y2017D01*
X223Y2016D02*
X227Y2016D01*
X224Y2015D02*
X226Y2015D01*
X196Y1997D02*
X242Y1997D01*
X195Y1996D02*
X243Y1996D01*
X194Y1995D02*
X244Y1995D01*
X193Y1994D02*
X245Y1994D01*
X193Y1993D02*
X245Y1993D01*
X192Y1992D02*
X245Y1992D01*
X192Y1991D02*
X246Y1991D01*
X192Y1990D02*
X198Y1990D01*
X240Y1990D02*
X246Y1990D01*
X192Y1989D02*
X198Y1989D01*
X240Y1989D02*
X246Y1989D01*
X192Y1988D02*
X198Y1988D01*
X240Y1988D02*
X246Y1988D01*
X192Y1987D02*
X198Y1987D01*
X240Y1987D02*
X246Y1987D01*
X192Y1986D02*
X198Y1986D01*
X240Y1986D02*
X246Y1986D01*
X192Y1985D02*
X198Y1985D01*
X240Y1985D02*
X246Y1985D01*
X192Y1984D02*
X198Y1984D01*
X240Y1984D02*
X246Y1984D01*
X192Y1983D02*
X198Y1983D01*
X240Y1983D02*
X246Y1983D01*
X192Y1982D02*
X198Y1982D01*
X240Y1982D02*
X246Y1982D01*
X192Y1981D02*
X198Y1981D01*
X240Y1981D02*
X246Y1981D01*
X192Y1980D02*
X198Y1980D01*
X240Y1980D02*
X246Y1980D01*
X192Y1979D02*
X198Y1979D01*
X240Y1979D02*
X246Y1979D01*
X192Y1978D02*
X198Y1978D01*
X240Y1978D02*
X246Y1978D01*
X192Y1977D02*
X198Y1977D01*
X240Y1977D02*
X246Y1977D01*
X192Y1976D02*
X198Y1976D01*
X240Y1976D02*
X246Y1976D01*
X192Y1975D02*
X198Y1975D01*
X240Y1975D02*
X246Y1975D01*
X192Y1974D02*
X198Y1974D01*
X240Y1974D02*
X246Y1974D01*
X192Y1973D02*
X198Y1973D01*
X240Y1973D02*
X246Y1973D01*
X192Y1972D02*
X198Y1972D01*
X240Y1972D02*
X246Y1972D01*
X192Y1971D02*
X198Y1971D01*
X240Y1971D02*
X246Y1971D01*
X192Y1970D02*
X246Y1970D01*
X193Y1969D02*
X245Y1969D01*
X193Y1968D02*
X245Y1968D01*
X193Y1967D02*
X245Y1967D01*
X194Y1966D02*
X244Y1966D01*
X195Y1965D02*
X243Y1965D01*
X197Y1964D02*
X241Y1964D01*
X195Y1946D02*
X227Y1946D01*
X193Y1945D02*
X228Y1945D01*
X193Y1944D02*
X228Y1944D01*
X192Y1943D02*
X228Y1943D01*
X193Y1942D02*
X228Y1942D01*
X193Y1941D02*
X228Y1941D01*
X194Y1940D02*
X228Y1940D01*
X222Y1939D02*
X228Y1939D01*
X222Y1938D02*
X228Y1938D01*
X222Y1937D02*
X228Y1937D01*
X222Y1936D02*
X228Y1936D01*
X222Y1935D02*
X228Y1935D01*
X222Y1934D02*
X228Y1934D01*
X222Y1933D02*
X228Y1933D01*
X222Y1932D02*
X228Y1932D01*
X222Y1931D02*
X228Y1931D01*
X222Y1930D02*
X228Y1930D01*
X222Y1929D02*
X228Y1929D01*
X222Y1928D02*
X228Y1928D01*
X222Y1927D02*
X228Y1927D01*
X222Y1926D02*
X228Y1926D01*
X200Y1925D02*
X244Y1925D01*
X199Y1924D02*
X245Y1924D01*
X198Y1923D02*
X245Y1923D01*
X198Y1922D02*
X245Y1922D01*
X198Y1921D02*
X245Y1921D01*
X199Y1920D02*
X245Y1920D01*
X200Y1919D02*
X243Y1919D01*
X222Y1918D02*
X228Y1918D01*
X222Y1917D02*
X228Y1917D01*
X222Y1916D02*
X227Y1916D01*
X223Y1915D02*
X226Y1915D01*
X197Y1897D02*
X241Y1897D01*
X195Y1896D02*
X243Y1896D01*
X194Y1895D02*
X244Y1895D01*
X193Y1894D02*
X244Y1894D01*
X193Y1893D02*
X245Y1893D01*
X193Y1892D02*
X245Y1892D01*
X192Y1891D02*
X245Y1891D01*
X696Y1891D02*
X698Y1891D01*
X192Y1890D02*
X198Y1890D01*
X240Y1890D02*
X246Y1890D01*
X696Y1890D02*
X699Y1890D01*
X192Y1889D02*
X198Y1889D01*
X240Y1889D02*
X246Y1889D01*
X696Y1889D02*
X699Y1889D01*
X192Y1888D02*
X198Y1888D01*
X240Y1888D02*
X246Y1888D01*
X696Y1888D02*
X699Y1888D01*
X192Y1887D02*
X198Y1887D01*
X240Y1887D02*
X246Y1887D01*
X686Y1887D02*
X688Y1887D01*
X696Y1887D02*
X699Y1887D01*
X192Y1886D02*
X198Y1886D01*
X240Y1886D02*
X246Y1886D01*
X685Y1886D02*
X688Y1886D01*
X696Y1886D02*
X699Y1886D01*
X192Y1885D02*
X198Y1885D01*
X240Y1885D02*
X246Y1885D01*
X685Y1885D02*
X688Y1885D01*
X696Y1885D02*
X699Y1885D01*
X192Y1884D02*
X198Y1884D01*
X240Y1884D02*
X246Y1884D01*
X685Y1884D02*
X688Y1884D01*
X696Y1884D02*
X699Y1884D01*
X192Y1883D02*
X198Y1883D01*
X240Y1883D02*
X246Y1883D01*
X685Y1883D02*
X688Y1883D01*
X696Y1883D02*
X699Y1883D01*
X192Y1882D02*
X198Y1882D01*
X240Y1882D02*
X246Y1882D01*
X685Y1882D02*
X688Y1882D01*
X696Y1882D02*
X699Y1882D01*
X192Y1881D02*
X198Y1881D01*
X240Y1881D02*
X246Y1881D01*
X685Y1881D02*
X688Y1881D01*
X696Y1881D02*
X699Y1881D01*
X192Y1880D02*
X198Y1880D01*
X240Y1880D02*
X246Y1880D01*
X685Y1880D02*
X688Y1880D01*
X696Y1880D02*
X699Y1880D01*
X192Y1879D02*
X198Y1879D01*
X240Y1879D02*
X246Y1879D01*
X685Y1879D02*
X688Y1879D01*
X696Y1879D02*
X699Y1879D01*
X192Y1878D02*
X198Y1878D01*
X240Y1878D02*
X246Y1878D01*
X685Y1878D02*
X688Y1878D01*
X696Y1878D02*
X699Y1878D01*
X192Y1877D02*
X198Y1877D01*
X240Y1877D02*
X246Y1877D01*
X685Y1877D02*
X688Y1877D01*
X696Y1877D02*
X699Y1877D01*
X192Y1876D02*
X198Y1876D01*
X240Y1876D02*
X246Y1876D01*
X685Y1876D02*
X688Y1876D01*
X696Y1876D02*
X699Y1876D01*
X192Y1875D02*
X198Y1875D01*
X240Y1875D02*
X246Y1875D01*
X669Y1875D02*
X699Y1875D01*
X192Y1874D02*
X198Y1874D01*
X240Y1874D02*
X246Y1874D01*
X668Y1874D02*
X699Y1874D01*
X192Y1873D02*
X198Y1873D01*
X240Y1873D02*
X246Y1873D01*
X668Y1873D02*
X699Y1873D01*
X192Y1872D02*
X198Y1872D01*
X240Y1872D02*
X246Y1872D01*
X668Y1872D02*
X699Y1872D01*
X192Y1871D02*
X198Y1871D01*
X240Y1871D02*
X246Y1871D01*
X669Y1871D02*
X698Y1871D01*
X192Y1870D02*
X199Y1870D01*
X239Y1870D02*
X246Y1870D01*
X192Y1869D02*
X245Y1869D01*
X193Y1868D02*
X245Y1868D01*
X193Y1867D02*
X245Y1867D01*
X194Y1866D02*
X244Y1866D01*
X195Y1865D02*
X243Y1865D01*
X196Y1864D02*
X242Y1864D01*
X199Y1863D02*
X239Y1863D01*
X669Y1861D02*
X686Y1861D01*
X668Y1860D02*
X688Y1860D01*
X668Y1859D02*
X689Y1859D01*
X668Y1858D02*
X689Y1858D01*
X685Y1857D02*
X690Y1857D01*
X687Y1856D02*
X690Y1856D01*
X687Y1855D02*
X690Y1855D01*
X687Y1854D02*
X690Y1854D01*
X687Y1853D02*
X690Y1853D01*
X687Y1852D02*
X690Y1852D01*
X686Y1851D02*
X690Y1851D01*
X686Y1850D02*
X690Y1850D01*
X685Y1849D02*
X689Y1849D01*
X684Y1848D02*
X688Y1848D01*
X193Y1847D02*
X245Y1847D01*
X684Y1847D02*
X688Y1847D01*
X192Y1846D02*
X246Y1846D01*
X683Y1846D02*
X687Y1846D01*
X192Y1845D02*
X246Y1845D01*
X669Y1845D02*
X689Y1845D01*
X192Y1844D02*
X246Y1844D01*
X668Y1844D02*
X690Y1844D01*
X192Y1843D02*
X246Y1843D01*
X668Y1843D02*
X690Y1843D01*
X192Y1842D02*
X246Y1842D01*
X668Y1842D02*
X690Y1842D01*
X192Y1841D02*
X246Y1841D01*
X192Y1840D02*
X199Y1840D01*
X216Y1840D02*
X222Y1840D01*
X239Y1840D02*
X246Y1840D01*
X192Y1839D02*
X198Y1839D01*
X216Y1839D02*
X222Y1839D01*
X240Y1839D02*
X246Y1839D01*
X192Y1838D02*
X198Y1838D01*
X216Y1838D02*
X222Y1838D01*
X240Y1838D02*
X246Y1838D01*
X192Y1837D02*
X198Y1837D01*
X216Y1837D02*
X222Y1837D01*
X240Y1837D02*
X246Y1837D01*
X192Y1836D02*
X198Y1836D01*
X216Y1836D02*
X222Y1836D01*
X240Y1836D02*
X246Y1836D01*
X192Y1835D02*
X198Y1835D01*
X216Y1835D02*
X222Y1835D01*
X240Y1835D02*
X246Y1835D01*
X192Y1834D02*
X198Y1834D01*
X216Y1834D02*
X222Y1834D01*
X240Y1834D02*
X246Y1834D01*
X192Y1833D02*
X198Y1833D01*
X216Y1833D02*
X222Y1833D01*
X240Y1833D02*
X246Y1833D01*
X192Y1832D02*
X198Y1832D01*
X216Y1832D02*
X222Y1832D01*
X240Y1832D02*
X246Y1832D01*
X192Y1831D02*
X198Y1831D01*
X216Y1831D02*
X222Y1831D01*
X240Y1831D02*
X246Y1831D01*
X670Y1831D02*
X696Y1831D01*
X192Y1830D02*
X198Y1830D01*
X216Y1830D02*
X222Y1830D01*
X240Y1830D02*
X246Y1830D01*
X669Y1830D02*
X698Y1830D01*
X192Y1829D02*
X198Y1829D01*
X216Y1829D02*
X222Y1829D01*
X240Y1829D02*
X246Y1829D01*
X668Y1829D02*
X699Y1829D01*
X192Y1828D02*
X198Y1828D01*
X216Y1828D02*
X222Y1828D01*
X240Y1828D02*
X246Y1828D01*
X668Y1828D02*
X699Y1828D01*
X192Y1827D02*
X198Y1827D01*
X216Y1827D02*
X222Y1827D01*
X240Y1827D02*
X246Y1827D01*
X668Y1827D02*
X671Y1827D01*
X696Y1827D02*
X699Y1827D01*
X192Y1826D02*
X198Y1826D01*
X216Y1826D02*
X222Y1826D01*
X239Y1826D02*
X245Y1826D01*
X667Y1826D02*
X671Y1826D01*
X696Y1826D02*
X699Y1826D01*
X193Y1825D02*
X199Y1825D01*
X216Y1825D02*
X222Y1825D01*
X239Y1825D02*
X245Y1825D01*
X667Y1825D02*
X671Y1825D01*
X696Y1825D02*
X699Y1825D01*
X193Y1824D02*
X199Y1824D01*
X215Y1824D02*
X223Y1824D01*
X239Y1824D02*
X245Y1824D01*
X667Y1824D02*
X671Y1824D01*
X696Y1824D02*
X699Y1824D01*
X193Y1823D02*
X200Y1823D01*
X215Y1823D02*
X223Y1823D01*
X238Y1823D02*
X245Y1823D01*
X667Y1823D02*
X671Y1823D01*
X696Y1823D02*
X699Y1823D01*
X193Y1822D02*
X200Y1822D01*
X214Y1822D02*
X224Y1822D01*
X238Y1822D02*
X245Y1822D01*
X667Y1822D02*
X671Y1822D01*
X696Y1822D02*
X699Y1822D01*
X194Y1821D02*
X202Y1821D01*
X213Y1821D02*
X225Y1821D01*
X236Y1821D02*
X244Y1821D01*
X667Y1821D02*
X671Y1821D01*
X696Y1821D02*
X699Y1821D01*
X194Y1820D02*
X204Y1820D01*
X211Y1820D02*
X227Y1820D01*
X234Y1820D02*
X244Y1820D01*
X667Y1820D02*
X671Y1820D01*
X696Y1820D02*
X699Y1820D01*
X195Y1819D02*
X243Y1819D01*
X667Y1819D02*
X671Y1819D01*
X696Y1819D02*
X699Y1819D01*
X196Y1818D02*
X242Y1818D01*
X667Y1818D02*
X671Y1818D01*
X696Y1818D02*
X699Y1818D01*
X196Y1817D02*
X218Y1817D01*
X220Y1817D02*
X241Y1817D01*
X667Y1817D02*
X671Y1817D01*
X696Y1817D02*
X699Y1817D01*
X197Y1816D02*
X217Y1816D01*
X221Y1816D02*
X240Y1816D01*
X667Y1816D02*
X671Y1816D01*
X696Y1816D02*
X699Y1816D01*
X199Y1815D02*
X215Y1815D01*
X222Y1815D02*
X239Y1815D01*
X668Y1815D02*
X671Y1815D01*
X696Y1815D02*
X699Y1815D01*
X201Y1814D02*
X214Y1814D01*
X224Y1814D02*
X237Y1814D01*
X668Y1814D02*
X699Y1814D01*
X204Y1813D02*
X211Y1813D01*
X228Y1813D02*
X234Y1813D01*
X668Y1813D02*
X698Y1813D01*
X669Y1812D02*
X698Y1812D01*
X670Y1811D02*
X696Y1811D01*
X670Y1801D02*
X696Y1801D01*
X669Y1800D02*
X698Y1800D01*
X668Y1799D02*
X698Y1799D01*
X668Y1798D02*
X699Y1798D01*
X668Y1797D02*
X671Y1797D01*
X695Y1797D02*
X699Y1797D01*
X667Y1796D02*
X671Y1796D01*
X696Y1796D02*
X699Y1796D01*
X667Y1795D02*
X671Y1795D01*
X696Y1795D02*
X699Y1795D01*
X667Y1794D02*
X671Y1794D01*
X696Y1794D02*
X699Y1794D01*
X667Y1793D02*
X671Y1793D01*
X696Y1793D02*
X699Y1793D01*
X667Y1792D02*
X671Y1792D01*
X696Y1792D02*
X699Y1792D01*
X667Y1791D02*
X671Y1791D01*
X696Y1791D02*
X699Y1791D01*
X667Y1790D02*
X671Y1790D01*
X696Y1790D02*
X699Y1790D01*
X667Y1789D02*
X671Y1789D01*
X696Y1789D02*
X699Y1789D01*
X667Y1788D02*
X671Y1788D01*
X696Y1788D02*
X699Y1788D01*
X667Y1787D02*
X671Y1787D01*
X696Y1787D02*
X699Y1787D01*
X667Y1786D02*
X671Y1786D01*
X696Y1786D02*
X699Y1786D01*
X668Y1785D02*
X671Y1785D01*
X696Y1785D02*
X699Y1785D01*
X668Y1784D02*
X699Y1784D01*
X668Y1783D02*
X699Y1783D01*
X669Y1782D02*
X698Y1782D01*
X670Y1781D02*
X697Y1781D01*
X669Y1771D02*
X678Y1771D01*
X668Y1770D02*
X679Y1770D01*
X668Y1769D02*
X679Y1769D01*
X667Y1768D02*
X679Y1768D01*
X667Y1767D02*
X677Y1767D01*
X667Y1766D02*
X671Y1766D01*
X667Y1765D02*
X671Y1765D01*
X667Y1764D02*
X671Y1764D01*
X667Y1763D02*
X671Y1763D01*
X667Y1762D02*
X699Y1762D01*
X667Y1761D02*
X699Y1761D01*
X667Y1760D02*
X699Y1760D01*
X667Y1759D02*
X699Y1759D01*
X667Y1758D02*
X671Y1758D01*
X696Y1758D02*
X699Y1758D01*
X667Y1757D02*
X671Y1757D01*
X696Y1757D02*
X699Y1757D01*
X667Y1756D02*
X671Y1756D01*
X696Y1756D02*
X699Y1756D01*
X667Y1755D02*
X671Y1755D01*
X696Y1755D02*
X699Y1755D01*
X667Y1754D02*
X671Y1754D01*
X696Y1754D02*
X699Y1754D01*
X667Y1753D02*
X671Y1753D01*
X696Y1753D02*
X699Y1753D01*
X668Y1752D02*
X671Y1752D01*
X696Y1752D02*
X699Y1752D01*
X668Y1751D02*
X670Y1751D01*
X697Y1751D02*
X698Y1751D01*
X40Y1511D02*
X86Y1511D01*
X38Y1510D02*
X88Y1510D01*
X37Y1509D02*
X89Y1509D01*
X37Y1508D02*
X89Y1508D01*
X37Y1507D02*
X89Y1507D01*
X38Y1506D02*
X89Y1506D01*
X38Y1505D02*
X88Y1505D01*
X55Y1504D02*
X65Y1504D01*
X76Y1504D02*
X86Y1504D01*
X55Y1503D02*
X64Y1503D01*
X78Y1503D02*
X86Y1503D01*
X54Y1502D02*
X63Y1502D01*
X79Y1502D02*
X87Y1502D01*
X54Y1501D02*
X62Y1501D01*
X79Y1501D02*
X88Y1501D01*
X53Y1500D02*
X61Y1500D01*
X80Y1500D02*
X88Y1500D01*
X53Y1499D02*
X60Y1499D01*
X81Y1499D02*
X89Y1499D01*
X52Y1498D02*
X59Y1498D01*
X82Y1498D02*
X89Y1498D01*
X52Y1497D02*
X58Y1497D01*
X83Y1497D02*
X89Y1497D01*
X52Y1496D02*
X58Y1496D01*
X83Y1496D02*
X89Y1496D01*
X52Y1495D02*
X58Y1495D01*
X84Y1495D02*
X90Y1495D01*
X52Y1494D02*
X58Y1494D01*
X84Y1494D02*
X90Y1494D01*
X52Y1493D02*
X58Y1493D01*
X84Y1493D02*
X90Y1493D01*
X52Y1492D02*
X58Y1492D01*
X84Y1492D02*
X90Y1492D01*
X52Y1491D02*
X58Y1491D01*
X84Y1491D02*
X90Y1491D01*
X52Y1490D02*
X58Y1490D01*
X84Y1490D02*
X90Y1490D01*
X52Y1489D02*
X58Y1489D01*
X83Y1489D02*
X89Y1489D01*
X52Y1488D02*
X58Y1488D01*
X83Y1488D02*
X89Y1488D01*
X52Y1487D02*
X59Y1487D01*
X82Y1487D02*
X89Y1487D01*
X52Y1486D02*
X60Y1486D01*
X82Y1486D02*
X89Y1486D01*
X53Y1485D02*
X61Y1485D01*
X81Y1485D02*
X88Y1485D01*
X53Y1484D02*
X62Y1484D01*
X79Y1484D02*
X88Y1484D01*
X54Y1483D02*
X87Y1483D01*
X55Y1482D02*
X86Y1482D01*
X56Y1481D02*
X85Y1481D01*
X57Y1480D02*
X84Y1480D01*
X58Y1479D02*
X83Y1479D01*
X60Y1478D02*
X81Y1478D01*
X63Y1477D02*
X78Y1477D01*
X715Y1466D02*
X717Y1466D01*
X743Y1466D02*
X745Y1466D01*
X714Y1465D02*
X717Y1465D01*
X743Y1465D02*
X746Y1465D01*
X714Y1464D02*
X718Y1464D01*
X743Y1464D02*
X746Y1464D01*
X714Y1463D02*
X718Y1463D01*
X743Y1463D02*
X746Y1463D01*
X714Y1462D02*
X718Y1462D01*
X743Y1462D02*
X746Y1462D01*
X714Y1461D02*
X718Y1461D01*
X743Y1461D02*
X746Y1461D01*
X714Y1460D02*
X718Y1460D01*
X743Y1460D02*
X746Y1460D01*
X714Y1459D02*
X718Y1459D01*
X742Y1459D02*
X746Y1459D01*
X40Y1458D02*
X40Y1458D01*
X86Y1458D02*
X87Y1458D01*
X714Y1458D02*
X746Y1458D01*
X38Y1457D02*
X42Y1457D01*
X85Y1457D02*
X89Y1457D01*
X714Y1457D02*
X746Y1457D01*
X37Y1456D02*
X43Y1456D01*
X84Y1456D02*
X89Y1456D01*
X714Y1456D02*
X746Y1456D01*
X37Y1455D02*
X43Y1455D01*
X84Y1455D02*
X89Y1455D01*
X714Y1455D02*
X746Y1455D01*
X37Y1454D02*
X43Y1454D01*
X84Y1454D02*
X90Y1454D01*
X743Y1454D02*
X746Y1454D01*
X37Y1453D02*
X43Y1453D01*
X84Y1453D02*
X90Y1453D01*
X743Y1453D02*
X746Y1453D01*
X37Y1452D02*
X43Y1452D01*
X84Y1452D02*
X90Y1452D01*
X743Y1452D02*
X746Y1452D01*
X37Y1451D02*
X43Y1451D01*
X84Y1451D02*
X90Y1451D01*
X743Y1451D02*
X746Y1451D01*
X37Y1450D02*
X43Y1450D01*
X84Y1450D02*
X90Y1450D01*
X735Y1450D02*
X746Y1450D01*
X37Y1449D02*
X43Y1449D01*
X84Y1449D02*
X90Y1449D01*
X734Y1449D02*
X746Y1449D01*
X37Y1448D02*
X43Y1448D01*
X83Y1448D02*
X90Y1448D01*
X734Y1448D02*
X746Y1448D01*
X37Y1447D02*
X90Y1447D01*
X735Y1447D02*
X745Y1447D01*
X37Y1446D02*
X90Y1446D01*
X37Y1445D02*
X90Y1445D01*
X37Y1444D02*
X90Y1444D01*
X38Y1443D02*
X90Y1443D01*
X38Y1442D02*
X90Y1442D01*
X83Y1441D02*
X90Y1441D01*
X84Y1440D02*
X90Y1440D01*
X84Y1439D02*
X90Y1439D01*
X84Y1438D02*
X90Y1438D01*
X84Y1437D02*
X90Y1437D01*
X84Y1436D02*
X90Y1436D01*
X716Y1436D02*
X744Y1436D01*
X84Y1435D02*
X90Y1435D01*
X715Y1435D02*
X745Y1435D01*
X84Y1434D02*
X89Y1434D01*
X715Y1434D02*
X746Y1434D01*
X84Y1433D02*
X89Y1433D01*
X714Y1433D02*
X746Y1433D01*
X85Y1432D02*
X89Y1432D01*
X714Y1432D02*
X718Y1432D01*
X743Y1432D02*
X746Y1432D01*
X86Y1431D02*
X87Y1431D01*
X714Y1431D02*
X718Y1431D01*
X743Y1431D02*
X746Y1431D01*
X714Y1430D02*
X718Y1430D01*
X743Y1430D02*
X746Y1430D01*
X714Y1429D02*
X718Y1429D01*
X743Y1429D02*
X746Y1429D01*
X714Y1428D02*
X718Y1428D01*
X743Y1428D02*
X746Y1428D01*
X714Y1427D02*
X718Y1427D01*
X743Y1427D02*
X746Y1427D01*
X714Y1426D02*
X718Y1426D01*
X743Y1426D02*
X746Y1426D01*
X714Y1425D02*
X718Y1425D01*
X743Y1425D02*
X746Y1425D01*
X714Y1424D02*
X718Y1424D01*
X743Y1424D02*
X746Y1424D01*
X714Y1423D02*
X718Y1423D01*
X743Y1423D02*
X746Y1423D01*
X714Y1422D02*
X718Y1422D01*
X743Y1422D02*
X746Y1422D01*
X714Y1421D02*
X718Y1421D01*
X743Y1421D02*
X746Y1421D01*
X714Y1420D02*
X746Y1420D01*
X715Y1419D02*
X746Y1419D01*
X715Y1418D02*
X745Y1418D01*
X716Y1417D02*
X744Y1417D01*
X53Y1411D02*
X83Y1411D01*
X52Y1410D02*
X85Y1410D01*
X52Y1409D02*
X86Y1409D01*
X52Y1408D02*
X87Y1408D01*
X52Y1407D02*
X88Y1407D01*
X52Y1406D02*
X88Y1406D01*
X716Y1406D02*
X744Y1406D01*
X54Y1405D02*
X89Y1405D01*
X715Y1405D02*
X745Y1405D01*
X82Y1404D02*
X89Y1404D01*
X715Y1404D02*
X745Y1404D01*
X83Y1403D02*
X89Y1403D01*
X714Y1403D02*
X746Y1403D01*
X83Y1402D02*
X89Y1402D01*
X714Y1402D02*
X718Y1402D01*
X743Y1402D02*
X746Y1402D01*
X84Y1401D02*
X90Y1401D01*
X714Y1401D02*
X718Y1401D01*
X743Y1401D02*
X746Y1401D01*
X84Y1400D02*
X90Y1400D01*
X714Y1400D02*
X718Y1400D01*
X743Y1400D02*
X746Y1400D01*
X84Y1399D02*
X90Y1399D01*
X714Y1399D02*
X718Y1399D01*
X743Y1399D02*
X746Y1399D01*
X84Y1398D02*
X90Y1398D01*
X714Y1398D02*
X718Y1398D01*
X743Y1398D02*
X746Y1398D01*
X84Y1397D02*
X89Y1397D01*
X714Y1397D02*
X718Y1397D01*
X743Y1397D02*
X746Y1397D01*
X83Y1396D02*
X89Y1396D01*
X714Y1396D02*
X718Y1396D01*
X743Y1396D02*
X746Y1396D01*
X83Y1395D02*
X89Y1395D01*
X714Y1395D02*
X718Y1395D01*
X743Y1395D02*
X746Y1395D01*
X82Y1394D02*
X89Y1394D01*
X714Y1394D02*
X718Y1394D01*
X743Y1394D02*
X746Y1394D01*
X81Y1393D02*
X88Y1393D01*
X714Y1393D02*
X718Y1393D01*
X743Y1393D02*
X746Y1393D01*
X81Y1392D02*
X88Y1392D01*
X714Y1392D02*
X718Y1392D01*
X743Y1392D02*
X746Y1392D01*
X80Y1391D02*
X87Y1391D01*
X714Y1391D02*
X718Y1391D01*
X743Y1391D02*
X746Y1391D01*
X79Y1390D02*
X87Y1390D01*
X714Y1390D02*
X746Y1390D01*
X79Y1389D02*
X86Y1389D01*
X715Y1389D02*
X746Y1389D01*
X78Y1388D02*
X85Y1388D01*
X715Y1388D02*
X745Y1388D01*
X77Y1387D02*
X85Y1387D01*
X716Y1387D02*
X744Y1387D01*
X77Y1386D02*
X84Y1386D01*
X719Y1386D02*
X741Y1386D01*
X54Y1385D02*
X88Y1385D01*
X52Y1384D02*
X89Y1384D01*
X52Y1383D02*
X89Y1383D01*
X52Y1382D02*
X89Y1382D01*
X52Y1381D02*
X89Y1381D01*
X52Y1380D02*
X89Y1380D01*
X53Y1379D02*
X88Y1379D01*
X724Y1376D02*
X745Y1376D01*
X723Y1375D02*
X746Y1375D01*
X723Y1374D02*
X746Y1374D01*
X724Y1373D02*
X745Y1373D01*
X726Y1372D02*
X731Y1372D01*
X726Y1371D02*
X730Y1371D01*
X725Y1370D02*
X729Y1370D01*
X725Y1369D02*
X729Y1369D01*
X724Y1368D02*
X728Y1368D01*
X724Y1367D02*
X727Y1367D01*
X723Y1366D02*
X727Y1366D01*
X723Y1365D02*
X726Y1365D01*
X723Y1364D02*
X726Y1364D01*
X723Y1363D02*
X726Y1363D01*
X61Y1362D02*
X80Y1362D01*
X723Y1362D02*
X726Y1362D01*
X59Y1361D02*
X83Y1361D01*
X723Y1361D02*
X727Y1361D01*
X57Y1360D02*
X84Y1360D01*
X724Y1360D02*
X745Y1360D01*
X56Y1359D02*
X85Y1359D01*
X724Y1359D02*
X746Y1359D01*
X55Y1358D02*
X86Y1358D01*
X725Y1358D02*
X746Y1358D01*
X54Y1357D02*
X87Y1357D01*
X726Y1357D02*
X745Y1357D01*
X54Y1356D02*
X87Y1356D01*
X53Y1355D02*
X61Y1355D01*
X68Y1355D02*
X74Y1355D01*
X80Y1355D02*
X88Y1355D01*
X53Y1354D02*
X60Y1354D01*
X68Y1354D02*
X74Y1354D01*
X81Y1354D02*
X89Y1354D01*
X52Y1353D02*
X59Y1353D01*
X68Y1353D02*
X74Y1353D01*
X82Y1353D02*
X89Y1353D01*
X52Y1352D02*
X58Y1352D01*
X68Y1352D02*
X74Y1352D01*
X83Y1352D02*
X89Y1352D01*
X52Y1351D02*
X58Y1351D01*
X68Y1351D02*
X74Y1351D01*
X83Y1351D02*
X89Y1351D01*
X52Y1350D02*
X58Y1350D01*
X68Y1350D02*
X74Y1350D01*
X84Y1350D02*
X90Y1350D01*
X52Y1349D02*
X58Y1349D01*
X68Y1349D02*
X74Y1349D01*
X84Y1349D02*
X90Y1349D01*
X52Y1348D02*
X58Y1348D01*
X68Y1348D02*
X74Y1348D01*
X84Y1348D02*
X90Y1348D01*
X52Y1347D02*
X58Y1347D01*
X68Y1347D02*
X74Y1347D01*
X84Y1347D02*
X90Y1347D01*
X52Y1346D02*
X58Y1346D01*
X68Y1346D02*
X74Y1346D01*
X84Y1346D02*
X90Y1346D01*
X714Y1346D02*
X745Y1346D01*
X52Y1345D02*
X58Y1345D01*
X68Y1345D02*
X74Y1345D01*
X84Y1345D02*
X90Y1345D01*
X582Y1345D02*
X586Y1345D01*
X714Y1345D02*
X746Y1345D01*
X857Y1345D02*
X862Y1345D01*
X52Y1344D02*
X58Y1344D01*
X68Y1344D02*
X74Y1344D01*
X84Y1344D02*
X90Y1344D01*
X581Y1344D02*
X587Y1344D01*
X714Y1344D02*
X746Y1344D01*
X856Y1344D02*
X863Y1344D01*
X52Y1343D02*
X58Y1343D01*
X68Y1343D02*
X74Y1343D01*
X84Y1343D02*
X90Y1343D01*
X580Y1343D02*
X588Y1343D01*
X714Y1343D02*
X745Y1343D01*
X856Y1343D02*
X863Y1343D01*
X52Y1342D02*
X58Y1342D01*
X68Y1342D02*
X74Y1342D01*
X84Y1342D02*
X90Y1342D01*
X580Y1342D02*
X588Y1342D01*
X714Y1342D02*
X718Y1342D01*
X725Y1342D02*
X728Y1342D01*
X855Y1342D02*
X864Y1342D01*
X52Y1341D02*
X58Y1341D01*
X68Y1341D02*
X74Y1341D01*
X84Y1341D02*
X90Y1341D01*
X580Y1341D02*
X589Y1341D01*
X714Y1341D02*
X718Y1341D01*
X725Y1341D02*
X728Y1341D01*
X855Y1341D02*
X864Y1341D01*
X52Y1340D02*
X58Y1340D01*
X68Y1340D02*
X74Y1340D01*
X84Y1340D02*
X90Y1340D01*
X580Y1340D02*
X589Y1340D01*
X714Y1340D02*
X718Y1340D01*
X725Y1340D02*
X728Y1340D01*
X855Y1340D02*
X864Y1340D01*
X52Y1339D02*
X58Y1339D01*
X68Y1339D02*
X74Y1339D01*
X84Y1339D02*
X90Y1339D01*
X580Y1339D02*
X589Y1339D01*
X714Y1339D02*
X718Y1339D01*
X725Y1339D02*
X728Y1339D01*
X855Y1339D02*
X864Y1339D01*
X52Y1338D02*
X59Y1338D01*
X68Y1338D02*
X74Y1338D01*
X84Y1338D02*
X90Y1338D01*
X580Y1338D02*
X589Y1338D01*
X714Y1338D02*
X718Y1338D01*
X725Y1338D02*
X728Y1338D01*
X855Y1338D02*
X864Y1338D01*
X53Y1337D02*
X60Y1337D01*
X68Y1337D02*
X74Y1337D01*
X84Y1337D02*
X90Y1337D01*
X580Y1337D02*
X589Y1337D01*
X714Y1337D02*
X718Y1337D01*
X725Y1337D02*
X728Y1337D01*
X855Y1337D02*
X864Y1337D01*
X53Y1336D02*
X61Y1336D01*
X68Y1336D02*
X74Y1336D01*
X84Y1336D02*
X90Y1336D01*
X580Y1336D02*
X589Y1336D01*
X714Y1336D02*
X718Y1336D01*
X725Y1336D02*
X728Y1336D01*
X855Y1336D02*
X864Y1336D01*
X54Y1335D02*
X74Y1335D01*
X84Y1335D02*
X90Y1335D01*
X580Y1335D02*
X589Y1335D01*
X714Y1335D02*
X718Y1335D01*
X725Y1335D02*
X728Y1335D01*
X855Y1335D02*
X864Y1335D01*
X54Y1334D02*
X74Y1334D01*
X84Y1334D02*
X90Y1334D01*
X580Y1334D02*
X589Y1334D01*
X714Y1334D02*
X718Y1334D01*
X725Y1334D02*
X728Y1334D01*
X855Y1334D02*
X864Y1334D01*
X55Y1333D02*
X74Y1333D01*
X84Y1333D02*
X90Y1333D01*
X580Y1333D02*
X589Y1333D01*
X714Y1333D02*
X718Y1333D01*
X725Y1333D02*
X728Y1333D01*
X855Y1333D02*
X864Y1333D01*
X56Y1332D02*
X74Y1332D01*
X84Y1332D02*
X90Y1332D01*
X580Y1332D02*
X589Y1332D01*
X714Y1332D02*
X718Y1332D01*
X725Y1332D02*
X728Y1332D01*
X855Y1332D02*
X864Y1332D01*
X57Y1331D02*
X73Y1331D01*
X84Y1331D02*
X89Y1331D01*
X580Y1331D02*
X589Y1331D01*
X714Y1331D02*
X718Y1331D01*
X725Y1331D02*
X728Y1331D01*
X855Y1331D02*
X864Y1331D01*
X59Y1330D02*
X73Y1330D01*
X84Y1330D02*
X89Y1330D01*
X580Y1330D02*
X589Y1330D01*
X714Y1330D02*
X718Y1330D01*
X726Y1330D02*
X727Y1330D01*
X855Y1330D02*
X864Y1330D01*
X61Y1329D02*
X72Y1329D01*
X85Y1329D02*
X88Y1329D01*
X580Y1329D02*
X589Y1329D01*
X714Y1329D02*
X718Y1329D01*
X855Y1329D02*
X864Y1329D01*
X580Y1328D02*
X589Y1328D01*
X714Y1328D02*
X718Y1328D01*
X855Y1328D02*
X864Y1328D01*
X580Y1327D02*
X589Y1327D01*
X715Y1327D02*
X717Y1327D01*
X855Y1327D02*
X864Y1327D01*
X580Y1326D02*
X589Y1326D01*
X715Y1326D02*
X716Y1326D01*
X855Y1326D02*
X864Y1326D01*
X580Y1325D02*
X589Y1325D01*
X855Y1325D02*
X864Y1325D01*
X580Y1324D02*
X589Y1324D01*
X855Y1324D02*
X864Y1324D01*
X580Y1323D02*
X589Y1323D01*
X855Y1323D02*
X864Y1323D01*
X580Y1322D02*
X589Y1322D01*
X855Y1322D02*
X864Y1322D01*
X580Y1321D02*
X589Y1321D01*
X855Y1321D02*
X864Y1321D01*
X580Y1320D02*
X864Y1320D01*
X580Y1319D02*
X864Y1319D01*
X580Y1318D02*
X864Y1318D01*
X580Y1317D02*
X668Y1317D01*
X682Y1317D02*
X864Y1317D01*
X580Y1316D02*
X663Y1316D01*
X687Y1316D02*
X864Y1316D01*
X580Y1315D02*
X659Y1315D01*
X690Y1315D02*
X864Y1315D01*
X580Y1314D02*
X656Y1314D01*
X693Y1314D02*
X864Y1314D01*
X53Y1313D02*
X101Y1313D01*
X580Y1313D02*
X654Y1313D01*
X695Y1313D02*
X864Y1313D01*
X51Y1312D02*
X103Y1312D01*
X580Y1312D02*
X652Y1312D01*
X697Y1312D02*
X864Y1312D01*
X51Y1311D02*
X104Y1311D01*
X580Y1311D02*
X650Y1311D01*
X699Y1311D02*
X864Y1311D01*
X50Y1310D02*
X104Y1310D01*
X50Y1309D02*
X104Y1309D01*
X51Y1308D02*
X104Y1308D01*
X52Y1307D02*
X103Y1307D01*
X55Y1306D02*
X65Y1306D01*
X76Y1306D02*
X86Y1306D01*
X54Y1305D02*
X63Y1305D01*
X78Y1305D02*
X87Y1305D01*
X53Y1304D02*
X62Y1304D01*
X79Y1304D02*
X88Y1304D01*
X53Y1303D02*
X61Y1303D01*
X80Y1303D02*
X89Y1303D01*
X52Y1302D02*
X60Y1302D01*
X81Y1302D02*
X89Y1302D01*
X51Y1301D02*
X59Y1301D01*
X82Y1301D02*
X90Y1301D01*
X51Y1300D02*
X58Y1300D01*
X83Y1300D02*
X90Y1300D01*
X51Y1299D02*
X57Y1299D01*
X84Y1299D02*
X91Y1299D01*
X50Y1298D02*
X56Y1298D01*
X85Y1298D02*
X91Y1298D01*
X50Y1297D02*
X56Y1297D01*
X85Y1297D02*
X91Y1297D01*
X50Y1296D02*
X56Y1296D01*
X85Y1296D02*
X91Y1296D01*
X50Y1295D02*
X56Y1295D01*
X85Y1295D02*
X91Y1295D01*
X50Y1294D02*
X56Y1294D01*
X85Y1294D02*
X91Y1294D01*
X50Y1293D02*
X57Y1293D01*
X84Y1293D02*
X91Y1293D01*
X51Y1292D02*
X58Y1292D01*
X83Y1292D02*
X90Y1292D01*
X51Y1291D02*
X59Y1291D01*
X83Y1291D02*
X90Y1291D01*
X52Y1290D02*
X60Y1290D01*
X82Y1290D02*
X90Y1290D01*
X52Y1289D02*
X60Y1289D01*
X81Y1289D02*
X89Y1289D01*
X53Y1288D02*
X61Y1288D01*
X80Y1288D02*
X88Y1288D01*
X54Y1287D02*
X62Y1287D01*
X79Y1287D02*
X87Y1287D01*
X55Y1286D02*
X64Y1286D01*
X77Y1286D02*
X86Y1286D01*
X56Y1285D02*
X86Y1285D01*
X57Y1284D02*
X85Y1284D01*
X58Y1283D02*
X84Y1283D01*
X59Y1282D02*
X83Y1282D01*
X60Y1281D02*
X82Y1281D01*
X61Y1280D02*
X80Y1280D01*
X66Y1279D02*
X75Y1279D01*
X53Y1263D02*
X88Y1263D01*
X52Y1262D02*
X89Y1262D01*
X52Y1261D02*
X89Y1261D01*
X52Y1260D02*
X89Y1260D01*
X52Y1259D02*
X89Y1259D01*
X52Y1258D02*
X89Y1258D01*
X54Y1257D02*
X87Y1257D01*
X59Y1256D02*
X67Y1256D01*
X58Y1255D02*
X66Y1255D01*
X57Y1254D02*
X65Y1254D01*
X56Y1253D02*
X64Y1253D01*
X55Y1252D02*
X63Y1252D01*
X54Y1251D02*
X62Y1251D01*
X53Y1250D02*
X62Y1250D01*
X53Y1249D02*
X61Y1249D01*
X52Y1248D02*
X60Y1248D01*
X52Y1247D02*
X59Y1247D01*
X52Y1246D02*
X58Y1246D01*
X52Y1245D02*
X58Y1245D01*
X52Y1244D02*
X58Y1244D01*
X52Y1243D02*
X58Y1243D01*
X52Y1242D02*
X58Y1242D01*
X52Y1241D02*
X58Y1241D01*
X52Y1240D02*
X58Y1240D01*
X52Y1239D02*
X58Y1239D01*
X52Y1238D02*
X58Y1238D01*
X52Y1237D02*
X59Y1237D01*
X52Y1236D02*
X64Y1236D01*
X52Y1235D02*
X65Y1235D01*
X53Y1234D02*
X65Y1234D01*
X54Y1233D02*
X66Y1233D01*
X54Y1232D02*
X65Y1232D01*
X56Y1231D02*
X65Y1231D01*
X58Y1230D02*
X64Y1230D01*
X53Y1210D02*
X56Y1210D01*
X85Y1210D02*
X88Y1210D01*
X52Y1209D02*
X57Y1209D01*
X84Y1209D02*
X89Y1209D01*
X52Y1208D02*
X57Y1208D01*
X84Y1208D02*
X89Y1208D01*
X52Y1207D02*
X58Y1207D01*
X84Y1207D02*
X90Y1207D01*
X52Y1206D02*
X58Y1206D01*
X84Y1206D02*
X90Y1206D01*
X52Y1205D02*
X58Y1205D01*
X84Y1205D02*
X90Y1205D01*
X52Y1204D02*
X58Y1204D01*
X84Y1204D02*
X90Y1204D01*
X35Y1203D02*
X42Y1203D01*
X52Y1203D02*
X58Y1203D01*
X84Y1203D02*
X90Y1203D01*
X35Y1202D02*
X43Y1202D01*
X52Y1202D02*
X58Y1202D01*
X84Y1202D02*
X90Y1202D01*
X34Y1201D02*
X43Y1201D01*
X52Y1201D02*
X58Y1201D01*
X84Y1201D02*
X90Y1201D01*
X34Y1200D02*
X43Y1200D01*
X52Y1200D02*
X90Y1200D01*
X34Y1199D02*
X43Y1199D01*
X52Y1199D02*
X90Y1199D01*
X34Y1198D02*
X43Y1198D01*
X52Y1198D02*
X90Y1198D01*
X34Y1197D02*
X43Y1197D01*
X52Y1197D02*
X90Y1197D01*
X34Y1196D02*
X43Y1196D01*
X52Y1196D02*
X90Y1196D01*
X35Y1195D02*
X42Y1195D01*
X52Y1195D02*
X90Y1195D01*
X36Y1194D02*
X41Y1194D01*
X54Y1194D02*
X90Y1194D01*
X84Y1193D02*
X90Y1193D01*
X84Y1192D02*
X90Y1192D01*
X84Y1191D02*
X90Y1191D01*
X84Y1190D02*
X90Y1190D01*
X84Y1189D02*
X90Y1189D01*
X84Y1188D02*
X90Y1188D01*
X84Y1187D02*
X90Y1187D01*
X84Y1186D02*
X89Y1186D01*
X84Y1185D02*
X89Y1185D01*
X85Y1184D02*
X88Y1184D01*
X55Y1164D02*
X87Y1164D01*
X53Y1163D02*
X89Y1163D01*
X52Y1162D02*
X89Y1162D01*
X52Y1161D02*
X89Y1161D01*
X52Y1160D02*
X89Y1160D01*
X52Y1159D02*
X89Y1159D01*
X53Y1158D02*
X88Y1158D01*
X57Y1157D02*
X65Y1157D01*
X57Y1156D02*
X64Y1156D01*
X56Y1155D02*
X63Y1155D01*
X55Y1154D02*
X63Y1154D01*
X55Y1153D02*
X62Y1153D01*
X54Y1152D02*
X61Y1152D01*
X54Y1151D02*
X61Y1151D01*
X53Y1150D02*
X60Y1150D01*
X53Y1149D02*
X59Y1149D01*
X52Y1148D02*
X59Y1148D01*
X52Y1147D02*
X58Y1147D01*
X52Y1146D02*
X58Y1146D01*
X52Y1145D02*
X58Y1145D01*
X52Y1144D02*
X58Y1144D01*
X723Y1144D02*
X723Y1144D01*
X52Y1143D02*
X58Y1143D01*
X722Y1143D02*
X724Y1143D01*
X52Y1142D02*
X58Y1142D01*
X721Y1142D02*
X725Y1142D01*
X52Y1141D02*
X58Y1141D01*
X721Y1141D02*
X725Y1141D01*
X52Y1140D02*
X58Y1140D01*
X721Y1140D02*
X725Y1140D01*
X52Y1139D02*
X58Y1139D01*
X711Y1139D02*
X714Y1139D01*
X721Y1139D02*
X725Y1139D01*
X52Y1138D02*
X60Y1138D01*
X711Y1138D02*
X714Y1138D01*
X721Y1138D02*
X725Y1138D01*
X52Y1137D02*
X88Y1137D01*
X711Y1137D02*
X714Y1137D01*
X721Y1137D02*
X725Y1137D01*
X53Y1136D02*
X89Y1136D01*
X711Y1136D02*
X714Y1136D01*
X721Y1136D02*
X725Y1136D01*
X54Y1135D02*
X89Y1135D01*
X711Y1135D02*
X714Y1135D01*
X721Y1135D02*
X725Y1135D01*
X54Y1134D02*
X89Y1134D01*
X711Y1134D02*
X714Y1134D01*
X721Y1134D02*
X725Y1134D01*
X56Y1133D02*
X89Y1133D01*
X711Y1133D02*
X714Y1133D01*
X721Y1133D02*
X725Y1133D01*
X57Y1132D02*
X88Y1132D01*
X711Y1132D02*
X714Y1132D01*
X721Y1132D02*
X725Y1132D01*
X61Y1131D02*
X86Y1131D01*
X711Y1131D02*
X714Y1131D01*
X721Y1131D02*
X725Y1131D01*
X711Y1130D02*
X714Y1130D01*
X721Y1130D02*
X725Y1130D01*
X711Y1129D02*
X714Y1129D01*
X721Y1129D02*
X725Y1129D01*
X711Y1128D02*
X714Y1128D01*
X721Y1128D02*
X725Y1128D01*
X694Y1127D02*
X725Y1127D01*
X693Y1126D02*
X725Y1126D01*
X693Y1125D02*
X725Y1125D01*
X694Y1124D02*
X725Y1124D01*
X53Y1114D02*
X57Y1114D01*
X52Y1113D02*
X57Y1113D01*
X694Y1113D02*
X712Y1113D01*
X52Y1112D02*
X57Y1112D01*
X693Y1112D02*
X714Y1112D01*
X52Y1111D02*
X58Y1111D01*
X693Y1111D02*
X715Y1111D01*
X52Y1110D02*
X58Y1110D01*
X694Y1110D02*
X715Y1110D01*
X52Y1109D02*
X58Y1109D01*
X712Y1109D02*
X716Y1109D01*
X42Y1108D02*
X82Y1108D01*
X712Y1108D02*
X716Y1108D01*
X41Y1107D02*
X84Y1107D01*
X713Y1107D02*
X716Y1107D01*
X40Y1106D02*
X86Y1106D01*
X713Y1106D02*
X716Y1106D01*
X40Y1105D02*
X87Y1105D01*
X713Y1105D02*
X716Y1105D01*
X40Y1104D02*
X88Y1104D01*
X712Y1104D02*
X716Y1104D01*
X41Y1103D02*
X88Y1103D01*
X712Y1103D02*
X715Y1103D01*
X42Y1102D02*
X89Y1102D01*
X711Y1102D02*
X715Y1102D01*
X52Y1101D02*
X58Y1101D01*
X82Y1101D02*
X89Y1101D01*
X710Y1101D02*
X714Y1101D01*
X52Y1100D02*
X58Y1100D01*
X83Y1100D02*
X89Y1100D01*
X710Y1100D02*
X714Y1100D01*
X52Y1099D02*
X58Y1099D01*
X83Y1099D02*
X89Y1099D01*
X709Y1099D02*
X713Y1099D01*
X52Y1098D02*
X58Y1098D01*
X84Y1098D02*
X90Y1098D01*
X708Y1098D02*
X713Y1098D01*
X52Y1097D02*
X58Y1097D01*
X84Y1097D02*
X90Y1097D01*
X694Y1097D02*
X715Y1097D01*
X52Y1096D02*
X58Y1096D01*
X84Y1096D02*
X90Y1096D01*
X693Y1096D02*
X716Y1096D01*
X52Y1095D02*
X58Y1095D01*
X84Y1095D02*
X90Y1095D01*
X693Y1095D02*
X716Y1095D01*
X52Y1094D02*
X58Y1094D01*
X84Y1094D02*
X90Y1094D01*
X694Y1094D02*
X715Y1094D01*
X52Y1093D02*
X58Y1093D01*
X84Y1093D02*
X90Y1093D01*
X52Y1092D02*
X58Y1092D01*
X84Y1092D02*
X90Y1092D01*
X52Y1091D02*
X58Y1091D01*
X84Y1091D02*
X90Y1091D01*
X52Y1090D02*
X58Y1090D01*
X83Y1090D02*
X89Y1090D01*
X52Y1089D02*
X57Y1089D01*
X83Y1089D02*
X89Y1089D01*
X52Y1088D02*
X57Y1088D01*
X81Y1088D02*
X89Y1088D01*
X53Y1087D02*
X56Y1087D01*
X79Y1087D02*
X89Y1087D01*
X78Y1086D02*
X88Y1086D01*
X78Y1085D02*
X87Y1085D01*
X78Y1084D02*
X86Y1084D01*
X78Y1083D02*
X85Y1083D01*
X695Y1083D02*
X723Y1083D01*
X79Y1082D02*
X84Y1082D01*
X694Y1082D02*
X724Y1082D01*
X693Y1081D02*
X724Y1081D01*
X693Y1080D02*
X725Y1080D01*
X693Y1079D02*
X696Y1079D01*
X721Y1079D02*
X725Y1079D01*
X693Y1078D02*
X696Y1078D01*
X721Y1078D02*
X725Y1078D01*
X693Y1077D02*
X696Y1077D01*
X721Y1077D02*
X725Y1077D01*
X693Y1076D02*
X696Y1076D01*
X721Y1076D02*
X725Y1076D01*
X693Y1075D02*
X696Y1075D01*
X721Y1075D02*
X725Y1075D01*
X693Y1074D02*
X696Y1074D01*
X721Y1074D02*
X725Y1074D01*
X693Y1073D02*
X696Y1073D01*
X721Y1073D02*
X725Y1073D01*
X693Y1072D02*
X696Y1072D01*
X721Y1072D02*
X725Y1072D01*
X693Y1071D02*
X696Y1071D01*
X721Y1071D02*
X725Y1071D01*
X693Y1070D02*
X696Y1070D01*
X721Y1070D02*
X725Y1070D01*
X693Y1069D02*
X696Y1069D01*
X721Y1069D02*
X725Y1069D01*
X693Y1068D02*
X696Y1068D01*
X721Y1068D02*
X725Y1068D01*
X693Y1067D02*
X725Y1067D01*
X693Y1066D02*
X724Y1066D01*
X44Y1065D02*
X47Y1065D01*
X65Y1065D02*
X82Y1065D01*
X694Y1065D02*
X724Y1065D01*
X43Y1064D02*
X48Y1064D01*
X62Y1064D02*
X85Y1064D01*
X695Y1064D02*
X723Y1064D01*
X42Y1063D02*
X49Y1063D01*
X61Y1063D02*
X86Y1063D01*
X41Y1062D02*
X49Y1062D01*
X60Y1062D02*
X87Y1062D01*
X40Y1061D02*
X49Y1061D01*
X59Y1061D02*
X88Y1061D01*
X39Y1060D02*
X48Y1060D01*
X59Y1060D02*
X88Y1060D01*
X39Y1059D02*
X47Y1059D01*
X58Y1059D02*
X89Y1059D01*
X38Y1058D02*
X46Y1058D01*
X58Y1058D02*
X65Y1058D01*
X82Y1058D02*
X89Y1058D01*
X38Y1057D02*
X45Y1057D01*
X58Y1057D02*
X64Y1057D01*
X83Y1057D02*
X89Y1057D01*
X37Y1056D02*
X44Y1056D01*
X58Y1056D02*
X64Y1056D01*
X83Y1056D02*
X89Y1056D01*
X37Y1055D02*
X43Y1055D01*
X57Y1055D02*
X63Y1055D01*
X84Y1055D02*
X90Y1055D01*
X37Y1054D02*
X43Y1054D01*
X57Y1054D02*
X63Y1054D01*
X83Y1054D02*
X89Y1054D01*
X37Y1053D02*
X43Y1053D01*
X57Y1053D02*
X63Y1053D01*
X83Y1053D02*
X89Y1053D01*
X695Y1053D02*
X723Y1053D01*
X37Y1052D02*
X43Y1052D01*
X57Y1052D02*
X64Y1052D01*
X80Y1052D02*
X89Y1052D01*
X694Y1052D02*
X724Y1052D01*
X37Y1051D02*
X43Y1051D01*
X57Y1051D02*
X89Y1051D01*
X693Y1051D02*
X724Y1051D01*
X37Y1050D02*
X43Y1050D01*
X57Y1050D02*
X88Y1050D01*
X693Y1050D02*
X724Y1050D01*
X37Y1049D02*
X43Y1049D01*
X57Y1049D02*
X87Y1049D01*
X693Y1049D02*
X696Y1049D01*
X721Y1049D02*
X725Y1049D01*
X37Y1048D02*
X43Y1048D01*
X58Y1048D02*
X87Y1048D01*
X693Y1048D02*
X696Y1048D01*
X721Y1048D02*
X725Y1048D01*
X37Y1047D02*
X43Y1047D01*
X58Y1047D02*
X88Y1047D01*
X693Y1047D02*
X696Y1047D01*
X721Y1047D02*
X725Y1047D01*
X37Y1046D02*
X43Y1046D01*
X59Y1046D02*
X89Y1046D01*
X693Y1046D02*
X696Y1046D01*
X721Y1046D02*
X725Y1046D01*
X37Y1045D02*
X43Y1045D01*
X80Y1045D02*
X89Y1045D01*
X693Y1045D02*
X696Y1045D01*
X721Y1045D02*
X725Y1045D01*
X37Y1044D02*
X43Y1044D01*
X83Y1044D02*
X89Y1044D01*
X693Y1044D02*
X696Y1044D01*
X721Y1044D02*
X725Y1044D01*
X37Y1043D02*
X43Y1043D01*
X83Y1043D02*
X89Y1043D01*
X693Y1043D02*
X696Y1043D01*
X721Y1043D02*
X725Y1043D01*
X37Y1042D02*
X43Y1042D01*
X84Y1042D02*
X90Y1042D01*
X693Y1042D02*
X696Y1042D01*
X721Y1042D02*
X725Y1042D01*
X37Y1041D02*
X44Y1041D01*
X83Y1041D02*
X89Y1041D01*
X693Y1041D02*
X696Y1041D01*
X721Y1041D02*
X725Y1041D01*
X38Y1040D02*
X45Y1040D01*
X83Y1040D02*
X89Y1040D01*
X693Y1040D02*
X696Y1040D01*
X721Y1040D02*
X725Y1040D01*
X38Y1039D02*
X46Y1039D01*
X82Y1039D02*
X89Y1039D01*
X693Y1039D02*
X696Y1039D01*
X721Y1039D02*
X725Y1039D01*
X39Y1038D02*
X89Y1038D01*
X693Y1038D02*
X696Y1038D01*
X721Y1038D02*
X725Y1038D01*
X39Y1037D02*
X88Y1037D01*
X693Y1037D02*
X725Y1037D01*
X40Y1036D02*
X88Y1036D01*
X693Y1036D02*
X724Y1036D01*
X41Y1035D02*
X87Y1035D01*
X694Y1035D02*
X724Y1035D01*
X42Y1034D02*
X86Y1034D01*
X695Y1034D02*
X723Y1034D01*
X43Y1033D02*
X85Y1033D01*
X697Y1033D02*
X721Y1033D01*
X46Y1032D02*
X82Y1032D01*
X694Y1023D02*
X704Y1023D01*
X693Y1022D02*
X705Y1022D01*
X693Y1021D02*
X705Y1021D01*
X693Y1020D02*
X704Y1020D01*
X693Y1019D02*
X696Y1019D01*
X693Y1018D02*
X696Y1018D01*
X693Y1017D02*
X696Y1017D01*
X53Y1016D02*
X101Y1016D01*
X693Y1016D02*
X696Y1016D01*
X51Y1015D02*
X103Y1015D01*
X693Y1015D02*
X724Y1015D01*
X51Y1014D02*
X104Y1014D01*
X693Y1014D02*
X725Y1014D01*
X50Y1013D02*
X104Y1013D01*
X693Y1013D02*
X725Y1013D01*
X50Y1012D02*
X104Y1012D01*
X693Y1012D02*
X725Y1012D01*
X51Y1011D02*
X104Y1011D01*
X693Y1011D02*
X697Y1011D01*
X721Y1011D02*
X725Y1011D01*
X52Y1010D02*
X103Y1010D01*
X693Y1010D02*
X696Y1010D01*
X721Y1010D02*
X725Y1010D01*
X55Y1009D02*
X65Y1009D01*
X76Y1009D02*
X86Y1009D01*
X693Y1009D02*
X696Y1009D01*
X721Y1009D02*
X725Y1009D01*
X54Y1008D02*
X63Y1008D01*
X78Y1008D02*
X87Y1008D01*
X693Y1008D02*
X696Y1008D01*
X721Y1008D02*
X725Y1008D01*
X53Y1007D02*
X62Y1007D01*
X79Y1007D02*
X88Y1007D01*
X693Y1007D02*
X696Y1007D01*
X721Y1007D02*
X725Y1007D01*
X53Y1006D02*
X61Y1006D01*
X80Y1006D02*
X89Y1006D01*
X693Y1006D02*
X696Y1006D01*
X721Y1006D02*
X725Y1006D01*
X52Y1005D02*
X60Y1005D01*
X81Y1005D02*
X89Y1005D01*
X693Y1005D02*
X696Y1005D01*
X721Y1005D02*
X725Y1005D01*
X51Y1004D02*
X59Y1004D01*
X82Y1004D02*
X90Y1004D01*
X693Y1004D02*
X696Y1004D01*
X722Y1004D02*
X724Y1004D01*
X51Y1003D02*
X58Y1003D01*
X83Y1003D02*
X90Y1003D01*
X695Y1003D02*
X695Y1003D01*
X723Y1003D02*
X723Y1003D01*
X51Y1002D02*
X57Y1002D01*
X84Y1002D02*
X91Y1002D01*
X50Y1001D02*
X56Y1001D01*
X85Y1001D02*
X91Y1001D01*
X50Y1000D02*
X56Y1000D01*
X85Y1000D02*
X91Y1000D01*
X50Y999D02*
X56Y999D01*
X85Y999D02*
X91Y999D01*
X50Y998D02*
X56Y998D01*
X85Y998D02*
X91Y998D01*
X50Y997D02*
X56Y997D01*
X85Y997D02*
X91Y997D01*
X50Y996D02*
X57Y996D01*
X84Y996D02*
X91Y996D01*
X51Y995D02*
X58Y995D01*
X83Y995D02*
X90Y995D01*
X51Y994D02*
X59Y994D01*
X83Y994D02*
X90Y994D01*
X52Y993D02*
X60Y993D01*
X82Y993D02*
X90Y993D01*
X52Y992D02*
X60Y992D01*
X81Y992D02*
X89Y992D01*
X53Y991D02*
X61Y991D01*
X80Y991D02*
X88Y991D01*
X54Y990D02*
X62Y990D01*
X79Y990D02*
X87Y990D01*
X55Y989D02*
X64Y989D01*
X77Y989D02*
X86Y989D01*
X56Y988D02*
X86Y988D01*
X57Y987D02*
X85Y987D01*
X58Y986D02*
X84Y986D01*
X59Y985D02*
X83Y985D01*
X60Y984D02*
X82Y984D01*
X61Y983D02*
X80Y983D01*
X66Y982D02*
X76Y982D01*
X61Y966D02*
X80Y966D01*
X59Y965D02*
X83Y965D01*
X57Y964D02*
X84Y964D01*
X56Y963D02*
X85Y963D01*
X55Y962D02*
X86Y962D01*
X55Y961D02*
X86Y961D01*
X54Y960D02*
X87Y960D01*
X53Y959D02*
X61Y959D01*
X80Y959D02*
X88Y959D01*
X53Y958D02*
X60Y958D01*
X81Y958D02*
X88Y958D01*
X52Y957D02*
X59Y957D01*
X82Y957D02*
X89Y957D01*
X52Y956D02*
X58Y956D01*
X83Y956D02*
X89Y956D01*
X52Y955D02*
X58Y955D01*
X83Y955D02*
X89Y955D01*
X52Y954D02*
X58Y954D01*
X84Y954D02*
X89Y954D01*
X52Y953D02*
X58Y953D01*
X84Y953D02*
X90Y953D01*
X52Y952D02*
X58Y952D01*
X84Y952D02*
X90Y952D01*
X52Y951D02*
X58Y951D01*
X84Y951D02*
X90Y951D01*
X52Y950D02*
X58Y950D01*
X84Y950D02*
X90Y950D01*
X52Y949D02*
X58Y949D01*
X84Y949D02*
X90Y949D01*
X52Y948D02*
X58Y948D01*
X84Y948D02*
X90Y948D01*
X52Y947D02*
X58Y947D01*
X84Y947D02*
X90Y947D01*
X52Y946D02*
X58Y946D01*
X84Y946D02*
X90Y946D01*
X52Y945D02*
X58Y945D01*
X84Y945D02*
X90Y945D01*
X52Y944D02*
X58Y944D01*
X83Y944D02*
X89Y944D01*
X52Y943D02*
X58Y943D01*
X83Y943D02*
X89Y943D01*
X52Y942D02*
X59Y942D01*
X82Y942D02*
X89Y942D01*
X53Y941D02*
X60Y941D01*
X81Y941D02*
X89Y941D01*
X53Y940D02*
X61Y940D01*
X80Y940D02*
X88Y940D01*
X54Y939D02*
X87Y939D01*
X54Y938D02*
X87Y938D01*
X55Y937D02*
X86Y937D01*
X56Y936D02*
X85Y936D01*
X57Y935D02*
X84Y935D01*
X59Y934D02*
X82Y934D01*
X61Y933D02*
X80Y933D01*
X64Y917D02*
X77Y917D01*
X60Y916D02*
X82Y916D01*
X58Y915D02*
X83Y915D01*
X57Y914D02*
X84Y914D01*
X56Y913D02*
X85Y913D01*
X55Y912D02*
X86Y912D01*
X54Y911D02*
X87Y911D01*
X53Y910D02*
X63Y910D01*
X67Y910D02*
X74Y910D01*
X79Y910D02*
X88Y910D01*
X53Y909D02*
X61Y909D01*
X68Y909D02*
X74Y909D01*
X80Y909D02*
X88Y909D01*
X52Y908D02*
X60Y908D01*
X68Y908D02*
X74Y908D01*
X82Y908D02*
X89Y908D01*
X52Y907D02*
X59Y907D01*
X68Y907D02*
X74Y907D01*
X82Y907D02*
X89Y907D01*
X52Y906D02*
X58Y906D01*
X68Y906D02*
X74Y906D01*
X83Y906D02*
X89Y906D01*
X52Y905D02*
X58Y905D01*
X68Y905D02*
X74Y905D01*
X83Y905D02*
X89Y905D01*
X52Y904D02*
X58Y904D01*
X68Y904D02*
X74Y904D01*
X84Y904D02*
X90Y904D01*
X52Y903D02*
X58Y903D01*
X68Y903D02*
X74Y903D01*
X84Y903D02*
X90Y903D01*
X52Y902D02*
X58Y902D01*
X68Y902D02*
X74Y902D01*
X84Y902D02*
X90Y902D01*
X52Y901D02*
X58Y901D01*
X68Y901D02*
X74Y901D01*
X84Y901D02*
X90Y901D01*
X52Y900D02*
X58Y900D01*
X68Y900D02*
X74Y900D01*
X84Y900D02*
X90Y900D01*
X52Y899D02*
X58Y899D01*
X68Y899D02*
X74Y899D01*
X84Y899D02*
X90Y899D01*
X52Y898D02*
X58Y898D01*
X68Y898D02*
X74Y898D01*
X84Y898D02*
X90Y898D01*
X52Y897D02*
X58Y897D01*
X68Y897D02*
X74Y897D01*
X84Y897D02*
X90Y897D01*
X52Y896D02*
X58Y896D01*
X68Y896D02*
X74Y896D01*
X84Y896D02*
X90Y896D01*
X52Y895D02*
X58Y895D01*
X68Y895D02*
X74Y895D01*
X84Y895D02*
X90Y895D01*
X52Y894D02*
X58Y894D01*
X68Y894D02*
X74Y894D01*
X84Y894D02*
X90Y894D01*
X52Y893D02*
X59Y893D01*
X68Y893D02*
X74Y893D01*
X84Y893D02*
X90Y893D01*
X52Y892D02*
X59Y892D01*
X68Y892D02*
X74Y892D01*
X84Y892D02*
X90Y892D01*
X53Y891D02*
X60Y891D01*
X68Y891D02*
X74Y891D01*
X84Y891D02*
X90Y891D01*
X53Y890D02*
X62Y890D01*
X67Y890D02*
X74Y890D01*
X84Y890D02*
X90Y890D01*
X54Y889D02*
X74Y889D01*
X84Y889D02*
X90Y889D01*
X55Y888D02*
X74Y888D01*
X84Y888D02*
X90Y888D01*
X56Y887D02*
X74Y887D01*
X84Y887D02*
X90Y887D01*
X57Y886D02*
X74Y886D01*
X84Y886D02*
X89Y886D01*
X58Y885D02*
X73Y885D01*
X84Y885D02*
X89Y885D01*
X60Y884D02*
X73Y884D01*
X85Y884D02*
X88Y884D01*
X63Y883D02*
X71Y883D01*
X87Y883D02*
X87Y883D01*
X53Y867D02*
X56Y867D01*
X52Y866D02*
X57Y866D01*
X52Y865D02*
X57Y865D01*
X52Y864D02*
X58Y864D01*
X52Y863D02*
X58Y863D01*
X52Y862D02*
X58Y862D01*
X51Y861D02*
X58Y861D01*
X41Y860D02*
X83Y860D01*
X40Y859D02*
X85Y859D01*
X40Y858D02*
X86Y858D01*
X40Y857D02*
X87Y857D01*
X40Y856D02*
X88Y856D01*
X41Y855D02*
X88Y855D01*
X43Y854D02*
X89Y854D01*
X52Y853D02*
X58Y853D01*
X82Y853D02*
X89Y853D01*
X52Y852D02*
X58Y852D01*
X83Y852D02*
X89Y852D01*
X52Y851D02*
X58Y851D01*
X84Y851D02*
X89Y851D01*
X52Y850D02*
X58Y850D01*
X84Y850D02*
X90Y850D01*
X52Y849D02*
X58Y849D01*
X84Y849D02*
X90Y849D01*
X52Y848D02*
X58Y848D01*
X84Y848D02*
X90Y848D01*
X52Y847D02*
X58Y847D01*
X84Y847D02*
X90Y847D01*
X52Y846D02*
X58Y846D01*
X84Y846D02*
X90Y846D01*
X52Y845D02*
X58Y845D01*
X84Y845D02*
X90Y845D01*
X52Y844D02*
X58Y844D01*
X84Y844D02*
X90Y844D01*
X52Y843D02*
X58Y843D01*
X83Y843D02*
X89Y843D01*
X52Y842D02*
X57Y842D01*
X83Y842D02*
X89Y842D01*
X52Y841D02*
X57Y841D01*
X82Y841D02*
X89Y841D01*
X53Y840D02*
X57Y840D01*
X80Y840D02*
X89Y840D01*
X79Y839D02*
X88Y839D01*
X78Y838D02*
X88Y838D01*
X78Y837D02*
X87Y837D01*
X78Y836D02*
X86Y836D01*
X78Y835D02*
X84Y835D01*
X80Y834D02*
X83Y834D01*
X76Y818D02*
X79Y818D01*
X72Y817D02*
X84Y817D01*
X70Y816D02*
X85Y816D01*
X69Y815D02*
X86Y815D01*
X68Y814D02*
X87Y814D01*
X54Y813D02*
X55Y813D01*
X68Y813D02*
X88Y813D01*
X53Y812D02*
X57Y812D01*
X67Y812D02*
X89Y812D01*
X52Y811D02*
X57Y811D01*
X67Y811D02*
X74Y811D01*
X82Y811D02*
X89Y811D01*
X52Y810D02*
X57Y810D01*
X66Y810D02*
X72Y810D01*
X83Y810D02*
X89Y810D01*
X52Y809D02*
X57Y809D01*
X66Y809D02*
X72Y809D01*
X84Y809D02*
X89Y809D01*
X52Y808D02*
X57Y808D01*
X66Y808D02*
X72Y808D01*
X84Y808D02*
X90Y808D01*
X52Y807D02*
X57Y807D01*
X66Y807D02*
X72Y807D01*
X84Y807D02*
X90Y807D01*
X52Y806D02*
X57Y806D01*
X66Y806D02*
X72Y806D01*
X84Y806D02*
X90Y806D01*
X52Y805D02*
X57Y805D01*
X66Y805D02*
X72Y805D01*
X84Y805D02*
X90Y805D01*
X52Y804D02*
X57Y804D01*
X66Y804D02*
X72Y804D01*
X84Y804D02*
X90Y804D01*
X52Y803D02*
X57Y803D01*
X66Y803D02*
X72Y803D01*
X84Y803D02*
X90Y803D01*
X52Y802D02*
X57Y802D01*
X66Y802D02*
X72Y802D01*
X84Y802D02*
X90Y802D01*
X52Y801D02*
X57Y801D01*
X66Y801D02*
X72Y801D01*
X84Y801D02*
X90Y801D01*
X52Y800D02*
X57Y800D01*
X66Y800D02*
X72Y800D01*
X84Y800D02*
X90Y800D01*
X52Y799D02*
X57Y799D01*
X66Y799D02*
X72Y799D01*
X84Y799D02*
X90Y799D01*
X52Y798D02*
X57Y798D01*
X66Y798D02*
X72Y798D01*
X84Y798D02*
X90Y798D01*
X52Y797D02*
X57Y797D01*
X66Y797D02*
X72Y797D01*
X83Y797D02*
X89Y797D01*
X52Y796D02*
X57Y796D01*
X66Y796D02*
X72Y796D01*
X83Y796D02*
X89Y796D01*
X52Y795D02*
X57Y795D01*
X66Y795D02*
X72Y795D01*
X82Y795D02*
X89Y795D01*
X52Y794D02*
X58Y794D01*
X66Y794D02*
X72Y794D01*
X81Y794D02*
X88Y794D01*
X52Y793D02*
X58Y793D01*
X66Y793D02*
X72Y793D01*
X81Y793D02*
X88Y793D01*
X52Y792D02*
X58Y792D01*
X67Y792D02*
X73Y792D01*
X80Y792D02*
X87Y792D01*
X52Y791D02*
X60Y791D01*
X67Y791D02*
X74Y791D01*
X79Y791D02*
X86Y791D01*
X53Y790D02*
X88Y790D01*
X53Y789D02*
X89Y789D01*
X54Y788D02*
X89Y788D01*
X55Y787D02*
X89Y787D01*
X56Y786D02*
X89Y786D01*
X58Y785D02*
X89Y785D01*
X61Y784D02*
X87Y784D01*
X82Y768D02*
X85Y768D01*
X57Y767D02*
X63Y767D01*
X81Y767D02*
X86Y767D01*
X55Y766D02*
X64Y766D01*
X81Y766D02*
X87Y766D01*
X54Y765D02*
X66Y765D01*
X81Y765D02*
X88Y765D01*
X53Y764D02*
X67Y764D01*
X81Y764D02*
X88Y764D01*
X729Y764D02*
X730Y764D01*
X53Y763D02*
X67Y763D01*
X82Y763D02*
X88Y763D01*
X729Y763D02*
X731Y763D01*
X52Y762D02*
X68Y762D01*
X82Y762D02*
X89Y762D01*
X728Y762D02*
X732Y762D01*
X52Y761D02*
X68Y761D01*
X83Y761D02*
X89Y761D01*
X728Y761D02*
X732Y761D01*
X52Y760D02*
X58Y760D01*
X62Y760D02*
X69Y760D01*
X83Y760D02*
X89Y760D01*
X719Y760D02*
X719Y760D01*
X728Y760D02*
X732Y760D01*
X52Y759D02*
X58Y759D01*
X62Y759D02*
X69Y759D01*
X84Y759D02*
X89Y759D01*
X718Y759D02*
X721Y759D01*
X728Y759D02*
X732Y759D01*
X52Y758D02*
X58Y758D01*
X63Y758D02*
X69Y758D01*
X84Y758D02*
X90Y758D01*
X718Y758D02*
X721Y758D01*
X728Y758D02*
X732Y758D01*
X52Y757D02*
X58Y757D01*
X63Y757D02*
X70Y757D01*
X84Y757D02*
X90Y757D01*
X718Y757D02*
X721Y757D01*
X728Y757D02*
X732Y757D01*
X52Y756D02*
X58Y756D01*
X64Y756D02*
X70Y756D01*
X84Y756D02*
X90Y756D01*
X718Y756D02*
X721Y756D01*
X728Y756D02*
X732Y756D01*
X52Y755D02*
X58Y755D01*
X64Y755D02*
X71Y755D01*
X84Y755D02*
X90Y755D01*
X718Y755D02*
X721Y755D01*
X728Y755D02*
X732Y755D01*
X52Y754D02*
X58Y754D01*
X65Y754D02*
X71Y754D01*
X84Y754D02*
X90Y754D01*
X718Y754D02*
X721Y754D01*
X728Y754D02*
X732Y754D01*
X52Y753D02*
X58Y753D01*
X65Y753D02*
X72Y753D01*
X84Y753D02*
X90Y753D01*
X718Y753D02*
X721Y753D01*
X728Y753D02*
X732Y753D01*
X52Y752D02*
X58Y752D01*
X66Y752D02*
X72Y752D01*
X84Y752D02*
X90Y752D01*
X718Y752D02*
X721Y752D01*
X728Y752D02*
X732Y752D01*
X52Y751D02*
X58Y751D01*
X66Y751D02*
X72Y751D01*
X84Y751D02*
X90Y751D01*
X718Y751D02*
X721Y751D01*
X728Y751D02*
X732Y751D01*
X52Y750D02*
X58Y750D01*
X66Y750D02*
X73Y750D01*
X84Y750D02*
X90Y750D01*
X718Y750D02*
X721Y750D01*
X728Y750D02*
X732Y750D01*
X52Y749D02*
X58Y749D01*
X67Y749D02*
X73Y749D01*
X84Y749D02*
X90Y749D01*
X718Y749D02*
X721Y749D01*
X728Y749D02*
X732Y749D01*
X52Y748D02*
X58Y748D01*
X67Y748D02*
X74Y748D01*
X84Y748D02*
X90Y748D01*
X717Y748D02*
X721Y748D01*
X728Y748D02*
X732Y748D01*
X52Y747D02*
X58Y747D01*
X68Y747D02*
X74Y747D01*
X84Y747D02*
X90Y747D01*
X701Y747D02*
X732Y747D01*
X52Y746D02*
X58Y746D01*
X68Y746D02*
X75Y746D01*
X84Y746D02*
X90Y746D01*
X700Y746D02*
X732Y746D01*
X52Y745D02*
X58Y745D01*
X69Y745D02*
X75Y745D01*
X84Y745D02*
X90Y745D01*
X700Y745D02*
X732Y745D01*
X52Y744D02*
X58Y744D01*
X69Y744D02*
X75Y744D01*
X83Y744D02*
X89Y744D01*
X701Y744D02*
X731Y744D01*
X52Y743D02*
X58Y743D01*
X69Y743D02*
X76Y743D01*
X83Y743D02*
X89Y743D01*
X52Y742D02*
X59Y742D01*
X70Y742D02*
X77Y742D01*
X82Y742D02*
X89Y742D01*
X52Y741D02*
X59Y741D01*
X70Y741D02*
X89Y741D01*
X53Y740D02*
X60Y740D01*
X71Y740D02*
X88Y740D01*
X53Y739D02*
X60Y739D01*
X71Y739D02*
X88Y739D01*
X54Y738D02*
X60Y738D01*
X72Y738D02*
X87Y738D01*
X54Y737D02*
X60Y737D01*
X73Y737D02*
X86Y737D01*
X56Y736D02*
X59Y736D01*
X75Y736D02*
X84Y736D01*
X77Y735D02*
X82Y735D01*
X700Y733D02*
X720Y733D01*
X700Y732D02*
X721Y732D01*
X700Y731D02*
X722Y731D01*
X701Y730D02*
X722Y730D01*
X719Y729D02*
X723Y729D01*
X719Y728D02*
X723Y728D01*
X719Y727D02*
X723Y727D01*
X719Y726D02*
X723Y726D01*
X719Y725D02*
X723Y725D01*
X719Y724D02*
X722Y724D01*
X718Y723D02*
X722Y723D01*
X718Y722D02*
X722Y722D01*
X717Y721D02*
X721Y721D01*
X716Y720D02*
X720Y720D01*
X716Y719D02*
X720Y719D01*
X53Y718D02*
X57Y718D01*
X715Y718D02*
X720Y718D01*
X52Y717D02*
X57Y717D01*
X700Y717D02*
X722Y717D01*
X52Y716D02*
X57Y716D01*
X700Y716D02*
X723Y716D01*
X52Y715D02*
X58Y715D01*
X700Y715D02*
X722Y715D01*
X52Y714D02*
X58Y714D01*
X701Y714D02*
X722Y714D01*
X52Y713D02*
X58Y713D01*
X42Y712D02*
X82Y712D01*
X41Y711D02*
X84Y711D01*
X40Y710D02*
X86Y710D01*
X40Y709D02*
X87Y709D01*
X40Y708D02*
X88Y708D01*
X41Y707D02*
X88Y707D01*
X42Y706D02*
X89Y706D01*
X52Y705D02*
X58Y705D01*
X82Y705D02*
X89Y705D01*
X52Y704D02*
X58Y704D01*
X83Y704D02*
X89Y704D01*
X704Y704D02*
X728Y704D01*
X52Y703D02*
X58Y703D01*
X83Y703D02*
X89Y703D01*
X702Y703D02*
X730Y703D01*
X52Y702D02*
X58Y702D01*
X84Y702D02*
X90Y702D01*
X701Y702D02*
X731Y702D01*
X52Y701D02*
X58Y701D01*
X84Y701D02*
X90Y701D01*
X700Y701D02*
X731Y701D01*
X52Y700D02*
X58Y700D01*
X84Y700D02*
X90Y700D01*
X700Y700D02*
X731Y700D01*
X52Y699D02*
X58Y699D01*
X84Y699D02*
X90Y699D01*
X700Y699D02*
X703Y699D01*
X728Y699D02*
X732Y699D01*
X52Y698D02*
X58Y698D01*
X84Y698D02*
X90Y698D01*
X700Y698D02*
X703Y698D01*
X728Y698D02*
X732Y698D01*
X52Y697D02*
X58Y697D01*
X84Y697D02*
X90Y697D01*
X700Y697D02*
X703Y697D01*
X728Y697D02*
X732Y697D01*
X52Y696D02*
X58Y696D01*
X84Y696D02*
X90Y696D01*
X700Y696D02*
X703Y696D01*
X728Y696D02*
X732Y696D01*
X52Y695D02*
X58Y695D01*
X84Y695D02*
X90Y695D01*
X700Y695D02*
X703Y695D01*
X728Y695D02*
X732Y695D01*
X52Y694D02*
X58Y694D01*
X83Y694D02*
X89Y694D01*
X700Y694D02*
X703Y694D01*
X728Y694D02*
X732Y694D01*
X52Y693D02*
X57Y693D01*
X83Y693D02*
X89Y693D01*
X700Y693D02*
X703Y693D01*
X728Y693D02*
X732Y693D01*
X52Y692D02*
X57Y692D01*
X81Y692D02*
X89Y692D01*
X700Y692D02*
X703Y692D01*
X728Y692D02*
X732Y692D01*
X53Y691D02*
X56Y691D01*
X79Y691D02*
X89Y691D01*
X700Y691D02*
X703Y691D01*
X728Y691D02*
X732Y691D01*
X78Y690D02*
X88Y690D01*
X700Y690D02*
X703Y690D01*
X728Y690D02*
X732Y690D01*
X78Y689D02*
X87Y689D01*
X700Y689D02*
X703Y689D01*
X728Y689D02*
X732Y689D01*
X78Y688D02*
X86Y688D01*
X700Y688D02*
X703Y688D01*
X728Y688D02*
X732Y688D01*
X78Y687D02*
X85Y687D01*
X700Y687D02*
X731Y687D01*
X79Y686D02*
X84Y686D01*
X700Y686D02*
X731Y686D01*
X701Y685D02*
X731Y685D01*
X702Y684D02*
X729Y684D01*
X702Y673D02*
X730Y673D01*
X701Y672D02*
X731Y672D01*
X700Y671D02*
X731Y671D01*
X700Y670D02*
X731Y670D01*
X61Y669D02*
X80Y669D01*
X700Y669D02*
X703Y669D01*
X728Y669D02*
X732Y669D01*
X59Y668D02*
X83Y668D01*
X700Y668D02*
X703Y668D01*
X728Y668D02*
X732Y668D01*
X58Y667D02*
X84Y667D01*
X700Y667D02*
X703Y667D01*
X728Y667D02*
X732Y667D01*
X56Y666D02*
X85Y666D01*
X700Y666D02*
X703Y666D01*
X728Y666D02*
X732Y666D01*
X55Y665D02*
X86Y665D01*
X700Y665D02*
X703Y665D01*
X728Y665D02*
X732Y665D01*
X55Y664D02*
X87Y664D01*
X700Y664D02*
X703Y664D01*
X728Y664D02*
X732Y664D01*
X54Y663D02*
X87Y663D01*
X700Y663D02*
X703Y663D01*
X728Y663D02*
X732Y663D01*
X53Y662D02*
X61Y662D01*
X68Y662D02*
X74Y662D01*
X80Y662D02*
X88Y662D01*
X700Y662D02*
X703Y662D01*
X728Y662D02*
X732Y662D01*
X53Y661D02*
X60Y661D01*
X68Y661D02*
X74Y661D01*
X81Y661D02*
X89Y661D01*
X700Y661D02*
X703Y661D01*
X728Y661D02*
X732Y661D01*
X52Y660D02*
X59Y660D01*
X68Y660D02*
X74Y660D01*
X82Y660D02*
X89Y660D01*
X700Y660D02*
X703Y660D01*
X728Y660D02*
X732Y660D01*
X52Y659D02*
X58Y659D01*
X68Y659D02*
X74Y659D01*
X83Y659D02*
X89Y659D01*
X700Y659D02*
X703Y659D01*
X728Y659D02*
X732Y659D01*
X52Y658D02*
X58Y658D01*
X68Y658D02*
X74Y658D01*
X83Y658D02*
X89Y658D01*
X700Y658D02*
X703Y658D01*
X728Y658D02*
X732Y658D01*
X52Y657D02*
X58Y657D01*
X68Y657D02*
X74Y657D01*
X84Y657D02*
X89Y657D01*
X700Y657D02*
X731Y657D01*
X52Y656D02*
X58Y656D01*
X68Y656D02*
X74Y656D01*
X84Y656D02*
X90Y656D01*
X700Y656D02*
X731Y656D01*
X52Y655D02*
X58Y655D01*
X68Y655D02*
X74Y655D01*
X84Y655D02*
X90Y655D01*
X701Y655D02*
X731Y655D01*
X52Y654D02*
X58Y654D01*
X68Y654D02*
X74Y654D01*
X84Y654D02*
X90Y654D01*
X702Y654D02*
X730Y654D01*
X52Y653D02*
X58Y653D01*
X68Y653D02*
X74Y653D01*
X84Y653D02*
X90Y653D01*
X52Y652D02*
X58Y652D01*
X68Y652D02*
X74Y652D01*
X84Y652D02*
X90Y652D01*
X52Y651D02*
X58Y651D01*
X68Y651D02*
X74Y651D01*
X84Y651D02*
X90Y651D01*
X52Y650D02*
X58Y650D01*
X68Y650D02*
X74Y650D01*
X84Y650D02*
X90Y650D01*
X52Y649D02*
X58Y649D01*
X68Y649D02*
X74Y649D01*
X84Y649D02*
X90Y649D01*
X52Y648D02*
X58Y648D01*
X68Y648D02*
X74Y648D01*
X84Y648D02*
X90Y648D01*
X52Y647D02*
X58Y647D01*
X68Y647D02*
X74Y647D01*
X84Y647D02*
X90Y647D01*
X52Y646D02*
X58Y646D01*
X68Y646D02*
X74Y646D01*
X84Y646D02*
X90Y646D01*
X52Y645D02*
X59Y645D01*
X68Y645D02*
X74Y645D01*
X84Y645D02*
X90Y645D01*
X53Y644D02*
X60Y644D01*
X68Y644D02*
X74Y644D01*
X84Y644D02*
X90Y644D01*
X53Y643D02*
X61Y643D01*
X68Y643D02*
X74Y643D01*
X84Y643D02*
X90Y643D01*
X701Y643D02*
X711Y643D01*
X54Y642D02*
X74Y642D01*
X84Y642D02*
X90Y642D01*
X700Y642D02*
X712Y642D01*
X54Y641D02*
X74Y641D01*
X84Y641D02*
X90Y641D01*
X700Y641D02*
X711Y641D01*
X55Y640D02*
X74Y640D01*
X84Y640D02*
X90Y640D01*
X700Y640D02*
X711Y640D01*
X56Y639D02*
X74Y639D01*
X84Y639D02*
X90Y639D01*
X700Y639D02*
X703Y639D01*
X57Y638D02*
X73Y638D01*
X84Y638D02*
X89Y638D01*
X700Y638D02*
X703Y638D01*
X59Y637D02*
X73Y637D01*
X84Y637D02*
X89Y637D01*
X700Y637D02*
X703Y637D01*
X61Y636D02*
X72Y636D01*
X85Y636D02*
X88Y636D01*
X700Y636D02*
X703Y636D01*
X700Y635D02*
X731Y635D01*
X700Y634D02*
X732Y634D01*
X700Y633D02*
X732Y633D01*
X700Y632D02*
X732Y632D01*
X700Y631D02*
X703Y631D01*
X728Y631D02*
X732Y631D01*
X700Y630D02*
X703Y630D01*
X728Y630D02*
X732Y630D01*
X700Y629D02*
X703Y629D01*
X728Y629D02*
X732Y629D01*
X700Y628D02*
X703Y628D01*
X728Y628D02*
X732Y628D01*
X700Y627D02*
X703Y627D01*
X728Y627D02*
X732Y627D01*
X700Y626D02*
X703Y626D01*
X728Y626D02*
X732Y626D01*
X700Y625D02*
X703Y625D01*
X728Y625D02*
X731Y625D01*
X700Y624D02*
X703Y624D01*
X729Y624D02*
X731Y624D01*
X55Y620D02*
X86Y620D01*
X53Y619D02*
X88Y619D01*
X52Y618D02*
X89Y618D01*
X52Y617D02*
X89Y617D01*
X52Y616D02*
X89Y616D01*
X52Y615D02*
X89Y615D01*
X53Y614D02*
X88Y614D01*
X59Y613D02*
X67Y613D01*
X58Y612D02*
X66Y612D01*
X57Y611D02*
X65Y611D01*
X56Y610D02*
X65Y610D01*
X56Y609D02*
X64Y609D01*
X55Y608D02*
X63Y608D01*
X54Y607D02*
X62Y607D01*
X53Y606D02*
X61Y606D01*
X52Y605D02*
X60Y605D01*
X52Y604D02*
X59Y604D01*
X52Y603D02*
X59Y603D01*
X52Y602D02*
X58Y602D01*
X52Y601D02*
X58Y601D01*
X52Y600D02*
X58Y600D01*
X52Y599D02*
X58Y599D01*
X52Y598D02*
X58Y598D01*
X52Y597D02*
X58Y597D01*
X52Y596D02*
X58Y596D01*
X52Y595D02*
X58Y595D01*
X52Y594D02*
X58Y594D01*
X52Y593D02*
X60Y593D01*
X52Y592D02*
X64Y592D01*
X53Y591D02*
X65Y591D01*
X53Y590D02*
X65Y590D01*
X54Y589D02*
X66Y589D01*
X55Y588D02*
X65Y588D01*
X56Y587D02*
X65Y587D01*
X60Y586D02*
X63Y586D01*
X74Y510D02*
X83Y510D01*
X73Y509D02*
X84Y509D01*
X73Y508D02*
X84Y508D01*
X73Y507D02*
X84Y507D01*
X73Y506D02*
X84Y506D01*
X73Y505D02*
X84Y505D01*
X73Y504D02*
X84Y504D01*
X73Y503D02*
X84Y503D01*
X73Y502D02*
X84Y502D01*
X73Y501D02*
X84Y501D01*
X73Y500D02*
X84Y500D01*
X73Y499D02*
X84Y499D01*
X74Y498D02*
X83Y498D01*
X63Y422D02*
X78Y422D01*
X60Y421D02*
X82Y421D01*
X58Y420D02*
X83Y420D01*
X57Y419D02*
X84Y419D01*
X56Y418D02*
X85Y418D01*
X55Y417D02*
X86Y417D01*
X54Y416D02*
X87Y416D01*
X53Y415D02*
X62Y415D01*
X79Y415D02*
X88Y415D01*
X53Y414D02*
X61Y414D01*
X81Y414D02*
X88Y414D01*
X52Y413D02*
X59Y413D01*
X82Y413D02*
X89Y413D01*
X52Y412D02*
X59Y412D01*
X82Y412D02*
X89Y412D01*
X52Y411D02*
X58Y411D01*
X83Y411D02*
X89Y411D01*
X52Y410D02*
X58Y410D01*
X83Y410D02*
X89Y410D01*
X52Y409D02*
X58Y409D01*
X84Y409D02*
X90Y409D01*
X52Y408D02*
X58Y408D01*
X84Y408D02*
X90Y408D01*
X52Y407D02*
X58Y407D01*
X84Y407D02*
X90Y407D01*
X52Y406D02*
X58Y406D01*
X84Y406D02*
X90Y406D01*
X52Y405D02*
X58Y405D01*
X84Y405D02*
X90Y405D01*
X52Y404D02*
X58Y404D01*
X84Y404D02*
X90Y404D01*
X52Y403D02*
X58Y403D01*
X83Y403D02*
X89Y403D01*
X52Y402D02*
X58Y402D01*
X83Y402D02*
X89Y402D01*
X52Y401D02*
X59Y401D01*
X82Y401D02*
X89Y401D01*
X53Y400D02*
X60Y400D01*
X81Y400D02*
X89Y400D01*
X53Y399D02*
X61Y399D01*
X80Y399D02*
X88Y399D01*
X54Y398D02*
X62Y398D01*
X79Y398D02*
X88Y398D01*
X55Y397D02*
X63Y397D01*
X78Y397D02*
X87Y397D01*
X55Y396D02*
X64Y396D01*
X78Y396D02*
X86Y396D01*
X56Y395D02*
X65Y395D01*
X76Y395D02*
X85Y395D01*
X38Y394D02*
X88Y394D01*
X38Y393D02*
X89Y393D01*
X37Y392D02*
X89Y392D01*
X37Y391D02*
X89Y391D01*
X37Y390D02*
X89Y390D01*
X38Y389D02*
X88Y389D01*
X40Y388D02*
X86Y388D01*
X61Y372D02*
X80Y372D01*
X59Y371D02*
X83Y371D01*
X58Y370D02*
X84Y370D01*
X56Y369D02*
X85Y369D01*
X55Y368D02*
X86Y368D01*
X55Y367D02*
X87Y367D01*
X54Y366D02*
X87Y366D01*
X53Y365D02*
X61Y365D01*
X68Y365D02*
X74Y365D01*
X80Y365D02*
X88Y365D01*
X53Y364D02*
X60Y364D01*
X68Y364D02*
X74Y364D01*
X81Y364D02*
X89Y364D01*
X52Y363D02*
X59Y363D01*
X68Y363D02*
X74Y363D01*
X82Y363D02*
X89Y363D01*
X52Y362D02*
X58Y362D01*
X68Y362D02*
X74Y362D01*
X83Y362D02*
X89Y362D01*
X52Y361D02*
X58Y361D01*
X68Y361D02*
X74Y361D01*
X83Y361D02*
X89Y361D01*
X52Y360D02*
X58Y360D01*
X68Y360D02*
X74Y360D01*
X84Y360D02*
X89Y360D01*
X52Y359D02*
X58Y359D01*
X68Y359D02*
X74Y359D01*
X84Y359D02*
X90Y359D01*
X52Y358D02*
X58Y358D01*
X68Y358D02*
X74Y358D01*
X84Y358D02*
X90Y358D01*
X52Y357D02*
X58Y357D01*
X68Y357D02*
X74Y357D01*
X84Y357D02*
X90Y357D01*
X52Y356D02*
X58Y356D01*
X68Y356D02*
X74Y356D01*
X84Y356D02*
X90Y356D01*
X52Y355D02*
X58Y355D01*
X68Y355D02*
X74Y355D01*
X84Y355D02*
X90Y355D01*
X52Y354D02*
X58Y354D01*
X68Y354D02*
X74Y354D01*
X84Y354D02*
X90Y354D01*
X52Y353D02*
X58Y353D01*
X68Y353D02*
X74Y353D01*
X84Y353D02*
X90Y353D01*
X52Y352D02*
X58Y352D01*
X68Y352D02*
X74Y352D01*
X84Y352D02*
X90Y352D01*
X52Y351D02*
X58Y351D01*
X68Y351D02*
X74Y351D01*
X84Y351D02*
X90Y351D01*
X52Y350D02*
X58Y350D01*
X68Y350D02*
X74Y350D01*
X84Y350D02*
X90Y350D01*
X52Y349D02*
X58Y349D01*
X68Y349D02*
X74Y349D01*
X84Y349D02*
X90Y349D01*
X52Y348D02*
X59Y348D01*
X68Y348D02*
X74Y348D01*
X84Y348D02*
X90Y348D01*
X53Y347D02*
X60Y347D01*
X68Y347D02*
X74Y347D01*
X84Y347D02*
X90Y347D01*
X53Y346D02*
X61Y346D01*
X68Y346D02*
X74Y346D01*
X84Y346D02*
X90Y346D01*
X54Y345D02*
X74Y345D01*
X84Y345D02*
X90Y345D01*
X54Y344D02*
X74Y344D01*
X84Y344D02*
X90Y344D01*
X55Y343D02*
X74Y343D01*
X84Y343D02*
X90Y343D01*
X56Y342D02*
X74Y342D01*
X84Y342D02*
X90Y342D01*
X57Y341D02*
X73Y341D01*
X84Y341D02*
X89Y341D01*
X59Y340D02*
X73Y340D01*
X84Y340D02*
X89Y340D01*
X61Y339D02*
X72Y339D01*
X85Y339D02*
X88Y339D01*
X39Y273D02*
X41Y273D01*
X65Y273D02*
X90Y273D01*
X38Y272D02*
X42Y272D01*
X63Y272D02*
X90Y272D01*
X37Y271D02*
X43Y271D01*
X62Y271D02*
X90Y271D01*
X37Y270D02*
X43Y270D01*
X61Y270D02*
X90Y270D01*
X37Y269D02*
X43Y269D01*
X61Y269D02*
X90Y269D01*
X37Y268D02*
X43Y268D01*
X61Y268D02*
X90Y268D01*
X37Y267D02*
X43Y267D01*
X60Y267D02*
X90Y267D01*
X37Y266D02*
X43Y266D01*
X60Y266D02*
X66Y266D01*
X84Y266D02*
X90Y266D01*
X37Y265D02*
X43Y265D01*
X60Y265D02*
X66Y265D01*
X84Y265D02*
X90Y265D01*
X37Y264D02*
X43Y264D01*
X60Y264D02*
X66Y264D01*
X84Y264D02*
X90Y264D01*
X37Y263D02*
X43Y263D01*
X60Y263D02*
X66Y263D01*
X84Y263D02*
X90Y263D01*
X37Y262D02*
X43Y262D01*
X60Y262D02*
X66Y262D01*
X84Y262D02*
X90Y262D01*
X37Y261D02*
X43Y261D01*
X60Y261D02*
X66Y261D01*
X84Y261D02*
X90Y261D01*
X37Y260D02*
X43Y260D01*
X60Y260D02*
X66Y260D01*
X84Y260D02*
X90Y260D01*
X37Y259D02*
X43Y259D01*
X60Y259D02*
X66Y259D01*
X84Y259D02*
X90Y259D01*
X37Y258D02*
X43Y258D01*
X60Y258D02*
X66Y258D01*
X84Y258D02*
X90Y258D01*
X37Y257D02*
X43Y257D01*
X60Y257D02*
X66Y257D01*
X84Y257D02*
X90Y257D01*
X37Y256D02*
X43Y256D01*
X60Y256D02*
X66Y256D01*
X84Y256D02*
X90Y256D01*
X37Y255D02*
X43Y255D01*
X60Y255D02*
X66Y255D01*
X84Y255D02*
X90Y255D01*
X37Y254D02*
X43Y254D01*
X60Y254D02*
X66Y254D01*
X84Y254D02*
X90Y254D01*
X37Y253D02*
X43Y253D01*
X60Y253D02*
X66Y253D01*
X84Y253D02*
X90Y253D01*
X37Y252D02*
X43Y252D01*
X60Y252D02*
X66Y252D01*
X84Y252D02*
X90Y252D01*
X37Y251D02*
X43Y251D01*
X60Y251D02*
X66Y251D01*
X84Y251D02*
X90Y251D01*
X37Y250D02*
X43Y250D01*
X60Y250D02*
X66Y250D01*
X84Y250D02*
X90Y250D01*
X37Y249D02*
X43Y249D01*
X60Y249D02*
X66Y249D01*
X84Y249D02*
X90Y249D01*
X37Y248D02*
X43Y248D01*
X60Y248D02*
X66Y248D01*
X84Y248D02*
X90Y248D01*
X37Y247D02*
X43Y247D01*
X60Y247D02*
X66Y247D01*
X84Y247D02*
X90Y247D01*
X37Y246D02*
X66Y246D01*
X84Y246D02*
X90Y246D01*
X37Y245D02*
X66Y245D01*
X84Y245D02*
X90Y245D01*
X38Y244D02*
X66Y244D01*
X84Y244D02*
X90Y244D01*
X38Y243D02*
X65Y243D01*
X84Y243D02*
X90Y243D01*
X39Y242D02*
X65Y242D01*
X84Y242D02*
X89Y242D01*
X40Y241D02*
X64Y241D01*
X84Y241D02*
X89Y241D01*
X41Y240D02*
X62Y240D01*
X85Y240D02*
X88Y240D01*
X44Y224D02*
X83Y224D01*
X41Y223D02*
X86Y223D01*
X39Y222D02*
X87Y222D01*
X38Y221D02*
X88Y221D01*
X38Y220D02*
X89Y220D01*
X37Y219D02*
X89Y219D01*
X37Y218D02*
X89Y218D01*
X37Y217D02*
X43Y217D01*
X83Y217D02*
X90Y217D01*
X37Y216D02*
X43Y216D01*
X84Y216D02*
X90Y216D01*
X37Y215D02*
X43Y215D01*
X84Y215D02*
X90Y215D01*
X37Y214D02*
X43Y214D01*
X84Y214D02*
X90Y214D01*
X37Y213D02*
X43Y213D01*
X84Y213D02*
X90Y213D01*
X37Y212D02*
X43Y212D01*
X84Y212D02*
X90Y212D01*
X37Y211D02*
X43Y211D01*
X84Y211D02*
X90Y211D01*
X37Y210D02*
X43Y210D01*
X84Y210D02*
X90Y210D01*
X37Y209D02*
X43Y209D01*
X84Y209D02*
X90Y209D01*
X37Y208D02*
X43Y208D01*
X84Y208D02*
X90Y208D01*
X37Y207D02*
X43Y207D01*
X84Y207D02*
X90Y207D01*
X37Y206D02*
X43Y206D01*
X84Y206D02*
X90Y206D01*
X37Y205D02*
X43Y205D01*
X84Y205D02*
X90Y205D01*
X37Y204D02*
X43Y204D01*
X84Y204D02*
X90Y204D01*
X37Y203D02*
X43Y203D01*
X84Y203D02*
X90Y203D01*
X37Y202D02*
X43Y202D01*
X84Y202D02*
X90Y202D01*
X37Y201D02*
X43Y201D01*
X84Y201D02*
X90Y201D01*
X37Y200D02*
X43Y200D01*
X84Y200D02*
X90Y200D01*
X37Y199D02*
X43Y199D01*
X84Y199D02*
X90Y199D01*
X37Y198D02*
X43Y198D01*
X84Y198D02*
X90Y198D01*
X37Y197D02*
X43Y197D01*
X83Y197D02*
X90Y197D01*
X37Y196D02*
X89Y196D01*
X37Y195D02*
X89Y195D01*
X38Y194D02*
X89Y194D01*
X38Y193D02*
X88Y193D01*
X39Y192D02*
X87Y192D01*
X41Y191D02*
X86Y191D01*
X44Y190D02*
X83Y190D01*
X39Y174D02*
X41Y174D01*
X65Y174D02*
X90Y174D01*
X38Y173D02*
X42Y173D01*
X63Y173D02*
X90Y173D01*
X37Y172D02*
X43Y172D01*
X62Y172D02*
X90Y172D01*
X37Y171D02*
X43Y171D01*
X61Y171D02*
X90Y171D01*
X37Y170D02*
X43Y170D01*
X61Y170D02*
X90Y170D01*
X37Y169D02*
X43Y169D01*
X61Y169D02*
X90Y169D01*
X37Y168D02*
X43Y168D01*
X60Y168D02*
X90Y168D01*
X37Y167D02*
X43Y167D01*
X60Y167D02*
X66Y167D01*
X84Y167D02*
X90Y167D01*
X37Y166D02*
X43Y166D01*
X60Y166D02*
X66Y166D01*
X84Y166D02*
X90Y166D01*
X37Y165D02*
X43Y165D01*
X60Y165D02*
X66Y165D01*
X84Y165D02*
X90Y165D01*
X37Y164D02*
X43Y164D01*
X60Y164D02*
X66Y164D01*
X84Y164D02*
X90Y164D01*
X37Y163D02*
X43Y163D01*
X60Y163D02*
X66Y163D01*
X84Y163D02*
X90Y163D01*
X37Y162D02*
X43Y162D01*
X60Y162D02*
X66Y162D01*
X84Y162D02*
X90Y162D01*
X37Y161D02*
X43Y161D01*
X60Y161D02*
X66Y161D01*
X84Y161D02*
X90Y161D01*
X37Y160D02*
X43Y160D01*
X60Y160D02*
X66Y160D01*
X84Y160D02*
X90Y160D01*
X37Y159D02*
X43Y159D01*
X60Y159D02*
X66Y159D01*
X84Y159D02*
X90Y159D01*
X37Y158D02*
X43Y158D01*
X60Y158D02*
X66Y158D01*
X84Y158D02*
X90Y158D01*
X37Y157D02*
X43Y157D01*
X60Y157D02*
X66Y157D01*
X84Y157D02*
X90Y157D01*
X37Y156D02*
X43Y156D01*
X60Y156D02*
X66Y156D01*
X84Y156D02*
X90Y156D01*
X37Y155D02*
X43Y155D01*
X60Y155D02*
X66Y155D01*
X84Y155D02*
X90Y155D01*
X37Y154D02*
X43Y154D01*
X60Y154D02*
X66Y154D01*
X84Y154D02*
X90Y154D01*
X37Y153D02*
X43Y153D01*
X60Y153D02*
X66Y153D01*
X84Y153D02*
X90Y153D01*
X37Y152D02*
X43Y152D01*
X60Y152D02*
X66Y152D01*
X84Y152D02*
X90Y152D01*
X37Y151D02*
X43Y151D01*
X60Y151D02*
X66Y151D01*
X84Y151D02*
X90Y151D01*
X37Y150D02*
X43Y150D01*
X60Y150D02*
X66Y150D01*
X84Y150D02*
X90Y150D01*
X37Y149D02*
X43Y149D01*
X60Y149D02*
X66Y149D01*
X84Y149D02*
X90Y149D01*
X37Y148D02*
X43Y148D01*
X60Y148D02*
X66Y148D01*
X84Y148D02*
X90Y148D01*
X37Y147D02*
X66Y147D01*
X84Y147D02*
X90Y147D01*
X37Y146D02*
X66Y146D01*
X84Y146D02*
X90Y146D01*
X38Y145D02*
X66Y145D01*
X84Y145D02*
X90Y145D01*
X38Y144D02*
X65Y144D01*
X84Y144D02*
X90Y144D01*
X39Y143D02*
X65Y143D01*
X84Y143D02*
X89Y143D01*
X40Y142D02*
X64Y142D01*
X84Y142D02*
X89Y142D01*
X41Y141D02*
X62Y141D01*
X85Y141D02*
X88Y141D01*
X83Y123D02*
X86Y123D01*
X82Y122D02*
X87Y122D01*
X82Y121D02*
X87Y121D01*
X82Y120D02*
X88Y120D01*
X37Y119D02*
X66Y119D01*
X82Y119D02*
X89Y119D01*
X37Y118D02*
X66Y118D01*
X82Y118D02*
X89Y118D01*
X37Y117D02*
X66Y117D01*
X83Y117D02*
X89Y117D01*
X37Y116D02*
X66Y116D01*
X83Y116D02*
X89Y116D01*
X37Y115D02*
X66Y115D01*
X84Y115D02*
X90Y115D01*
X37Y114D02*
X66Y114D01*
X84Y114D02*
X90Y114D01*
X37Y113D02*
X66Y113D01*
X84Y113D02*
X90Y113D01*
X37Y112D02*
X43Y112D01*
X60Y112D02*
X66Y112D01*
X84Y112D02*
X90Y112D01*
X37Y111D02*
X43Y111D01*
X60Y111D02*
X66Y111D01*
X84Y111D02*
X90Y111D01*
X37Y110D02*
X43Y110D01*
X60Y110D02*
X66Y110D01*
X84Y110D02*
X90Y110D01*
X37Y109D02*
X43Y109D01*
X60Y109D02*
X66Y109D01*
X84Y109D02*
X90Y109D01*
X37Y108D02*
X43Y108D01*
X60Y108D02*
X66Y108D01*
X84Y108D02*
X90Y108D01*
X37Y107D02*
X43Y107D01*
X60Y107D02*
X66Y107D01*
X84Y107D02*
X90Y107D01*
X37Y106D02*
X43Y106D01*
X60Y106D02*
X66Y106D01*
X84Y106D02*
X90Y106D01*
X37Y105D02*
X43Y105D01*
X60Y105D02*
X66Y105D01*
X84Y105D02*
X90Y105D01*
X37Y104D02*
X43Y104D01*
X60Y104D02*
X66Y104D01*
X84Y104D02*
X90Y104D01*
X37Y103D02*
X43Y103D01*
X60Y103D02*
X66Y103D01*
X84Y103D02*
X90Y103D01*
X37Y102D02*
X43Y102D01*
X60Y102D02*
X66Y102D01*
X84Y102D02*
X90Y102D01*
X37Y101D02*
X43Y101D01*
X60Y101D02*
X66Y101D01*
X84Y101D02*
X90Y101D01*
X37Y100D02*
X43Y100D01*
X60Y100D02*
X66Y100D01*
X84Y100D02*
X90Y100D01*
X37Y99D02*
X43Y99D01*
X60Y99D02*
X90Y99D01*
X37Y98D02*
X43Y98D01*
X60Y98D02*
X89Y98D01*
X37Y97D02*
X43Y97D01*
X61Y97D02*
X89Y97D01*
X37Y96D02*
X43Y96D01*
X61Y96D02*
X89Y96D01*
X37Y95D02*
X43Y95D01*
X62Y95D02*
X88Y95D01*
X38Y94D02*
X42Y94D01*
X63Y94D02*
X87Y94D01*
X39Y93D02*
X42Y93D01*
X64Y93D02*
X86Y93D01*
D02*
G04 End of Silk0*
M02*