G04 MADE WITH FRITZING*
G04 WWW.FRITZING.ORG*
G04 DOUBLE SIDED*
G04 HOLES PLATED*
G04 CONTOUR ON CENTER OF CONTOUR VECTOR*
%ASAXBY*%
%FSLAX23Y23*%
%MOIN*%
%OFA0B0*%
%SFA1.0B1.0*%
%ADD10C,0.067559*%
%ADD11C,0.085000*%
%ADD12C,0.087500*%
%ADD13C,0.074000*%
%ADD14C,0.090000*%
%ADD15C,0.039370*%
%ADD16C,0.075000*%
%ADD17C,0.074667*%
%ADD18C,0.074695*%
%ADD19C,0.124033*%
%ADD20C,0.070000*%
%ADD21R,0.067559X0.067559*%
%ADD22R,0.074000X0.074000*%
%ADD23R,0.090000X0.090000*%
%ADD24R,0.075000X0.075000*%
%ADD25C,0.016000*%
%ADD26R,0.001000X0.001000*%
%LNCOPPER0*%
G90*
G70*
G54D10*
X78Y2497D03*
X378Y2497D03*
X78Y2597D03*
X378Y2597D03*
X78Y2697D03*
X378Y2697D03*
X78Y2797D03*
X378Y2797D03*
X78Y2897D03*
X378Y2897D03*
X78Y2997D03*
X378Y2997D03*
X78Y3097D03*
X378Y3097D03*
X78Y3197D03*
X378Y3197D03*
X78Y2497D03*
X378Y2497D03*
X78Y2597D03*
X378Y2597D03*
X78Y2697D03*
X378Y2697D03*
X78Y2797D03*
X378Y2797D03*
X78Y2897D03*
X378Y2897D03*
X78Y2997D03*
X378Y2997D03*
X78Y3097D03*
X378Y3097D03*
X78Y3197D03*
X378Y3197D03*
G54D11*
X1123Y177D03*
X999Y177D03*
X674Y177D03*
X1123Y536D03*
X999Y536D03*
X674Y536D03*
X1123Y1270D03*
X999Y1270D03*
X674Y1270D03*
X1123Y902D03*
X999Y902D03*
X674Y902D03*
X1123Y1630D03*
X999Y1630D03*
X674Y1630D03*
X1123Y1988D03*
X999Y1988D03*
X674Y1988D03*
X1123Y2353D03*
X999Y2353D03*
X674Y2353D03*
X189Y3303D03*
X189Y3427D03*
X189Y3752D03*
G54D12*
X812Y693D03*
X620Y693D03*
X812Y693D03*
X620Y693D03*
X812Y1065D03*
X619Y1065D03*
X812Y1065D03*
X619Y1065D03*
X626Y1403D03*
X819Y1403D03*
X626Y1403D03*
X819Y1403D03*
X792Y1817D03*
X600Y1817D03*
X792Y1817D03*
X600Y1817D03*
X887Y2169D03*
X1080Y2169D03*
X887Y2169D03*
X1080Y2169D03*
X626Y2471D03*
X819Y2471D03*
X626Y2471D03*
X819Y2471D03*
X624Y3202D03*
X624Y3010D03*
X214Y3131D03*
X214Y2939D03*
G54D13*
X946Y4203D03*
X846Y4203D03*
X746Y4203D03*
X646Y4203D03*
X546Y4203D03*
X446Y4203D03*
X346Y4203D03*
X246Y4203D03*
X946Y4103D03*
X846Y4103D03*
X746Y4103D03*
X646Y4103D03*
X546Y4103D03*
X446Y4103D03*
X346Y4103D03*
X246Y4103D03*
X946Y4203D03*
X846Y4203D03*
X746Y4203D03*
X646Y4203D03*
X546Y4203D03*
X446Y4203D03*
X346Y4203D03*
X246Y4203D03*
X946Y4103D03*
X846Y4103D03*
X746Y4103D03*
X646Y4103D03*
X546Y4103D03*
X446Y4103D03*
X346Y4103D03*
X246Y4103D03*
X713Y3617D03*
X713Y3317D03*
G54D14*
X956Y2789D03*
X956Y2603D03*
X956Y2974D03*
G54D15*
X471Y1528D03*
X731Y2221D03*
X294Y1058D03*
X199Y1622D03*
X366Y1531D03*
G54D16*
X821Y3614D03*
X1121Y3614D03*
X821Y3514D03*
X1121Y3514D03*
X821Y3414D03*
X1121Y3414D03*
X821Y3314D03*
X1121Y3314D03*
X793Y3153D03*
X893Y3153D03*
X640Y2723D03*
X640Y2623D03*
X778Y3918D03*
X778Y3818D03*
X392Y2329D03*
X92Y2329D03*
X392Y2229D03*
X92Y2229D03*
X392Y2129D03*
X92Y2129D03*
X392Y2029D03*
X92Y2029D03*
X392Y1929D03*
X92Y1929D03*
X392Y1829D03*
X92Y1829D03*
X392Y1729D03*
X92Y1729D03*
X392Y1629D03*
X92Y1629D03*
X392Y2329D03*
X92Y2329D03*
X392Y2229D03*
X92Y2229D03*
X392Y2129D03*
X92Y2129D03*
X392Y2029D03*
X92Y2029D03*
X392Y1929D03*
X92Y1929D03*
X392Y1829D03*
X92Y1829D03*
X392Y1729D03*
X92Y1729D03*
X392Y1629D03*
X92Y1629D03*
G54D17*
X491Y692D03*
X491Y792D03*
G54D18*
X491Y892D03*
G54D19*
X196Y597D03*
X196Y986D03*
G54D17*
X491Y169D03*
X491Y269D03*
G54D18*
X491Y369D03*
G54D19*
X196Y74D03*
X196Y463D03*
G54D17*
X491Y1211D03*
X491Y1311D03*
G54D18*
X491Y1411D03*
G54D19*
X196Y1117D03*
X196Y1505D03*
G54D16*
X217Y2490D03*
X217Y2790D03*
X1057Y3720D03*
X757Y3720D03*
X558Y3794D03*
X558Y3494D03*
X424Y3397D03*
X424Y3697D03*
X472Y3294D03*
X472Y2994D03*
X488Y2860D03*
X488Y2560D03*
G54D20*
X1127Y3914D03*
X927Y3914D03*
X293Y2416D03*
X93Y2416D03*
X501Y2462D03*
X501Y2262D03*
G54D15*
X517Y1623D03*
X773Y2132D03*
G54D21*
X78Y2497D03*
X78Y2497D03*
G54D22*
X946Y4103D03*
X946Y4103D03*
G54D23*
X956Y2974D03*
G54D24*
X821Y3614D03*
X793Y3153D03*
X640Y2723D03*
X778Y3918D03*
X392Y2329D03*
X392Y2329D03*
G54D25*
X241Y4191D02*
X241Y4191D01*
D02*
X245Y4123D02*
X241Y4191D01*
D02*
X349Y4200D02*
X349Y4200D01*
D02*
X346Y4123D02*
X349Y4200D01*
D02*
X452Y4113D02*
X447Y4183D01*
D02*
X452Y4113D02*
X452Y4113D01*
D02*
X544Y4094D02*
X545Y4183D01*
D02*
X544Y4094D02*
X544Y4094D01*
D02*
X738Y4208D02*
X738Y4208D01*
D02*
X666Y4204D02*
X738Y4208D01*
D02*
X741Y4205D02*
X741Y4205D01*
D02*
X826Y4204D02*
X741Y4205D01*
D02*
X741Y4100D02*
X741Y4100D01*
D02*
X826Y4103D02*
X741Y4100D01*
D02*
X752Y4111D02*
X752Y4111D01*
D02*
X666Y4105D02*
X752Y4111D01*
D02*
X749Y4205D02*
X746Y4123D01*
D02*
X749Y4205D02*
X749Y4205D01*
D02*
X946Y4219D02*
X946Y4219D01*
D02*
X946Y4123D02*
X946Y4219D01*
D02*
X1047Y3734D02*
X936Y3902D01*
D02*
X88Y3207D02*
X173Y3287D01*
D02*
X228Y2804D02*
X370Y2986D01*
D02*
X474Y2976D02*
X486Y2878D01*
D02*
X93Y1930D02*
X92Y1847D01*
D02*
X93Y1930D02*
X93Y1930D01*
D02*
X662Y1730D02*
X410Y1729D01*
D02*
X782Y1932D02*
X662Y1730D01*
D02*
X1065Y2158D02*
X782Y1932D01*
D02*
X251Y2124D02*
X378Y2219D01*
D02*
X294Y1066D02*
X251Y2124D01*
D02*
X295Y1968D02*
X377Y2020D01*
D02*
X304Y1628D02*
X295Y1968D01*
D02*
X336Y1319D02*
X304Y1628D01*
D02*
X376Y597D02*
X336Y1319D01*
D02*
X463Y1528D02*
X373Y1530D01*
D02*
X764Y2648D02*
X655Y2714D01*
D02*
X731Y2229D02*
X764Y2648D01*
D02*
X410Y1629D02*
X510Y1624D01*
D02*
X612Y676D02*
X572Y594D01*
D02*
X572Y594D02*
X376Y597D01*
D02*
X192Y1623D02*
X109Y1628D01*
D02*
X615Y3016D02*
X615Y3016D01*
D02*
X789Y3148D02*
X789Y3148D01*
D02*
X1128Y3619D02*
X1128Y3619D01*
D02*
X1127Y3899D02*
X1128Y3619D01*
D02*
X209Y2328D02*
X283Y2406D01*
D02*
X110Y2329D02*
X209Y2328D01*
D02*
X175Y2419D02*
X208Y2475D01*
D02*
X108Y2417D02*
X175Y2419D01*
D02*
X713Y2219D02*
X723Y2220D01*
D02*
X516Y2259D02*
X713Y2219D01*
D02*
X501Y2462D02*
X392Y2493D01*
D02*
X362Y2497D02*
X365Y2497D01*
D02*
X303Y2428D02*
X362Y2497D01*
D02*
X511Y1211D02*
X740Y1208D01*
D02*
X740Y1208D02*
X753Y1475D01*
D02*
X753Y1475D02*
X933Y1515D01*
D02*
X933Y1515D02*
X988Y1611D01*
D02*
X733Y1146D02*
X979Y1260D01*
D02*
X509Y902D02*
X722Y1030D01*
D02*
X722Y1030D02*
X733Y1146D01*
D02*
X922Y821D02*
X984Y885D01*
D02*
X506Y706D02*
X632Y821D01*
D02*
X632Y821D02*
X922Y821D01*
D02*
X782Y1801D02*
X686Y1649D01*
D02*
X994Y1966D02*
X935Y1691D01*
D02*
X935Y1691D02*
X508Y1422D01*
D02*
X765Y2132D02*
X410Y2130D01*
D02*
X582Y1818D02*
X409Y1828D01*
G54D26*
X545Y4111D02*
X548Y4111D01*
X542Y4110D02*
X550Y4110D01*
X541Y4109D02*
X551Y4109D01*
X540Y4108D02*
X552Y4108D01*
X540Y4107D02*
X553Y4107D01*
X539Y4106D02*
X553Y4106D01*
X539Y4105D02*
X553Y4105D01*
X539Y4104D02*
X554Y4104D01*
X539Y4103D02*
X554Y4103D01*
X539Y4102D02*
X554Y4102D01*
X539Y4101D02*
X554Y4101D01*
X539Y4100D02*
X554Y4100D01*
X539Y4099D02*
X554Y4099D01*
X539Y4098D02*
X554Y4098D01*
X539Y4097D02*
X554Y4097D01*
X539Y4096D02*
X554Y4096D01*
X539Y4095D02*
X554Y4095D01*
X539Y4094D02*
X554Y4094D01*
X539Y4093D02*
X555Y4093D01*
X540Y4092D02*
X555Y4092D01*
X540Y4091D02*
X555Y4091D01*
X540Y4090D02*
X555Y4090D01*
X540Y4089D02*
X555Y4089D01*
X540Y4088D02*
X555Y4088D01*
X540Y4087D02*
X555Y4087D01*
X540Y4086D02*
X555Y4086D01*
X540Y4085D02*
X555Y4085D01*
X540Y4084D02*
X556Y4084D01*
X541Y4083D02*
X556Y4083D01*
X541Y4082D02*
X556Y4082D01*
X541Y4081D02*
X556Y4081D01*
X541Y4080D02*
X556Y4080D01*
X541Y4079D02*
X556Y4079D01*
X541Y4078D02*
X556Y4078D01*
X541Y4077D02*
X557Y4077D01*
X541Y4076D02*
X557Y4076D01*
X542Y4075D02*
X557Y4075D01*
X542Y4074D02*
X557Y4074D01*
X542Y4073D02*
X557Y4073D01*
X542Y4072D02*
X557Y4072D01*
X542Y4071D02*
X557Y4071D01*
X542Y4070D02*
X558Y4070D01*
X543Y4069D02*
X558Y4069D01*
X543Y4068D02*
X558Y4068D01*
X543Y4067D02*
X558Y4067D01*
X543Y4066D02*
X558Y4066D01*
X543Y4065D02*
X558Y4065D01*
X543Y4064D02*
X559Y4064D01*
X544Y4063D02*
X559Y4063D01*
X544Y4062D02*
X559Y4062D01*
X544Y4061D02*
X559Y4061D01*
X544Y4060D02*
X559Y4060D01*
X544Y4059D02*
X559Y4059D01*
X544Y4058D02*
X560Y4058D01*
X545Y4057D02*
X560Y4057D01*
X545Y4056D02*
X560Y4056D01*
X545Y4055D02*
X560Y4055D01*
X545Y4054D02*
X560Y4054D01*
X545Y4053D02*
X561Y4053D01*
X546Y4052D02*
X561Y4052D01*
X546Y4051D02*
X561Y4051D01*
X546Y4050D02*
X561Y4050D01*
X546Y4049D02*
X561Y4049D01*
X546Y4048D02*
X562Y4048D01*
X547Y4047D02*
X562Y4047D01*
X547Y4046D02*
X562Y4046D01*
X547Y4045D02*
X562Y4045D01*
X547Y4044D02*
X563Y4044D01*
X547Y4043D02*
X563Y4043D01*
X548Y4042D02*
X563Y4042D01*
X548Y4041D02*
X563Y4041D01*
X548Y4040D02*
X563Y4040D01*
X548Y4039D02*
X564Y4039D01*
X548Y4038D02*
X564Y4038D01*
X549Y4037D02*
X564Y4037D01*
X549Y4036D02*
X564Y4036D01*
X549Y4035D02*
X565Y4035D01*
X549Y4034D02*
X565Y4034D01*
X550Y4033D02*
X565Y4033D01*
X550Y4032D02*
X565Y4032D01*
X550Y4031D02*
X566Y4031D01*
X550Y4030D02*
X566Y4030D01*
X551Y4029D02*
X566Y4029D01*
X551Y4028D02*
X566Y4028D01*
X551Y4027D02*
X567Y4027D01*
X551Y4026D02*
X567Y4026D01*
X552Y4025D02*
X567Y4025D01*
X552Y4024D02*
X568Y4024D01*
X552Y4023D02*
X568Y4023D01*
X553Y4022D02*
X568Y4022D01*
X553Y4021D02*
X568Y4021D01*
X553Y4020D02*
X569Y4020D01*
X553Y4019D02*
X569Y4019D01*
X554Y4018D02*
X569Y4018D01*
X554Y4017D02*
X570Y4017D01*
X554Y4016D02*
X570Y4016D01*
X554Y4015D02*
X570Y4015D01*
X555Y4014D02*
X570Y4014D01*
X555Y4013D02*
X571Y4013D01*
X555Y4012D02*
X571Y4012D01*
X556Y4011D02*
X571Y4011D01*
X556Y4010D02*
X572Y4010D01*
X556Y4009D02*
X572Y4009D01*
X557Y4008D02*
X572Y4008D01*
X557Y4007D02*
X573Y4007D01*
X557Y4006D02*
X573Y4006D01*
X557Y4005D02*
X573Y4005D01*
X558Y4004D02*
X574Y4004D01*
X558Y4003D02*
X574Y4003D01*
X558Y4002D02*
X574Y4002D01*
X559Y4001D02*
X575Y4001D01*
X559Y4000D02*
X575Y4000D01*
X559Y3999D02*
X575Y3999D01*
X560Y3998D02*
X576Y3998D01*
X560Y3997D02*
X576Y3997D01*
X560Y3996D02*
X576Y3996D01*
X561Y3995D02*
X577Y3995D01*
X561Y3994D02*
X577Y3994D01*
X561Y3993D02*
X577Y3993D01*
X562Y3992D02*
X578Y3992D01*
X562Y3991D02*
X578Y3991D01*
X562Y3990D02*
X579Y3990D01*
X563Y3989D02*
X579Y3989D01*
X563Y3988D02*
X579Y3988D01*
X564Y3987D02*
X580Y3987D01*
X564Y3986D02*
X580Y3986D01*
X564Y3985D02*
X580Y3985D01*
X565Y3984D02*
X581Y3984D01*
X565Y3983D02*
X581Y3983D01*
X565Y3982D02*
X582Y3982D01*
X566Y3981D02*
X582Y3981D01*
X566Y3980D02*
X582Y3980D01*
X567Y3979D02*
X583Y3979D01*
X567Y3978D02*
X583Y3978D01*
X567Y3977D02*
X584Y3977D01*
X568Y3976D02*
X584Y3976D01*
X568Y3975D02*
X585Y3975D01*
X569Y3974D02*
X585Y3974D01*
X569Y3973D02*
X585Y3973D01*
X569Y3972D02*
X586Y3972D01*
X570Y3971D02*
X586Y3971D01*
X570Y3970D02*
X587Y3970D01*
X571Y3969D02*
X587Y3969D01*
X571Y3968D02*
X588Y3968D01*
X572Y3967D02*
X588Y3967D01*
X572Y3966D02*
X589Y3966D01*
X572Y3965D02*
X589Y3965D01*
X573Y3964D02*
X589Y3964D01*
X573Y3963D02*
X590Y3963D01*
X574Y3962D02*
X590Y3962D01*
X574Y3961D02*
X591Y3961D01*
X575Y3960D02*
X591Y3960D01*
X575Y3959D02*
X592Y3959D01*
X576Y3958D02*
X592Y3958D01*
X576Y3957D02*
X593Y3957D01*
X577Y3956D02*
X593Y3956D01*
X577Y3955D02*
X594Y3955D01*
X577Y3954D02*
X594Y3954D01*
X578Y3953D02*
X595Y3953D01*
X578Y3952D02*
X595Y3952D01*
X579Y3951D02*
X596Y3951D01*
X579Y3950D02*
X596Y3950D01*
X580Y3949D02*
X597Y3949D01*
X580Y3948D02*
X597Y3948D01*
X581Y3947D02*
X598Y3947D01*
X581Y3946D02*
X598Y3946D01*
X582Y3945D02*
X599Y3945D01*
X583Y3944D02*
X600Y3944D01*
X583Y3943D02*
X600Y3943D01*
X584Y3942D02*
X601Y3942D01*
X584Y3941D02*
X601Y3941D01*
X585Y3940D02*
X602Y3940D01*
X585Y3939D02*
X603Y3939D01*
X586Y3938D02*
X603Y3938D01*
X586Y3937D02*
X604Y3937D01*
X587Y3936D02*
X604Y3936D01*
X587Y3935D02*
X605Y3935D01*
X588Y3934D02*
X605Y3934D01*
X589Y3933D02*
X606Y3933D01*
X589Y3932D02*
X607Y3932D01*
X590Y3931D02*
X607Y3931D01*
X590Y3930D02*
X608Y3930D01*
X591Y3929D02*
X609Y3929D01*
X592Y3928D02*
X609Y3928D01*
X592Y3927D02*
X610Y3927D01*
X593Y3926D02*
X611Y3926D01*
X593Y3925D02*
X611Y3925D01*
X594Y3924D02*
X612Y3924D01*
X595Y3923D02*
X613Y3923D01*
X595Y3922D02*
X613Y3922D01*
X596Y3921D02*
X614Y3921D01*
X597Y3920D02*
X615Y3920D01*
X597Y3919D02*
X615Y3919D01*
X598Y3918D02*
X616Y3918D01*
X598Y3917D02*
X617Y3917D01*
X599Y3916D02*
X618Y3916D01*
X600Y3915D02*
X618Y3915D01*
X600Y3914D02*
X619Y3914D01*
X601Y3913D02*
X620Y3913D01*
X602Y3912D02*
X620Y3912D01*
X602Y3911D02*
X621Y3911D01*
X603Y3910D02*
X622Y3910D01*
X604Y3909D02*
X623Y3909D01*
X605Y3908D02*
X624Y3908D01*
X605Y3907D02*
X624Y3907D01*
X606Y3906D02*
X625Y3906D01*
X607Y3905D02*
X626Y3905D01*
X608Y3904D02*
X627Y3904D01*
X608Y3903D02*
X628Y3903D01*
X609Y3902D02*
X629Y3902D01*
X610Y3901D02*
X629Y3901D01*
X611Y3900D02*
X630Y3900D01*
X611Y3899D02*
X631Y3899D01*
X612Y3898D02*
X632Y3898D01*
X613Y3897D02*
X633Y3897D01*
X614Y3896D02*
X634Y3896D01*
X615Y3895D02*
X635Y3895D01*
X615Y3894D02*
X636Y3894D01*
X616Y3893D02*
X637Y3893D01*
X617Y3892D02*
X638Y3892D01*
X618Y3891D02*
X638Y3891D01*
X619Y3890D02*
X639Y3890D01*
X620Y3889D02*
X640Y3889D01*
X620Y3888D02*
X641Y3888D01*
X621Y3887D02*
X642Y3887D01*
X622Y3886D02*
X643Y3886D01*
X623Y3885D02*
X644Y3885D01*
X624Y3884D02*
X645Y3884D01*
X625Y3883D02*
X646Y3883D01*
X626Y3882D02*
X648Y3882D01*
X627Y3881D02*
X649Y3881D01*
X628Y3880D02*
X650Y3880D01*
X629Y3879D02*
X651Y3879D01*
X630Y3878D02*
X652Y3878D01*
X631Y3877D02*
X653Y3877D01*
X632Y3876D02*
X654Y3876D01*
X633Y3875D02*
X655Y3875D01*
X634Y3874D02*
X657Y3874D01*
X635Y3873D02*
X658Y3873D01*
X636Y3872D02*
X659Y3872D01*
X637Y3871D02*
X660Y3871D01*
X638Y3870D02*
X662Y3870D01*
X639Y3869D02*
X663Y3869D01*
X640Y3868D02*
X664Y3868D01*
X641Y3867D02*
X666Y3867D01*
X642Y3866D02*
X667Y3866D01*
X644Y3865D02*
X668Y3865D01*
X645Y3864D02*
X670Y3864D01*
X646Y3863D02*
X671Y3863D01*
X647Y3862D02*
X673Y3862D01*
X648Y3861D02*
X674Y3861D01*
X649Y3860D02*
X676Y3860D01*
X651Y3859D02*
X677Y3859D01*
X652Y3858D02*
X679Y3858D01*
X653Y3857D02*
X680Y3857D01*
X655Y3856D02*
X682Y3856D01*
X656Y3855D02*
X684Y3855D01*
X657Y3854D02*
X685Y3854D01*
X659Y3853D02*
X687Y3853D01*
X660Y3852D02*
X689Y3852D01*
X661Y3851D02*
X691Y3851D01*
X663Y3850D02*
X693Y3850D01*
X664Y3849D02*
X695Y3849D01*
X666Y3848D02*
X697Y3848D01*
X667Y3847D02*
X699Y3847D01*
X669Y3846D02*
X701Y3846D01*
X670Y3845D02*
X703Y3845D01*
X672Y3844D02*
X705Y3844D01*
X674Y3843D02*
X707Y3843D01*
X675Y3842D02*
X710Y3842D01*
X677Y3841D02*
X712Y3841D01*
X679Y3840D02*
X715Y3840D01*
X681Y3839D02*
X717Y3839D01*
X682Y3838D02*
X720Y3838D01*
X684Y3837D02*
X723Y3837D01*
X686Y3836D02*
X726Y3836D01*
X688Y3835D02*
X730Y3835D01*
X690Y3834D02*
X733Y3834D01*
X692Y3833D02*
X737Y3833D01*
X694Y3832D02*
X741Y3832D01*
X696Y3831D02*
X745Y3831D01*
X699Y3830D02*
X750Y3830D01*
X701Y3829D02*
X755Y3829D01*
X703Y3828D02*
X761Y3828D01*
X706Y3827D02*
X768Y3827D01*
X708Y3826D02*
X777Y3826D01*
X711Y3825D02*
X782Y3825D01*
X713Y3824D02*
X783Y3824D01*
X716Y3823D02*
X784Y3823D01*
X719Y3822D02*
X785Y3822D01*
X722Y3821D02*
X786Y3821D01*
X725Y3820D02*
X786Y3820D01*
X729Y3819D02*
X786Y3819D01*
X732Y3818D02*
X786Y3818D01*
X736Y3817D02*
X786Y3817D01*
X740Y3816D02*
X786Y3816D01*
X745Y3815D02*
X786Y3815D01*
X749Y3814D02*
X785Y3814D01*
X755Y3813D02*
X786Y3813D01*
X761Y3812D02*
X787Y3812D01*
X768Y3811D02*
X788Y3811D01*
X769Y3810D02*
X789Y3810D01*
X770Y3809D02*
X790Y3809D01*
X771Y3808D02*
X791Y3808D01*
X771Y3807D02*
X792Y3807D01*
X772Y3806D02*
X793Y3806D01*
X773Y3805D02*
X794Y3805D01*
X773Y3804D02*
X795Y3804D01*
X774Y3803D02*
X796Y3803D01*
X775Y3802D02*
X797Y3802D01*
X556Y3801D02*
X562Y3801D01*
X776Y3801D02*
X798Y3801D01*
X554Y3800D02*
X563Y3800D01*
X777Y3800D02*
X799Y3800D01*
X553Y3799D02*
X564Y3799D01*
X778Y3799D02*
X801Y3799D01*
X552Y3798D02*
X565Y3798D01*
X779Y3798D02*
X802Y3798D01*
X552Y3797D02*
X566Y3797D01*
X780Y3797D02*
X803Y3797D01*
X552Y3796D02*
X566Y3796D01*
X781Y3796D02*
X804Y3796D01*
X551Y3795D02*
X566Y3795D01*
X782Y3795D02*
X805Y3795D01*
X551Y3794D02*
X566Y3794D01*
X783Y3794D02*
X807Y3794D01*
X551Y3793D02*
X566Y3793D01*
X784Y3793D02*
X808Y3793D01*
X551Y3792D02*
X566Y3792D01*
X785Y3792D02*
X809Y3792D01*
X551Y3791D02*
X566Y3791D01*
X787Y3791D02*
X810Y3791D01*
X551Y3790D02*
X566Y3790D01*
X788Y3790D02*
X812Y3790D01*
X551Y3789D02*
X566Y3789D01*
X789Y3789D02*
X813Y3789D01*
X551Y3788D02*
X566Y3788D01*
X790Y3788D02*
X814Y3788D01*
X551Y3787D02*
X566Y3787D01*
X791Y3787D02*
X815Y3787D01*
X551Y3786D02*
X566Y3786D01*
X792Y3786D02*
X817Y3786D01*
X551Y3785D02*
X566Y3785D01*
X793Y3785D02*
X818Y3785D01*
X551Y3784D02*
X566Y3784D01*
X795Y3784D02*
X819Y3784D01*
X551Y3783D02*
X566Y3783D01*
X796Y3783D02*
X820Y3783D01*
X551Y3782D02*
X566Y3782D01*
X797Y3782D02*
X822Y3782D01*
X551Y3781D02*
X566Y3781D01*
X798Y3781D02*
X823Y3781D01*
X551Y3780D02*
X566Y3780D01*
X799Y3780D02*
X824Y3780D01*
X551Y3779D02*
X566Y3779D01*
X801Y3779D02*
X826Y3779D01*
X551Y3778D02*
X566Y3778D01*
X802Y3778D02*
X827Y3778D01*
X551Y3777D02*
X566Y3777D01*
X803Y3777D02*
X829Y3777D01*
X551Y3776D02*
X566Y3776D01*
X805Y3776D02*
X830Y3776D01*
X551Y3775D02*
X566Y3775D01*
X806Y3775D02*
X831Y3775D01*
X551Y3774D02*
X566Y3774D01*
X807Y3774D02*
X833Y3774D01*
X551Y3773D02*
X566Y3773D01*
X808Y3773D02*
X834Y3773D01*
X551Y3772D02*
X566Y3772D01*
X810Y3772D02*
X835Y3772D01*
X551Y3771D02*
X566Y3771D01*
X811Y3771D02*
X837Y3771D01*
X552Y3770D02*
X567Y3770D01*
X812Y3770D02*
X838Y3770D01*
X552Y3769D02*
X567Y3769D01*
X813Y3769D02*
X839Y3769D01*
X552Y3768D02*
X567Y3768D01*
X815Y3768D02*
X841Y3768D01*
X552Y3767D02*
X567Y3767D01*
X816Y3767D02*
X842Y3767D01*
X552Y3766D02*
X567Y3766D01*
X817Y3766D02*
X843Y3766D01*
X552Y3765D02*
X567Y3765D01*
X819Y3765D02*
X845Y3765D01*
X552Y3764D02*
X567Y3764D01*
X820Y3764D02*
X846Y3764D01*
X552Y3763D02*
X567Y3763D01*
X822Y3763D02*
X847Y3763D01*
X552Y3762D02*
X567Y3762D01*
X823Y3762D02*
X849Y3762D01*
X552Y3761D02*
X567Y3761D01*
X824Y3761D02*
X850Y3761D01*
X552Y3760D02*
X567Y3760D01*
X826Y3760D02*
X852Y3760D01*
X552Y3759D02*
X567Y3759D01*
X827Y3759D02*
X853Y3759D01*
X553Y3758D02*
X568Y3758D01*
X828Y3758D02*
X854Y3758D01*
X553Y3757D02*
X568Y3757D01*
X830Y3757D02*
X856Y3757D01*
X553Y3756D02*
X568Y3756D01*
X831Y3756D02*
X857Y3756D01*
X553Y3755D02*
X568Y3755D01*
X832Y3755D02*
X859Y3755D01*
X553Y3754D02*
X568Y3754D01*
X834Y3754D02*
X860Y3754D01*
X553Y3753D02*
X568Y3753D01*
X835Y3753D02*
X861Y3753D01*
X553Y3752D02*
X568Y3752D01*
X836Y3752D02*
X863Y3752D01*
X553Y3751D02*
X568Y3751D01*
X838Y3751D02*
X864Y3751D01*
X553Y3750D02*
X569Y3750D01*
X839Y3750D02*
X866Y3750D01*
X554Y3749D02*
X569Y3749D01*
X840Y3749D02*
X867Y3749D01*
X554Y3748D02*
X569Y3748D01*
X842Y3748D02*
X869Y3748D01*
X554Y3747D02*
X569Y3747D01*
X843Y3747D02*
X870Y3747D01*
X554Y3746D02*
X569Y3746D01*
X845Y3746D02*
X871Y3746D01*
X554Y3745D02*
X569Y3745D01*
X846Y3745D02*
X873Y3745D01*
X554Y3744D02*
X569Y3744D01*
X848Y3744D02*
X874Y3744D01*
X554Y3743D02*
X570Y3743D01*
X849Y3743D02*
X876Y3743D01*
X555Y3742D02*
X570Y3742D01*
X850Y3742D02*
X877Y3742D01*
X555Y3741D02*
X570Y3741D01*
X852Y3741D02*
X879Y3741D01*
X555Y3740D02*
X570Y3740D01*
X853Y3740D02*
X880Y3740D01*
X555Y3739D02*
X570Y3739D01*
X855Y3739D02*
X882Y3739D01*
X555Y3738D02*
X570Y3738D01*
X856Y3738D02*
X883Y3738D01*
X555Y3737D02*
X571Y3737D01*
X857Y3737D02*
X884Y3737D01*
X556Y3736D02*
X571Y3736D01*
X859Y3736D02*
X886Y3736D01*
X556Y3735D02*
X571Y3735D01*
X860Y3735D02*
X887Y3735D01*
X556Y3734D02*
X571Y3734D01*
X862Y3734D02*
X889Y3734D01*
X556Y3733D02*
X571Y3733D01*
X863Y3733D02*
X890Y3733D01*
X556Y3732D02*
X572Y3732D01*
X864Y3732D02*
X892Y3732D01*
X556Y3731D02*
X572Y3731D01*
X866Y3731D02*
X893Y3731D01*
X557Y3730D02*
X572Y3730D01*
X867Y3730D02*
X895Y3730D01*
X557Y3729D02*
X572Y3729D01*
X869Y3729D02*
X896Y3729D01*
X557Y3728D02*
X572Y3728D01*
X870Y3728D02*
X898Y3728D01*
X557Y3727D02*
X573Y3727D01*
X754Y3727D02*
X761Y3727D01*
X872Y3727D02*
X899Y3727D01*
X557Y3726D02*
X573Y3726D01*
X753Y3726D02*
X766Y3726D01*
X873Y3726D02*
X901Y3726D01*
X558Y3725D02*
X573Y3725D01*
X752Y3725D02*
X771Y3725D01*
X875Y3725D02*
X902Y3725D01*
X558Y3724D02*
X573Y3724D01*
X751Y3724D02*
X776Y3724D01*
X876Y3724D02*
X904Y3724D01*
X558Y3723D02*
X573Y3723D01*
X750Y3723D02*
X780Y3723D01*
X878Y3723D02*
X905Y3723D01*
X558Y3722D02*
X574Y3722D01*
X750Y3722D02*
X785Y3722D01*
X879Y3722D02*
X907Y3722D01*
X559Y3721D02*
X574Y3721D01*
X750Y3721D02*
X789Y3721D01*
X881Y3721D02*
X908Y3721D01*
X559Y3720D02*
X574Y3720D01*
X750Y3720D02*
X794Y3720D01*
X882Y3720D02*
X910Y3720D01*
X559Y3719D02*
X574Y3719D01*
X750Y3719D02*
X798Y3719D01*
X884Y3719D02*
X911Y3719D01*
X559Y3718D02*
X575Y3718D01*
X750Y3718D02*
X802Y3718D01*
X885Y3718D02*
X913Y3718D01*
X559Y3717D02*
X575Y3717D01*
X750Y3717D02*
X806Y3717D01*
X887Y3717D02*
X914Y3717D01*
X560Y3716D02*
X575Y3716D01*
X751Y3716D02*
X810Y3716D01*
X888Y3716D02*
X916Y3716D01*
X560Y3715D02*
X575Y3715D01*
X751Y3715D02*
X813Y3715D01*
X889Y3715D02*
X917Y3715D01*
X560Y3714D02*
X576Y3714D01*
X752Y3714D02*
X817Y3714D01*
X891Y3714D02*
X919Y3714D01*
X560Y3713D02*
X576Y3713D01*
X753Y3713D02*
X821Y3713D01*
X892Y3713D02*
X920Y3713D01*
X561Y3712D02*
X576Y3712D01*
X756Y3712D02*
X824Y3712D01*
X894Y3712D02*
X922Y3712D01*
X561Y3711D02*
X577Y3711D01*
X760Y3711D02*
X828Y3711D01*
X895Y3711D02*
X924Y3711D01*
X561Y3710D02*
X577Y3710D01*
X765Y3710D02*
X831Y3710D01*
X897Y3710D02*
X925Y3710D01*
X562Y3709D02*
X577Y3709D01*
X770Y3709D02*
X834Y3709D01*
X898Y3709D02*
X927Y3709D01*
X562Y3708D02*
X577Y3708D01*
X775Y3708D02*
X837Y3708D01*
X900Y3708D02*
X928Y3708D01*
X562Y3707D02*
X578Y3707D01*
X780Y3707D02*
X841Y3707D01*
X901Y3707D02*
X930Y3707D01*
X562Y3706D02*
X578Y3706D01*
X784Y3706D02*
X844Y3706D01*
X903Y3706D02*
X931Y3706D01*
X423Y3705D02*
X425Y3705D01*
X563Y3705D02*
X578Y3705D01*
X789Y3705D02*
X847Y3705D01*
X904Y3705D02*
X933Y3705D01*
X421Y3704D02*
X428Y3704D01*
X563Y3704D02*
X578Y3704D01*
X793Y3704D02*
X849Y3704D01*
X906Y3704D02*
X934Y3704D01*
X419Y3703D02*
X430Y3703D01*
X563Y3703D02*
X579Y3703D01*
X797Y3703D02*
X852Y3703D01*
X907Y3703D02*
X936Y3703D01*
X418Y3702D02*
X432Y3702D01*
X563Y3702D02*
X579Y3702D01*
X801Y3702D02*
X855Y3702D01*
X909Y3702D02*
X937Y3702D01*
X418Y3701D02*
X433Y3701D01*
X564Y3701D02*
X579Y3701D01*
X805Y3701D02*
X858Y3701D01*
X911Y3701D02*
X939Y3701D01*
X417Y3700D02*
X434Y3700D01*
X564Y3700D02*
X580Y3700D01*
X809Y3700D02*
X861Y3700D01*
X912Y3700D02*
X941Y3700D01*
X417Y3699D02*
X435Y3699D01*
X564Y3699D02*
X580Y3699D01*
X812Y3699D02*
X863Y3699D01*
X914Y3699D02*
X942Y3699D01*
X417Y3698D02*
X436Y3698D01*
X565Y3698D02*
X580Y3698D01*
X816Y3698D02*
X866Y3698D01*
X915Y3698D02*
X944Y3698D01*
X417Y3697D02*
X437Y3697D01*
X565Y3697D02*
X581Y3697D01*
X819Y3697D02*
X868Y3697D01*
X917Y3697D02*
X945Y3697D01*
X417Y3696D02*
X437Y3696D01*
X565Y3696D02*
X581Y3696D01*
X823Y3696D02*
X871Y3696D01*
X918Y3696D02*
X947Y3696D01*
X417Y3695D02*
X438Y3695D01*
X566Y3695D02*
X581Y3695D01*
X826Y3695D02*
X873Y3695D01*
X920Y3695D02*
X948Y3695D01*
X417Y3694D02*
X439Y3694D01*
X566Y3694D02*
X582Y3694D01*
X830Y3694D02*
X876Y3694D01*
X921Y3694D02*
X950Y3694D01*
X418Y3693D02*
X439Y3693D01*
X566Y3693D02*
X582Y3693D01*
X833Y3693D02*
X878Y3693D01*
X923Y3693D02*
X952Y3693D01*
X419Y3692D02*
X440Y3692D01*
X567Y3692D02*
X582Y3692D01*
X836Y3692D02*
X880Y3692D01*
X924Y3692D02*
X953Y3692D01*
X420Y3691D02*
X440Y3691D01*
X567Y3691D02*
X583Y3691D01*
X839Y3691D02*
X883Y3691D01*
X926Y3691D02*
X955Y3691D01*
X421Y3690D02*
X441Y3690D01*
X567Y3690D02*
X583Y3690D01*
X842Y3690D02*
X885Y3690D01*
X928Y3690D02*
X957Y3690D01*
X424Y3689D02*
X441Y3689D01*
X568Y3689D02*
X584Y3689D01*
X845Y3689D02*
X887Y3689D01*
X929Y3689D02*
X958Y3689D01*
X425Y3688D02*
X442Y3688D01*
X568Y3688D02*
X584Y3688D01*
X848Y3688D02*
X889Y3688D01*
X931Y3688D02*
X960Y3688D01*
X426Y3687D02*
X442Y3687D01*
X568Y3687D02*
X584Y3687D01*
X851Y3687D02*
X891Y3687D01*
X932Y3687D02*
X961Y3687D01*
X426Y3686D02*
X443Y3686D01*
X569Y3686D02*
X585Y3686D01*
X853Y3686D02*
X893Y3686D01*
X934Y3686D02*
X963Y3686D01*
X427Y3685D02*
X443Y3685D01*
X569Y3685D02*
X585Y3685D01*
X856Y3685D02*
X895Y3685D01*
X935Y3685D02*
X965Y3685D01*
X427Y3684D02*
X443Y3684D01*
X569Y3684D02*
X585Y3684D01*
X859Y3684D02*
X897Y3684D01*
X937Y3684D02*
X966Y3684D01*
X428Y3683D02*
X444Y3683D01*
X570Y3683D02*
X586Y3683D01*
X861Y3683D02*
X899Y3683D01*
X938Y3683D02*
X968Y3683D01*
X428Y3682D02*
X444Y3682D01*
X570Y3682D02*
X586Y3682D01*
X864Y3682D02*
X901Y3682D01*
X940Y3682D02*
X969Y3682D01*
X428Y3681D02*
X444Y3681D01*
X571Y3681D02*
X587Y3681D01*
X866Y3681D02*
X903Y3681D01*
X942Y3681D02*
X971Y3681D01*
X429Y3680D02*
X445Y3680D01*
X571Y3680D02*
X587Y3680D01*
X869Y3680D02*
X904Y3680D01*
X943Y3680D02*
X973Y3680D01*
X429Y3679D02*
X445Y3679D01*
X571Y3679D02*
X588Y3679D01*
X871Y3679D02*
X906Y3679D01*
X945Y3679D02*
X974Y3679D01*
X429Y3678D02*
X445Y3678D01*
X572Y3678D02*
X588Y3678D01*
X873Y3678D02*
X908Y3678D01*
X946Y3678D02*
X976Y3678D01*
X430Y3677D02*
X445Y3677D01*
X572Y3677D02*
X588Y3677D01*
X876Y3677D02*
X909Y3677D01*
X948Y3677D02*
X978Y3677D01*
X430Y3676D02*
X446Y3676D01*
X572Y3676D02*
X589Y3676D01*
X878Y3676D02*
X911Y3676D01*
X950Y3676D02*
X979Y3676D01*
X430Y3675D02*
X446Y3675D01*
X573Y3675D02*
X589Y3675D01*
X880Y3675D02*
X913Y3675D01*
X951Y3675D02*
X981Y3675D01*
X431Y3674D02*
X446Y3674D01*
X573Y3674D02*
X590Y3674D01*
X882Y3674D02*
X914Y3674D01*
X953Y3674D02*
X982Y3674D01*
X431Y3673D02*
X446Y3673D01*
X574Y3673D02*
X590Y3673D01*
X884Y3673D02*
X916Y3673D01*
X955Y3673D02*
X984Y3673D01*
X431Y3672D02*
X447Y3672D01*
X574Y3672D02*
X591Y3672D01*
X886Y3672D02*
X917Y3672D01*
X956Y3672D02*
X986Y3672D01*
X431Y3671D02*
X447Y3671D01*
X575Y3671D02*
X591Y3671D01*
X888Y3671D02*
X919Y3671D01*
X958Y3671D02*
X988Y3671D01*
X432Y3670D02*
X447Y3670D01*
X575Y3670D02*
X591Y3670D01*
X890Y3670D02*
X920Y3670D01*
X959Y3670D02*
X989Y3670D01*
X432Y3669D02*
X447Y3669D01*
X575Y3669D02*
X592Y3669D01*
X892Y3669D02*
X922Y3669D01*
X961Y3669D02*
X991Y3669D01*
X432Y3668D02*
X448Y3668D01*
X576Y3668D02*
X592Y3668D01*
X894Y3668D02*
X923Y3668D01*
X963Y3668D02*
X993Y3668D01*
X432Y3667D02*
X448Y3667D01*
X576Y3667D02*
X593Y3667D01*
X896Y3667D02*
X925Y3667D01*
X964Y3667D02*
X994Y3667D01*
X433Y3666D02*
X448Y3666D01*
X577Y3666D02*
X593Y3666D01*
X898Y3666D02*
X926Y3666D01*
X966Y3666D02*
X996Y3666D01*
X433Y3665D02*
X448Y3665D01*
X577Y3665D02*
X594Y3665D01*
X899Y3665D02*
X927Y3665D01*
X967Y3665D02*
X998Y3665D01*
X433Y3664D02*
X448Y3664D01*
X578Y3664D02*
X594Y3664D01*
X901Y3664D02*
X929Y3664D01*
X969Y3664D02*
X999Y3664D01*
X433Y3663D02*
X449Y3663D01*
X578Y3663D02*
X595Y3663D01*
X903Y3663D02*
X930Y3663D01*
X971Y3663D02*
X1001Y3663D01*
X433Y3662D02*
X449Y3662D01*
X578Y3662D02*
X595Y3662D01*
X905Y3662D02*
X931Y3662D01*
X972Y3662D02*
X1003Y3662D01*
X434Y3661D02*
X449Y3661D01*
X579Y3661D02*
X596Y3661D01*
X906Y3661D02*
X932Y3661D01*
X974Y3661D02*
X1005Y3661D01*
X434Y3660D02*
X449Y3660D01*
X579Y3660D02*
X596Y3660D01*
X908Y3660D02*
X934Y3660D01*
X976Y3660D02*
X1006Y3660D01*
X434Y3659D02*
X449Y3659D01*
X580Y3659D02*
X597Y3659D01*
X909Y3659D02*
X935Y3659D01*
X977Y3659D02*
X1008Y3659D01*
X434Y3658D02*
X450Y3658D01*
X580Y3658D02*
X597Y3658D01*
X911Y3658D02*
X936Y3658D01*
X979Y3658D02*
X1010Y3658D01*
X434Y3657D02*
X450Y3657D01*
X581Y3657D02*
X598Y3657D01*
X912Y3657D02*
X937Y3657D01*
X981Y3657D02*
X1011Y3657D01*
X435Y3656D02*
X450Y3656D01*
X581Y3656D02*
X598Y3656D01*
X914Y3656D02*
X938Y3656D01*
X983Y3656D02*
X1013Y3656D01*
X435Y3655D02*
X450Y3655D01*
X582Y3655D02*
X599Y3655D01*
X915Y3655D02*
X939Y3655D01*
X984Y3655D02*
X1015Y3655D01*
X435Y3654D02*
X450Y3654D01*
X582Y3654D02*
X600Y3654D01*
X916Y3654D02*
X940Y3654D01*
X986Y3654D02*
X1017Y3654D01*
X435Y3653D02*
X450Y3653D01*
X583Y3653D02*
X600Y3653D01*
X918Y3653D02*
X941Y3653D01*
X988Y3653D02*
X1018Y3653D01*
X435Y3652D02*
X450Y3652D01*
X583Y3652D02*
X601Y3652D01*
X919Y3652D02*
X942Y3652D01*
X989Y3652D02*
X1020Y3652D01*
X435Y3651D02*
X451Y3651D01*
X584Y3651D02*
X601Y3651D01*
X920Y3651D02*
X943Y3651D01*
X991Y3651D02*
X1022Y3651D01*
X436Y3650D02*
X451Y3650D01*
X584Y3650D02*
X602Y3650D01*
X922Y3650D02*
X944Y3650D01*
X993Y3650D02*
X1024Y3650D01*
X436Y3649D02*
X451Y3649D01*
X585Y3649D02*
X602Y3649D01*
X923Y3649D02*
X945Y3649D01*
X994Y3649D02*
X1026Y3649D01*
X436Y3648D02*
X451Y3648D01*
X586Y3648D02*
X603Y3648D01*
X924Y3648D02*
X946Y3648D01*
X996Y3648D02*
X1027Y3648D01*
X436Y3647D02*
X451Y3647D01*
X586Y3647D02*
X603Y3647D01*
X925Y3647D02*
X947Y3647D01*
X998Y3647D02*
X1029Y3647D01*
X436Y3646D02*
X451Y3646D01*
X587Y3646D02*
X604Y3646D01*
X926Y3646D02*
X948Y3646D01*
X1000Y3646D02*
X1031Y3646D01*
X436Y3645D02*
X452Y3645D01*
X587Y3645D02*
X605Y3645D01*
X928Y3645D02*
X949Y3645D01*
X1001Y3645D02*
X1033Y3645D01*
X437Y3644D02*
X452Y3644D01*
X588Y3644D02*
X605Y3644D01*
X929Y3644D02*
X950Y3644D01*
X1003Y3644D02*
X1035Y3644D01*
X437Y3643D02*
X452Y3643D01*
X588Y3643D02*
X606Y3643D01*
X930Y3643D02*
X951Y3643D01*
X1005Y3643D02*
X1037Y3643D01*
X437Y3642D02*
X452Y3642D01*
X589Y3642D02*
X607Y3642D01*
X931Y3642D02*
X951Y3642D01*
X1006Y3642D02*
X1038Y3642D01*
X437Y3641D02*
X452Y3641D01*
X590Y3641D02*
X607Y3641D01*
X932Y3641D02*
X952Y3641D01*
X1008Y3641D02*
X1040Y3641D01*
X437Y3640D02*
X452Y3640D01*
X590Y3640D02*
X608Y3640D01*
X933Y3640D02*
X953Y3640D01*
X1010Y3640D02*
X1042Y3640D01*
X437Y3639D02*
X453Y3639D01*
X591Y3639D02*
X608Y3639D01*
X934Y3639D02*
X954Y3639D01*
X1012Y3639D02*
X1044Y3639D01*
X438Y3638D02*
X453Y3638D01*
X591Y3638D02*
X609Y3638D01*
X935Y3638D02*
X955Y3638D01*
X1013Y3638D02*
X1046Y3638D01*
X438Y3637D02*
X453Y3637D01*
X592Y3637D02*
X610Y3637D01*
X936Y3637D02*
X955Y3637D01*
X1015Y3637D02*
X1048Y3637D01*
X438Y3636D02*
X453Y3636D01*
X592Y3636D02*
X610Y3636D01*
X937Y3636D02*
X956Y3636D01*
X1017Y3636D02*
X1050Y3636D01*
X438Y3635D02*
X453Y3635D01*
X593Y3635D02*
X611Y3635D01*
X937Y3635D02*
X957Y3635D01*
X1019Y3635D02*
X1052Y3635D01*
X438Y3634D02*
X453Y3634D01*
X594Y3634D02*
X612Y3634D01*
X938Y3634D02*
X957Y3634D01*
X1021Y3634D02*
X1054Y3634D01*
X438Y3633D02*
X453Y3633D01*
X594Y3633D02*
X612Y3633D01*
X939Y3633D02*
X958Y3633D01*
X1022Y3633D02*
X1056Y3633D01*
X438Y3632D02*
X454Y3632D01*
X595Y3632D02*
X613Y3632D01*
X940Y3632D02*
X959Y3632D01*
X1024Y3632D02*
X1058Y3632D01*
X439Y3631D02*
X454Y3631D01*
X596Y3631D02*
X614Y3631D01*
X941Y3631D02*
X959Y3631D01*
X1026Y3631D02*
X1060Y3631D01*
X439Y3630D02*
X454Y3630D01*
X596Y3630D02*
X615Y3630D01*
X942Y3630D02*
X960Y3630D01*
X1028Y3630D02*
X1062Y3630D01*
X439Y3629D02*
X454Y3629D01*
X597Y3629D02*
X615Y3629D01*
X942Y3629D02*
X960Y3629D01*
X1030Y3629D02*
X1064Y3629D01*
X439Y3628D02*
X454Y3628D01*
X598Y3628D02*
X616Y3628D01*
X943Y3628D02*
X961Y3628D01*
X1032Y3628D02*
X1066Y3628D01*
X439Y3627D02*
X454Y3627D01*
X598Y3627D02*
X617Y3627D01*
X944Y3627D02*
X961Y3627D01*
X1034Y3627D02*
X1068Y3627D01*
X439Y3626D02*
X454Y3626D01*
X599Y3626D02*
X618Y3626D01*
X944Y3626D02*
X962Y3626D01*
X1035Y3626D02*
X1070Y3626D01*
X439Y3625D02*
X455Y3625D01*
X600Y3625D02*
X618Y3625D01*
X945Y3625D02*
X962Y3625D01*
X1037Y3625D02*
X1072Y3625D01*
X440Y3624D02*
X455Y3624D01*
X600Y3624D02*
X619Y3624D01*
X946Y3624D02*
X963Y3624D01*
X1039Y3624D02*
X1074Y3624D01*
X440Y3623D02*
X455Y3623D01*
X601Y3623D02*
X620Y3623D01*
X946Y3623D02*
X964Y3623D01*
X1041Y3623D02*
X1077Y3623D01*
X440Y3622D02*
X455Y3622D01*
X602Y3622D02*
X620Y3622D01*
X947Y3622D02*
X964Y3622D01*
X1043Y3622D02*
X1079Y3622D01*
X1121Y3622D02*
X1123Y3622D01*
X440Y3621D02*
X455Y3621D01*
X602Y3621D02*
X621Y3621D01*
X948Y3621D02*
X964Y3621D01*
X1045Y3621D02*
X1081Y3621D01*
X1118Y3621D02*
X1125Y3621D01*
X440Y3620D02*
X455Y3620D01*
X603Y3620D02*
X622Y3620D01*
X948Y3620D02*
X965Y3620D01*
X1047Y3620D02*
X1084Y3620D01*
X1117Y3620D02*
X1127Y3620D01*
X440Y3619D02*
X455Y3619D01*
X604Y3619D02*
X623Y3619D01*
X949Y3619D02*
X965Y3619D01*
X1049Y3619D02*
X1086Y3619D01*
X1116Y3619D02*
X1127Y3619D01*
X440Y3618D02*
X456Y3618D01*
X605Y3618D02*
X624Y3618D01*
X949Y3618D02*
X966Y3618D01*
X1051Y3618D02*
X1089Y3618D01*
X1115Y3618D02*
X1128Y3618D01*
X441Y3617D02*
X456Y3617D01*
X605Y3617D02*
X625Y3617D01*
X950Y3617D02*
X966Y3617D01*
X1053Y3617D02*
X1091Y3617D01*
X1115Y3617D02*
X1129Y3617D01*
X441Y3616D02*
X456Y3616D01*
X606Y3616D02*
X625Y3616D01*
X950Y3616D02*
X967Y3616D01*
X1055Y3616D02*
X1094Y3616D01*
X1114Y3616D02*
X1129Y3616D01*
X441Y3615D02*
X456Y3615D01*
X607Y3615D02*
X626Y3615D01*
X951Y3615D02*
X967Y3615D01*
X1057Y3615D02*
X1097Y3615D01*
X1114Y3615D02*
X1129Y3615D01*
X441Y3614D02*
X456Y3614D01*
X608Y3614D02*
X627Y3614D01*
X951Y3614D02*
X967Y3614D01*
X1059Y3614D02*
X1100Y3614D01*
X1114Y3614D02*
X1129Y3614D01*
X441Y3613D02*
X456Y3613D01*
X608Y3613D02*
X628Y3613D01*
X952Y3613D02*
X968Y3613D01*
X1061Y3613D02*
X1103Y3613D01*
X1114Y3613D02*
X1129Y3613D01*
X441Y3612D02*
X456Y3612D01*
X609Y3612D02*
X629Y3612D01*
X952Y3612D02*
X968Y3612D01*
X1063Y3612D02*
X1107Y3612D01*
X1114Y3612D02*
X1130Y3612D01*
X441Y3611D02*
X457Y3611D01*
X610Y3611D02*
X630Y3611D01*
X953Y3611D02*
X968Y3611D01*
X1065Y3611D02*
X1130Y3611D01*
X441Y3610D02*
X457Y3610D01*
X611Y3610D02*
X631Y3610D01*
X953Y3610D02*
X969Y3610D01*
X1068Y3610D02*
X1130Y3610D01*
X442Y3609D02*
X457Y3609D01*
X612Y3609D02*
X631Y3609D01*
X953Y3609D02*
X969Y3609D01*
X1070Y3609D02*
X1130Y3609D01*
X442Y3608D02*
X457Y3608D01*
X612Y3608D02*
X632Y3608D01*
X954Y3608D02*
X969Y3608D01*
X1072Y3608D02*
X1130Y3608D01*
X442Y3607D02*
X457Y3607D01*
X613Y3607D02*
X633Y3607D01*
X954Y3607D02*
X969Y3607D01*
X1074Y3607D02*
X1130Y3607D01*
X442Y3606D02*
X457Y3606D01*
X614Y3606D02*
X634Y3606D01*
X954Y3606D02*
X970Y3606D01*
X1077Y3606D02*
X1129Y3606D01*
X442Y3605D02*
X457Y3605D01*
X615Y3605D02*
X635Y3605D01*
X955Y3605D02*
X970Y3605D01*
X1079Y3605D02*
X1129Y3605D01*
X442Y3604D02*
X457Y3604D01*
X616Y3604D02*
X636Y3604D01*
X955Y3604D02*
X970Y3604D01*
X1081Y3604D02*
X1129Y3604D01*
X442Y3603D02*
X458Y3603D01*
X617Y3603D02*
X637Y3603D01*
X955Y3603D02*
X970Y3603D01*
X1084Y3603D02*
X1128Y3603D01*
X443Y3602D02*
X458Y3602D01*
X617Y3602D02*
X638Y3602D01*
X955Y3602D02*
X971Y3602D01*
X1087Y3602D02*
X1127Y3602D01*
X443Y3601D02*
X458Y3601D01*
X618Y3601D02*
X639Y3601D01*
X956Y3601D02*
X971Y3601D01*
X1089Y3601D02*
X1127Y3601D01*
X443Y3600D02*
X458Y3600D01*
X619Y3600D02*
X640Y3600D01*
X956Y3600D02*
X971Y3600D01*
X1092Y3600D02*
X1126Y3600D01*
X443Y3599D02*
X458Y3599D01*
X620Y3599D02*
X641Y3599D01*
X956Y3599D02*
X971Y3599D01*
X1095Y3599D02*
X1125Y3599D01*
X443Y3598D02*
X458Y3598D01*
X621Y3598D02*
X642Y3598D01*
X956Y3598D02*
X971Y3598D01*
X1099Y3598D02*
X1124Y3598D01*
X443Y3597D02*
X458Y3597D01*
X622Y3597D02*
X643Y3597D01*
X956Y3597D02*
X971Y3597D01*
X1102Y3597D02*
X1122Y3597D01*
X443Y3596D02*
X459Y3596D01*
X623Y3596D02*
X644Y3596D01*
X956Y3596D02*
X972Y3596D01*
X1107Y3596D02*
X1119Y3596D01*
X444Y3595D02*
X459Y3595D01*
X624Y3595D02*
X645Y3595D01*
X957Y3595D02*
X972Y3595D01*
X444Y3594D02*
X459Y3594D01*
X625Y3594D02*
X646Y3594D01*
X957Y3594D02*
X972Y3594D01*
X444Y3593D02*
X459Y3593D01*
X626Y3593D02*
X647Y3593D01*
X957Y3593D02*
X972Y3593D01*
X444Y3592D02*
X459Y3592D01*
X627Y3592D02*
X649Y3592D01*
X957Y3592D02*
X972Y3592D01*
X444Y3591D02*
X459Y3591D01*
X628Y3591D02*
X650Y3591D01*
X957Y3591D02*
X972Y3591D01*
X444Y3590D02*
X459Y3590D01*
X629Y3590D02*
X651Y3590D01*
X957Y3590D02*
X972Y3590D01*
X444Y3589D02*
X460Y3589D01*
X630Y3589D02*
X652Y3589D01*
X957Y3589D02*
X972Y3589D01*
X445Y3588D02*
X460Y3588D01*
X631Y3588D02*
X653Y3588D01*
X957Y3588D02*
X972Y3588D01*
X445Y3587D02*
X460Y3587D01*
X632Y3587D02*
X654Y3587D01*
X957Y3587D02*
X972Y3587D01*
X445Y3586D02*
X460Y3586D01*
X633Y3586D02*
X656Y3586D01*
X957Y3586D02*
X972Y3586D01*
X445Y3585D02*
X460Y3585D01*
X634Y3585D02*
X657Y3585D01*
X957Y3585D02*
X972Y3585D01*
X445Y3584D02*
X460Y3584D01*
X635Y3584D02*
X658Y3584D01*
X957Y3584D02*
X972Y3584D01*
X445Y3583D02*
X461Y3583D01*
X636Y3583D02*
X659Y3583D01*
X957Y3583D02*
X972Y3583D01*
X445Y3582D02*
X461Y3582D01*
X637Y3582D02*
X661Y3582D01*
X957Y3582D02*
X972Y3582D01*
X446Y3581D02*
X461Y3581D01*
X638Y3581D02*
X662Y3581D01*
X957Y3581D02*
X972Y3581D01*
X446Y3580D02*
X461Y3580D01*
X639Y3580D02*
X663Y3580D01*
X957Y3580D02*
X972Y3580D01*
X446Y3579D02*
X461Y3579D01*
X640Y3579D02*
X665Y3579D01*
X957Y3579D02*
X972Y3579D01*
X446Y3578D02*
X461Y3578D01*
X641Y3578D02*
X666Y3578D01*
X957Y3578D02*
X972Y3578D01*
X446Y3577D02*
X461Y3577D01*
X643Y3577D02*
X667Y3577D01*
X957Y3577D02*
X972Y3577D01*
X446Y3576D02*
X462Y3576D01*
X644Y3576D02*
X669Y3576D01*
X957Y3576D02*
X972Y3576D01*
X447Y3575D02*
X462Y3575D01*
X645Y3575D02*
X670Y3575D01*
X957Y3575D02*
X972Y3575D01*
X447Y3574D02*
X462Y3574D01*
X646Y3574D02*
X671Y3574D01*
X956Y3574D02*
X972Y3574D01*
X447Y3573D02*
X462Y3573D01*
X647Y3573D02*
X673Y3573D01*
X956Y3573D02*
X971Y3573D01*
X447Y3572D02*
X462Y3572D01*
X649Y3572D02*
X674Y3572D01*
X956Y3572D02*
X971Y3572D01*
X447Y3571D02*
X462Y3571D01*
X650Y3571D02*
X676Y3571D01*
X956Y3571D02*
X971Y3571D01*
X447Y3570D02*
X462Y3570D01*
X651Y3570D02*
X677Y3570D01*
X956Y3570D02*
X971Y3570D01*
X447Y3569D02*
X463Y3569D01*
X652Y3569D02*
X679Y3569D01*
X956Y3569D02*
X971Y3569D01*
X448Y3568D02*
X463Y3568D01*
X654Y3568D02*
X680Y3568D01*
X955Y3568D02*
X971Y3568D01*
X448Y3567D02*
X463Y3567D01*
X655Y3567D02*
X682Y3567D01*
X955Y3567D02*
X970Y3567D01*
X448Y3566D02*
X463Y3566D01*
X656Y3566D02*
X684Y3566D01*
X955Y3566D02*
X970Y3566D01*
X448Y3565D02*
X463Y3565D01*
X658Y3565D02*
X685Y3565D01*
X955Y3565D02*
X970Y3565D01*
X448Y3564D02*
X463Y3564D01*
X659Y3564D02*
X687Y3564D01*
X955Y3564D02*
X970Y3564D01*
X448Y3563D02*
X464Y3563D01*
X660Y3563D02*
X689Y3563D01*
X954Y3563D02*
X970Y3563D01*
X449Y3562D02*
X464Y3562D01*
X662Y3562D02*
X690Y3562D01*
X954Y3562D02*
X969Y3562D01*
X449Y3561D02*
X464Y3561D01*
X663Y3561D02*
X692Y3561D01*
X954Y3561D02*
X969Y3561D01*
X449Y3560D02*
X464Y3560D01*
X665Y3560D02*
X694Y3560D01*
X953Y3560D02*
X969Y3560D01*
X449Y3559D02*
X464Y3559D01*
X666Y3559D02*
X696Y3559D01*
X953Y3559D02*
X969Y3559D01*
X449Y3558D02*
X464Y3558D01*
X668Y3558D02*
X698Y3558D01*
X953Y3558D02*
X968Y3558D01*
X449Y3557D02*
X465Y3557D01*
X669Y3557D02*
X700Y3557D01*
X952Y3557D02*
X968Y3557D01*
X450Y3556D02*
X465Y3556D01*
X671Y3556D02*
X702Y3556D01*
X952Y3556D02*
X968Y3556D01*
X450Y3555D02*
X465Y3555D01*
X672Y3555D02*
X704Y3555D01*
X952Y3555D02*
X967Y3555D01*
X450Y3554D02*
X465Y3554D01*
X674Y3554D02*
X706Y3554D01*
X951Y3554D02*
X967Y3554D01*
X450Y3553D02*
X465Y3553D01*
X675Y3553D02*
X708Y3553D01*
X951Y3553D02*
X967Y3553D01*
X450Y3552D02*
X466Y3552D01*
X677Y3552D02*
X710Y3552D01*
X951Y3552D02*
X967Y3552D01*
X450Y3551D02*
X466Y3551D01*
X679Y3551D02*
X712Y3551D01*
X950Y3551D02*
X966Y3551D01*
X451Y3550D02*
X466Y3550D01*
X680Y3550D02*
X714Y3550D01*
X950Y3550D02*
X966Y3550D01*
X451Y3549D02*
X466Y3549D01*
X682Y3549D02*
X716Y3549D01*
X949Y3549D02*
X965Y3549D01*
X451Y3548D02*
X466Y3548D01*
X684Y3548D02*
X719Y3548D01*
X949Y3548D02*
X965Y3548D01*
X451Y3547D02*
X466Y3547D01*
X686Y3547D02*
X721Y3547D01*
X949Y3547D02*
X965Y3547D01*
X451Y3546D02*
X467Y3546D01*
X687Y3546D02*
X723Y3546D01*
X948Y3546D02*
X964Y3546D01*
X451Y3545D02*
X467Y3545D01*
X689Y3545D02*
X726Y3545D01*
X948Y3545D02*
X964Y3545D01*
X452Y3544D02*
X467Y3544D01*
X691Y3544D02*
X729Y3544D01*
X947Y3544D02*
X964Y3544D01*
X452Y3543D02*
X467Y3543D01*
X693Y3543D02*
X731Y3543D01*
X947Y3543D02*
X963Y3543D01*
X452Y3542D02*
X467Y3542D01*
X695Y3542D02*
X734Y3542D01*
X946Y3542D02*
X963Y3542D01*
X452Y3541D02*
X467Y3541D01*
X697Y3541D02*
X737Y3541D01*
X946Y3541D02*
X962Y3541D01*
X452Y3540D02*
X468Y3540D01*
X699Y3540D02*
X740Y3540D01*
X945Y3540D02*
X962Y3540D01*
X453Y3539D02*
X468Y3539D01*
X701Y3539D02*
X742Y3539D01*
X945Y3539D02*
X961Y3539D01*
X453Y3538D02*
X468Y3538D01*
X703Y3538D02*
X746Y3538D01*
X944Y3538D02*
X961Y3538D01*
X453Y3537D02*
X468Y3537D01*
X705Y3537D02*
X749Y3537D01*
X944Y3537D02*
X961Y3537D01*
X453Y3536D02*
X468Y3536D01*
X707Y3536D02*
X752Y3536D01*
X943Y3536D02*
X960Y3536D01*
X453Y3535D02*
X469Y3535D01*
X710Y3535D02*
X755Y3535D01*
X943Y3535D02*
X960Y3535D01*
X454Y3534D02*
X469Y3534D01*
X712Y3534D02*
X759Y3534D01*
X942Y3534D02*
X959Y3534D01*
X454Y3533D02*
X469Y3533D01*
X714Y3533D02*
X763Y3533D01*
X942Y3533D02*
X959Y3533D01*
X454Y3532D02*
X469Y3532D01*
X717Y3532D02*
X767Y3532D01*
X941Y3532D02*
X958Y3532D01*
X454Y3531D02*
X469Y3531D01*
X719Y3531D02*
X771Y3531D01*
X940Y3531D02*
X958Y3531D01*
X454Y3530D02*
X470Y3530D01*
X722Y3530D02*
X775Y3530D01*
X940Y3530D02*
X957Y3530D01*
X454Y3529D02*
X470Y3529D01*
X724Y3529D02*
X780Y3529D01*
X939Y3529D02*
X957Y3529D01*
X455Y3528D02*
X470Y3528D01*
X727Y3528D02*
X784Y3528D01*
X939Y3528D02*
X956Y3528D01*
X455Y3527D02*
X470Y3527D01*
X730Y3527D02*
X789Y3527D01*
X938Y3527D02*
X956Y3527D01*
X455Y3526D02*
X470Y3526D01*
X733Y3526D02*
X795Y3526D01*
X937Y3526D02*
X955Y3526D01*
X455Y3525D02*
X471Y3525D01*
X735Y3525D02*
X801Y3525D01*
X937Y3525D02*
X954Y3525D01*
X455Y3524D02*
X471Y3524D01*
X738Y3524D02*
X808Y3524D01*
X936Y3524D02*
X954Y3524D01*
X456Y3523D02*
X471Y3523D01*
X741Y3523D02*
X815Y3523D01*
X935Y3523D02*
X953Y3523D01*
X456Y3522D02*
X471Y3522D01*
X745Y3522D02*
X823Y3522D01*
X935Y3522D02*
X953Y3522D01*
X456Y3521D02*
X471Y3521D01*
X748Y3521D02*
X825Y3521D01*
X934Y3521D02*
X952Y3521D01*
X456Y3520D02*
X472Y3520D01*
X751Y3520D02*
X827Y3520D01*
X933Y3520D02*
X951Y3520D01*
X457Y3519D02*
X472Y3519D01*
X755Y3519D02*
X828Y3519D01*
X933Y3519D02*
X951Y3519D01*
X457Y3518D02*
X472Y3518D01*
X758Y3518D02*
X828Y3518D01*
X932Y3518D02*
X950Y3518D01*
X457Y3517D02*
X472Y3517D01*
X762Y3517D02*
X829Y3517D01*
X931Y3517D02*
X950Y3517D01*
X457Y3516D02*
X473Y3516D01*
X766Y3516D02*
X829Y3516D01*
X931Y3516D02*
X949Y3516D01*
X457Y3515D02*
X473Y3515D01*
X770Y3515D02*
X829Y3515D01*
X930Y3515D02*
X948Y3515D01*
X458Y3514D02*
X473Y3514D01*
X774Y3514D02*
X829Y3514D01*
X929Y3514D02*
X948Y3514D01*
X458Y3513D02*
X473Y3513D01*
X779Y3513D02*
X829Y3513D01*
X928Y3513D02*
X947Y3513D01*
X458Y3512D02*
X473Y3512D01*
X784Y3512D02*
X829Y3512D01*
X928Y3512D02*
X946Y3512D01*
X458Y3511D02*
X474Y3511D01*
X789Y3511D02*
X828Y3511D01*
X927Y3511D02*
X946Y3511D01*
X459Y3510D02*
X474Y3510D01*
X795Y3510D02*
X828Y3510D01*
X926Y3510D02*
X945Y3510D01*
X459Y3509D02*
X474Y3509D01*
X801Y3509D02*
X827Y3509D01*
X925Y3509D02*
X944Y3509D01*
X459Y3508D02*
X474Y3508D01*
X807Y3508D02*
X826Y3508D01*
X925Y3508D02*
X944Y3508D01*
X459Y3507D02*
X475Y3507D01*
X815Y3507D02*
X825Y3507D01*
X924Y3507D02*
X943Y3507D01*
X459Y3506D02*
X475Y3506D01*
X923Y3506D02*
X942Y3506D01*
X460Y3505D02*
X475Y3505D01*
X922Y3505D02*
X941Y3505D01*
X460Y3504D02*
X475Y3504D01*
X922Y3504D02*
X941Y3504D01*
X460Y3503D02*
X476Y3503D01*
X921Y3503D02*
X940Y3503D01*
X460Y3502D02*
X476Y3502D01*
X920Y3502D02*
X939Y3502D01*
X461Y3501D02*
X476Y3501D01*
X555Y3501D02*
X563Y3501D01*
X919Y3501D02*
X938Y3501D01*
X461Y3500D02*
X476Y3500D01*
X554Y3500D02*
X566Y3500D01*
X918Y3500D02*
X938Y3500D01*
X461Y3499D02*
X477Y3499D01*
X553Y3499D02*
X569Y3499D01*
X917Y3499D02*
X937Y3499D01*
X461Y3498D02*
X477Y3498D01*
X552Y3498D02*
X572Y3498D01*
X917Y3498D02*
X936Y3498D01*
X462Y3497D02*
X477Y3497D01*
X552Y3497D02*
X575Y3497D01*
X916Y3497D02*
X935Y3497D01*
X462Y3496D02*
X477Y3496D01*
X552Y3496D02*
X578Y3496D01*
X915Y3496D02*
X935Y3496D01*
X462Y3495D02*
X478Y3495D01*
X551Y3495D02*
X581Y3495D01*
X914Y3495D02*
X934Y3495D01*
X462Y3494D02*
X478Y3494D01*
X551Y3494D02*
X584Y3494D01*
X913Y3494D02*
X933Y3494D01*
X463Y3493D02*
X478Y3493D01*
X551Y3493D02*
X587Y3493D01*
X912Y3493D02*
X932Y3493D01*
X463Y3492D02*
X478Y3492D01*
X552Y3492D02*
X590Y3492D01*
X911Y3492D02*
X931Y3492D01*
X463Y3491D02*
X479Y3491D01*
X552Y3491D02*
X592Y3491D01*
X910Y3491D02*
X930Y3491D01*
X463Y3490D02*
X479Y3490D01*
X552Y3490D02*
X595Y3490D01*
X909Y3490D02*
X930Y3490D01*
X464Y3489D02*
X479Y3489D01*
X553Y3489D02*
X597Y3489D01*
X908Y3489D02*
X929Y3489D01*
X464Y3488D02*
X479Y3488D01*
X554Y3488D02*
X600Y3488D01*
X908Y3488D02*
X928Y3488D01*
X464Y3487D02*
X480Y3487D01*
X555Y3487D02*
X602Y3487D01*
X907Y3487D02*
X927Y3487D01*
X464Y3486D02*
X480Y3486D01*
X558Y3486D02*
X605Y3486D01*
X906Y3486D02*
X926Y3486D01*
X465Y3485D02*
X480Y3485D01*
X561Y3485D02*
X607Y3485D01*
X905Y3485D02*
X925Y3485D01*
X465Y3484D02*
X480Y3484D01*
X564Y3484D02*
X609Y3484D01*
X904Y3484D02*
X925Y3484D01*
X465Y3483D02*
X481Y3483D01*
X568Y3483D02*
X612Y3483D01*
X903Y3483D02*
X924Y3483D01*
X465Y3482D02*
X481Y3482D01*
X571Y3482D02*
X614Y3482D01*
X902Y3482D02*
X923Y3482D01*
X466Y3481D02*
X481Y3481D01*
X574Y3481D02*
X616Y3481D01*
X901Y3481D02*
X922Y3481D01*
X466Y3480D02*
X482Y3480D01*
X577Y3480D02*
X618Y3480D01*
X900Y3480D02*
X921Y3480D01*
X466Y3479D02*
X482Y3479D01*
X579Y3479D02*
X621Y3479D01*
X899Y3479D02*
X920Y3479D01*
X467Y3478D02*
X482Y3478D01*
X582Y3478D02*
X623Y3478D01*
X898Y3478D02*
X919Y3478D01*
X467Y3477D02*
X482Y3477D01*
X585Y3477D02*
X625Y3477D01*
X897Y3477D02*
X918Y3477D01*
X467Y3476D02*
X483Y3476D01*
X588Y3476D02*
X627Y3476D01*
X896Y3476D02*
X917Y3476D01*
X467Y3475D02*
X483Y3475D01*
X590Y3475D02*
X629Y3475D01*
X895Y3475D02*
X916Y3475D01*
X468Y3474D02*
X483Y3474D01*
X593Y3474D02*
X631Y3474D01*
X894Y3474D02*
X915Y3474D01*
X468Y3473D02*
X484Y3473D01*
X595Y3473D02*
X633Y3473D01*
X892Y3473D02*
X914Y3473D01*
X468Y3472D02*
X484Y3472D01*
X598Y3472D02*
X635Y3472D01*
X891Y3472D02*
X913Y3472D01*
X469Y3471D02*
X484Y3471D01*
X600Y3471D02*
X637Y3471D01*
X890Y3471D02*
X912Y3471D01*
X469Y3470D02*
X485Y3470D01*
X602Y3470D02*
X639Y3470D01*
X889Y3470D02*
X911Y3470D01*
X469Y3469D02*
X485Y3469D01*
X605Y3469D02*
X641Y3469D01*
X888Y3469D02*
X910Y3469D01*
X469Y3468D02*
X485Y3468D01*
X607Y3468D02*
X643Y3468D01*
X887Y3468D02*
X909Y3468D01*
X470Y3467D02*
X485Y3467D01*
X609Y3467D02*
X645Y3467D01*
X886Y3467D02*
X908Y3467D01*
X470Y3466D02*
X486Y3466D01*
X612Y3466D02*
X647Y3466D01*
X885Y3466D02*
X907Y3466D01*
X470Y3465D02*
X486Y3465D01*
X614Y3465D02*
X648Y3465D01*
X884Y3465D02*
X906Y3465D01*
X471Y3464D02*
X486Y3464D01*
X616Y3464D02*
X650Y3464D01*
X883Y3464D02*
X905Y3464D01*
X471Y3463D02*
X487Y3463D01*
X618Y3463D02*
X652Y3463D01*
X881Y3463D02*
X904Y3463D01*
X471Y3462D02*
X487Y3462D01*
X620Y3462D02*
X654Y3462D01*
X880Y3462D02*
X903Y3462D01*
X472Y3461D02*
X487Y3461D01*
X622Y3461D02*
X656Y3461D01*
X879Y3461D02*
X902Y3461D01*
X472Y3460D02*
X488Y3460D01*
X624Y3460D02*
X658Y3460D01*
X878Y3460D02*
X901Y3460D01*
X472Y3459D02*
X488Y3459D01*
X626Y3459D02*
X659Y3459D01*
X877Y3459D02*
X900Y3459D01*
X473Y3458D02*
X488Y3458D01*
X628Y3458D02*
X661Y3458D01*
X876Y3458D02*
X899Y3458D01*
X473Y3457D02*
X489Y3457D01*
X630Y3457D02*
X663Y3457D01*
X874Y3457D02*
X898Y3457D01*
X473Y3456D02*
X489Y3456D01*
X632Y3456D02*
X664Y3456D01*
X873Y3456D02*
X897Y3456D01*
X474Y3455D02*
X489Y3455D01*
X634Y3455D02*
X666Y3455D01*
X872Y3455D02*
X896Y3455D01*
X474Y3454D02*
X490Y3454D01*
X636Y3454D02*
X668Y3454D01*
X871Y3454D02*
X894Y3454D01*
X474Y3453D02*
X490Y3453D01*
X638Y3453D02*
X670Y3453D01*
X869Y3453D02*
X893Y3453D01*
X475Y3452D02*
X490Y3452D01*
X640Y3452D02*
X671Y3452D01*
X868Y3452D02*
X892Y3452D01*
X475Y3451D02*
X491Y3451D01*
X642Y3451D02*
X673Y3451D01*
X867Y3451D02*
X891Y3451D01*
X475Y3450D02*
X491Y3450D01*
X644Y3450D02*
X674Y3450D01*
X866Y3450D02*
X890Y3450D01*
X476Y3449D02*
X491Y3449D01*
X646Y3449D02*
X676Y3449D01*
X864Y3449D02*
X889Y3449D01*
X476Y3448D02*
X492Y3448D01*
X647Y3448D02*
X678Y3448D01*
X863Y3448D02*
X887Y3448D01*
X476Y3447D02*
X492Y3447D01*
X649Y3447D02*
X679Y3447D01*
X862Y3447D02*
X886Y3447D01*
X477Y3446D02*
X492Y3446D01*
X651Y3446D02*
X681Y3446D01*
X860Y3446D02*
X885Y3446D01*
X477Y3445D02*
X493Y3445D01*
X653Y3445D02*
X682Y3445D01*
X859Y3445D02*
X884Y3445D01*
X477Y3444D02*
X493Y3444D01*
X654Y3444D02*
X684Y3444D01*
X858Y3444D02*
X883Y3444D01*
X478Y3443D02*
X494Y3443D01*
X656Y3443D02*
X686Y3443D01*
X856Y3443D02*
X881Y3443D01*
X478Y3442D02*
X494Y3442D01*
X658Y3442D02*
X687Y3442D01*
X855Y3442D02*
X880Y3442D01*
X478Y3441D02*
X494Y3441D01*
X660Y3441D02*
X689Y3441D01*
X854Y3441D02*
X879Y3441D01*
X479Y3440D02*
X495Y3440D01*
X661Y3440D02*
X690Y3440D01*
X852Y3440D02*
X878Y3440D01*
X479Y3439D02*
X495Y3439D01*
X663Y3439D02*
X692Y3439D01*
X851Y3439D02*
X876Y3439D01*
X479Y3438D02*
X495Y3438D01*
X665Y3438D02*
X693Y3438D01*
X849Y3438D02*
X875Y3438D01*
X480Y3437D02*
X496Y3437D01*
X666Y3437D02*
X695Y3437D01*
X848Y3437D02*
X874Y3437D01*
X480Y3436D02*
X496Y3436D01*
X668Y3436D02*
X696Y3436D01*
X846Y3436D02*
X873Y3436D01*
X481Y3435D02*
X497Y3435D01*
X669Y3435D02*
X698Y3435D01*
X845Y3435D02*
X871Y3435D01*
X481Y3434D02*
X497Y3434D01*
X671Y3434D02*
X699Y3434D01*
X843Y3434D02*
X870Y3434D01*
X481Y3433D02*
X497Y3433D01*
X673Y3433D02*
X701Y3433D01*
X842Y3433D02*
X869Y3433D01*
X482Y3432D02*
X498Y3432D01*
X674Y3432D02*
X702Y3432D01*
X840Y3432D02*
X867Y3432D01*
X482Y3431D02*
X498Y3431D01*
X676Y3431D02*
X703Y3431D01*
X839Y3431D02*
X866Y3431D01*
X482Y3430D02*
X499Y3430D01*
X677Y3430D02*
X705Y3430D01*
X837Y3430D02*
X865Y3430D01*
X483Y3429D02*
X499Y3429D01*
X679Y3429D02*
X706Y3429D01*
X835Y3429D02*
X863Y3429D01*
X483Y3428D02*
X499Y3428D01*
X680Y3428D02*
X708Y3428D01*
X834Y3428D02*
X862Y3428D01*
X484Y3427D02*
X500Y3427D01*
X682Y3427D02*
X709Y3427D01*
X832Y3427D02*
X860Y3427D01*
X484Y3426D02*
X500Y3426D01*
X684Y3426D02*
X711Y3426D01*
X830Y3426D02*
X859Y3426D01*
X484Y3425D02*
X501Y3425D01*
X685Y3425D02*
X712Y3425D01*
X828Y3425D02*
X858Y3425D01*
X485Y3424D02*
X501Y3424D01*
X686Y3424D02*
X713Y3424D01*
X826Y3424D02*
X856Y3424D01*
X485Y3423D02*
X502Y3423D01*
X688Y3423D02*
X715Y3423D01*
X824Y3423D02*
X855Y3423D01*
X486Y3422D02*
X502Y3422D01*
X689Y3422D02*
X716Y3422D01*
X821Y3422D02*
X853Y3422D01*
X486Y3421D02*
X502Y3421D01*
X691Y3421D02*
X717Y3421D01*
X818Y3421D02*
X852Y3421D01*
X487Y3420D02*
X503Y3420D01*
X692Y3420D02*
X719Y3420D01*
X817Y3420D02*
X850Y3420D01*
X487Y3419D02*
X503Y3419D01*
X694Y3419D02*
X720Y3419D01*
X816Y3419D02*
X849Y3419D01*
X487Y3418D02*
X504Y3418D01*
X695Y3418D02*
X721Y3418D01*
X815Y3418D02*
X847Y3418D01*
X488Y3417D02*
X504Y3417D01*
X697Y3417D02*
X723Y3417D01*
X815Y3417D02*
X845Y3417D01*
X488Y3416D02*
X505Y3416D01*
X698Y3416D02*
X724Y3416D01*
X814Y3416D02*
X844Y3416D01*
X489Y3415D02*
X505Y3415D01*
X699Y3415D02*
X725Y3415D01*
X814Y3415D02*
X842Y3415D01*
X489Y3414D02*
X506Y3414D01*
X701Y3414D02*
X727Y3414D01*
X814Y3414D02*
X840Y3414D01*
X489Y3413D02*
X506Y3413D01*
X702Y3413D02*
X728Y3413D01*
X814Y3413D02*
X839Y3413D01*
X490Y3412D02*
X506Y3412D01*
X704Y3412D02*
X729Y3412D01*
X814Y3412D02*
X837Y3412D01*
X490Y3411D02*
X507Y3411D01*
X705Y3411D02*
X731Y3411D01*
X815Y3411D02*
X835Y3411D01*
X491Y3410D02*
X507Y3410D01*
X706Y3410D02*
X732Y3410D01*
X815Y3410D02*
X833Y3410D01*
X491Y3409D02*
X508Y3409D01*
X708Y3409D02*
X733Y3409D01*
X816Y3409D02*
X831Y3409D01*
X492Y3408D02*
X508Y3408D01*
X709Y3408D02*
X734Y3408D01*
X817Y3408D02*
X828Y3408D01*
X492Y3407D02*
X509Y3407D01*
X710Y3407D02*
X736Y3407D01*
X819Y3407D02*
X826Y3407D01*
X493Y3406D02*
X509Y3406D01*
X712Y3406D02*
X737Y3406D01*
X493Y3405D02*
X510Y3405D01*
X713Y3405D02*
X738Y3405D01*
X494Y3404D02*
X510Y3404D01*
X714Y3404D02*
X739Y3404D01*
X494Y3403D02*
X511Y3403D01*
X716Y3403D02*
X741Y3403D01*
X495Y3402D02*
X511Y3402D01*
X717Y3402D02*
X742Y3402D01*
X495Y3401D02*
X512Y3401D01*
X718Y3401D02*
X743Y3401D01*
X495Y3400D02*
X512Y3400D01*
X720Y3400D02*
X744Y3400D01*
X496Y3399D02*
X513Y3399D01*
X721Y3399D02*
X746Y3399D01*
X496Y3398D02*
X513Y3398D01*
X722Y3398D02*
X747Y3398D01*
X497Y3397D02*
X514Y3397D01*
X724Y3397D02*
X748Y3397D01*
X497Y3396D02*
X514Y3396D01*
X725Y3396D02*
X749Y3396D01*
X498Y3395D02*
X515Y3395D01*
X726Y3395D02*
X750Y3395D01*
X498Y3394D02*
X515Y3394D01*
X727Y3394D02*
X752Y3394D01*
X499Y3393D02*
X516Y3393D01*
X729Y3393D02*
X753Y3393D01*
X499Y3392D02*
X516Y3392D01*
X730Y3392D02*
X754Y3392D01*
X500Y3391D02*
X517Y3391D01*
X731Y3391D02*
X755Y3391D01*
X500Y3390D02*
X518Y3390D01*
X732Y3390D02*
X756Y3390D01*
X501Y3389D02*
X518Y3389D01*
X733Y3389D02*
X757Y3389D01*
X502Y3388D02*
X519Y3388D01*
X735Y3388D02*
X759Y3388D01*
X502Y3387D02*
X519Y3387D01*
X736Y3387D02*
X760Y3387D01*
X503Y3386D02*
X520Y3386D01*
X737Y3386D02*
X761Y3386D01*
X503Y3385D02*
X520Y3385D01*
X738Y3385D02*
X762Y3385D01*
X504Y3384D02*
X521Y3384D01*
X740Y3384D02*
X763Y3384D01*
X504Y3383D02*
X522Y3383D01*
X741Y3383D02*
X764Y3383D01*
X505Y3382D02*
X522Y3382D01*
X742Y3382D02*
X765Y3382D01*
X505Y3381D02*
X523Y3381D01*
X743Y3381D02*
X767Y3381D01*
X506Y3380D02*
X523Y3380D01*
X744Y3380D02*
X768Y3380D01*
X506Y3379D02*
X524Y3379D01*
X746Y3379D02*
X769Y3379D01*
X507Y3378D02*
X524Y3378D01*
X747Y3378D02*
X770Y3378D01*
X508Y3377D02*
X525Y3377D01*
X748Y3377D02*
X771Y3377D01*
X508Y3376D02*
X526Y3376D01*
X749Y3376D02*
X772Y3376D01*
X509Y3375D02*
X526Y3375D01*
X750Y3375D02*
X773Y3375D01*
X509Y3374D02*
X527Y3374D01*
X751Y3374D02*
X774Y3374D01*
X510Y3373D02*
X528Y3373D01*
X752Y3373D02*
X775Y3373D01*
X510Y3372D02*
X528Y3372D01*
X754Y3372D02*
X776Y3372D01*
X511Y3371D02*
X529Y3371D01*
X755Y3371D02*
X777Y3371D01*
X512Y3370D02*
X530Y3370D01*
X756Y3370D02*
X779Y3370D01*
X512Y3369D02*
X530Y3369D01*
X757Y3369D02*
X780Y3369D01*
X513Y3368D02*
X531Y3368D01*
X758Y3368D02*
X781Y3368D01*
X513Y3367D02*
X531Y3367D01*
X759Y3367D02*
X782Y3367D01*
X514Y3366D02*
X532Y3366D01*
X760Y3366D02*
X783Y3366D01*
X515Y3365D02*
X533Y3365D01*
X761Y3365D02*
X784Y3365D01*
X515Y3364D02*
X533Y3364D01*
X763Y3364D02*
X785Y3364D01*
X516Y3363D02*
X534Y3363D01*
X764Y3363D02*
X786Y3363D01*
X517Y3362D02*
X535Y3362D01*
X765Y3362D02*
X787Y3362D01*
X517Y3361D02*
X536Y3361D01*
X766Y3361D02*
X788Y3361D01*
X518Y3360D02*
X536Y3360D01*
X767Y3360D02*
X789Y3360D01*
X519Y3359D02*
X537Y3359D01*
X768Y3359D02*
X790Y3359D01*
X519Y3358D02*
X538Y3358D01*
X769Y3358D02*
X791Y3358D01*
X520Y3357D02*
X538Y3357D01*
X770Y3357D02*
X792Y3357D01*
X521Y3356D02*
X539Y3356D01*
X771Y3356D02*
X793Y3356D01*
X521Y3355D02*
X540Y3355D01*
X772Y3355D02*
X794Y3355D01*
X522Y3354D02*
X541Y3354D01*
X773Y3354D02*
X795Y3354D01*
X523Y3353D02*
X541Y3353D01*
X774Y3353D02*
X796Y3353D01*
X523Y3352D02*
X542Y3352D01*
X775Y3352D02*
X797Y3352D01*
X524Y3351D02*
X542Y3351D01*
X776Y3351D02*
X798Y3351D01*
X525Y3350D02*
X543Y3350D01*
X777Y3350D02*
X799Y3350D01*
X526Y3349D02*
X543Y3349D01*
X778Y3349D02*
X800Y3349D01*
X526Y3348D02*
X543Y3348D01*
X779Y3348D02*
X801Y3348D01*
X527Y3347D02*
X543Y3347D01*
X780Y3347D02*
X802Y3347D01*
X528Y3346D02*
X543Y3346D01*
X782Y3346D02*
X803Y3346D01*
X528Y3345D02*
X543Y3345D01*
X783Y3345D02*
X804Y3345D01*
X528Y3344D02*
X543Y3344D01*
X784Y3344D02*
X805Y3344D01*
X528Y3343D02*
X543Y3343D01*
X785Y3343D02*
X806Y3343D01*
X528Y3342D02*
X543Y3342D01*
X786Y3342D02*
X807Y3342D01*
X528Y3341D02*
X543Y3341D01*
X787Y3341D02*
X808Y3341D01*
X528Y3340D02*
X543Y3340D01*
X788Y3340D02*
X809Y3340D01*
X528Y3339D02*
X543Y3339D01*
X789Y3339D02*
X810Y3339D01*
X528Y3338D02*
X543Y3338D01*
X790Y3338D02*
X811Y3338D01*
X528Y3337D02*
X543Y3337D01*
X790Y3337D02*
X812Y3337D01*
X528Y3336D02*
X543Y3336D01*
X791Y3336D02*
X812Y3336D01*
X528Y3335D02*
X543Y3335D01*
X792Y3335D02*
X813Y3335D01*
X528Y3334D02*
X543Y3334D01*
X793Y3334D02*
X814Y3334D01*
X528Y3333D02*
X543Y3333D01*
X794Y3333D02*
X815Y3333D01*
X528Y3332D02*
X543Y3332D01*
X795Y3332D02*
X816Y3332D01*
X528Y3331D02*
X543Y3331D01*
X796Y3331D02*
X817Y3331D01*
X528Y3330D02*
X543Y3330D01*
X797Y3330D02*
X818Y3330D01*
X528Y3329D02*
X543Y3329D01*
X798Y3329D02*
X819Y3329D01*
X528Y3328D02*
X543Y3328D01*
X799Y3328D02*
X820Y3328D01*
X528Y3327D02*
X543Y3327D01*
X800Y3327D02*
X821Y3327D01*
X528Y3326D02*
X543Y3326D01*
X801Y3326D02*
X822Y3326D01*
X528Y3325D02*
X543Y3325D01*
X802Y3325D02*
X822Y3325D01*
X529Y3324D02*
X544Y3324D01*
X803Y3324D02*
X823Y3324D01*
X529Y3323D02*
X544Y3323D01*
X804Y3323D02*
X824Y3323D01*
X529Y3322D02*
X544Y3322D01*
X805Y3322D02*
X846Y3322D01*
X529Y3321D02*
X544Y3321D01*
X805Y3321D02*
X853Y3321D01*
X529Y3320D02*
X544Y3320D01*
X806Y3320D02*
X858Y3320D01*
X529Y3319D02*
X544Y3319D01*
X807Y3319D02*
X863Y3319D01*
X529Y3318D02*
X544Y3318D01*
X808Y3318D02*
X867Y3318D01*
X529Y3317D02*
X544Y3317D01*
X809Y3317D02*
X870Y3317D01*
X529Y3316D02*
X544Y3316D01*
X810Y3316D02*
X873Y3316D01*
X529Y3315D02*
X544Y3315D01*
X811Y3315D02*
X876Y3315D01*
X529Y3314D02*
X544Y3314D01*
X812Y3314D02*
X879Y3314D01*
X529Y3313D02*
X544Y3313D01*
X813Y3313D02*
X881Y3313D01*
X529Y3312D02*
X544Y3312D01*
X814Y3312D02*
X884Y3312D01*
X529Y3311D02*
X544Y3311D01*
X814Y3311D02*
X886Y3311D01*
X529Y3310D02*
X544Y3310D01*
X815Y3310D02*
X888Y3310D01*
X529Y3309D02*
X544Y3309D01*
X816Y3309D02*
X891Y3309D01*
X529Y3308D02*
X544Y3308D01*
X817Y3308D02*
X893Y3308D01*
X529Y3307D02*
X544Y3307D01*
X819Y3307D02*
X895Y3307D01*
X529Y3306D02*
X544Y3306D01*
X847Y3306D02*
X897Y3306D01*
X529Y3305D02*
X544Y3305D01*
X853Y3305D02*
X899Y3305D01*
X529Y3304D02*
X544Y3304D01*
X858Y3304D02*
X900Y3304D01*
X529Y3303D02*
X544Y3303D01*
X862Y3303D02*
X902Y3303D01*
X529Y3302D02*
X544Y3302D01*
X865Y3302D02*
X904Y3302D01*
X529Y3301D02*
X544Y3301D01*
X868Y3301D02*
X906Y3301D01*
X529Y3300D02*
X544Y3300D01*
X871Y3300D02*
X907Y3300D01*
X529Y3299D02*
X544Y3299D01*
X874Y3299D02*
X909Y3299D01*
X530Y3298D02*
X545Y3298D01*
X877Y3298D02*
X911Y3298D01*
X530Y3297D02*
X545Y3297D01*
X879Y3297D02*
X912Y3297D01*
X530Y3296D02*
X545Y3296D01*
X882Y3296D02*
X914Y3296D01*
X530Y3295D02*
X545Y3295D01*
X884Y3295D02*
X915Y3295D01*
X530Y3294D02*
X545Y3294D01*
X886Y3294D02*
X917Y3294D01*
X530Y3293D02*
X545Y3293D01*
X888Y3293D02*
X918Y3293D01*
X530Y3292D02*
X545Y3292D01*
X890Y3292D02*
X920Y3292D01*
X530Y3291D02*
X545Y3291D01*
X892Y3291D02*
X921Y3291D01*
X530Y3290D02*
X545Y3290D01*
X894Y3290D02*
X922Y3290D01*
X530Y3289D02*
X545Y3289D01*
X896Y3289D02*
X924Y3289D01*
X530Y3288D02*
X545Y3288D01*
X898Y3288D02*
X925Y3288D01*
X530Y3287D02*
X545Y3287D01*
X899Y3287D02*
X926Y3287D01*
X530Y3286D02*
X545Y3286D01*
X901Y3286D02*
X928Y3286D01*
X530Y3285D02*
X545Y3285D01*
X903Y3285D02*
X929Y3285D01*
X530Y3284D02*
X545Y3284D01*
X904Y3284D02*
X930Y3284D01*
X530Y3283D02*
X545Y3283D01*
X906Y3283D02*
X931Y3283D01*
X530Y3282D02*
X545Y3282D01*
X907Y3282D02*
X933Y3282D01*
X530Y3281D02*
X545Y3281D01*
X909Y3281D02*
X934Y3281D01*
X530Y3280D02*
X545Y3280D01*
X910Y3280D02*
X935Y3280D01*
X530Y3279D02*
X545Y3279D01*
X912Y3279D02*
X936Y3279D01*
X530Y3278D02*
X545Y3278D01*
X913Y3278D02*
X937Y3278D01*
X531Y3277D02*
X546Y3277D01*
X914Y3277D02*
X939Y3277D01*
X531Y3276D02*
X546Y3276D01*
X916Y3276D02*
X940Y3276D01*
X531Y3275D02*
X546Y3275D01*
X917Y3275D02*
X941Y3275D01*
X531Y3274D02*
X546Y3274D01*
X918Y3274D02*
X942Y3274D01*
X531Y3273D02*
X546Y3273D01*
X920Y3273D02*
X943Y3273D01*
X531Y3272D02*
X546Y3272D01*
X921Y3272D02*
X944Y3272D01*
X531Y3271D02*
X546Y3271D01*
X922Y3271D02*
X945Y3271D01*
X531Y3270D02*
X546Y3270D01*
X923Y3270D02*
X946Y3270D01*
X531Y3269D02*
X546Y3269D01*
X925Y3269D02*
X947Y3269D01*
X531Y3268D02*
X546Y3268D01*
X926Y3268D02*
X948Y3268D01*
X531Y3267D02*
X546Y3267D01*
X927Y3267D02*
X949Y3267D01*
X531Y3266D02*
X546Y3266D01*
X928Y3266D02*
X950Y3266D01*
X531Y3265D02*
X546Y3265D01*
X929Y3265D02*
X951Y3265D01*
X531Y3264D02*
X546Y3264D01*
X930Y3264D02*
X952Y3264D01*
X531Y3263D02*
X546Y3263D01*
X932Y3263D02*
X953Y3263D01*
X531Y3262D02*
X546Y3262D01*
X933Y3262D02*
X954Y3262D01*
X531Y3261D02*
X546Y3261D01*
X934Y3261D02*
X955Y3261D01*
X531Y3260D02*
X546Y3260D01*
X935Y3260D02*
X956Y3260D01*
X531Y3259D02*
X546Y3259D01*
X936Y3259D02*
X957Y3259D01*
X531Y3258D02*
X547Y3258D01*
X937Y3258D02*
X958Y3258D01*
X532Y3257D02*
X547Y3257D01*
X938Y3257D02*
X959Y3257D01*
X532Y3256D02*
X547Y3256D01*
X939Y3256D02*
X960Y3256D01*
X532Y3255D02*
X547Y3255D01*
X940Y3255D02*
X961Y3255D01*
X532Y3254D02*
X547Y3254D01*
X941Y3254D02*
X962Y3254D01*
X532Y3253D02*
X547Y3253D01*
X942Y3253D02*
X963Y3253D01*
X532Y3252D02*
X547Y3252D01*
X943Y3252D02*
X963Y3252D01*
X532Y3251D02*
X547Y3251D01*
X944Y3251D02*
X964Y3251D01*
X532Y3250D02*
X547Y3250D01*
X945Y3250D02*
X965Y3250D01*
X532Y3249D02*
X547Y3249D01*
X946Y3249D02*
X966Y3249D01*
X532Y3248D02*
X547Y3248D01*
X947Y3248D02*
X967Y3248D01*
X532Y3247D02*
X547Y3247D01*
X948Y3247D02*
X968Y3247D01*
X532Y3246D02*
X547Y3246D01*
X948Y3246D02*
X969Y3246D01*
X532Y3245D02*
X547Y3245D01*
X949Y3245D02*
X969Y3245D01*
X532Y3244D02*
X547Y3244D01*
X950Y3244D02*
X970Y3244D01*
X532Y3243D02*
X547Y3243D01*
X951Y3243D02*
X971Y3243D01*
X532Y3242D02*
X547Y3242D01*
X952Y3242D02*
X972Y3242D01*
X532Y3241D02*
X548Y3241D01*
X953Y3241D02*
X973Y3241D01*
X533Y3240D02*
X548Y3240D01*
X954Y3240D02*
X973Y3240D01*
X533Y3239D02*
X548Y3239D01*
X955Y3239D02*
X974Y3239D01*
X533Y3238D02*
X548Y3238D01*
X955Y3238D02*
X975Y3238D01*
X533Y3237D02*
X548Y3237D01*
X956Y3237D02*
X976Y3237D01*
X533Y3236D02*
X548Y3236D01*
X957Y3236D02*
X977Y3236D01*
X533Y3235D02*
X548Y3235D01*
X958Y3235D02*
X977Y3235D01*
X533Y3234D02*
X548Y3234D01*
X959Y3234D02*
X978Y3234D01*
X533Y3233D02*
X548Y3233D01*
X960Y3233D02*
X979Y3233D01*
X533Y3232D02*
X548Y3232D01*
X960Y3232D02*
X980Y3232D01*
X533Y3231D02*
X548Y3231D01*
X961Y3231D02*
X980Y3231D01*
X533Y3230D02*
X548Y3230D01*
X962Y3230D02*
X981Y3230D01*
X533Y3229D02*
X548Y3229D01*
X963Y3229D02*
X982Y3229D01*
X533Y3228D02*
X548Y3228D01*
X964Y3228D02*
X982Y3228D01*
X533Y3227D02*
X548Y3227D01*
X964Y3227D02*
X983Y3227D01*
X533Y3226D02*
X548Y3226D01*
X965Y3226D02*
X984Y3226D01*
X533Y3225D02*
X548Y3225D01*
X966Y3225D02*
X985Y3225D01*
X533Y3224D02*
X549Y3224D01*
X967Y3224D02*
X985Y3224D01*
X534Y3223D02*
X549Y3223D01*
X967Y3223D02*
X986Y3223D01*
X534Y3222D02*
X549Y3222D01*
X968Y3222D02*
X987Y3222D01*
X534Y3221D02*
X549Y3221D01*
X969Y3221D02*
X987Y3221D01*
X534Y3220D02*
X549Y3220D01*
X970Y3220D02*
X988Y3220D01*
X534Y3219D02*
X549Y3219D01*
X970Y3219D02*
X989Y3219D01*
X534Y3218D02*
X549Y3218D01*
X971Y3218D02*
X989Y3218D01*
X534Y3217D02*
X549Y3217D01*
X972Y3217D02*
X990Y3217D01*
X534Y3216D02*
X549Y3216D01*
X972Y3216D02*
X991Y3216D01*
X534Y3215D02*
X549Y3215D01*
X973Y3215D02*
X991Y3215D01*
X534Y3214D02*
X549Y3214D01*
X974Y3214D02*
X992Y3214D01*
X534Y3213D02*
X549Y3213D01*
X975Y3213D02*
X993Y3213D01*
X534Y3212D02*
X549Y3212D01*
X975Y3212D02*
X993Y3212D01*
X534Y3211D02*
X549Y3211D01*
X976Y3211D02*
X994Y3211D01*
X534Y3210D02*
X549Y3210D01*
X623Y3210D02*
X626Y3210D01*
X977Y3210D02*
X995Y3210D01*
X534Y3209D02*
X549Y3209D01*
X621Y3209D02*
X628Y3209D01*
X977Y3209D02*
X995Y3209D01*
X534Y3208D02*
X549Y3208D01*
X619Y3208D02*
X630Y3208D01*
X978Y3208D02*
X996Y3208D01*
X534Y3207D02*
X550Y3207D01*
X618Y3207D02*
X631Y3207D01*
X979Y3207D02*
X997Y3207D01*
X535Y3206D02*
X550Y3206D01*
X618Y3206D02*
X632Y3206D01*
X979Y3206D02*
X997Y3206D01*
X78Y3205D02*
X80Y3205D01*
X535Y3205D02*
X550Y3205D01*
X617Y3205D02*
X633Y3205D01*
X980Y3205D02*
X998Y3205D01*
X75Y3204D02*
X82Y3204D01*
X535Y3204D02*
X550Y3204D01*
X617Y3204D02*
X633Y3204D01*
X981Y3204D02*
X998Y3204D01*
X74Y3203D02*
X84Y3203D01*
X535Y3203D02*
X550Y3203D01*
X617Y3203D02*
X634Y3203D01*
X981Y3203D02*
X999Y3203D01*
X73Y3202D02*
X85Y3202D01*
X535Y3202D02*
X550Y3202D01*
X617Y3202D02*
X635Y3202D01*
X982Y3202D02*
X1000Y3202D01*
X73Y3201D02*
X86Y3201D01*
X535Y3201D02*
X550Y3201D01*
X617Y3201D02*
X636Y3201D01*
X983Y3201D02*
X1000Y3201D01*
X72Y3200D02*
X87Y3200D01*
X535Y3200D02*
X550Y3200D01*
X617Y3200D02*
X637Y3200D01*
X983Y3200D02*
X1001Y3200D01*
X72Y3199D02*
X89Y3199D01*
X535Y3199D02*
X550Y3199D01*
X618Y3199D02*
X638Y3199D01*
X984Y3199D02*
X1002Y3199D01*
X72Y3198D02*
X90Y3198D01*
X535Y3198D02*
X550Y3198D01*
X618Y3198D02*
X639Y3198D01*
X984Y3198D02*
X1002Y3198D01*
X72Y3197D02*
X91Y3197D01*
X535Y3197D02*
X550Y3197D01*
X619Y3197D02*
X641Y3197D01*
X985Y3197D02*
X1003Y3197D01*
X72Y3196D02*
X92Y3196D01*
X535Y3196D02*
X550Y3196D01*
X620Y3196D02*
X642Y3196D01*
X986Y3196D02*
X1003Y3196D01*
X72Y3195D02*
X93Y3195D01*
X535Y3195D02*
X550Y3195D01*
X621Y3195D02*
X643Y3195D01*
X986Y3195D02*
X1004Y3195D01*
X72Y3194D02*
X94Y3194D01*
X535Y3194D02*
X550Y3194D01*
X622Y3194D02*
X644Y3194D01*
X987Y3194D02*
X1004Y3194D01*
X73Y3193D02*
X95Y3193D01*
X535Y3193D02*
X550Y3193D01*
X623Y3193D02*
X645Y3193D01*
X987Y3193D02*
X1005Y3193D01*
X73Y3192D02*
X96Y3192D01*
X535Y3192D02*
X550Y3192D01*
X624Y3192D02*
X646Y3192D01*
X988Y3192D02*
X1006Y3192D01*
X74Y3191D02*
X97Y3191D01*
X535Y3191D02*
X551Y3191D01*
X625Y3191D02*
X647Y3191D01*
X989Y3191D02*
X1006Y3191D01*
X75Y3190D02*
X98Y3190D01*
X536Y3190D02*
X551Y3190D01*
X626Y3190D02*
X648Y3190D01*
X989Y3190D02*
X1007Y3190D01*
X77Y3189D02*
X99Y3189D01*
X536Y3189D02*
X551Y3189D01*
X627Y3189D02*
X650Y3189D01*
X990Y3189D02*
X1007Y3189D01*
X78Y3188D02*
X100Y3188D01*
X536Y3188D02*
X551Y3188D01*
X628Y3188D02*
X651Y3188D01*
X990Y3188D02*
X1008Y3188D01*
X79Y3187D02*
X101Y3187D01*
X536Y3187D02*
X551Y3187D01*
X629Y3187D02*
X652Y3187D01*
X991Y3187D02*
X1008Y3187D01*
X80Y3186D02*
X102Y3186D01*
X536Y3186D02*
X551Y3186D01*
X630Y3186D02*
X653Y3186D01*
X992Y3186D02*
X1009Y3186D01*
X81Y3185D02*
X103Y3185D01*
X536Y3185D02*
X551Y3185D01*
X631Y3185D02*
X655Y3185D01*
X992Y3185D02*
X1010Y3185D01*
X82Y3184D02*
X104Y3184D01*
X536Y3184D02*
X551Y3184D01*
X632Y3184D02*
X656Y3184D01*
X993Y3184D02*
X1010Y3184D01*
X83Y3183D02*
X105Y3183D01*
X536Y3183D02*
X551Y3183D01*
X633Y3183D02*
X657Y3183D01*
X993Y3183D02*
X1011Y3183D01*
X84Y3182D02*
X106Y3182D01*
X536Y3182D02*
X551Y3182D01*
X634Y3182D02*
X658Y3182D01*
X994Y3182D02*
X1011Y3182D01*
X86Y3181D02*
X107Y3181D01*
X536Y3181D02*
X551Y3181D01*
X635Y3181D02*
X660Y3181D01*
X995Y3181D02*
X1012Y3181D01*
X87Y3180D02*
X108Y3180D01*
X536Y3180D02*
X551Y3180D01*
X637Y3180D02*
X661Y3180D01*
X995Y3180D02*
X1012Y3180D01*
X88Y3179D02*
X109Y3179D01*
X536Y3179D02*
X551Y3179D01*
X638Y3179D02*
X663Y3179D01*
X996Y3179D02*
X1013Y3179D01*
X89Y3178D02*
X110Y3178D01*
X536Y3178D02*
X551Y3178D01*
X639Y3178D02*
X664Y3178D01*
X996Y3178D02*
X1013Y3178D01*
X90Y3177D02*
X111Y3177D01*
X536Y3177D02*
X551Y3177D01*
X640Y3177D02*
X666Y3177D01*
X997Y3177D02*
X1014Y3177D01*
X91Y3176D02*
X112Y3176D01*
X536Y3176D02*
X551Y3176D01*
X641Y3176D02*
X667Y3176D01*
X997Y3176D02*
X1014Y3176D01*
X92Y3175D02*
X113Y3175D01*
X536Y3175D02*
X552Y3175D01*
X642Y3175D02*
X669Y3175D01*
X998Y3175D02*
X1015Y3175D01*
X93Y3174D02*
X113Y3174D01*
X537Y3174D02*
X552Y3174D01*
X644Y3174D02*
X670Y3174D01*
X998Y3174D02*
X1015Y3174D01*
X94Y3173D02*
X114Y3173D01*
X537Y3173D02*
X552Y3173D01*
X645Y3173D02*
X672Y3173D01*
X999Y3173D02*
X1016Y3173D01*
X94Y3172D02*
X115Y3172D01*
X537Y3172D02*
X552Y3172D01*
X646Y3172D02*
X674Y3172D01*
X999Y3172D02*
X1017Y3172D01*
X95Y3171D02*
X116Y3171D01*
X537Y3171D02*
X552Y3171D01*
X648Y3171D02*
X675Y3171D01*
X1000Y3171D02*
X1017Y3171D01*
X96Y3170D02*
X117Y3170D01*
X537Y3170D02*
X552Y3170D01*
X649Y3170D02*
X677Y3170D01*
X1001Y3170D02*
X1018Y3170D01*
X97Y3169D02*
X118Y3169D01*
X537Y3169D02*
X552Y3169D01*
X650Y3169D02*
X679Y3169D01*
X1001Y3169D02*
X1018Y3169D01*
X98Y3168D02*
X118Y3168D01*
X537Y3168D02*
X552Y3168D01*
X652Y3168D02*
X681Y3168D01*
X1002Y3168D02*
X1019Y3168D01*
X99Y3167D02*
X119Y3167D01*
X537Y3167D02*
X552Y3167D01*
X653Y3167D02*
X683Y3167D01*
X1002Y3167D02*
X1019Y3167D01*
X100Y3166D02*
X120Y3166D01*
X537Y3166D02*
X552Y3166D01*
X655Y3166D02*
X685Y3166D01*
X1003Y3166D02*
X1020Y3166D01*
X101Y3165D02*
X121Y3165D01*
X537Y3165D02*
X552Y3165D01*
X656Y3165D02*
X687Y3165D01*
X1003Y3165D02*
X1020Y3165D01*
X102Y3164D02*
X122Y3164D01*
X537Y3164D02*
X552Y3164D01*
X658Y3164D02*
X689Y3164D01*
X1004Y3164D02*
X1021Y3164D01*
X103Y3163D02*
X123Y3163D01*
X537Y3163D02*
X552Y3163D01*
X659Y3163D02*
X691Y3163D01*
X1004Y3163D02*
X1021Y3163D01*
X104Y3162D02*
X123Y3162D01*
X537Y3162D02*
X552Y3162D01*
X661Y3162D02*
X694Y3162D01*
X1005Y3162D02*
X1022Y3162D01*
X105Y3161D02*
X124Y3161D01*
X537Y3161D02*
X552Y3161D01*
X662Y3161D02*
X696Y3161D01*
X1005Y3161D02*
X1022Y3161D01*
X105Y3160D02*
X125Y3160D01*
X537Y3160D02*
X552Y3160D01*
X664Y3160D02*
X699Y3160D01*
X1006Y3160D02*
X1023Y3160D01*
X106Y3159D02*
X126Y3159D01*
X537Y3159D02*
X553Y3159D01*
X666Y3159D02*
X702Y3159D01*
X1006Y3159D02*
X1023Y3159D01*
X107Y3158D02*
X126Y3158D01*
X538Y3158D02*
X553Y3158D01*
X667Y3158D02*
X705Y3158D01*
X1007Y3158D02*
X1023Y3158D01*
X108Y3157D02*
X127Y3157D01*
X538Y3157D02*
X553Y3157D01*
X669Y3157D02*
X708Y3157D01*
X1007Y3157D02*
X1024Y3157D01*
X109Y3156D02*
X128Y3156D01*
X538Y3156D02*
X553Y3156D01*
X671Y3156D02*
X711Y3156D01*
X1008Y3156D02*
X1024Y3156D01*
X109Y3155D02*
X129Y3155D01*
X538Y3155D02*
X553Y3155D01*
X673Y3155D02*
X715Y3155D01*
X787Y3155D02*
X793Y3155D01*
X1008Y3155D02*
X1025Y3155D01*
X110Y3154D02*
X129Y3154D01*
X538Y3154D02*
X553Y3154D01*
X675Y3154D02*
X719Y3154D01*
X785Y3154D02*
X794Y3154D01*
X1009Y3154D02*
X1025Y3154D01*
X111Y3153D02*
X130Y3153D01*
X538Y3153D02*
X553Y3153D01*
X677Y3153D02*
X724Y3153D01*
X784Y3153D02*
X796Y3153D01*
X1009Y3153D02*
X1026Y3153D01*
X112Y3152D02*
X131Y3152D01*
X538Y3152D02*
X553Y3152D01*
X679Y3152D02*
X729Y3152D01*
X779Y3152D02*
X796Y3152D01*
X1010Y3152D02*
X1026Y3152D01*
X113Y3151D02*
X131Y3151D01*
X538Y3151D02*
X553Y3151D01*
X681Y3151D02*
X736Y3151D01*
X773Y3151D02*
X797Y3151D01*
X1010Y3151D02*
X1027Y3151D01*
X113Y3150D02*
X132Y3150D01*
X538Y3150D02*
X553Y3150D01*
X683Y3150D02*
X751Y3150D01*
X758Y3150D02*
X797Y3150D01*
X1011Y3150D02*
X1027Y3150D01*
X114Y3149D02*
X133Y3149D01*
X538Y3149D02*
X553Y3149D01*
X685Y3149D02*
X798Y3149D01*
X1011Y3149D02*
X1028Y3149D01*
X115Y3148D02*
X134Y3148D01*
X538Y3148D02*
X553Y3148D01*
X687Y3148D02*
X798Y3148D01*
X1012Y3148D02*
X1028Y3148D01*
X116Y3147D02*
X134Y3147D01*
X538Y3147D02*
X553Y3147D01*
X690Y3147D02*
X798Y3147D01*
X1012Y3147D02*
X1029Y3147D01*
X116Y3146D02*
X135Y3146D01*
X538Y3146D02*
X553Y3146D01*
X692Y3146D02*
X798Y3146D01*
X1012Y3146D02*
X1029Y3146D01*
X117Y3145D02*
X136Y3145D01*
X538Y3145D02*
X553Y3145D01*
X695Y3145D02*
X798Y3145D01*
X1013Y3145D02*
X1030Y3145D01*
X118Y3144D02*
X136Y3144D01*
X538Y3144D02*
X553Y3144D01*
X698Y3144D02*
X797Y3144D01*
X1013Y3144D02*
X1030Y3144D01*
X119Y3143D02*
X137Y3143D01*
X538Y3143D02*
X553Y3143D01*
X701Y3143D02*
X797Y3143D01*
X1014Y3143D02*
X1030Y3143D01*
X119Y3142D02*
X137Y3142D01*
X539Y3142D02*
X554Y3142D01*
X704Y3142D02*
X796Y3142D01*
X1014Y3142D02*
X1031Y3142D01*
X120Y3141D02*
X138Y3141D01*
X539Y3141D02*
X554Y3141D01*
X707Y3141D02*
X795Y3141D01*
X1015Y3141D02*
X1031Y3141D01*
X121Y3140D02*
X139Y3140D01*
X539Y3140D02*
X554Y3140D01*
X711Y3140D02*
X793Y3140D01*
X1015Y3140D02*
X1032Y3140D01*
X121Y3139D02*
X139Y3139D01*
X539Y3139D02*
X554Y3139D01*
X714Y3139D02*
X791Y3139D01*
X1016Y3139D02*
X1032Y3139D01*
X122Y3138D02*
X140Y3138D01*
X539Y3138D02*
X554Y3138D01*
X719Y3138D02*
X788Y3138D01*
X1016Y3138D02*
X1033Y3138D01*
X123Y3137D02*
X141Y3137D01*
X539Y3137D02*
X554Y3137D01*
X724Y3137D02*
X784Y3137D01*
X1017Y3137D02*
X1033Y3137D01*
X123Y3136D02*
X141Y3136D01*
X539Y3136D02*
X554Y3136D01*
X729Y3136D02*
X780Y3136D01*
X1017Y3136D02*
X1033Y3136D01*
X124Y3135D02*
X142Y3135D01*
X539Y3135D02*
X554Y3135D01*
X737Y3135D02*
X773Y3135D01*
X1018Y3135D02*
X1034Y3135D01*
X125Y3134D02*
X142Y3134D01*
X539Y3134D02*
X554Y3134D01*
X751Y3134D02*
X756Y3134D01*
X1018Y3134D02*
X1034Y3134D01*
X125Y3133D02*
X143Y3133D01*
X539Y3133D02*
X554Y3133D01*
X1018Y3133D02*
X1035Y3133D01*
X126Y3132D02*
X144Y3132D01*
X539Y3132D02*
X554Y3132D01*
X1019Y3132D02*
X1035Y3132D01*
X127Y3131D02*
X144Y3131D01*
X539Y3131D02*
X554Y3131D01*
X1019Y3131D02*
X1036Y3131D01*
X127Y3130D02*
X145Y3130D01*
X539Y3130D02*
X554Y3130D01*
X1020Y3130D02*
X1036Y3130D01*
X128Y3129D02*
X145Y3129D01*
X539Y3129D02*
X554Y3129D01*
X1020Y3129D02*
X1036Y3129D01*
X128Y3128D02*
X146Y3128D01*
X539Y3128D02*
X554Y3128D01*
X1021Y3128D02*
X1037Y3128D01*
X129Y3127D02*
X146Y3127D01*
X539Y3127D02*
X554Y3127D01*
X1021Y3127D02*
X1037Y3127D01*
X130Y3126D02*
X147Y3126D01*
X539Y3126D02*
X555Y3126D01*
X1021Y3126D02*
X1038Y3126D01*
X130Y3125D02*
X147Y3125D01*
X540Y3125D02*
X555Y3125D01*
X1022Y3125D02*
X1038Y3125D01*
X131Y3124D02*
X148Y3124D01*
X540Y3124D02*
X555Y3124D01*
X1022Y3124D02*
X1039Y3124D01*
X131Y3123D02*
X148Y3123D01*
X540Y3123D02*
X555Y3123D01*
X1023Y3123D02*
X1039Y3123D01*
X132Y3122D02*
X149Y3122D01*
X540Y3122D02*
X555Y3122D01*
X1023Y3122D02*
X1039Y3122D01*
X132Y3121D02*
X149Y3121D01*
X540Y3121D02*
X555Y3121D01*
X1024Y3121D02*
X1040Y3121D01*
X133Y3120D02*
X150Y3120D01*
X540Y3120D02*
X555Y3120D01*
X1024Y3120D02*
X1040Y3120D01*
X133Y3119D02*
X150Y3119D01*
X540Y3119D02*
X555Y3119D01*
X1024Y3119D02*
X1041Y3119D01*
X134Y3118D02*
X151Y3118D01*
X540Y3118D02*
X555Y3118D01*
X1025Y3118D02*
X1041Y3118D01*
X134Y3117D02*
X151Y3117D01*
X540Y3117D02*
X555Y3117D01*
X1025Y3117D02*
X1041Y3117D01*
X135Y3116D02*
X152Y3116D01*
X540Y3116D02*
X555Y3116D01*
X1026Y3116D02*
X1042Y3116D01*
X136Y3115D02*
X152Y3115D01*
X540Y3115D02*
X555Y3115D01*
X1026Y3115D02*
X1042Y3115D01*
X136Y3114D02*
X153Y3114D01*
X540Y3114D02*
X555Y3114D01*
X1026Y3114D02*
X1043Y3114D01*
X137Y3113D02*
X153Y3113D01*
X540Y3113D02*
X555Y3113D01*
X1027Y3113D02*
X1043Y3113D01*
X137Y3112D02*
X154Y3112D01*
X540Y3112D02*
X555Y3112D01*
X1027Y3112D02*
X1043Y3112D01*
X138Y3111D02*
X154Y3111D01*
X540Y3111D02*
X555Y3111D01*
X1028Y3111D02*
X1044Y3111D01*
X138Y3110D02*
X155Y3110D01*
X540Y3110D02*
X556Y3110D01*
X1028Y3110D02*
X1044Y3110D01*
X138Y3109D02*
X155Y3109D01*
X541Y3109D02*
X556Y3109D01*
X1028Y3109D02*
X1044Y3109D01*
X139Y3108D02*
X155Y3108D01*
X541Y3108D02*
X556Y3108D01*
X1029Y3108D02*
X1045Y3108D01*
X139Y3107D02*
X156Y3107D01*
X541Y3107D02*
X556Y3107D01*
X1029Y3107D02*
X1045Y3107D01*
X140Y3106D02*
X156Y3106D01*
X541Y3106D02*
X556Y3106D01*
X1030Y3106D02*
X1046Y3106D01*
X140Y3105D02*
X157Y3105D01*
X541Y3105D02*
X556Y3105D01*
X1030Y3105D02*
X1046Y3105D01*
X141Y3104D02*
X157Y3104D01*
X541Y3104D02*
X556Y3104D01*
X1030Y3104D02*
X1046Y3104D01*
X141Y3103D02*
X157Y3103D01*
X541Y3103D02*
X556Y3103D01*
X1031Y3103D02*
X1047Y3103D01*
X142Y3102D02*
X158Y3102D01*
X541Y3102D02*
X556Y3102D01*
X1031Y3102D02*
X1047Y3102D01*
X142Y3101D02*
X158Y3101D01*
X541Y3101D02*
X556Y3101D01*
X1031Y3101D02*
X1047Y3101D01*
X142Y3100D02*
X158Y3100D01*
X541Y3100D02*
X556Y3100D01*
X1032Y3100D02*
X1048Y3100D01*
X143Y3099D02*
X159Y3099D01*
X541Y3099D02*
X556Y3099D01*
X1032Y3099D02*
X1048Y3099D01*
X143Y3098D02*
X159Y3098D01*
X541Y3098D02*
X556Y3098D01*
X1033Y3098D02*
X1049Y3098D01*
X143Y3097D02*
X160Y3097D01*
X541Y3097D02*
X556Y3097D01*
X1033Y3097D02*
X1049Y3097D01*
X144Y3096D02*
X160Y3096D01*
X541Y3096D02*
X556Y3096D01*
X1033Y3096D02*
X1049Y3096D01*
X144Y3095D02*
X160Y3095D01*
X541Y3095D02*
X556Y3095D01*
X1034Y3095D02*
X1050Y3095D01*
X145Y3094D02*
X160Y3094D01*
X541Y3094D02*
X556Y3094D01*
X1034Y3094D02*
X1050Y3094D01*
X145Y3093D02*
X161Y3093D01*
X542Y3093D02*
X557Y3093D01*
X1034Y3093D02*
X1050Y3093D01*
X145Y3092D02*
X161Y3092D01*
X542Y3092D02*
X557Y3092D01*
X1035Y3092D02*
X1051Y3092D01*
X146Y3091D02*
X161Y3091D01*
X542Y3091D02*
X557Y3091D01*
X1035Y3091D02*
X1051Y3091D01*
X146Y3090D02*
X162Y3090D01*
X542Y3090D02*
X557Y3090D01*
X1036Y3090D02*
X1051Y3090D01*
X146Y3089D02*
X162Y3089D01*
X542Y3089D02*
X557Y3089D01*
X1036Y3089D02*
X1052Y3089D01*
X147Y3088D02*
X162Y3088D01*
X542Y3088D02*
X557Y3088D01*
X1036Y3088D02*
X1052Y3088D01*
X147Y3087D02*
X163Y3087D01*
X542Y3087D02*
X557Y3087D01*
X1037Y3087D02*
X1053Y3087D01*
X147Y3086D02*
X163Y3086D01*
X542Y3086D02*
X557Y3086D01*
X1037Y3086D02*
X1053Y3086D01*
X148Y3085D02*
X163Y3085D01*
X542Y3085D02*
X557Y3085D01*
X1037Y3085D02*
X1053Y3085D01*
X148Y3084D02*
X163Y3084D01*
X542Y3084D02*
X557Y3084D01*
X1038Y3084D02*
X1054Y3084D01*
X148Y3083D02*
X164Y3083D01*
X542Y3083D02*
X557Y3083D01*
X1038Y3083D02*
X1054Y3083D01*
X149Y3082D02*
X164Y3082D01*
X542Y3082D02*
X557Y3082D01*
X1038Y3082D02*
X1054Y3082D01*
X149Y3081D02*
X164Y3081D01*
X542Y3081D02*
X557Y3081D01*
X1039Y3081D02*
X1055Y3081D01*
X149Y3080D02*
X164Y3080D01*
X542Y3080D02*
X557Y3080D01*
X1039Y3080D02*
X1055Y3080D01*
X149Y3079D02*
X165Y3079D01*
X542Y3079D02*
X557Y3079D01*
X1039Y3079D02*
X1055Y3079D01*
X149Y3078D02*
X165Y3078D01*
X542Y3078D02*
X557Y3078D01*
X1040Y3078D02*
X1056Y3078D01*
X150Y3077D02*
X165Y3077D01*
X542Y3077D02*
X558Y3077D01*
X1040Y3077D02*
X1056Y3077D01*
X150Y3076D02*
X165Y3076D01*
X543Y3076D02*
X558Y3076D01*
X1040Y3076D02*
X1056Y3076D01*
X150Y3075D02*
X165Y3075D01*
X543Y3075D02*
X558Y3075D01*
X1041Y3075D02*
X1057Y3075D01*
X150Y3074D02*
X166Y3074D01*
X543Y3074D02*
X558Y3074D01*
X1041Y3074D02*
X1057Y3074D01*
X151Y3073D02*
X166Y3073D01*
X543Y3073D02*
X558Y3073D01*
X1041Y3073D02*
X1057Y3073D01*
X151Y3072D02*
X166Y3072D01*
X543Y3072D02*
X558Y3072D01*
X1042Y3072D02*
X1058Y3072D01*
X151Y3071D02*
X166Y3071D01*
X543Y3071D02*
X558Y3071D01*
X1042Y3071D02*
X1058Y3071D01*
X151Y3070D02*
X166Y3070D01*
X543Y3070D02*
X558Y3070D01*
X1043Y3070D02*
X1058Y3070D01*
X152Y3069D02*
X167Y3069D01*
X543Y3069D02*
X558Y3069D01*
X1043Y3069D02*
X1059Y3069D01*
X152Y3068D02*
X167Y3068D01*
X543Y3068D02*
X558Y3068D01*
X1043Y3068D02*
X1059Y3068D01*
X152Y3067D02*
X167Y3067D01*
X543Y3067D02*
X558Y3067D01*
X1044Y3067D02*
X1059Y3067D01*
X152Y3066D02*
X167Y3066D01*
X543Y3066D02*
X558Y3066D01*
X1044Y3066D02*
X1060Y3066D01*
X152Y3065D02*
X167Y3065D01*
X543Y3065D02*
X558Y3065D01*
X1044Y3065D02*
X1060Y3065D01*
X152Y3064D02*
X167Y3064D01*
X543Y3064D02*
X558Y3064D01*
X1044Y3064D02*
X1060Y3064D01*
X152Y3063D02*
X167Y3063D01*
X543Y3063D02*
X558Y3063D01*
X1045Y3063D02*
X1060Y3063D01*
X153Y3062D02*
X168Y3062D01*
X543Y3062D02*
X558Y3062D01*
X1045Y3062D02*
X1061Y3062D01*
X153Y3061D02*
X168Y3061D01*
X543Y3061D02*
X558Y3061D01*
X1045Y3061D02*
X1061Y3061D01*
X153Y3060D02*
X168Y3060D01*
X543Y3060D02*
X558Y3060D01*
X1046Y3060D02*
X1061Y3060D01*
X153Y3059D02*
X168Y3059D01*
X543Y3059D02*
X559Y3059D01*
X1046Y3059D02*
X1062Y3059D01*
X153Y3058D02*
X168Y3058D01*
X544Y3058D02*
X559Y3058D01*
X1046Y3058D02*
X1062Y3058D01*
X153Y3057D02*
X168Y3057D01*
X544Y3057D02*
X559Y3057D01*
X1047Y3057D02*
X1062Y3057D01*
X153Y3056D02*
X168Y3056D01*
X544Y3056D02*
X559Y3056D01*
X1047Y3056D02*
X1063Y3056D01*
X153Y3055D02*
X168Y3055D01*
X544Y3055D02*
X559Y3055D01*
X1047Y3055D02*
X1063Y3055D01*
X153Y3054D02*
X168Y3054D01*
X544Y3054D02*
X559Y3054D01*
X1048Y3054D02*
X1063Y3054D01*
X154Y3053D02*
X168Y3053D01*
X544Y3053D02*
X559Y3053D01*
X1048Y3053D02*
X1064Y3053D01*
X154Y3052D02*
X168Y3052D01*
X544Y3052D02*
X559Y3052D01*
X1048Y3052D02*
X1064Y3052D01*
X154Y3051D02*
X168Y3051D01*
X544Y3051D02*
X559Y3051D01*
X1049Y3051D02*
X1064Y3051D01*
X154Y3050D02*
X169Y3050D01*
X544Y3050D02*
X559Y3050D01*
X1049Y3050D02*
X1065Y3050D01*
X154Y3049D02*
X169Y3049D01*
X544Y3049D02*
X559Y3049D01*
X1049Y3049D02*
X1065Y3049D01*
X154Y3048D02*
X169Y3048D01*
X544Y3048D02*
X559Y3048D01*
X1050Y3048D02*
X1065Y3048D01*
X154Y3047D02*
X169Y3047D01*
X544Y3047D02*
X559Y3047D01*
X1050Y3047D02*
X1065Y3047D01*
X154Y3046D02*
X169Y3046D01*
X544Y3046D02*
X559Y3046D01*
X1050Y3046D02*
X1066Y3046D01*
X154Y3045D02*
X169Y3045D01*
X544Y3045D02*
X559Y3045D01*
X1050Y3045D02*
X1066Y3045D01*
X154Y3044D02*
X169Y3044D01*
X544Y3044D02*
X559Y3044D01*
X1051Y3044D02*
X1066Y3044D01*
X154Y3043D02*
X169Y3043D01*
X544Y3043D02*
X559Y3043D01*
X1051Y3043D02*
X1067Y3043D01*
X154Y3042D02*
X169Y3042D01*
X544Y3042D02*
X559Y3042D01*
X1051Y3042D02*
X1067Y3042D01*
X154Y3041D02*
X169Y3041D01*
X544Y3041D02*
X560Y3041D01*
X1052Y3041D02*
X1067Y3041D01*
X154Y3040D02*
X169Y3040D01*
X545Y3040D02*
X560Y3040D01*
X1052Y3040D02*
X1067Y3040D01*
X154Y3039D02*
X169Y3039D01*
X545Y3039D02*
X560Y3039D01*
X1052Y3039D02*
X1068Y3039D01*
X154Y3038D02*
X169Y3038D01*
X545Y3038D02*
X560Y3038D01*
X1052Y3038D02*
X1068Y3038D01*
X154Y3037D02*
X169Y3037D01*
X545Y3037D02*
X560Y3037D01*
X1053Y3037D02*
X1068Y3037D01*
X154Y3036D02*
X169Y3036D01*
X545Y3036D02*
X560Y3036D01*
X1053Y3036D02*
X1069Y3036D01*
X154Y3035D02*
X168Y3035D01*
X545Y3035D02*
X560Y3035D01*
X1053Y3035D02*
X1069Y3035D01*
X153Y3034D02*
X168Y3034D01*
X545Y3034D02*
X560Y3034D01*
X1054Y3034D02*
X1069Y3034D01*
X153Y3033D02*
X168Y3033D01*
X545Y3033D02*
X560Y3033D01*
X1054Y3033D02*
X1070Y3033D01*
X153Y3032D02*
X168Y3032D01*
X545Y3032D02*
X560Y3032D01*
X1054Y3032D02*
X1070Y3032D01*
X153Y3031D02*
X168Y3031D01*
X545Y3031D02*
X560Y3031D01*
X1055Y3031D02*
X1070Y3031D01*
X153Y3030D02*
X168Y3030D01*
X545Y3030D02*
X560Y3030D01*
X1055Y3030D02*
X1070Y3030D01*
X153Y3029D02*
X168Y3029D01*
X545Y3029D02*
X560Y3029D01*
X1055Y3029D02*
X1071Y3029D01*
X153Y3028D02*
X168Y3028D01*
X545Y3028D02*
X560Y3028D01*
X1055Y3028D02*
X1071Y3028D01*
X153Y3027D02*
X168Y3027D01*
X545Y3027D02*
X560Y3027D01*
X1056Y3027D02*
X1071Y3027D01*
X153Y3026D02*
X168Y3026D01*
X545Y3026D02*
X560Y3026D01*
X1056Y3026D02*
X1071Y3026D01*
X152Y3025D02*
X168Y3025D01*
X545Y3025D02*
X560Y3025D01*
X1056Y3025D02*
X1072Y3025D01*
X152Y3024D02*
X167Y3024D01*
X545Y3024D02*
X560Y3024D01*
X1056Y3024D02*
X1072Y3024D01*
X152Y3023D02*
X167Y3023D01*
X545Y3023D02*
X561Y3023D01*
X612Y3023D02*
X618Y3023D01*
X1057Y3023D02*
X1072Y3023D01*
X152Y3022D02*
X167Y3022D01*
X546Y3022D02*
X561Y3022D01*
X610Y3022D02*
X620Y3022D01*
X1057Y3022D02*
X1073Y3022D01*
X152Y3021D02*
X167Y3021D01*
X546Y3021D02*
X561Y3021D01*
X609Y3021D02*
X621Y3021D01*
X1057Y3021D02*
X1073Y3021D01*
X152Y3020D02*
X167Y3020D01*
X546Y3020D02*
X561Y3020D01*
X609Y3020D02*
X621Y3020D01*
X1058Y3020D02*
X1073Y3020D01*
X151Y3019D02*
X167Y3019D01*
X546Y3019D02*
X561Y3019D01*
X608Y3019D02*
X622Y3019D01*
X1058Y3019D02*
X1073Y3019D01*
X151Y3018D02*
X167Y3018D01*
X546Y3018D02*
X561Y3018D01*
X608Y3018D02*
X622Y3018D01*
X1058Y3018D02*
X1074Y3018D01*
X151Y3017D02*
X166Y3017D01*
X546Y3017D02*
X561Y3017D01*
X608Y3017D02*
X623Y3017D01*
X1058Y3017D02*
X1074Y3017D01*
X151Y3016D02*
X166Y3016D01*
X546Y3016D02*
X561Y3016D01*
X608Y3016D02*
X623Y3016D01*
X1059Y3016D02*
X1074Y3016D01*
X151Y3015D02*
X166Y3015D01*
X546Y3015D02*
X561Y3015D01*
X608Y3015D02*
X624Y3015D01*
X1059Y3015D02*
X1074Y3015D01*
X150Y3014D02*
X166Y3014D01*
X546Y3014D02*
X561Y3014D01*
X608Y3014D02*
X624Y3014D01*
X1059Y3014D02*
X1075Y3014D01*
X150Y3013D02*
X166Y3013D01*
X546Y3013D02*
X561Y3013D01*
X608Y3013D02*
X625Y3013D01*
X1059Y3013D02*
X1075Y3013D01*
X150Y3012D02*
X165Y3012D01*
X546Y3012D02*
X561Y3012D01*
X608Y3012D02*
X625Y3012D01*
X1060Y3012D02*
X1075Y3012D01*
X150Y3011D02*
X165Y3011D01*
X546Y3011D02*
X561Y3011D01*
X609Y3011D02*
X626Y3011D01*
X1060Y3011D02*
X1076Y3011D01*
X150Y3010D02*
X165Y3010D01*
X546Y3010D02*
X561Y3010D01*
X609Y3010D02*
X626Y3010D01*
X1060Y3010D02*
X1076Y3010D01*
X149Y3009D02*
X165Y3009D01*
X546Y3009D02*
X561Y3009D01*
X610Y3009D02*
X627Y3009D01*
X1061Y3009D02*
X1076Y3009D01*
X149Y3008D02*
X165Y3008D01*
X546Y3008D02*
X561Y3008D01*
X610Y3008D02*
X627Y3008D01*
X1061Y3008D02*
X1076Y3008D01*
X149Y3007D02*
X164Y3007D01*
X546Y3007D02*
X561Y3007D01*
X611Y3007D02*
X628Y3007D01*
X1061Y3007D02*
X1077Y3007D01*
X148Y3006D02*
X164Y3006D01*
X546Y3006D02*
X561Y3006D01*
X611Y3006D02*
X628Y3006D01*
X1061Y3006D02*
X1077Y3006D01*
X148Y3005D02*
X164Y3005D01*
X546Y3005D02*
X562Y3005D01*
X612Y3005D02*
X629Y3005D01*
X1062Y3005D02*
X1077Y3005D01*
X148Y3004D02*
X163Y3004D01*
X547Y3004D02*
X562Y3004D01*
X612Y3004D02*
X630Y3004D01*
X1062Y3004D02*
X1077Y3004D01*
X148Y3003D02*
X163Y3003D01*
X547Y3003D02*
X562Y3003D01*
X613Y3003D02*
X630Y3003D01*
X1062Y3003D02*
X1078Y3003D01*
X147Y3002D02*
X163Y3002D01*
X547Y3002D02*
X562Y3002D01*
X613Y3002D02*
X631Y3002D01*
X1062Y3002D02*
X1078Y3002D01*
X147Y3001D02*
X163Y3001D01*
X547Y3001D02*
X562Y3001D01*
X614Y3001D02*
X631Y3001D01*
X1063Y3001D02*
X1078Y3001D01*
X147Y3000D02*
X162Y3000D01*
X547Y3000D02*
X562Y3000D01*
X615Y3000D02*
X632Y3000D01*
X1063Y3000D02*
X1078Y3000D01*
X146Y2999D02*
X162Y2999D01*
X547Y2999D02*
X562Y2999D01*
X615Y2999D02*
X632Y2999D01*
X1063Y2999D02*
X1079Y2999D01*
X146Y2998D02*
X162Y2998D01*
X547Y2998D02*
X562Y2998D01*
X616Y2998D02*
X633Y2998D01*
X1063Y2998D02*
X1079Y2998D01*
X146Y2997D02*
X161Y2997D01*
X547Y2997D02*
X562Y2997D01*
X616Y2997D02*
X634Y2997D01*
X1064Y2997D02*
X1079Y2997D01*
X145Y2996D02*
X161Y2996D01*
X547Y2996D02*
X562Y2996D01*
X617Y2996D02*
X634Y2996D01*
X1064Y2996D02*
X1079Y2996D01*
X145Y2995D02*
X161Y2995D01*
X547Y2995D02*
X562Y2995D01*
X617Y2995D02*
X635Y2995D01*
X1064Y2995D02*
X1080Y2995D01*
X144Y2994D02*
X160Y2994D01*
X547Y2994D02*
X562Y2994D01*
X618Y2994D02*
X635Y2994D01*
X1064Y2994D02*
X1080Y2994D01*
X144Y2993D02*
X160Y2993D01*
X547Y2993D02*
X562Y2993D01*
X618Y2993D02*
X636Y2993D01*
X1065Y2993D02*
X1080Y2993D01*
X144Y2992D02*
X160Y2992D01*
X547Y2992D02*
X562Y2992D01*
X619Y2992D02*
X637Y2992D01*
X1065Y2992D02*
X1080Y2992D01*
X143Y2991D02*
X159Y2991D01*
X547Y2991D02*
X562Y2991D01*
X620Y2991D02*
X637Y2991D01*
X1065Y2991D02*
X1081Y2991D01*
X143Y2990D02*
X159Y2990D01*
X547Y2990D02*
X562Y2990D01*
X620Y2990D02*
X638Y2990D01*
X1065Y2990D02*
X1081Y2990D01*
X142Y2989D02*
X159Y2989D01*
X547Y2989D02*
X562Y2989D01*
X621Y2989D02*
X639Y2989D01*
X1066Y2989D02*
X1081Y2989D01*
X142Y2988D02*
X158Y2988D01*
X547Y2988D02*
X562Y2988D01*
X621Y2988D02*
X639Y2988D01*
X1066Y2988D02*
X1081Y2988D01*
X142Y2987D02*
X158Y2987D01*
X547Y2987D02*
X562Y2987D01*
X622Y2987D02*
X640Y2987D01*
X1066Y2987D02*
X1081Y2987D01*
X141Y2986D02*
X157Y2986D01*
X547Y2986D02*
X562Y2986D01*
X623Y2986D02*
X641Y2986D01*
X1066Y2986D02*
X1082Y2986D01*
X141Y2985D02*
X157Y2985D01*
X547Y2985D02*
X562Y2985D01*
X623Y2985D02*
X641Y2985D01*
X1067Y2985D02*
X1082Y2985D01*
X140Y2984D02*
X157Y2984D01*
X547Y2984D02*
X563Y2984D01*
X624Y2984D02*
X642Y2984D01*
X1067Y2984D02*
X1082Y2984D01*
X140Y2983D02*
X156Y2983D01*
X548Y2983D02*
X563Y2983D01*
X625Y2983D02*
X643Y2983D01*
X1067Y2983D02*
X1082Y2983D01*
X139Y2982D02*
X156Y2982D01*
X548Y2982D02*
X563Y2982D01*
X625Y2982D02*
X643Y2982D01*
X1067Y2982D02*
X1083Y2982D01*
X139Y2981D02*
X155Y2981D01*
X548Y2981D02*
X563Y2981D01*
X626Y2981D02*
X644Y2981D01*
X1067Y2981D02*
X1083Y2981D01*
X138Y2980D02*
X155Y2980D01*
X548Y2980D02*
X563Y2980D01*
X626Y2980D02*
X645Y2980D01*
X1068Y2980D02*
X1083Y2980D01*
X138Y2979D02*
X154Y2979D01*
X548Y2979D02*
X563Y2979D01*
X627Y2979D02*
X646Y2979D01*
X1068Y2979D02*
X1083Y2979D01*
X137Y2978D02*
X154Y2978D01*
X548Y2978D02*
X563Y2978D01*
X628Y2978D02*
X646Y2978D01*
X1068Y2978D02*
X1084Y2978D01*
X137Y2977D02*
X154Y2977D01*
X548Y2977D02*
X563Y2977D01*
X628Y2977D02*
X647Y2977D01*
X1068Y2977D02*
X1084Y2977D01*
X136Y2976D02*
X153Y2976D01*
X548Y2976D02*
X563Y2976D01*
X629Y2976D02*
X648Y2976D01*
X1069Y2976D02*
X1084Y2976D01*
X136Y2975D02*
X153Y2975D01*
X548Y2975D02*
X563Y2975D01*
X630Y2975D02*
X649Y2975D01*
X1069Y2975D02*
X1084Y2975D01*
X135Y2974D02*
X152Y2974D01*
X548Y2974D02*
X563Y2974D01*
X631Y2974D02*
X649Y2974D01*
X1069Y2974D02*
X1084Y2974D01*
X135Y2973D02*
X152Y2973D01*
X548Y2973D02*
X563Y2973D01*
X631Y2973D02*
X650Y2973D01*
X1069Y2973D02*
X1085Y2973D01*
X134Y2972D02*
X151Y2972D01*
X548Y2972D02*
X563Y2972D01*
X632Y2972D02*
X651Y2972D01*
X1070Y2972D02*
X1085Y2972D01*
X134Y2971D02*
X151Y2971D01*
X548Y2971D02*
X563Y2971D01*
X633Y2971D02*
X652Y2971D01*
X1070Y2971D02*
X1085Y2971D01*
X133Y2970D02*
X150Y2970D01*
X548Y2970D02*
X563Y2970D01*
X633Y2970D02*
X652Y2970D01*
X1070Y2970D02*
X1085Y2970D01*
X132Y2969D02*
X150Y2969D01*
X548Y2969D02*
X563Y2969D01*
X634Y2969D02*
X653Y2969D01*
X1070Y2969D02*
X1086Y2969D01*
X132Y2968D02*
X149Y2968D01*
X548Y2968D02*
X563Y2968D01*
X635Y2968D02*
X654Y2968D01*
X1070Y2968D02*
X1086Y2968D01*
X131Y2967D02*
X148Y2967D01*
X548Y2967D02*
X563Y2967D01*
X636Y2967D02*
X655Y2967D01*
X1071Y2967D02*
X1086Y2967D01*
X131Y2966D02*
X148Y2966D01*
X548Y2966D02*
X563Y2966D01*
X636Y2966D02*
X656Y2966D01*
X1071Y2966D02*
X1086Y2966D01*
X130Y2965D02*
X147Y2965D01*
X548Y2965D02*
X563Y2965D01*
X637Y2965D02*
X656Y2965D01*
X1071Y2965D02*
X1086Y2965D01*
X129Y2964D02*
X147Y2964D01*
X548Y2964D02*
X563Y2964D01*
X638Y2964D02*
X657Y2964D01*
X1071Y2964D02*
X1087Y2964D01*
X129Y2963D02*
X146Y2963D01*
X548Y2963D02*
X564Y2963D01*
X639Y2963D02*
X658Y2963D01*
X1072Y2963D02*
X1087Y2963D01*
X128Y2962D02*
X146Y2962D01*
X549Y2962D02*
X564Y2962D01*
X639Y2962D02*
X659Y2962D01*
X1072Y2962D02*
X1087Y2962D01*
X127Y2961D02*
X145Y2961D01*
X549Y2961D02*
X564Y2961D01*
X640Y2961D02*
X660Y2961D01*
X1072Y2961D02*
X1087Y2961D01*
X127Y2960D02*
X144Y2960D01*
X549Y2960D02*
X564Y2960D01*
X641Y2960D02*
X661Y2960D01*
X1072Y2960D02*
X1088Y2960D01*
X126Y2959D02*
X144Y2959D01*
X549Y2959D02*
X564Y2959D01*
X642Y2959D02*
X662Y2959D01*
X1072Y2959D02*
X1088Y2959D01*
X126Y2958D02*
X143Y2958D01*
X549Y2958D02*
X564Y2958D01*
X643Y2958D02*
X662Y2958D01*
X1073Y2958D02*
X1088Y2958D01*
X125Y2957D02*
X143Y2957D01*
X549Y2957D02*
X564Y2957D01*
X643Y2957D02*
X663Y2957D01*
X1073Y2957D02*
X1088Y2957D01*
X124Y2956D02*
X142Y2956D01*
X549Y2956D02*
X564Y2956D01*
X644Y2956D02*
X664Y2956D01*
X1073Y2956D02*
X1088Y2956D01*
X123Y2955D02*
X141Y2955D01*
X549Y2955D02*
X564Y2955D01*
X645Y2955D02*
X665Y2955D01*
X1073Y2955D02*
X1089Y2955D01*
X123Y2954D02*
X141Y2954D01*
X549Y2954D02*
X564Y2954D01*
X646Y2954D02*
X666Y2954D01*
X1073Y2954D02*
X1089Y2954D01*
X122Y2953D02*
X140Y2953D01*
X549Y2953D02*
X564Y2953D01*
X647Y2953D02*
X667Y2953D01*
X1074Y2953D02*
X1089Y2953D01*
X121Y2952D02*
X139Y2952D01*
X549Y2952D02*
X564Y2952D01*
X648Y2952D02*
X668Y2952D01*
X1074Y2952D02*
X1089Y2952D01*
X121Y2951D02*
X139Y2951D01*
X549Y2951D02*
X564Y2951D01*
X648Y2951D02*
X669Y2951D01*
X1074Y2951D02*
X1089Y2951D01*
X120Y2950D02*
X138Y2950D01*
X549Y2950D02*
X564Y2950D01*
X649Y2950D02*
X670Y2950D01*
X1074Y2950D02*
X1090Y2950D01*
X119Y2949D02*
X137Y2949D01*
X549Y2949D02*
X564Y2949D01*
X650Y2949D02*
X671Y2949D01*
X1075Y2949D02*
X1090Y2949D01*
X118Y2948D02*
X137Y2948D01*
X549Y2948D02*
X564Y2948D01*
X651Y2948D02*
X672Y2948D01*
X1075Y2948D02*
X1090Y2948D01*
X117Y2947D02*
X136Y2947D01*
X549Y2947D02*
X564Y2947D01*
X652Y2947D02*
X672Y2947D01*
X1075Y2947D02*
X1090Y2947D01*
X117Y2946D02*
X135Y2946D01*
X549Y2946D02*
X564Y2946D01*
X653Y2946D02*
X673Y2946D01*
X1075Y2946D02*
X1090Y2946D01*
X116Y2945D02*
X135Y2945D01*
X549Y2945D02*
X564Y2945D01*
X654Y2945D02*
X674Y2945D01*
X1075Y2945D02*
X1091Y2945D01*
X115Y2944D02*
X134Y2944D01*
X549Y2944D02*
X564Y2944D01*
X655Y2944D02*
X675Y2944D01*
X1076Y2944D02*
X1091Y2944D01*
X114Y2943D02*
X133Y2943D01*
X549Y2943D02*
X564Y2943D01*
X655Y2943D02*
X676Y2943D01*
X1076Y2943D02*
X1091Y2943D01*
X113Y2942D02*
X132Y2942D01*
X549Y2942D02*
X565Y2942D01*
X656Y2942D02*
X677Y2942D01*
X1076Y2942D02*
X1091Y2942D01*
X113Y2941D02*
X132Y2941D01*
X550Y2941D02*
X565Y2941D01*
X657Y2941D02*
X678Y2941D01*
X1076Y2941D02*
X1092Y2941D01*
X112Y2940D02*
X131Y2940D01*
X550Y2940D02*
X565Y2940D01*
X658Y2940D02*
X679Y2940D01*
X1076Y2940D02*
X1092Y2940D01*
X111Y2939D02*
X130Y2939D01*
X550Y2939D02*
X565Y2939D01*
X659Y2939D02*
X680Y2939D01*
X1077Y2939D02*
X1092Y2939D01*
X110Y2938D02*
X129Y2938D01*
X550Y2938D02*
X565Y2938D01*
X660Y2938D02*
X681Y2938D01*
X1077Y2938D02*
X1092Y2938D01*
X109Y2937D02*
X129Y2937D01*
X550Y2937D02*
X565Y2937D01*
X661Y2937D02*
X682Y2937D01*
X1077Y2937D02*
X1092Y2937D01*
X108Y2936D02*
X128Y2936D01*
X550Y2936D02*
X565Y2936D01*
X662Y2936D02*
X684Y2936D01*
X1077Y2936D02*
X1093Y2936D01*
X107Y2935D02*
X127Y2935D01*
X550Y2935D02*
X565Y2935D01*
X663Y2935D02*
X685Y2935D01*
X1077Y2935D02*
X1093Y2935D01*
X106Y2934D02*
X126Y2934D01*
X550Y2934D02*
X565Y2934D01*
X664Y2934D02*
X686Y2934D01*
X1078Y2934D02*
X1093Y2934D01*
X106Y2933D02*
X125Y2933D01*
X550Y2933D02*
X565Y2933D01*
X665Y2933D02*
X687Y2933D01*
X1078Y2933D02*
X1093Y2933D01*
X105Y2932D02*
X125Y2932D01*
X550Y2932D02*
X565Y2932D01*
X666Y2932D02*
X688Y2932D01*
X1078Y2932D02*
X1093Y2932D01*
X104Y2931D02*
X124Y2931D01*
X550Y2931D02*
X565Y2931D01*
X667Y2931D02*
X689Y2931D01*
X1078Y2931D02*
X1093Y2931D01*
X103Y2930D02*
X123Y2930D01*
X550Y2930D02*
X565Y2930D01*
X668Y2930D02*
X690Y2930D01*
X1078Y2930D02*
X1094Y2930D01*
X102Y2929D02*
X122Y2929D01*
X550Y2929D02*
X565Y2929D01*
X669Y2929D02*
X691Y2929D01*
X1079Y2929D02*
X1094Y2929D01*
X101Y2928D02*
X121Y2928D01*
X550Y2928D02*
X565Y2928D01*
X670Y2928D02*
X692Y2928D01*
X1079Y2928D02*
X1094Y2928D01*
X100Y2927D02*
X120Y2927D01*
X550Y2927D02*
X565Y2927D01*
X671Y2927D02*
X693Y2927D01*
X1079Y2927D02*
X1094Y2927D01*
X99Y2926D02*
X120Y2926D01*
X550Y2926D02*
X565Y2926D01*
X672Y2926D02*
X694Y2926D01*
X1079Y2926D02*
X1094Y2926D01*
X98Y2925D02*
X119Y2925D01*
X550Y2925D02*
X565Y2925D01*
X673Y2925D02*
X696Y2925D01*
X1079Y2925D02*
X1095Y2925D01*
X97Y2924D02*
X118Y2924D01*
X550Y2924D02*
X565Y2924D01*
X674Y2924D02*
X697Y2924D01*
X1080Y2924D02*
X1095Y2924D01*
X96Y2923D02*
X117Y2923D01*
X550Y2923D02*
X565Y2923D01*
X675Y2923D02*
X698Y2923D01*
X1080Y2923D02*
X1095Y2923D01*
X95Y2922D02*
X116Y2922D01*
X550Y2922D02*
X565Y2922D01*
X676Y2922D02*
X699Y2922D01*
X1080Y2922D02*
X1095Y2922D01*
X94Y2921D02*
X115Y2921D01*
X550Y2921D02*
X565Y2921D01*
X677Y2921D02*
X700Y2921D01*
X1080Y2921D02*
X1095Y2921D01*
X93Y2920D02*
X114Y2920D01*
X550Y2920D02*
X565Y2920D01*
X678Y2920D02*
X701Y2920D01*
X1080Y2920D02*
X1096Y2920D01*
X92Y2919D02*
X113Y2919D01*
X550Y2919D02*
X565Y2919D01*
X680Y2919D02*
X703Y2919D01*
X1080Y2919D02*
X1096Y2919D01*
X91Y2918D02*
X112Y2918D01*
X551Y2918D02*
X566Y2918D01*
X681Y2918D02*
X704Y2918D01*
X1081Y2918D02*
X1096Y2918D01*
X90Y2917D02*
X111Y2917D01*
X551Y2917D02*
X566Y2917D01*
X682Y2917D02*
X705Y2917D01*
X1081Y2917D02*
X1096Y2917D01*
X89Y2916D02*
X110Y2916D01*
X551Y2916D02*
X566Y2916D01*
X683Y2916D02*
X706Y2916D01*
X1081Y2916D02*
X1096Y2916D01*
X88Y2915D02*
X109Y2915D01*
X551Y2915D02*
X566Y2915D01*
X684Y2915D02*
X708Y2915D01*
X1081Y2915D02*
X1096Y2915D01*
X87Y2914D02*
X109Y2914D01*
X551Y2914D02*
X566Y2914D01*
X685Y2914D02*
X709Y2914D01*
X1081Y2914D02*
X1097Y2914D01*
X85Y2913D02*
X108Y2913D01*
X551Y2913D02*
X566Y2913D01*
X686Y2913D02*
X710Y2913D01*
X1082Y2913D02*
X1097Y2913D01*
X84Y2912D02*
X107Y2912D01*
X551Y2912D02*
X566Y2912D01*
X687Y2912D02*
X711Y2912D01*
X1082Y2912D02*
X1097Y2912D01*
X83Y2911D02*
X106Y2911D01*
X551Y2911D02*
X566Y2911D01*
X689Y2911D02*
X713Y2911D01*
X1082Y2911D02*
X1097Y2911D01*
X82Y2910D02*
X105Y2910D01*
X551Y2910D02*
X566Y2910D01*
X690Y2910D02*
X714Y2910D01*
X1082Y2910D02*
X1097Y2910D01*
X81Y2909D02*
X103Y2909D01*
X551Y2909D02*
X566Y2909D01*
X691Y2909D02*
X715Y2909D01*
X1082Y2909D02*
X1098Y2909D01*
X80Y2908D02*
X102Y2908D01*
X551Y2908D02*
X566Y2908D01*
X692Y2908D02*
X716Y2908D01*
X1083Y2908D02*
X1098Y2908D01*
X79Y2907D02*
X101Y2907D01*
X551Y2907D02*
X566Y2907D01*
X693Y2907D02*
X718Y2907D01*
X1083Y2907D02*
X1098Y2907D01*
X77Y2906D02*
X100Y2906D01*
X551Y2906D02*
X566Y2906D01*
X694Y2906D02*
X719Y2906D01*
X1083Y2906D02*
X1098Y2906D01*
X76Y2905D02*
X99Y2905D01*
X551Y2905D02*
X566Y2905D01*
X696Y2905D02*
X720Y2905D01*
X1083Y2905D02*
X1098Y2905D01*
X75Y2904D02*
X98Y2904D01*
X551Y2904D02*
X566Y2904D01*
X697Y2904D02*
X722Y2904D01*
X1083Y2904D02*
X1098Y2904D01*
X74Y2903D02*
X97Y2903D01*
X551Y2903D02*
X566Y2903D01*
X698Y2903D02*
X723Y2903D01*
X1083Y2903D02*
X1099Y2903D01*
X73Y2902D02*
X96Y2902D01*
X551Y2902D02*
X566Y2902D01*
X699Y2902D02*
X725Y2902D01*
X1084Y2902D02*
X1099Y2902D01*
X72Y2901D02*
X95Y2901D01*
X551Y2901D02*
X566Y2901D01*
X701Y2901D02*
X726Y2901D01*
X1084Y2901D02*
X1099Y2901D01*
X72Y2900D02*
X94Y2900D01*
X551Y2900D02*
X566Y2900D01*
X702Y2900D02*
X727Y2900D01*
X1084Y2900D02*
X1099Y2900D01*
X72Y2899D02*
X93Y2899D01*
X551Y2899D02*
X566Y2899D01*
X703Y2899D02*
X729Y2899D01*
X1084Y2899D02*
X1099Y2899D01*
X71Y2898D02*
X92Y2898D01*
X551Y2898D02*
X566Y2898D01*
X705Y2898D02*
X730Y2898D01*
X1084Y2898D02*
X1099Y2898D01*
X71Y2897D02*
X91Y2897D01*
X551Y2897D02*
X566Y2897D01*
X706Y2897D02*
X731Y2897D01*
X1084Y2897D02*
X1100Y2897D01*
X71Y2896D02*
X89Y2896D01*
X551Y2896D02*
X566Y2896D01*
X707Y2896D02*
X733Y2896D01*
X1085Y2896D02*
X1100Y2896D01*
X71Y2895D02*
X88Y2895D01*
X551Y2895D02*
X566Y2895D01*
X708Y2895D02*
X734Y2895D01*
X1085Y2895D02*
X1100Y2895D01*
X71Y2894D02*
X88Y2894D01*
X551Y2894D02*
X566Y2894D01*
X710Y2894D02*
X736Y2894D01*
X1085Y2894D02*
X1100Y2894D01*
X72Y2893D02*
X89Y2893D01*
X551Y2893D02*
X566Y2893D01*
X711Y2893D02*
X737Y2893D01*
X1085Y2893D02*
X1100Y2893D01*
X72Y2892D02*
X89Y2892D01*
X552Y2892D02*
X567Y2892D01*
X712Y2892D02*
X739Y2892D01*
X1085Y2892D02*
X1100Y2892D01*
X73Y2891D02*
X90Y2891D01*
X552Y2891D02*
X567Y2891D01*
X714Y2891D02*
X740Y2891D01*
X1085Y2891D02*
X1101Y2891D01*
X73Y2890D02*
X91Y2890D01*
X552Y2890D02*
X567Y2890D01*
X715Y2890D02*
X742Y2890D01*
X1086Y2890D02*
X1101Y2890D01*
X74Y2889D02*
X91Y2889D01*
X552Y2889D02*
X567Y2889D01*
X717Y2889D02*
X743Y2889D01*
X1086Y2889D02*
X1101Y2889D01*
X74Y2888D02*
X92Y2888D01*
X552Y2888D02*
X567Y2888D01*
X718Y2888D02*
X745Y2888D01*
X1086Y2888D02*
X1101Y2888D01*
X75Y2887D02*
X93Y2887D01*
X552Y2887D02*
X567Y2887D01*
X719Y2887D02*
X746Y2887D01*
X1086Y2887D02*
X1101Y2887D01*
X75Y2886D02*
X93Y2886D01*
X552Y2886D02*
X567Y2886D01*
X721Y2886D02*
X748Y2886D01*
X1086Y2886D02*
X1101Y2886D01*
X76Y2885D02*
X94Y2885D01*
X552Y2885D02*
X567Y2885D01*
X722Y2885D02*
X749Y2885D01*
X1086Y2885D02*
X1102Y2885D01*
X77Y2884D02*
X95Y2884D01*
X552Y2884D02*
X567Y2884D01*
X723Y2884D02*
X751Y2884D01*
X1087Y2884D02*
X1102Y2884D01*
X77Y2883D02*
X95Y2883D01*
X552Y2883D02*
X567Y2883D01*
X725Y2883D02*
X753Y2883D01*
X1087Y2883D02*
X1102Y2883D01*
X78Y2882D02*
X96Y2882D01*
X552Y2882D02*
X567Y2882D01*
X726Y2882D02*
X754Y2882D01*
X1087Y2882D02*
X1102Y2882D01*
X78Y2881D02*
X97Y2881D01*
X552Y2881D02*
X567Y2881D01*
X728Y2881D02*
X756Y2881D01*
X1087Y2881D02*
X1102Y2881D01*
X79Y2880D02*
X97Y2880D01*
X552Y2880D02*
X567Y2880D01*
X729Y2880D02*
X757Y2880D01*
X1087Y2880D02*
X1102Y2880D01*
X80Y2879D02*
X98Y2879D01*
X552Y2879D02*
X567Y2879D01*
X731Y2879D02*
X759Y2879D01*
X1087Y2879D02*
X1103Y2879D01*
X80Y2878D02*
X98Y2878D01*
X552Y2878D02*
X567Y2878D01*
X732Y2878D02*
X761Y2878D01*
X1088Y2878D02*
X1103Y2878D01*
X81Y2877D02*
X99Y2877D01*
X552Y2877D02*
X567Y2877D01*
X734Y2877D02*
X762Y2877D01*
X1088Y2877D02*
X1103Y2877D01*
X82Y2876D02*
X100Y2876D01*
X552Y2876D02*
X567Y2876D01*
X735Y2876D02*
X764Y2876D01*
X1088Y2876D02*
X1103Y2876D01*
X82Y2875D02*
X100Y2875D01*
X552Y2875D02*
X567Y2875D01*
X737Y2875D02*
X766Y2875D01*
X1088Y2875D02*
X1103Y2875D01*
X83Y2874D02*
X101Y2874D01*
X552Y2874D02*
X567Y2874D01*
X738Y2874D02*
X767Y2874D01*
X1088Y2874D02*
X1103Y2874D01*
X84Y2873D02*
X102Y2873D01*
X552Y2873D02*
X567Y2873D01*
X740Y2873D02*
X769Y2873D01*
X1088Y2873D02*
X1104Y2873D01*
X84Y2872D02*
X102Y2872D01*
X552Y2872D02*
X567Y2872D01*
X741Y2872D02*
X771Y2872D01*
X1089Y2872D02*
X1104Y2872D01*
X85Y2871D02*
X103Y2871D01*
X552Y2871D02*
X567Y2871D01*
X743Y2871D02*
X772Y2871D01*
X1089Y2871D02*
X1104Y2871D01*
X86Y2870D02*
X104Y2870D01*
X552Y2870D02*
X567Y2870D01*
X745Y2870D02*
X774Y2870D01*
X1089Y2870D02*
X1104Y2870D01*
X86Y2869D02*
X104Y2869D01*
X552Y2869D02*
X567Y2869D01*
X746Y2869D02*
X776Y2869D01*
X1089Y2869D02*
X1104Y2869D01*
X87Y2868D02*
X105Y2868D01*
X552Y2868D02*
X567Y2868D01*
X748Y2868D02*
X778Y2868D01*
X1089Y2868D02*
X1104Y2868D01*
X88Y2867D02*
X106Y2867D01*
X552Y2867D02*
X567Y2867D01*
X749Y2867D02*
X779Y2867D01*
X1089Y2867D02*
X1104Y2867D01*
X88Y2866D02*
X106Y2866D01*
X552Y2866D02*
X567Y2866D01*
X751Y2866D02*
X781Y2866D01*
X1089Y2866D02*
X1105Y2866D01*
X89Y2865D02*
X107Y2865D01*
X552Y2865D02*
X567Y2865D01*
X752Y2865D02*
X783Y2865D01*
X1090Y2865D02*
X1105Y2865D01*
X90Y2864D02*
X108Y2864D01*
X552Y2864D02*
X567Y2864D01*
X754Y2864D02*
X785Y2864D01*
X1090Y2864D02*
X1105Y2864D01*
X90Y2863D02*
X108Y2863D01*
X552Y2863D02*
X567Y2863D01*
X756Y2863D02*
X787Y2863D01*
X1090Y2863D02*
X1105Y2863D01*
X91Y2862D02*
X109Y2862D01*
X552Y2862D02*
X567Y2862D01*
X758Y2862D02*
X789Y2862D01*
X1090Y2862D02*
X1105Y2862D01*
X91Y2861D02*
X110Y2861D01*
X552Y2861D02*
X567Y2861D01*
X759Y2861D02*
X790Y2861D01*
X1090Y2861D02*
X1105Y2861D01*
X92Y2860D02*
X110Y2860D01*
X553Y2860D02*
X568Y2860D01*
X761Y2860D02*
X792Y2860D01*
X1090Y2860D02*
X1106Y2860D01*
X93Y2859D02*
X111Y2859D01*
X553Y2859D02*
X568Y2859D01*
X763Y2859D02*
X794Y2859D01*
X1091Y2859D02*
X1106Y2859D01*
X93Y2858D02*
X112Y2858D01*
X553Y2858D02*
X568Y2858D01*
X764Y2858D02*
X796Y2858D01*
X1091Y2858D02*
X1106Y2858D01*
X94Y2857D02*
X112Y2857D01*
X553Y2857D02*
X568Y2857D01*
X766Y2857D02*
X798Y2857D01*
X1091Y2857D02*
X1106Y2857D01*
X95Y2856D02*
X113Y2856D01*
X553Y2856D02*
X568Y2856D01*
X768Y2856D02*
X800Y2856D01*
X1091Y2856D02*
X1106Y2856D01*
X95Y2855D02*
X114Y2855D01*
X553Y2855D02*
X568Y2855D01*
X770Y2855D02*
X802Y2855D01*
X1091Y2855D02*
X1106Y2855D01*
X96Y2854D02*
X114Y2854D01*
X553Y2854D02*
X568Y2854D01*
X771Y2854D02*
X804Y2854D01*
X1091Y2854D02*
X1106Y2854D01*
X97Y2853D02*
X115Y2853D01*
X553Y2853D02*
X568Y2853D01*
X773Y2853D02*
X806Y2853D01*
X1091Y2853D02*
X1107Y2853D01*
X97Y2852D02*
X115Y2852D01*
X553Y2852D02*
X568Y2852D01*
X775Y2852D02*
X808Y2852D01*
X1092Y2852D02*
X1107Y2852D01*
X98Y2851D02*
X116Y2851D01*
X553Y2851D02*
X568Y2851D01*
X777Y2851D02*
X810Y2851D01*
X1092Y2851D02*
X1107Y2851D01*
X99Y2850D02*
X117Y2850D01*
X553Y2850D02*
X568Y2850D01*
X779Y2850D02*
X812Y2850D01*
X1092Y2850D02*
X1107Y2850D01*
X99Y2849D02*
X117Y2849D01*
X553Y2849D02*
X568Y2849D01*
X780Y2849D02*
X814Y2849D01*
X1092Y2849D02*
X1107Y2849D01*
X100Y2848D02*
X118Y2848D01*
X553Y2848D02*
X568Y2848D01*
X782Y2848D02*
X816Y2848D01*
X1092Y2848D02*
X1107Y2848D01*
X101Y2847D02*
X119Y2847D01*
X553Y2847D02*
X568Y2847D01*
X784Y2847D02*
X818Y2847D01*
X1092Y2847D02*
X1107Y2847D01*
X101Y2846D02*
X119Y2846D01*
X553Y2846D02*
X568Y2846D01*
X786Y2846D02*
X820Y2846D01*
X1092Y2846D02*
X1108Y2846D01*
X102Y2845D02*
X120Y2845D01*
X553Y2845D02*
X568Y2845D01*
X788Y2845D02*
X823Y2845D01*
X1093Y2845D02*
X1108Y2845D01*
X103Y2844D02*
X121Y2844D01*
X553Y2844D02*
X568Y2844D01*
X790Y2844D02*
X825Y2844D01*
X1093Y2844D02*
X1108Y2844D01*
X103Y2843D02*
X121Y2843D01*
X553Y2843D02*
X568Y2843D01*
X792Y2843D02*
X827Y2843D01*
X1093Y2843D02*
X1108Y2843D01*
X104Y2842D02*
X122Y2842D01*
X553Y2842D02*
X568Y2842D01*
X794Y2842D02*
X829Y2842D01*
X1093Y2842D02*
X1108Y2842D01*
X105Y2841D02*
X123Y2841D01*
X553Y2841D02*
X568Y2841D01*
X796Y2841D02*
X831Y2841D01*
X1093Y2841D02*
X1108Y2841D01*
X105Y2840D02*
X123Y2840D01*
X553Y2840D02*
X568Y2840D01*
X798Y2840D02*
X833Y2840D01*
X1093Y2840D02*
X1108Y2840D01*
X106Y2839D02*
X124Y2839D01*
X553Y2839D02*
X568Y2839D01*
X800Y2839D02*
X836Y2839D01*
X1093Y2839D02*
X1109Y2839D01*
X106Y2838D02*
X125Y2838D01*
X553Y2838D02*
X568Y2838D01*
X802Y2838D02*
X838Y2838D01*
X1094Y2838D02*
X1109Y2838D01*
X107Y2837D02*
X125Y2837D01*
X553Y2837D02*
X568Y2837D01*
X804Y2837D02*
X840Y2837D01*
X1094Y2837D02*
X1109Y2837D01*
X108Y2836D02*
X126Y2836D01*
X553Y2836D02*
X568Y2836D01*
X806Y2836D02*
X843Y2836D01*
X1094Y2836D02*
X1109Y2836D01*
X108Y2835D02*
X126Y2835D01*
X553Y2835D02*
X568Y2835D01*
X808Y2835D02*
X845Y2835D01*
X1094Y2835D02*
X1109Y2835D01*
X109Y2834D02*
X127Y2834D01*
X553Y2834D02*
X568Y2834D01*
X810Y2834D02*
X847Y2834D01*
X1094Y2834D02*
X1109Y2834D01*
X110Y2833D02*
X128Y2833D01*
X553Y2833D02*
X568Y2833D01*
X812Y2833D02*
X850Y2833D01*
X1094Y2833D02*
X1109Y2833D01*
X110Y2832D02*
X128Y2832D01*
X553Y2832D02*
X568Y2832D01*
X814Y2832D02*
X852Y2832D01*
X1094Y2832D02*
X1109Y2832D01*
X111Y2831D02*
X129Y2831D01*
X553Y2831D02*
X568Y2831D01*
X816Y2831D02*
X855Y2831D01*
X1094Y2831D02*
X1110Y2831D01*
X112Y2830D02*
X130Y2830D01*
X553Y2830D02*
X568Y2830D01*
X818Y2830D02*
X857Y2830D01*
X1095Y2830D02*
X1110Y2830D01*
X112Y2829D02*
X130Y2829D01*
X553Y2829D02*
X568Y2829D01*
X820Y2829D02*
X860Y2829D01*
X1095Y2829D02*
X1110Y2829D01*
X113Y2828D02*
X131Y2828D01*
X553Y2828D02*
X568Y2828D01*
X823Y2828D02*
X862Y2828D01*
X1095Y2828D02*
X1110Y2828D01*
X114Y2827D02*
X131Y2827D01*
X553Y2827D02*
X568Y2827D01*
X825Y2827D02*
X865Y2827D01*
X1095Y2827D02*
X1110Y2827D01*
X114Y2826D02*
X132Y2826D01*
X553Y2826D02*
X568Y2826D01*
X827Y2826D02*
X867Y2826D01*
X1095Y2826D02*
X1110Y2826D01*
X115Y2825D02*
X133Y2825D01*
X553Y2825D02*
X568Y2825D01*
X829Y2825D02*
X869Y2825D01*
X1095Y2825D02*
X1110Y2825D01*
X115Y2824D02*
X133Y2824D01*
X553Y2824D02*
X568Y2824D01*
X831Y2824D02*
X872Y2824D01*
X1095Y2824D02*
X1111Y2824D01*
X116Y2823D02*
X134Y2823D01*
X553Y2823D02*
X568Y2823D01*
X834Y2823D02*
X875Y2823D01*
X1096Y2823D02*
X1111Y2823D01*
X117Y2822D02*
X135Y2822D01*
X553Y2822D02*
X568Y2822D01*
X836Y2822D02*
X877Y2822D01*
X1096Y2822D02*
X1111Y2822D01*
X117Y2821D02*
X135Y2821D01*
X553Y2821D02*
X568Y2821D01*
X838Y2821D02*
X880Y2821D01*
X1096Y2821D02*
X1111Y2821D01*
X118Y2820D02*
X136Y2820D01*
X553Y2820D02*
X568Y2820D01*
X841Y2820D02*
X883Y2820D01*
X1096Y2820D02*
X1111Y2820D01*
X119Y2819D02*
X136Y2819D01*
X553Y2819D02*
X568Y2819D01*
X843Y2819D02*
X886Y2819D01*
X1096Y2819D02*
X1111Y2819D01*
X119Y2818D02*
X137Y2818D01*
X553Y2818D02*
X568Y2818D01*
X845Y2818D02*
X888Y2818D01*
X1096Y2818D02*
X1111Y2818D01*
X120Y2817D02*
X138Y2817D01*
X553Y2817D02*
X568Y2817D01*
X848Y2817D02*
X891Y2817D01*
X1096Y2817D02*
X1111Y2817D01*
X120Y2816D02*
X138Y2816D01*
X554Y2816D02*
X569Y2816D01*
X850Y2816D02*
X894Y2816D01*
X1096Y2816D02*
X1112Y2816D01*
X121Y2815D02*
X139Y2815D01*
X554Y2815D02*
X569Y2815D01*
X853Y2815D02*
X896Y2815D01*
X1097Y2815D02*
X1112Y2815D01*
X122Y2814D02*
X140Y2814D01*
X554Y2814D02*
X569Y2814D01*
X855Y2814D02*
X899Y2814D01*
X1097Y2814D02*
X1112Y2814D01*
X122Y2813D02*
X140Y2813D01*
X554Y2813D02*
X569Y2813D01*
X858Y2813D02*
X902Y2813D01*
X1097Y2813D02*
X1112Y2813D01*
X123Y2812D02*
X141Y2812D01*
X554Y2812D02*
X569Y2812D01*
X860Y2812D02*
X905Y2812D01*
X1097Y2812D02*
X1112Y2812D01*
X124Y2811D02*
X141Y2811D01*
X554Y2811D02*
X569Y2811D01*
X863Y2811D02*
X908Y2811D01*
X1097Y2811D02*
X1112Y2811D01*
X124Y2810D02*
X142Y2810D01*
X554Y2810D02*
X569Y2810D01*
X865Y2810D02*
X911Y2810D01*
X1097Y2810D02*
X1112Y2810D01*
X125Y2809D02*
X143Y2809D01*
X554Y2809D02*
X569Y2809D01*
X868Y2809D02*
X914Y2809D01*
X1097Y2809D02*
X1112Y2809D01*
X125Y2808D02*
X143Y2808D01*
X554Y2808D02*
X569Y2808D01*
X870Y2808D02*
X917Y2808D01*
X1097Y2808D02*
X1113Y2808D01*
X126Y2807D02*
X144Y2807D01*
X554Y2807D02*
X569Y2807D01*
X873Y2807D02*
X921Y2807D01*
X1098Y2807D02*
X1113Y2807D01*
X127Y2806D02*
X145Y2806D01*
X554Y2806D02*
X569Y2806D01*
X876Y2806D02*
X924Y2806D01*
X1098Y2806D02*
X1113Y2806D01*
X127Y2805D02*
X145Y2805D01*
X378Y2805D02*
X389Y2805D01*
X554Y2805D02*
X569Y2805D01*
X878Y2805D02*
X927Y2805D01*
X1098Y2805D02*
X1113Y2805D01*
X128Y2804D02*
X146Y2804D01*
X375Y2804D02*
X395Y2804D01*
X554Y2804D02*
X569Y2804D01*
X881Y2804D02*
X930Y2804D01*
X1098Y2804D02*
X1113Y2804D01*
X129Y2803D02*
X146Y2803D01*
X374Y2803D02*
X399Y2803D01*
X554Y2803D02*
X569Y2803D01*
X884Y2803D02*
X934Y2803D01*
X1098Y2803D02*
X1113Y2803D01*
X129Y2802D02*
X147Y2802D01*
X373Y2802D02*
X402Y2802D01*
X554Y2802D02*
X569Y2802D01*
X887Y2802D02*
X937Y2802D01*
X1098Y2802D02*
X1113Y2802D01*
X130Y2801D02*
X147Y2801D01*
X372Y2801D02*
X405Y2801D01*
X554Y2801D02*
X569Y2801D01*
X889Y2801D02*
X941Y2801D01*
X1098Y2801D02*
X1113Y2801D01*
X130Y2800D02*
X148Y2800D01*
X372Y2800D02*
X407Y2800D01*
X554Y2800D02*
X569Y2800D01*
X892Y2800D02*
X944Y2800D01*
X1098Y2800D02*
X1113Y2800D01*
X131Y2799D02*
X149Y2799D01*
X372Y2799D02*
X409Y2799D01*
X554Y2799D02*
X569Y2799D01*
X895Y2799D02*
X948Y2799D01*
X1098Y2799D02*
X1114Y2799D01*
X132Y2798D02*
X149Y2798D01*
X372Y2798D02*
X411Y2798D01*
X554Y2798D02*
X569Y2798D01*
X898Y2798D02*
X952Y2798D01*
X1099Y2798D02*
X1114Y2798D01*
X132Y2797D02*
X150Y2797D01*
X371Y2797D02*
X413Y2797D01*
X554Y2797D02*
X569Y2797D01*
X901Y2797D02*
X956Y2797D01*
X1099Y2797D02*
X1114Y2797D01*
X133Y2796D02*
X150Y2796D01*
X372Y2796D02*
X415Y2796D01*
X554Y2796D02*
X569Y2796D01*
X904Y2796D02*
X959Y2796D01*
X1099Y2796D02*
X1114Y2796D01*
X133Y2795D02*
X151Y2795D01*
X372Y2795D02*
X417Y2795D01*
X554Y2795D02*
X569Y2795D01*
X907Y2795D02*
X961Y2795D01*
X1099Y2795D02*
X1114Y2795D01*
X134Y2794D02*
X152Y2794D01*
X372Y2794D02*
X418Y2794D01*
X554Y2794D02*
X569Y2794D01*
X910Y2794D02*
X962Y2794D01*
X1099Y2794D02*
X1114Y2794D01*
X135Y2793D02*
X152Y2793D01*
X373Y2793D02*
X420Y2793D01*
X554Y2793D02*
X569Y2793D01*
X913Y2793D02*
X963Y2793D01*
X1099Y2793D02*
X1114Y2793D01*
X135Y2792D02*
X153Y2792D01*
X373Y2792D02*
X421Y2792D01*
X554Y2792D02*
X569Y2792D01*
X916Y2792D02*
X964Y2792D01*
X1099Y2792D02*
X1114Y2792D01*
X136Y2791D02*
X153Y2791D01*
X374Y2791D02*
X423Y2791D01*
X554Y2791D02*
X569Y2791D01*
X919Y2791D02*
X964Y2791D01*
X1099Y2791D02*
X1115Y2791D01*
X136Y2790D02*
X154Y2790D01*
X376Y2790D02*
X424Y2790D01*
X554Y2790D02*
X569Y2790D01*
X923Y2790D02*
X964Y2790D01*
X1100Y2790D02*
X1115Y2790D01*
X137Y2789D02*
X155Y2789D01*
X389Y2789D02*
X425Y2789D01*
X554Y2789D02*
X569Y2789D01*
X926Y2789D02*
X964Y2789D01*
X1100Y2789D02*
X1115Y2789D01*
X138Y2788D02*
X155Y2788D01*
X394Y2788D02*
X427Y2788D01*
X554Y2788D02*
X569Y2788D01*
X929Y2788D02*
X964Y2788D01*
X1100Y2788D02*
X1115Y2788D01*
X138Y2787D02*
X156Y2787D01*
X398Y2787D02*
X428Y2787D01*
X554Y2787D02*
X569Y2787D01*
X933Y2787D02*
X964Y2787D01*
X1100Y2787D02*
X1115Y2787D01*
X139Y2786D02*
X156Y2786D01*
X400Y2786D02*
X429Y2786D01*
X554Y2786D02*
X569Y2786D01*
X936Y2786D02*
X964Y2786D01*
X1100Y2786D02*
X1115Y2786D01*
X139Y2785D02*
X157Y2785D01*
X403Y2785D02*
X430Y2785D01*
X554Y2785D02*
X569Y2785D01*
X940Y2785D02*
X964Y2785D01*
X1100Y2785D02*
X1115Y2785D01*
X140Y2784D02*
X158Y2784D01*
X405Y2784D02*
X431Y2784D01*
X554Y2784D02*
X569Y2784D01*
X943Y2784D02*
X963Y2784D01*
X1100Y2784D02*
X1115Y2784D01*
X141Y2783D02*
X158Y2783D01*
X407Y2783D02*
X432Y2783D01*
X554Y2783D02*
X569Y2783D01*
X947Y2783D02*
X962Y2783D01*
X1100Y2783D02*
X1115Y2783D01*
X141Y2782D02*
X159Y2782D01*
X409Y2782D02*
X433Y2782D01*
X554Y2782D02*
X569Y2782D01*
X951Y2782D02*
X961Y2782D01*
X1100Y2782D02*
X1116Y2782D01*
X142Y2781D02*
X159Y2781D01*
X410Y2781D02*
X434Y2781D01*
X554Y2781D02*
X569Y2781D01*
X955Y2781D02*
X959Y2781D01*
X1101Y2781D02*
X1116Y2781D01*
X142Y2780D02*
X160Y2780D01*
X412Y2780D02*
X435Y2780D01*
X554Y2780D02*
X569Y2780D01*
X1101Y2780D02*
X1116Y2780D01*
X143Y2779D02*
X161Y2779D01*
X413Y2779D02*
X436Y2779D01*
X554Y2779D02*
X569Y2779D01*
X1101Y2779D02*
X1116Y2779D01*
X144Y2778D02*
X161Y2778D01*
X415Y2778D02*
X437Y2778D01*
X554Y2778D02*
X569Y2778D01*
X1101Y2778D02*
X1116Y2778D01*
X144Y2777D02*
X162Y2777D01*
X416Y2777D02*
X438Y2777D01*
X554Y2777D02*
X569Y2777D01*
X1101Y2777D02*
X1116Y2777D01*
X145Y2776D02*
X162Y2776D01*
X417Y2776D02*
X439Y2776D01*
X554Y2776D02*
X569Y2776D01*
X1101Y2776D02*
X1116Y2776D01*
X145Y2775D02*
X163Y2775D01*
X418Y2775D02*
X440Y2775D01*
X554Y2775D02*
X569Y2775D01*
X1101Y2775D02*
X1116Y2775D01*
X146Y2774D02*
X163Y2774D01*
X420Y2774D02*
X441Y2774D01*
X554Y2774D02*
X569Y2774D01*
X1101Y2774D02*
X1116Y2774D01*
X146Y2773D02*
X164Y2773D01*
X421Y2773D02*
X442Y2773D01*
X554Y2773D02*
X569Y2773D01*
X1101Y2773D02*
X1116Y2773D01*
X147Y2772D02*
X164Y2772D01*
X422Y2772D02*
X442Y2772D01*
X554Y2772D02*
X569Y2772D01*
X1101Y2772D02*
X1117Y2772D01*
X148Y2771D02*
X165Y2771D01*
X423Y2771D02*
X443Y2771D01*
X554Y2771D02*
X569Y2771D01*
X1102Y2771D02*
X1117Y2771D01*
X148Y2770D02*
X166Y2770D01*
X424Y2770D02*
X444Y2770D01*
X554Y2770D02*
X569Y2770D01*
X1102Y2770D02*
X1117Y2770D01*
X149Y2769D02*
X166Y2769D01*
X425Y2769D02*
X445Y2769D01*
X554Y2769D02*
X569Y2769D01*
X1102Y2769D02*
X1117Y2769D01*
X149Y2768D02*
X167Y2768D01*
X426Y2768D02*
X445Y2768D01*
X554Y2768D02*
X569Y2768D01*
X1102Y2768D02*
X1117Y2768D01*
X150Y2767D02*
X167Y2767D01*
X427Y2767D02*
X446Y2767D01*
X554Y2767D02*
X569Y2767D01*
X1102Y2767D02*
X1117Y2767D01*
X150Y2766D02*
X168Y2766D01*
X427Y2766D02*
X447Y2766D01*
X554Y2766D02*
X569Y2766D01*
X1102Y2766D02*
X1117Y2766D01*
X151Y2765D02*
X168Y2765D01*
X428Y2765D02*
X447Y2765D01*
X554Y2765D02*
X569Y2765D01*
X1102Y2765D02*
X1117Y2765D01*
X152Y2764D02*
X169Y2764D01*
X429Y2764D02*
X448Y2764D01*
X554Y2764D02*
X569Y2764D01*
X1102Y2764D02*
X1117Y2764D01*
X152Y2763D02*
X170Y2763D01*
X430Y2763D02*
X449Y2763D01*
X554Y2763D02*
X569Y2763D01*
X1102Y2763D02*
X1118Y2763D01*
X153Y2762D02*
X170Y2762D01*
X431Y2762D02*
X450Y2762D01*
X554Y2762D02*
X569Y2762D01*
X1103Y2762D02*
X1118Y2762D01*
X153Y2761D02*
X171Y2761D01*
X432Y2761D02*
X450Y2761D01*
X554Y2761D02*
X569Y2761D01*
X1103Y2761D02*
X1118Y2761D01*
X154Y2760D02*
X171Y2760D01*
X432Y2760D02*
X451Y2760D01*
X554Y2760D02*
X569Y2760D01*
X1103Y2760D02*
X1118Y2760D01*
X154Y2759D02*
X172Y2759D01*
X433Y2759D02*
X452Y2759D01*
X554Y2759D02*
X569Y2759D01*
X1103Y2759D02*
X1118Y2759D01*
X155Y2758D02*
X172Y2758D01*
X434Y2758D02*
X452Y2758D01*
X554Y2758D02*
X569Y2758D01*
X1103Y2758D02*
X1118Y2758D01*
X156Y2757D02*
X173Y2757D01*
X435Y2757D02*
X453Y2757D01*
X554Y2757D02*
X569Y2757D01*
X1103Y2757D02*
X1118Y2757D01*
X156Y2756D02*
X173Y2756D01*
X435Y2756D02*
X453Y2756D01*
X554Y2756D02*
X569Y2756D01*
X1103Y2756D02*
X1118Y2756D01*
X157Y2755D02*
X174Y2755D01*
X436Y2755D02*
X454Y2755D01*
X554Y2755D02*
X569Y2755D01*
X1103Y2755D02*
X1118Y2755D01*
X157Y2754D02*
X174Y2754D01*
X437Y2754D02*
X454Y2754D01*
X554Y2754D02*
X569Y2754D01*
X1103Y2754D02*
X1118Y2754D01*
X158Y2753D02*
X175Y2753D01*
X437Y2753D02*
X455Y2753D01*
X554Y2753D02*
X569Y2753D01*
X1103Y2753D02*
X1118Y2753D01*
X158Y2752D02*
X175Y2752D01*
X438Y2752D02*
X456Y2752D01*
X554Y2752D02*
X569Y2752D01*
X1104Y2752D02*
X1119Y2752D01*
X159Y2751D02*
X176Y2751D01*
X439Y2751D02*
X456Y2751D01*
X554Y2751D02*
X569Y2751D01*
X1104Y2751D02*
X1119Y2751D01*
X159Y2750D02*
X177Y2750D01*
X439Y2750D02*
X457Y2750D01*
X554Y2750D02*
X569Y2750D01*
X1104Y2750D02*
X1119Y2750D01*
X160Y2749D02*
X177Y2749D01*
X440Y2749D02*
X457Y2749D01*
X554Y2749D02*
X569Y2749D01*
X1104Y2749D02*
X1119Y2749D01*
X160Y2748D02*
X178Y2748D01*
X441Y2748D02*
X458Y2748D01*
X554Y2748D02*
X569Y2748D01*
X1104Y2748D02*
X1119Y2748D01*
X161Y2747D02*
X178Y2747D01*
X441Y2747D02*
X458Y2747D01*
X554Y2747D02*
X569Y2747D01*
X1104Y2747D02*
X1119Y2747D01*
X162Y2746D02*
X179Y2746D01*
X442Y2746D02*
X459Y2746D01*
X554Y2746D02*
X569Y2746D01*
X1104Y2746D02*
X1119Y2746D01*
X162Y2745D02*
X179Y2745D01*
X442Y2745D02*
X459Y2745D01*
X554Y2745D02*
X569Y2745D01*
X1104Y2745D02*
X1119Y2745D01*
X163Y2744D02*
X180Y2744D01*
X443Y2744D02*
X460Y2744D01*
X554Y2744D02*
X569Y2744D01*
X1104Y2744D02*
X1119Y2744D01*
X163Y2743D02*
X180Y2743D01*
X444Y2743D02*
X460Y2743D01*
X554Y2743D02*
X569Y2743D01*
X1104Y2743D02*
X1119Y2743D01*
X164Y2742D02*
X181Y2742D01*
X444Y2742D02*
X461Y2742D01*
X554Y2742D02*
X569Y2742D01*
X1104Y2742D02*
X1119Y2742D01*
X164Y2741D02*
X181Y2741D01*
X445Y2741D02*
X461Y2741D01*
X554Y2741D02*
X569Y2741D01*
X1105Y2741D02*
X1120Y2741D01*
X165Y2740D02*
X182Y2740D01*
X445Y2740D02*
X462Y2740D01*
X554Y2740D02*
X569Y2740D01*
X1105Y2740D02*
X1120Y2740D01*
X165Y2739D02*
X182Y2739D01*
X446Y2739D02*
X462Y2739D01*
X554Y2739D02*
X569Y2739D01*
X1105Y2739D02*
X1120Y2739D01*
X166Y2738D02*
X183Y2738D01*
X446Y2738D02*
X463Y2738D01*
X554Y2738D02*
X569Y2738D01*
X1105Y2738D02*
X1120Y2738D01*
X166Y2737D02*
X183Y2737D01*
X447Y2737D02*
X463Y2737D01*
X554Y2737D02*
X569Y2737D01*
X1105Y2737D02*
X1120Y2737D01*
X167Y2736D02*
X184Y2736D01*
X447Y2736D02*
X464Y2736D01*
X554Y2736D02*
X569Y2736D01*
X1105Y2736D02*
X1120Y2736D01*
X167Y2735D02*
X184Y2735D01*
X448Y2735D02*
X464Y2735D01*
X554Y2735D02*
X569Y2735D01*
X1105Y2735D02*
X1120Y2735D01*
X168Y2734D02*
X185Y2734D01*
X448Y2734D02*
X465Y2734D01*
X554Y2734D02*
X569Y2734D01*
X1105Y2734D02*
X1120Y2734D01*
X168Y2733D02*
X185Y2733D01*
X449Y2733D02*
X465Y2733D01*
X554Y2733D02*
X569Y2733D01*
X1105Y2733D02*
X1120Y2733D01*
X169Y2732D02*
X186Y2732D01*
X449Y2732D02*
X465Y2732D01*
X554Y2732D02*
X569Y2732D01*
X1105Y2732D02*
X1120Y2732D01*
X169Y2731D02*
X186Y2731D01*
X449Y2731D02*
X466Y2731D01*
X554Y2731D02*
X569Y2731D01*
X1105Y2731D02*
X1121Y2731D01*
X170Y2730D02*
X187Y2730D01*
X450Y2730D02*
X466Y2730D01*
X554Y2730D02*
X569Y2730D01*
X1106Y2730D02*
X1121Y2730D01*
X170Y2729D02*
X187Y2729D01*
X450Y2729D02*
X467Y2729D01*
X554Y2729D02*
X569Y2729D01*
X1106Y2729D02*
X1121Y2729D01*
X171Y2728D02*
X188Y2728D01*
X451Y2728D02*
X467Y2728D01*
X554Y2728D02*
X569Y2728D01*
X1106Y2728D02*
X1121Y2728D01*
X172Y2727D02*
X188Y2727D01*
X451Y2727D02*
X467Y2727D01*
X554Y2727D02*
X569Y2727D01*
X1106Y2727D02*
X1121Y2727D01*
X172Y2726D02*
X189Y2726D01*
X452Y2726D02*
X468Y2726D01*
X554Y2726D02*
X569Y2726D01*
X1106Y2726D02*
X1121Y2726D01*
X173Y2725D02*
X189Y2725D01*
X452Y2725D02*
X468Y2725D01*
X554Y2725D02*
X569Y2725D01*
X1106Y2725D02*
X1121Y2725D01*
X173Y2724D02*
X190Y2724D01*
X453Y2724D02*
X469Y2724D01*
X554Y2724D02*
X569Y2724D01*
X1106Y2724D02*
X1121Y2724D01*
X174Y2723D02*
X190Y2723D01*
X453Y2723D02*
X469Y2723D01*
X554Y2723D02*
X569Y2723D01*
X1106Y2723D02*
X1121Y2723D01*
X174Y2722D02*
X191Y2722D01*
X453Y2722D02*
X469Y2722D01*
X554Y2722D02*
X569Y2722D01*
X1106Y2722D02*
X1121Y2722D01*
X175Y2721D02*
X191Y2721D01*
X454Y2721D02*
X470Y2721D01*
X554Y2721D02*
X569Y2721D01*
X1106Y2721D02*
X1121Y2721D01*
X175Y2720D02*
X192Y2720D01*
X454Y2720D02*
X470Y2720D01*
X554Y2720D02*
X569Y2720D01*
X1106Y2720D02*
X1121Y2720D01*
X175Y2719D02*
X192Y2719D01*
X454Y2719D02*
X471Y2719D01*
X554Y2719D02*
X569Y2719D01*
X1106Y2719D02*
X1122Y2719D01*
X176Y2718D02*
X193Y2718D01*
X455Y2718D02*
X471Y2718D01*
X554Y2718D02*
X569Y2718D01*
X1107Y2718D02*
X1122Y2718D01*
X176Y2717D02*
X193Y2717D01*
X455Y2717D02*
X471Y2717D01*
X554Y2717D02*
X569Y2717D01*
X1107Y2717D02*
X1122Y2717D01*
X177Y2716D02*
X194Y2716D01*
X456Y2716D02*
X472Y2716D01*
X554Y2716D02*
X569Y2716D01*
X1107Y2716D02*
X1122Y2716D01*
X177Y2715D02*
X194Y2715D01*
X456Y2715D02*
X472Y2715D01*
X554Y2715D02*
X569Y2715D01*
X1107Y2715D02*
X1122Y2715D01*
X178Y2714D02*
X195Y2714D01*
X456Y2714D02*
X472Y2714D01*
X554Y2714D02*
X569Y2714D01*
X1107Y2714D02*
X1122Y2714D01*
X178Y2713D02*
X195Y2713D01*
X457Y2713D02*
X473Y2713D01*
X554Y2713D02*
X569Y2713D01*
X1107Y2713D02*
X1122Y2713D01*
X179Y2712D02*
X196Y2712D01*
X457Y2712D02*
X473Y2712D01*
X554Y2712D02*
X569Y2712D01*
X1107Y2712D02*
X1122Y2712D01*
X179Y2711D02*
X196Y2711D01*
X457Y2711D02*
X473Y2711D01*
X553Y2711D02*
X568Y2711D01*
X1107Y2711D02*
X1122Y2711D01*
X180Y2710D02*
X197Y2710D01*
X458Y2710D02*
X474Y2710D01*
X553Y2710D02*
X568Y2710D01*
X1107Y2710D02*
X1122Y2710D01*
X180Y2709D02*
X197Y2709D01*
X458Y2709D02*
X474Y2709D01*
X553Y2709D02*
X568Y2709D01*
X1107Y2709D02*
X1122Y2709D01*
X181Y2708D02*
X197Y2708D01*
X458Y2708D02*
X474Y2708D01*
X553Y2708D02*
X568Y2708D01*
X1107Y2708D02*
X1122Y2708D01*
X181Y2707D02*
X198Y2707D01*
X459Y2707D02*
X475Y2707D01*
X553Y2707D02*
X568Y2707D01*
X1107Y2707D02*
X1122Y2707D01*
X182Y2706D02*
X198Y2706D01*
X459Y2706D02*
X475Y2706D01*
X553Y2706D02*
X568Y2706D01*
X1107Y2706D02*
X1123Y2706D01*
X182Y2705D02*
X199Y2705D01*
X459Y2705D02*
X475Y2705D01*
X553Y2705D02*
X568Y2705D01*
X1108Y2705D02*
X1123Y2705D01*
X183Y2704D02*
X199Y2704D01*
X460Y2704D02*
X475Y2704D01*
X553Y2704D02*
X568Y2704D01*
X1108Y2704D02*
X1123Y2704D01*
X183Y2703D02*
X200Y2703D01*
X460Y2703D02*
X476Y2703D01*
X553Y2703D02*
X568Y2703D01*
X1108Y2703D02*
X1123Y2703D01*
X184Y2702D02*
X200Y2702D01*
X460Y2702D02*
X476Y2702D01*
X553Y2702D02*
X568Y2702D01*
X1108Y2702D02*
X1123Y2702D01*
X184Y2701D02*
X201Y2701D01*
X461Y2701D02*
X476Y2701D01*
X553Y2701D02*
X568Y2701D01*
X1108Y2701D02*
X1123Y2701D01*
X185Y2700D02*
X201Y2700D01*
X461Y2700D02*
X477Y2700D01*
X553Y2700D02*
X568Y2700D01*
X1108Y2700D02*
X1123Y2700D01*
X185Y2699D02*
X202Y2699D01*
X461Y2699D02*
X477Y2699D01*
X553Y2699D02*
X568Y2699D01*
X1108Y2699D02*
X1123Y2699D01*
X186Y2698D02*
X202Y2698D01*
X462Y2698D02*
X477Y2698D01*
X553Y2698D02*
X568Y2698D01*
X1108Y2698D02*
X1123Y2698D01*
X186Y2697D02*
X202Y2697D01*
X462Y2697D02*
X478Y2697D01*
X553Y2697D02*
X568Y2697D01*
X1108Y2697D02*
X1123Y2697D01*
X186Y2696D02*
X203Y2696D01*
X462Y2696D02*
X478Y2696D01*
X553Y2696D02*
X568Y2696D01*
X1108Y2696D02*
X1123Y2696D01*
X187Y2695D02*
X203Y2695D01*
X462Y2695D02*
X478Y2695D01*
X553Y2695D02*
X568Y2695D01*
X1108Y2695D02*
X1123Y2695D01*
X187Y2694D02*
X204Y2694D01*
X463Y2694D02*
X478Y2694D01*
X553Y2694D02*
X568Y2694D01*
X1108Y2694D02*
X1123Y2694D01*
X188Y2693D02*
X204Y2693D01*
X463Y2693D02*
X479Y2693D01*
X553Y2693D02*
X568Y2693D01*
X1109Y2693D02*
X1124Y2693D01*
X188Y2692D02*
X205Y2692D01*
X463Y2692D02*
X479Y2692D01*
X553Y2692D02*
X568Y2692D01*
X1109Y2692D02*
X1124Y2692D01*
X189Y2691D02*
X205Y2691D01*
X464Y2691D02*
X479Y2691D01*
X553Y2691D02*
X568Y2691D01*
X1109Y2691D02*
X1124Y2691D01*
X189Y2690D02*
X205Y2690D01*
X464Y2690D02*
X479Y2690D01*
X553Y2690D02*
X568Y2690D01*
X1109Y2690D02*
X1124Y2690D01*
X190Y2689D02*
X206Y2689D01*
X464Y2689D02*
X480Y2689D01*
X553Y2689D02*
X568Y2689D01*
X1109Y2689D02*
X1124Y2689D01*
X190Y2688D02*
X206Y2688D01*
X464Y2688D02*
X480Y2688D01*
X553Y2688D02*
X568Y2688D01*
X1109Y2688D02*
X1124Y2688D01*
X190Y2687D02*
X207Y2687D01*
X465Y2687D02*
X480Y2687D01*
X553Y2687D02*
X568Y2687D01*
X1109Y2687D02*
X1124Y2687D01*
X191Y2686D02*
X207Y2686D01*
X465Y2686D02*
X480Y2686D01*
X553Y2686D02*
X568Y2686D01*
X1109Y2686D02*
X1124Y2686D01*
X191Y2685D02*
X208Y2685D01*
X465Y2685D02*
X481Y2685D01*
X553Y2685D02*
X568Y2685D01*
X1109Y2685D02*
X1124Y2685D01*
X192Y2684D02*
X208Y2684D01*
X465Y2684D02*
X481Y2684D01*
X553Y2684D02*
X568Y2684D01*
X1109Y2684D02*
X1124Y2684D01*
X192Y2683D02*
X208Y2683D01*
X466Y2683D02*
X481Y2683D01*
X553Y2683D02*
X568Y2683D01*
X1109Y2683D02*
X1124Y2683D01*
X193Y2682D02*
X209Y2682D01*
X466Y2682D02*
X481Y2682D01*
X553Y2682D02*
X568Y2682D01*
X1109Y2682D02*
X1124Y2682D01*
X193Y2681D02*
X209Y2681D01*
X466Y2681D02*
X482Y2681D01*
X553Y2681D02*
X568Y2681D01*
X1109Y2681D02*
X1124Y2681D01*
X193Y2680D02*
X210Y2680D01*
X466Y2680D02*
X482Y2680D01*
X553Y2680D02*
X568Y2680D01*
X1109Y2680D02*
X1124Y2680D01*
X194Y2679D02*
X210Y2679D01*
X467Y2679D02*
X482Y2679D01*
X553Y2679D02*
X568Y2679D01*
X1109Y2679D02*
X1124Y2679D01*
X194Y2678D02*
X210Y2678D01*
X467Y2678D02*
X482Y2678D01*
X553Y2678D02*
X568Y2678D01*
X1110Y2678D02*
X1125Y2678D01*
X195Y2677D02*
X211Y2677D01*
X467Y2677D02*
X482Y2677D01*
X552Y2677D02*
X567Y2677D01*
X1110Y2677D02*
X1125Y2677D01*
X195Y2676D02*
X211Y2676D01*
X467Y2676D02*
X483Y2676D01*
X552Y2676D02*
X567Y2676D01*
X1110Y2676D02*
X1125Y2676D01*
X196Y2675D02*
X212Y2675D01*
X468Y2675D02*
X483Y2675D01*
X552Y2675D02*
X567Y2675D01*
X1110Y2675D02*
X1125Y2675D01*
X196Y2674D02*
X212Y2674D01*
X468Y2674D02*
X483Y2674D01*
X552Y2674D02*
X567Y2674D01*
X1110Y2674D02*
X1125Y2674D01*
X196Y2673D02*
X212Y2673D01*
X468Y2673D02*
X483Y2673D01*
X552Y2673D02*
X567Y2673D01*
X1110Y2673D02*
X1125Y2673D01*
X197Y2672D02*
X213Y2672D01*
X468Y2672D02*
X484Y2672D01*
X552Y2672D02*
X567Y2672D01*
X1110Y2672D02*
X1125Y2672D01*
X197Y2671D02*
X213Y2671D01*
X468Y2671D02*
X484Y2671D01*
X552Y2671D02*
X567Y2671D01*
X1110Y2671D02*
X1125Y2671D01*
X198Y2670D02*
X214Y2670D01*
X469Y2670D02*
X484Y2670D01*
X552Y2670D02*
X567Y2670D01*
X1110Y2670D02*
X1125Y2670D01*
X198Y2669D02*
X214Y2669D01*
X469Y2669D02*
X484Y2669D01*
X552Y2669D02*
X567Y2669D01*
X1110Y2669D02*
X1125Y2669D01*
X198Y2668D02*
X214Y2668D01*
X469Y2668D02*
X484Y2668D01*
X552Y2668D02*
X567Y2668D01*
X1110Y2668D02*
X1125Y2668D01*
X199Y2667D02*
X215Y2667D01*
X469Y2667D02*
X485Y2667D01*
X552Y2667D02*
X567Y2667D01*
X1110Y2667D02*
X1125Y2667D01*
X199Y2666D02*
X215Y2666D01*
X469Y2666D02*
X485Y2666D01*
X552Y2666D02*
X567Y2666D01*
X1110Y2666D02*
X1125Y2666D01*
X200Y2665D02*
X215Y2665D01*
X470Y2665D02*
X485Y2665D01*
X552Y2665D02*
X567Y2665D01*
X1110Y2665D02*
X1125Y2665D01*
X200Y2664D02*
X216Y2664D01*
X470Y2664D02*
X485Y2664D01*
X552Y2664D02*
X567Y2664D01*
X1110Y2664D02*
X1125Y2664D01*
X200Y2663D02*
X216Y2663D01*
X470Y2663D02*
X485Y2663D01*
X552Y2663D02*
X567Y2663D01*
X1111Y2663D02*
X1126Y2663D01*
X201Y2662D02*
X217Y2662D01*
X470Y2662D02*
X486Y2662D01*
X552Y2662D02*
X567Y2662D01*
X1111Y2662D02*
X1126Y2662D01*
X201Y2661D02*
X217Y2661D01*
X470Y2661D02*
X486Y2661D01*
X552Y2661D02*
X567Y2661D01*
X1111Y2661D02*
X1126Y2661D01*
X201Y2660D02*
X217Y2660D01*
X471Y2660D02*
X486Y2660D01*
X552Y2660D02*
X567Y2660D01*
X1111Y2660D02*
X1126Y2660D01*
X202Y2659D02*
X218Y2659D01*
X471Y2659D02*
X486Y2659D01*
X552Y2659D02*
X567Y2659D01*
X1111Y2659D02*
X1126Y2659D01*
X202Y2658D02*
X218Y2658D01*
X471Y2658D02*
X486Y2658D01*
X552Y2658D02*
X567Y2658D01*
X1111Y2658D02*
X1126Y2658D01*
X203Y2657D02*
X218Y2657D01*
X471Y2657D02*
X486Y2657D01*
X552Y2657D02*
X567Y2657D01*
X1111Y2657D02*
X1126Y2657D01*
X203Y2656D02*
X219Y2656D01*
X471Y2656D02*
X487Y2656D01*
X551Y2656D02*
X566Y2656D01*
X1111Y2656D02*
X1126Y2656D01*
X203Y2655D02*
X219Y2655D01*
X472Y2655D02*
X487Y2655D01*
X551Y2655D02*
X566Y2655D01*
X1111Y2655D02*
X1126Y2655D01*
X204Y2654D02*
X219Y2654D01*
X472Y2654D02*
X487Y2654D01*
X551Y2654D02*
X566Y2654D01*
X1111Y2654D02*
X1126Y2654D01*
X204Y2653D02*
X220Y2653D01*
X472Y2653D02*
X487Y2653D01*
X551Y2653D02*
X566Y2653D01*
X1111Y2653D02*
X1126Y2653D01*
X204Y2652D02*
X220Y2652D01*
X472Y2652D02*
X487Y2652D01*
X551Y2652D02*
X566Y2652D01*
X1111Y2652D02*
X1126Y2652D01*
X205Y2651D02*
X220Y2651D01*
X472Y2651D02*
X487Y2651D01*
X551Y2651D02*
X566Y2651D01*
X1111Y2651D02*
X1126Y2651D01*
X205Y2650D02*
X221Y2650D01*
X472Y2650D02*
X488Y2650D01*
X551Y2650D02*
X566Y2650D01*
X1111Y2650D02*
X1126Y2650D01*
X205Y2649D02*
X221Y2649D01*
X473Y2649D02*
X488Y2649D01*
X551Y2649D02*
X566Y2649D01*
X1111Y2649D02*
X1126Y2649D01*
X206Y2648D02*
X221Y2648D01*
X473Y2648D02*
X488Y2648D01*
X551Y2648D02*
X566Y2648D01*
X1111Y2648D02*
X1126Y2648D01*
X206Y2647D02*
X222Y2647D01*
X473Y2647D02*
X488Y2647D01*
X551Y2647D02*
X566Y2647D01*
X1111Y2647D02*
X1126Y2647D01*
X206Y2646D02*
X222Y2646D01*
X473Y2646D02*
X488Y2646D01*
X551Y2646D02*
X566Y2646D01*
X1112Y2646D02*
X1127Y2646D01*
X207Y2645D02*
X222Y2645D01*
X473Y2645D02*
X488Y2645D01*
X551Y2645D02*
X566Y2645D01*
X1112Y2645D02*
X1127Y2645D01*
X207Y2644D02*
X223Y2644D01*
X473Y2644D02*
X489Y2644D01*
X551Y2644D02*
X566Y2644D01*
X1112Y2644D02*
X1127Y2644D01*
X208Y2643D02*
X223Y2643D01*
X474Y2643D02*
X489Y2643D01*
X551Y2643D02*
X566Y2643D01*
X1112Y2643D02*
X1127Y2643D01*
X208Y2642D02*
X223Y2642D01*
X474Y2642D02*
X489Y2642D01*
X551Y2642D02*
X566Y2642D01*
X1112Y2642D02*
X1127Y2642D01*
X208Y2641D02*
X224Y2641D01*
X474Y2641D02*
X489Y2641D01*
X551Y2641D02*
X566Y2641D01*
X1112Y2641D02*
X1127Y2641D01*
X209Y2640D02*
X224Y2640D01*
X474Y2640D02*
X489Y2640D01*
X550Y2640D02*
X566Y2640D01*
X1112Y2640D02*
X1127Y2640D01*
X209Y2639D02*
X224Y2639D01*
X474Y2639D02*
X489Y2639D01*
X550Y2639D02*
X565Y2639D01*
X1112Y2639D02*
X1127Y2639D01*
X209Y2638D02*
X225Y2638D01*
X474Y2638D02*
X489Y2638D01*
X550Y2638D02*
X565Y2638D01*
X1112Y2638D02*
X1127Y2638D01*
X209Y2637D02*
X225Y2637D01*
X474Y2637D02*
X489Y2637D01*
X550Y2637D02*
X565Y2637D01*
X1112Y2637D02*
X1127Y2637D01*
X210Y2636D02*
X225Y2636D01*
X474Y2636D02*
X490Y2636D01*
X550Y2636D02*
X565Y2636D01*
X1112Y2636D02*
X1127Y2636D01*
X210Y2635D02*
X226Y2635D01*
X475Y2635D02*
X490Y2635D01*
X550Y2635D02*
X565Y2635D01*
X1112Y2635D02*
X1127Y2635D01*
X210Y2634D02*
X226Y2634D01*
X475Y2634D02*
X490Y2634D01*
X550Y2634D02*
X565Y2634D01*
X1112Y2634D02*
X1127Y2634D01*
X211Y2633D02*
X226Y2633D01*
X475Y2633D02*
X490Y2633D01*
X550Y2633D02*
X565Y2633D01*
X1112Y2633D02*
X1127Y2633D01*
X211Y2632D02*
X226Y2632D01*
X475Y2632D02*
X490Y2632D01*
X550Y2632D02*
X565Y2632D01*
X1112Y2632D02*
X1127Y2632D01*
X211Y2631D02*
X227Y2631D01*
X475Y2631D02*
X490Y2631D01*
X550Y2631D02*
X565Y2631D01*
X1112Y2631D02*
X1127Y2631D01*
X212Y2630D02*
X227Y2630D01*
X475Y2630D02*
X490Y2630D01*
X550Y2630D02*
X565Y2630D01*
X1112Y2630D02*
X1127Y2630D01*
X212Y2629D02*
X227Y2629D01*
X475Y2629D02*
X491Y2629D01*
X550Y2629D02*
X565Y2629D01*
X1112Y2629D02*
X1127Y2629D01*
X212Y2628D02*
X228Y2628D01*
X476Y2628D02*
X491Y2628D01*
X550Y2628D02*
X565Y2628D01*
X1112Y2628D02*
X1127Y2628D01*
X213Y2627D02*
X228Y2627D01*
X476Y2627D02*
X491Y2627D01*
X550Y2627D02*
X565Y2627D01*
X1113Y2627D02*
X1128Y2627D01*
X213Y2626D02*
X228Y2626D01*
X476Y2626D02*
X491Y2626D01*
X549Y2626D02*
X565Y2626D01*
X1113Y2626D02*
X1128Y2626D01*
X213Y2625D02*
X228Y2625D01*
X476Y2625D02*
X491Y2625D01*
X549Y2625D02*
X564Y2625D01*
X1113Y2625D02*
X1128Y2625D01*
X213Y2624D02*
X229Y2624D01*
X476Y2624D02*
X491Y2624D01*
X549Y2624D02*
X564Y2624D01*
X1113Y2624D02*
X1128Y2624D01*
X214Y2623D02*
X229Y2623D01*
X476Y2623D02*
X491Y2623D01*
X549Y2623D02*
X564Y2623D01*
X1113Y2623D02*
X1128Y2623D01*
X214Y2622D02*
X229Y2622D01*
X476Y2622D02*
X491Y2622D01*
X549Y2622D02*
X564Y2622D01*
X1113Y2622D02*
X1128Y2622D01*
X214Y2621D02*
X229Y2621D01*
X476Y2621D02*
X491Y2621D01*
X549Y2621D02*
X564Y2621D01*
X1113Y2621D02*
X1128Y2621D01*
X214Y2620D02*
X230Y2620D01*
X477Y2620D02*
X492Y2620D01*
X549Y2620D02*
X564Y2620D01*
X1113Y2620D02*
X1128Y2620D01*
X215Y2619D02*
X230Y2619D01*
X477Y2619D02*
X492Y2619D01*
X549Y2619D02*
X564Y2619D01*
X1113Y2619D02*
X1128Y2619D01*
X215Y2618D02*
X230Y2618D01*
X477Y2618D02*
X492Y2618D01*
X549Y2618D02*
X564Y2618D01*
X1113Y2618D02*
X1128Y2618D01*
X215Y2617D02*
X230Y2617D01*
X477Y2617D02*
X492Y2617D01*
X549Y2617D02*
X564Y2617D01*
X1113Y2617D02*
X1128Y2617D01*
X216Y2616D02*
X231Y2616D01*
X477Y2616D02*
X492Y2616D01*
X549Y2616D02*
X564Y2616D01*
X1113Y2616D02*
X1128Y2616D01*
X216Y2615D02*
X231Y2615D01*
X477Y2615D02*
X492Y2615D01*
X549Y2615D02*
X564Y2615D01*
X1113Y2615D02*
X1128Y2615D01*
X216Y2614D02*
X231Y2614D01*
X477Y2614D02*
X492Y2614D01*
X549Y2614D02*
X564Y2614D01*
X1113Y2614D02*
X1128Y2614D01*
X216Y2613D02*
X231Y2613D01*
X477Y2613D02*
X492Y2613D01*
X548Y2613D02*
X563Y2613D01*
X1113Y2613D02*
X1128Y2613D01*
X217Y2612D02*
X232Y2612D01*
X477Y2612D02*
X492Y2612D01*
X548Y2612D02*
X563Y2612D01*
X1113Y2612D02*
X1128Y2612D01*
X217Y2611D02*
X232Y2611D01*
X477Y2611D02*
X492Y2611D01*
X548Y2611D02*
X563Y2611D01*
X1113Y2611D02*
X1128Y2611D01*
X217Y2610D02*
X232Y2610D01*
X478Y2610D02*
X493Y2610D01*
X548Y2610D02*
X563Y2610D01*
X1113Y2610D02*
X1128Y2610D01*
X217Y2609D02*
X232Y2609D01*
X478Y2609D02*
X493Y2609D01*
X548Y2609D02*
X563Y2609D01*
X1113Y2609D02*
X1128Y2609D01*
X218Y2608D02*
X233Y2608D01*
X478Y2608D02*
X493Y2608D01*
X548Y2608D02*
X563Y2608D01*
X1113Y2608D02*
X1128Y2608D01*
X218Y2607D02*
X233Y2607D01*
X478Y2607D02*
X493Y2607D01*
X548Y2607D02*
X563Y2607D01*
X1113Y2607D02*
X1128Y2607D01*
X218Y2606D02*
X233Y2606D01*
X478Y2606D02*
X493Y2606D01*
X548Y2606D02*
X563Y2606D01*
X1114Y2606D02*
X1129Y2606D01*
X218Y2605D02*
X233Y2605D01*
X478Y2605D02*
X493Y2605D01*
X548Y2605D02*
X563Y2605D01*
X1114Y2605D02*
X1129Y2605D01*
X218Y2604D02*
X233Y2604D01*
X478Y2604D02*
X493Y2604D01*
X548Y2604D02*
X563Y2604D01*
X1114Y2604D02*
X1129Y2604D01*
X219Y2603D02*
X234Y2603D01*
X478Y2603D02*
X493Y2603D01*
X547Y2603D02*
X563Y2603D01*
X1114Y2603D02*
X1129Y2603D01*
X219Y2602D02*
X234Y2602D01*
X478Y2602D02*
X493Y2602D01*
X547Y2602D02*
X562Y2602D01*
X1114Y2602D02*
X1129Y2602D01*
X219Y2601D02*
X234Y2601D01*
X478Y2601D02*
X493Y2601D01*
X547Y2601D02*
X562Y2601D01*
X1114Y2601D02*
X1129Y2601D01*
X219Y2600D02*
X234Y2600D01*
X478Y2600D02*
X493Y2600D01*
X547Y2600D02*
X562Y2600D01*
X1114Y2600D02*
X1129Y2600D01*
X219Y2599D02*
X234Y2599D01*
X479Y2599D02*
X494Y2599D01*
X547Y2599D02*
X562Y2599D01*
X1114Y2599D02*
X1129Y2599D01*
X220Y2598D02*
X235Y2598D01*
X479Y2598D02*
X494Y2598D01*
X547Y2598D02*
X562Y2598D01*
X1114Y2598D02*
X1129Y2598D01*
X220Y2597D02*
X235Y2597D01*
X479Y2597D02*
X494Y2597D01*
X547Y2597D02*
X562Y2597D01*
X1114Y2597D02*
X1129Y2597D01*
X220Y2596D02*
X235Y2596D01*
X479Y2596D02*
X494Y2596D01*
X547Y2596D02*
X562Y2596D01*
X1114Y2596D02*
X1129Y2596D01*
X220Y2595D02*
X235Y2595D01*
X479Y2595D02*
X494Y2595D01*
X547Y2595D02*
X562Y2595D01*
X1114Y2595D02*
X1129Y2595D01*
X220Y2594D02*
X235Y2594D01*
X479Y2594D02*
X494Y2594D01*
X547Y2594D02*
X562Y2594D01*
X1114Y2594D02*
X1129Y2594D01*
X221Y2593D02*
X235Y2593D01*
X479Y2593D02*
X494Y2593D01*
X546Y2593D02*
X561Y2593D01*
X1114Y2593D02*
X1129Y2593D01*
X221Y2592D02*
X236Y2592D01*
X479Y2592D02*
X494Y2592D01*
X546Y2592D02*
X561Y2592D01*
X1114Y2592D02*
X1129Y2592D01*
X221Y2591D02*
X236Y2591D01*
X479Y2591D02*
X494Y2591D01*
X546Y2591D02*
X561Y2591D01*
X1114Y2591D02*
X1129Y2591D01*
X221Y2590D02*
X236Y2590D01*
X479Y2590D02*
X494Y2590D01*
X546Y2590D02*
X561Y2590D01*
X1114Y2590D02*
X1129Y2590D01*
X221Y2589D02*
X236Y2589D01*
X479Y2589D02*
X494Y2589D01*
X546Y2589D02*
X561Y2589D01*
X1114Y2589D02*
X1129Y2589D01*
X221Y2588D02*
X236Y2588D01*
X479Y2588D02*
X494Y2588D01*
X546Y2588D02*
X561Y2588D01*
X1114Y2588D02*
X1129Y2588D01*
X222Y2587D02*
X236Y2587D01*
X479Y2587D02*
X494Y2587D01*
X546Y2587D02*
X561Y2587D01*
X1114Y2587D02*
X1129Y2587D01*
X222Y2586D02*
X237Y2586D01*
X479Y2586D02*
X495Y2586D01*
X546Y2586D02*
X561Y2586D01*
X1114Y2586D02*
X1129Y2586D01*
X222Y2585D02*
X237Y2585D01*
X480Y2585D02*
X495Y2585D01*
X545Y2585D02*
X561Y2585D01*
X1114Y2585D02*
X1129Y2585D01*
X222Y2584D02*
X237Y2584D01*
X480Y2584D02*
X495Y2584D01*
X545Y2584D02*
X560Y2584D01*
X1114Y2584D02*
X1129Y2584D01*
X222Y2583D02*
X237Y2583D01*
X480Y2583D02*
X495Y2583D01*
X545Y2583D02*
X560Y2583D01*
X1114Y2583D02*
X1129Y2583D01*
X222Y2582D02*
X237Y2582D01*
X480Y2582D02*
X495Y2582D01*
X545Y2582D02*
X560Y2582D01*
X1114Y2582D02*
X1129Y2582D01*
X222Y2581D02*
X237Y2581D01*
X480Y2581D02*
X495Y2581D01*
X545Y2581D02*
X560Y2581D01*
X1115Y2581D02*
X1130Y2581D01*
X223Y2580D02*
X237Y2580D01*
X480Y2580D02*
X495Y2580D01*
X545Y2580D02*
X560Y2580D01*
X1115Y2580D02*
X1130Y2580D01*
X223Y2579D02*
X237Y2579D01*
X480Y2579D02*
X495Y2579D01*
X545Y2579D02*
X560Y2579D01*
X1115Y2579D02*
X1130Y2579D01*
X223Y2578D02*
X238Y2578D01*
X480Y2578D02*
X495Y2578D01*
X545Y2578D02*
X560Y2578D01*
X1115Y2578D02*
X1130Y2578D01*
X223Y2577D02*
X238Y2577D01*
X480Y2577D02*
X495Y2577D01*
X544Y2577D02*
X560Y2577D01*
X1115Y2577D02*
X1130Y2577D01*
X223Y2576D02*
X238Y2576D01*
X480Y2576D02*
X495Y2576D01*
X544Y2576D02*
X559Y2576D01*
X1115Y2576D02*
X1130Y2576D01*
X223Y2575D02*
X238Y2575D01*
X480Y2575D02*
X495Y2575D01*
X544Y2575D02*
X559Y2575D01*
X1115Y2575D02*
X1130Y2575D01*
X223Y2574D02*
X238Y2574D01*
X480Y2574D02*
X495Y2574D01*
X544Y2574D02*
X559Y2574D01*
X1115Y2574D02*
X1130Y2574D01*
X223Y2573D02*
X238Y2573D01*
X480Y2573D02*
X495Y2573D01*
X544Y2573D02*
X559Y2573D01*
X1115Y2573D02*
X1130Y2573D01*
X223Y2572D02*
X238Y2572D01*
X480Y2572D02*
X495Y2572D01*
X544Y2572D02*
X559Y2572D01*
X1115Y2572D02*
X1130Y2572D01*
X224Y2571D02*
X238Y2571D01*
X480Y2571D02*
X495Y2571D01*
X544Y2571D02*
X559Y2571D01*
X1115Y2571D02*
X1130Y2571D01*
X224Y2570D02*
X238Y2570D01*
X480Y2570D02*
X495Y2570D01*
X543Y2570D02*
X559Y2570D01*
X1115Y2570D02*
X1130Y2570D01*
X224Y2569D02*
X238Y2569D01*
X480Y2569D02*
X495Y2569D01*
X543Y2569D02*
X558Y2569D01*
X1115Y2569D02*
X1130Y2569D01*
X224Y2568D02*
X238Y2568D01*
X480Y2568D02*
X495Y2568D01*
X543Y2568D02*
X558Y2568D01*
X1115Y2568D02*
X1130Y2568D01*
X224Y2567D02*
X239Y2567D01*
X480Y2567D02*
X495Y2567D01*
X543Y2567D02*
X558Y2567D01*
X1115Y2567D02*
X1130Y2567D01*
X224Y2566D02*
X239Y2566D01*
X481Y2566D02*
X496Y2566D01*
X543Y2566D02*
X558Y2566D01*
X1115Y2566D02*
X1130Y2566D01*
X224Y2565D02*
X239Y2565D01*
X481Y2565D02*
X496Y2565D01*
X543Y2565D02*
X558Y2565D01*
X1115Y2565D02*
X1130Y2565D01*
X224Y2564D02*
X239Y2564D01*
X481Y2564D02*
X496Y2564D01*
X542Y2564D02*
X558Y2564D01*
X1115Y2564D02*
X1130Y2564D01*
X224Y2563D02*
X239Y2563D01*
X481Y2563D02*
X496Y2563D01*
X542Y2563D02*
X557Y2563D01*
X1115Y2563D02*
X1130Y2563D01*
X224Y2562D02*
X239Y2562D01*
X481Y2562D02*
X496Y2562D01*
X542Y2562D02*
X557Y2562D01*
X1115Y2562D02*
X1130Y2562D01*
X224Y2561D02*
X239Y2561D01*
X481Y2561D02*
X496Y2561D01*
X542Y2561D02*
X557Y2561D01*
X1115Y2561D02*
X1130Y2561D01*
X224Y2560D02*
X239Y2560D01*
X481Y2560D02*
X496Y2560D01*
X542Y2560D02*
X557Y2560D01*
X1115Y2560D02*
X1130Y2560D01*
X224Y2559D02*
X239Y2559D01*
X481Y2559D02*
X496Y2559D01*
X542Y2559D02*
X557Y2559D01*
X1115Y2559D02*
X1130Y2559D01*
X224Y2558D02*
X239Y2558D01*
X481Y2558D02*
X495Y2558D01*
X541Y2558D02*
X557Y2558D01*
X1115Y2558D02*
X1130Y2558D01*
X224Y2557D02*
X239Y2557D01*
X482Y2557D02*
X495Y2557D01*
X541Y2557D02*
X556Y2557D01*
X1115Y2557D02*
X1130Y2557D01*
X224Y2556D02*
X239Y2556D01*
X482Y2556D02*
X494Y2556D01*
X541Y2556D02*
X556Y2556D01*
X1115Y2556D02*
X1130Y2556D01*
X224Y2555D02*
X239Y2555D01*
X483Y2555D02*
X494Y2555D01*
X541Y2555D02*
X556Y2555D01*
X1115Y2555D02*
X1130Y2555D01*
X224Y2554D02*
X239Y2554D01*
X484Y2554D02*
X493Y2554D01*
X541Y2554D02*
X556Y2554D01*
X1115Y2554D02*
X1130Y2554D01*
X224Y2553D02*
X239Y2553D01*
X486Y2553D02*
X491Y2553D01*
X541Y2553D02*
X556Y2553D01*
X1115Y2553D02*
X1130Y2553D01*
X224Y2552D02*
X239Y2552D01*
X540Y2552D02*
X556Y2552D01*
X1115Y2552D02*
X1130Y2552D01*
X224Y2551D02*
X239Y2551D01*
X540Y2551D02*
X555Y2551D01*
X1115Y2551D02*
X1130Y2551D01*
X224Y2550D02*
X239Y2550D01*
X540Y2550D02*
X555Y2550D01*
X1115Y2550D02*
X1130Y2550D01*
X224Y2549D02*
X239Y2549D01*
X540Y2549D02*
X555Y2549D01*
X1115Y2549D02*
X1130Y2549D01*
X224Y2548D02*
X239Y2548D01*
X540Y2548D02*
X555Y2548D01*
X1116Y2548D02*
X1131Y2548D01*
X224Y2547D02*
X239Y2547D01*
X539Y2547D02*
X555Y2547D01*
X1116Y2547D02*
X1131Y2547D01*
X224Y2546D02*
X239Y2546D01*
X539Y2546D02*
X554Y2546D01*
X1116Y2546D02*
X1131Y2546D01*
X224Y2545D02*
X239Y2545D01*
X539Y2545D02*
X554Y2545D01*
X1116Y2545D02*
X1131Y2545D01*
X224Y2544D02*
X239Y2544D01*
X539Y2544D02*
X554Y2544D01*
X1116Y2544D02*
X1131Y2544D01*
X224Y2543D02*
X239Y2543D01*
X539Y2543D02*
X554Y2543D01*
X1116Y2543D02*
X1131Y2543D01*
X224Y2542D02*
X239Y2542D01*
X538Y2542D02*
X554Y2542D01*
X1116Y2542D02*
X1131Y2542D01*
X224Y2541D02*
X239Y2541D01*
X538Y2541D02*
X554Y2541D01*
X1116Y2541D02*
X1131Y2541D01*
X224Y2540D02*
X238Y2540D01*
X538Y2540D02*
X553Y2540D01*
X1116Y2540D02*
X1131Y2540D01*
X224Y2539D02*
X238Y2539D01*
X538Y2539D02*
X553Y2539D01*
X1116Y2539D02*
X1131Y2539D01*
X223Y2538D02*
X238Y2538D01*
X538Y2538D02*
X553Y2538D01*
X1116Y2538D02*
X1131Y2538D01*
X223Y2537D02*
X238Y2537D01*
X537Y2537D02*
X553Y2537D01*
X1116Y2537D02*
X1131Y2537D01*
X223Y2536D02*
X238Y2536D01*
X537Y2536D02*
X552Y2536D01*
X1116Y2536D02*
X1131Y2536D01*
X223Y2535D02*
X238Y2535D01*
X537Y2535D02*
X552Y2535D01*
X1116Y2535D02*
X1131Y2535D01*
X223Y2534D02*
X238Y2534D01*
X537Y2534D02*
X552Y2534D01*
X1116Y2534D02*
X1131Y2534D01*
X223Y2533D02*
X238Y2533D01*
X536Y2533D02*
X552Y2533D01*
X1116Y2533D02*
X1131Y2533D01*
X223Y2532D02*
X238Y2532D01*
X536Y2532D02*
X552Y2532D01*
X1116Y2532D02*
X1131Y2532D01*
X223Y2531D02*
X238Y2531D01*
X536Y2531D02*
X551Y2531D01*
X1116Y2531D02*
X1131Y2531D01*
X222Y2530D02*
X237Y2530D01*
X536Y2530D02*
X551Y2530D01*
X1116Y2530D02*
X1131Y2530D01*
X222Y2529D02*
X237Y2529D01*
X535Y2529D02*
X551Y2529D01*
X1116Y2529D02*
X1131Y2529D01*
X222Y2528D02*
X237Y2528D01*
X535Y2528D02*
X551Y2528D01*
X1116Y2528D02*
X1131Y2528D01*
X222Y2527D02*
X237Y2527D01*
X535Y2527D02*
X550Y2527D01*
X1116Y2527D02*
X1131Y2527D01*
X222Y2526D02*
X237Y2526D01*
X535Y2526D02*
X550Y2526D01*
X1116Y2526D02*
X1131Y2526D01*
X222Y2525D02*
X237Y2525D01*
X534Y2525D02*
X550Y2525D01*
X1116Y2525D02*
X1131Y2525D01*
X221Y2524D02*
X236Y2524D01*
X534Y2524D02*
X550Y2524D01*
X1116Y2524D02*
X1131Y2524D01*
X221Y2523D02*
X236Y2523D01*
X534Y2523D02*
X549Y2523D01*
X1116Y2523D02*
X1131Y2523D01*
X221Y2522D02*
X236Y2522D01*
X534Y2522D02*
X549Y2522D01*
X1116Y2522D02*
X1131Y2522D01*
X221Y2521D02*
X236Y2521D01*
X533Y2521D02*
X549Y2521D01*
X1116Y2521D02*
X1131Y2521D01*
X220Y2520D02*
X236Y2520D01*
X533Y2520D02*
X549Y2520D01*
X1116Y2520D02*
X1131Y2520D01*
X220Y2519D02*
X235Y2519D01*
X533Y2519D02*
X548Y2519D01*
X1116Y2519D02*
X1131Y2519D01*
X220Y2518D02*
X235Y2518D01*
X532Y2518D02*
X548Y2518D01*
X1116Y2518D02*
X1131Y2518D01*
X220Y2517D02*
X235Y2517D01*
X532Y2517D02*
X548Y2517D01*
X1116Y2517D02*
X1131Y2517D01*
X219Y2516D02*
X235Y2516D01*
X532Y2516D02*
X547Y2516D01*
X1116Y2516D02*
X1131Y2516D01*
X219Y2515D02*
X235Y2515D01*
X531Y2515D02*
X547Y2515D01*
X1116Y2515D02*
X1131Y2515D01*
X219Y2514D02*
X234Y2514D01*
X531Y2514D02*
X547Y2514D01*
X1116Y2514D02*
X1131Y2514D01*
X219Y2513D02*
X234Y2513D01*
X531Y2513D02*
X547Y2513D01*
X1116Y2513D02*
X1131Y2513D01*
X218Y2512D02*
X234Y2512D01*
X530Y2512D02*
X546Y2512D01*
X1116Y2512D02*
X1131Y2512D01*
X218Y2511D02*
X234Y2511D01*
X530Y2511D02*
X546Y2511D01*
X1116Y2511D02*
X1131Y2511D01*
X218Y2510D02*
X233Y2510D01*
X530Y2510D02*
X546Y2510D01*
X1116Y2510D02*
X1131Y2510D01*
X217Y2509D02*
X233Y2509D01*
X529Y2509D02*
X545Y2509D01*
X1116Y2509D02*
X1131Y2509D01*
X217Y2508D02*
X233Y2508D01*
X529Y2508D02*
X545Y2508D01*
X1116Y2508D02*
X1131Y2508D01*
X217Y2507D02*
X232Y2507D01*
X529Y2507D02*
X545Y2507D01*
X1116Y2507D02*
X1131Y2507D01*
X216Y2506D02*
X232Y2506D01*
X528Y2506D02*
X544Y2506D01*
X1116Y2506D02*
X1131Y2506D01*
X216Y2505D02*
X232Y2505D01*
X528Y2505D02*
X544Y2505D01*
X1116Y2505D02*
X1131Y2505D01*
X215Y2504D02*
X231Y2504D01*
X528Y2504D02*
X544Y2504D01*
X1116Y2504D02*
X1131Y2504D01*
X215Y2503D02*
X231Y2503D01*
X527Y2503D02*
X543Y2503D01*
X1116Y2503D02*
X1131Y2503D01*
X215Y2502D02*
X231Y2502D01*
X527Y2502D02*
X543Y2502D01*
X1116Y2502D02*
X1131Y2502D01*
X214Y2501D02*
X230Y2501D01*
X526Y2501D02*
X543Y2501D01*
X1116Y2501D02*
X1131Y2501D01*
X214Y2500D02*
X230Y2500D01*
X526Y2500D02*
X542Y2500D01*
X1116Y2500D02*
X1131Y2500D01*
X213Y2499D02*
X230Y2499D01*
X526Y2499D02*
X542Y2499D01*
X1116Y2499D02*
X1131Y2499D01*
X213Y2498D02*
X229Y2498D01*
X525Y2498D02*
X541Y2498D01*
X1117Y2498D02*
X1132Y2498D01*
X212Y2497D02*
X229Y2497D01*
X525Y2497D02*
X541Y2497D01*
X1117Y2497D02*
X1132Y2497D01*
X212Y2496D02*
X228Y2496D01*
X524Y2496D02*
X541Y2496D01*
X1117Y2496D02*
X1132Y2496D01*
X211Y2495D02*
X228Y2495D01*
X524Y2495D02*
X540Y2495D01*
X1117Y2495D02*
X1132Y2495D01*
X211Y2494D02*
X228Y2494D01*
X523Y2494D02*
X540Y2494D01*
X1117Y2494D02*
X1132Y2494D01*
X210Y2493D02*
X227Y2493D01*
X523Y2493D02*
X539Y2493D01*
X1117Y2493D02*
X1132Y2493D01*
X210Y2492D02*
X227Y2492D01*
X522Y2492D02*
X539Y2492D01*
X1117Y2492D02*
X1132Y2492D01*
X210Y2491D02*
X226Y2491D01*
X522Y2491D02*
X538Y2491D01*
X1117Y2491D02*
X1132Y2491D01*
X210Y2490D02*
X226Y2490D01*
X521Y2490D02*
X538Y2490D01*
X1117Y2490D02*
X1132Y2490D01*
X210Y2489D02*
X225Y2489D01*
X521Y2489D02*
X537Y2489D01*
X1117Y2489D02*
X1132Y2489D01*
X210Y2488D02*
X225Y2488D01*
X520Y2488D02*
X537Y2488D01*
X1117Y2488D02*
X1132Y2488D01*
X211Y2487D02*
X224Y2487D01*
X520Y2487D02*
X536Y2487D01*
X1117Y2487D02*
X1132Y2487D01*
X211Y2486D02*
X224Y2486D01*
X519Y2486D02*
X536Y2486D01*
X1117Y2486D02*
X1132Y2486D01*
X212Y2485D02*
X223Y2485D01*
X518Y2485D02*
X535Y2485D01*
X1117Y2485D02*
X1132Y2485D01*
X213Y2484D02*
X222Y2484D01*
X518Y2484D02*
X535Y2484D01*
X1117Y2484D02*
X1132Y2484D01*
X214Y2483D02*
X220Y2483D01*
X517Y2483D02*
X534Y2483D01*
X1117Y2483D02*
X1132Y2483D01*
X516Y2482D02*
X534Y2482D01*
X1117Y2482D02*
X1132Y2482D01*
X516Y2481D02*
X533Y2481D01*
X1117Y2481D02*
X1132Y2481D01*
X515Y2480D02*
X533Y2480D01*
X1117Y2480D02*
X1132Y2480D01*
X514Y2479D02*
X532Y2479D01*
X1117Y2479D02*
X1132Y2479D01*
X513Y2478D02*
X531Y2478D01*
X1117Y2478D02*
X1132Y2478D01*
X512Y2477D02*
X531Y2477D01*
X1117Y2477D02*
X1132Y2477D01*
X511Y2476D02*
X530Y2476D01*
X1117Y2476D02*
X1132Y2476D01*
X510Y2475D02*
X529Y2475D01*
X1117Y2475D02*
X1132Y2475D01*
X509Y2474D02*
X529Y2474D01*
X1117Y2474D02*
X1132Y2474D01*
X507Y2473D02*
X528Y2473D01*
X1117Y2473D02*
X1132Y2473D01*
X506Y2472D02*
X527Y2472D01*
X1117Y2472D02*
X1132Y2472D01*
X504Y2471D02*
X526Y2471D01*
X1117Y2471D02*
X1132Y2471D01*
X501Y2470D02*
X526Y2470D01*
X1117Y2470D02*
X1132Y2470D01*
X499Y2469D02*
X525Y2469D01*
X1117Y2469D02*
X1132Y2469D01*
X497Y2468D02*
X524Y2468D01*
X1117Y2468D02*
X1132Y2468D01*
X496Y2467D02*
X523Y2467D01*
X1117Y2467D02*
X1132Y2467D01*
X495Y2466D02*
X522Y2466D01*
X1117Y2466D02*
X1132Y2466D01*
X495Y2465D02*
X521Y2465D01*
X1117Y2465D02*
X1132Y2465D01*
X494Y2464D02*
X520Y2464D01*
X1117Y2464D02*
X1132Y2464D01*
X494Y2463D02*
X519Y2463D01*
X1117Y2463D02*
X1132Y2463D01*
X494Y2462D02*
X518Y2462D01*
X1117Y2462D02*
X1132Y2462D01*
X494Y2461D02*
X516Y2461D01*
X1117Y2461D02*
X1132Y2461D01*
X494Y2460D02*
X515Y2460D01*
X1117Y2460D02*
X1132Y2460D01*
X495Y2459D02*
X514Y2459D01*
X1117Y2459D02*
X1132Y2459D01*
X495Y2458D02*
X512Y2458D01*
X1117Y2458D02*
X1132Y2458D01*
X496Y2457D02*
X510Y2457D01*
X1117Y2457D02*
X1132Y2457D01*
X497Y2456D02*
X508Y2456D01*
X1117Y2456D02*
X1132Y2456D01*
X498Y2455D02*
X506Y2455D01*
X1117Y2455D02*
X1132Y2455D01*
X501Y2454D02*
X503Y2454D01*
X1117Y2454D02*
X1132Y2454D01*
X1117Y2453D02*
X1132Y2453D01*
X1117Y2452D02*
X1132Y2452D01*
X1117Y2451D02*
X1132Y2451D01*
X1117Y2450D02*
X1132Y2450D01*
X1117Y2449D02*
X1132Y2449D01*
X1117Y2448D02*
X1132Y2448D01*
X1117Y2447D02*
X1132Y2447D01*
X1117Y2446D02*
X1132Y2446D01*
X1117Y2445D02*
X1132Y2445D01*
X1117Y2444D02*
X1132Y2444D01*
X1117Y2443D02*
X1132Y2443D01*
X1117Y2442D02*
X1132Y2442D01*
X1117Y2441D02*
X1132Y2441D01*
X1117Y2440D02*
X1132Y2440D01*
X1117Y2439D02*
X1132Y2439D01*
X1117Y2438D02*
X1132Y2438D01*
X1117Y2437D02*
X1132Y2437D01*
X1117Y2436D02*
X1132Y2436D01*
X1117Y2435D02*
X1132Y2435D01*
X1117Y2434D02*
X1132Y2434D01*
X1117Y2433D02*
X1132Y2433D01*
X1117Y2432D02*
X1132Y2432D01*
X1117Y2431D02*
X1132Y2431D01*
X1117Y2430D02*
X1132Y2430D01*
X1117Y2429D02*
X1132Y2429D01*
X1117Y2428D02*
X1132Y2428D01*
X1117Y2427D02*
X1132Y2427D01*
X1117Y2426D02*
X1132Y2426D01*
X1117Y2425D02*
X1132Y2425D01*
X1117Y2424D02*
X1132Y2424D01*
X1117Y2423D02*
X1132Y2423D01*
X1117Y2422D02*
X1132Y2422D01*
X1117Y2421D02*
X1132Y2421D01*
X1117Y2420D02*
X1132Y2420D01*
X1117Y2419D02*
X1132Y2419D01*
X1117Y2418D02*
X1132Y2418D01*
X1117Y2417D02*
X1132Y2417D01*
X1117Y2416D02*
X1132Y2416D01*
X1117Y2415D02*
X1132Y2415D01*
X1117Y2414D02*
X1132Y2414D01*
X1117Y2413D02*
X1132Y2413D01*
X1117Y2412D02*
X1132Y2412D01*
X1117Y2411D02*
X1132Y2411D01*
X1117Y2410D02*
X1132Y2410D01*
X1117Y2409D02*
X1132Y2409D01*
X1117Y2408D02*
X1132Y2408D01*
X1117Y2407D02*
X1132Y2407D01*
X1117Y2406D02*
X1132Y2406D01*
X1117Y2405D02*
X1132Y2405D01*
X1117Y2404D02*
X1132Y2404D01*
X1117Y2403D02*
X1132Y2403D01*
X1117Y2402D02*
X1132Y2402D01*
X1117Y2401D02*
X1132Y2401D01*
X1117Y2400D02*
X1132Y2400D01*
X1117Y2399D02*
X1132Y2399D01*
X1117Y2398D02*
X1132Y2398D01*
X1117Y2397D02*
X1132Y2397D01*
X1117Y2396D02*
X1132Y2396D01*
X1117Y2395D02*
X1132Y2395D01*
X1117Y2394D02*
X1132Y2394D01*
X1117Y2393D02*
X1132Y2393D01*
X1117Y2392D02*
X1132Y2392D01*
X1117Y2391D02*
X1132Y2391D01*
X1117Y2390D02*
X1132Y2390D01*
X1116Y2389D02*
X1131Y2389D01*
X1116Y2388D02*
X1131Y2388D01*
X1116Y2387D02*
X1131Y2387D01*
X1116Y2386D02*
X1131Y2386D01*
X1116Y2385D02*
X1131Y2385D01*
X1116Y2384D02*
X1131Y2384D01*
X1116Y2383D02*
X1131Y2383D01*
X1116Y2382D02*
X1131Y2382D01*
X1116Y2381D02*
X1131Y2381D01*
X1116Y2380D02*
X1131Y2380D01*
X1116Y2379D02*
X1131Y2379D01*
X1116Y2378D02*
X1131Y2378D01*
X1116Y2377D02*
X1131Y2377D01*
X1116Y2376D02*
X1131Y2376D01*
X1116Y2375D02*
X1131Y2375D01*
X1116Y2374D02*
X1131Y2374D01*
X1116Y2373D02*
X1131Y2373D01*
X1116Y2372D02*
X1131Y2372D01*
X1116Y2371D02*
X1131Y2371D01*
X1116Y2370D02*
X1131Y2370D01*
X1116Y2369D02*
X1131Y2369D01*
X1116Y2368D02*
X1131Y2368D01*
X1116Y2367D02*
X1131Y2367D01*
X1116Y2366D02*
X1131Y2366D01*
X1116Y2365D02*
X1131Y2365D01*
X1116Y2364D02*
X1131Y2364D01*
X1116Y2363D02*
X1131Y2363D01*
X1116Y2362D02*
X1131Y2362D01*
X1116Y2361D02*
X1131Y2361D01*
X1116Y2360D02*
X1131Y2360D01*
X1116Y2359D02*
X1131Y2359D01*
X1116Y2358D02*
X1131Y2358D01*
X1116Y2357D02*
X1131Y2357D01*
X1116Y2356D02*
X1131Y2356D01*
X1116Y2355D02*
X1131Y2355D01*
X1116Y2354D02*
X1131Y2354D01*
X1116Y2353D02*
X1131Y2353D01*
X1116Y2352D02*
X1131Y2352D01*
X1116Y2351D02*
X1131Y2351D01*
X1116Y2350D02*
X1130Y2350D01*
X1117Y2349D02*
X1130Y2349D01*
X1117Y2348D02*
X1129Y2348D01*
X1118Y2347D02*
X1129Y2347D01*
X1120Y2346D02*
X1127Y2346D01*
X1122Y2345D02*
X1125Y2345D01*
X886Y2177D02*
X889Y2177D01*
X884Y2176D02*
X892Y2176D01*
X883Y2175D02*
X893Y2175D01*
X882Y2174D02*
X894Y2174D01*
X881Y2173D02*
X894Y2173D01*
X881Y2172D02*
X895Y2172D01*
X880Y2171D02*
X895Y2171D01*
X880Y2170D02*
X895Y2170D01*
X880Y2169D02*
X895Y2169D01*
X880Y2168D02*
X895Y2168D01*
X879Y2167D02*
X895Y2167D01*
X879Y2166D02*
X895Y2166D01*
X878Y2165D02*
X894Y2165D01*
X878Y2164D02*
X894Y2164D01*
X878Y2163D02*
X894Y2163D01*
X877Y2162D02*
X893Y2162D01*
X877Y2161D02*
X893Y2161D01*
X876Y2160D02*
X893Y2160D01*
X876Y2159D02*
X892Y2159D01*
X875Y2158D02*
X892Y2158D01*
X875Y2157D02*
X891Y2157D01*
X874Y2156D02*
X891Y2156D01*
X874Y2155D02*
X891Y2155D01*
X873Y2154D02*
X890Y2154D01*
X873Y2153D02*
X890Y2153D01*
X872Y2152D02*
X889Y2152D01*
X872Y2151D02*
X889Y2151D01*
X871Y2150D02*
X888Y2150D01*
X870Y2149D02*
X888Y2149D01*
X870Y2148D02*
X887Y2148D01*
X869Y2147D02*
X887Y2147D01*
X869Y2146D02*
X886Y2146D01*
X868Y2145D02*
X886Y2145D01*
X867Y2144D02*
X885Y2144D01*
X867Y2143D02*
X884Y2143D01*
X866Y2142D02*
X884Y2142D01*
X865Y2141D02*
X883Y2141D01*
X865Y2140D02*
X883Y2140D01*
X864Y2139D02*
X882Y2139D01*
X863Y2138D02*
X881Y2138D01*
X862Y2137D02*
X881Y2137D01*
X862Y2136D02*
X880Y2136D01*
X861Y2135D02*
X880Y2135D01*
X860Y2134D02*
X879Y2134D01*
X860Y2133D02*
X878Y2133D01*
X859Y2132D02*
X878Y2132D01*
X858Y2131D02*
X877Y2131D01*
X857Y2130D02*
X876Y2130D01*
X856Y2129D02*
X875Y2129D01*
X856Y2128D02*
X875Y2128D01*
X855Y2127D02*
X874Y2127D01*
X854Y2126D02*
X873Y2126D01*
X853Y2125D02*
X873Y2125D01*
X852Y2124D02*
X872Y2124D01*
X852Y2123D02*
X871Y2123D01*
X851Y2122D02*
X870Y2122D01*
X850Y2121D02*
X870Y2121D01*
X849Y2120D02*
X869Y2120D01*
X848Y2119D02*
X868Y2119D01*
X847Y2118D02*
X867Y2118D01*
X846Y2117D02*
X866Y2117D01*
X845Y2116D02*
X865Y2116D01*
X844Y2115D02*
X865Y2115D01*
X844Y2114D02*
X864Y2114D01*
X843Y2113D02*
X863Y2113D01*
X842Y2112D02*
X862Y2112D01*
X841Y2111D02*
X861Y2111D01*
X840Y2110D02*
X861Y2110D01*
X839Y2109D02*
X860Y2109D01*
X838Y2108D02*
X859Y2108D01*
X837Y2107D02*
X858Y2107D01*
X836Y2106D02*
X857Y2106D01*
X835Y2105D02*
X856Y2105D01*
X834Y2104D02*
X855Y2104D01*
X833Y2103D02*
X854Y2103D01*
X832Y2102D02*
X853Y2102D01*
X831Y2101D02*
X852Y2101D01*
X830Y2100D02*
X851Y2100D01*
X829Y2099D02*
X850Y2099D01*
X828Y2098D02*
X850Y2098D01*
X827Y2097D02*
X849Y2097D01*
X826Y2096D02*
X848Y2096D01*
X825Y2095D02*
X847Y2095D01*
X823Y2094D02*
X846Y2094D01*
X822Y2093D02*
X845Y2093D01*
X821Y2092D02*
X844Y2092D01*
X820Y2091D02*
X843Y2091D01*
X819Y2090D02*
X842Y2090D01*
X818Y2089D02*
X840Y2089D01*
X817Y2088D02*
X839Y2088D01*
X816Y2087D02*
X838Y2087D01*
X814Y2086D02*
X837Y2086D01*
X813Y2085D02*
X836Y2085D01*
X812Y2084D02*
X835Y2084D01*
X811Y2083D02*
X834Y2083D01*
X810Y2082D02*
X833Y2082D01*
X808Y2081D02*
X832Y2081D01*
X807Y2080D02*
X831Y2080D01*
X806Y2079D02*
X830Y2079D01*
X805Y2078D02*
X828Y2078D01*
X804Y2077D02*
X827Y2077D01*
X802Y2076D02*
X826Y2076D01*
X801Y2075D02*
X825Y2075D01*
X800Y2074D02*
X824Y2074D01*
X798Y2073D02*
X823Y2073D01*
X797Y2072D02*
X821Y2072D01*
X796Y2071D02*
X820Y2071D01*
X795Y2070D02*
X819Y2070D01*
X793Y2069D02*
X818Y2069D01*
X792Y2068D02*
X817Y2068D01*
X791Y2067D02*
X816Y2067D01*
X789Y2066D02*
X814Y2066D01*
X788Y2065D02*
X813Y2065D01*
X787Y2064D02*
X812Y2064D01*
X785Y2063D02*
X810Y2063D01*
X784Y2062D02*
X809Y2062D01*
X782Y2061D02*
X808Y2061D01*
X781Y2060D02*
X807Y2060D01*
X780Y2059D02*
X805Y2059D01*
X778Y2058D02*
X804Y2058D01*
X777Y2057D02*
X803Y2057D01*
X775Y2056D02*
X801Y2056D01*
X774Y2055D02*
X800Y2055D01*
X773Y2054D02*
X799Y2054D01*
X771Y2053D02*
X797Y2053D01*
X770Y2052D02*
X796Y2052D01*
X768Y2051D02*
X795Y2051D01*
X767Y2050D02*
X793Y2050D01*
X765Y2049D02*
X792Y2049D01*
X764Y2048D02*
X791Y2048D01*
X762Y2047D02*
X789Y2047D01*
X761Y2046D02*
X788Y2046D01*
X759Y2045D02*
X786Y2045D01*
X758Y2044D02*
X785Y2044D01*
X756Y2043D02*
X784Y2043D01*
X754Y2042D02*
X782Y2042D01*
X753Y2041D02*
X781Y2041D01*
X751Y2040D02*
X779Y2040D01*
X750Y2039D02*
X778Y2039D01*
X748Y2038D02*
X776Y2038D01*
X747Y2037D02*
X775Y2037D01*
X745Y2036D02*
X773Y2036D01*
X743Y2035D02*
X772Y2035D01*
X742Y2034D02*
X770Y2034D01*
X740Y2033D02*
X769Y2033D01*
X738Y2032D02*
X767Y2032D01*
X737Y2031D02*
X766Y2031D01*
X735Y2030D02*
X764Y2030D01*
X733Y2029D02*
X763Y2029D01*
X732Y2028D02*
X761Y2028D01*
X730Y2027D02*
X760Y2027D01*
X728Y2026D02*
X758Y2026D01*
X727Y2025D02*
X756Y2025D01*
X725Y2024D02*
X755Y2024D01*
X723Y2023D02*
X753Y2023D01*
X721Y2022D02*
X752Y2022D01*
X720Y2021D02*
X750Y2021D01*
X718Y2020D02*
X748Y2020D01*
X716Y2019D02*
X747Y2019D01*
X714Y2018D02*
X745Y2018D01*
X712Y2017D02*
X743Y2017D01*
X711Y2016D02*
X742Y2016D01*
X709Y2015D02*
X740Y2015D01*
X707Y2014D02*
X738Y2014D01*
X705Y2013D02*
X737Y2013D01*
X703Y2012D02*
X735Y2012D01*
X701Y2011D02*
X733Y2011D01*
X700Y2010D02*
X732Y2010D01*
X698Y2009D02*
X730Y2009D01*
X696Y2008D02*
X728Y2008D01*
X694Y2007D02*
X726Y2007D01*
X692Y2006D02*
X724Y2006D01*
X690Y2005D02*
X723Y2005D01*
X688Y2004D02*
X721Y2004D01*
X686Y2003D02*
X719Y2003D01*
X684Y2002D02*
X717Y2002D01*
X682Y2001D02*
X716Y2001D01*
X680Y2000D02*
X714Y2000D01*
X678Y1999D02*
X712Y1999D01*
X676Y1998D02*
X710Y1998D01*
X674Y1997D02*
X708Y1997D01*
X672Y1996D02*
X706Y1996D01*
X671Y1995D02*
X704Y1995D01*
X669Y1994D02*
X703Y1994D01*
X669Y1993D02*
X701Y1993D01*
X668Y1992D02*
X699Y1992D01*
X668Y1991D02*
X697Y1991D01*
X667Y1990D02*
X695Y1990D01*
X667Y1989D02*
X693Y1989D01*
X667Y1988D02*
X691Y1988D01*
X667Y1987D02*
X689Y1987D01*
X668Y1986D02*
X687Y1986D01*
X668Y1985D02*
X685Y1985D01*
X669Y1984D02*
X683Y1984D01*
X669Y1983D02*
X681Y1983D01*
X670Y1982D02*
X679Y1982D01*
X672Y1981D02*
X677Y1981D01*
D02*
G04 End of Copper0*
M02*