G04 MADE WITH FRITZING*
G04 WWW.FRITZING.ORG*
G04 DOUBLE SIDED*
G04 HOLES PLATED*
G04 CONTOUR ON CENTER OF CONTOUR VECTOR*
%ASAXBY*%
%FSLAX23Y23*%
%MOIN*%
%OFA0B0*%
%SFA1.0B1.0*%
%ADD10R,0.001000X0.001000*%
%LNSILK0*%
G90*
G70*
G54D10*
X232Y3636D02*
X242Y3636D01*
X491Y3636D02*
X502Y3636D01*
X751Y3636D02*
X761Y3636D01*
X1010Y3636D02*
X1021Y3636D01*
X230Y3635D02*
X244Y3635D01*
X490Y3635D02*
X503Y3635D01*
X749Y3635D02*
X763Y3635D01*
X1009Y3635D02*
X1022Y3635D01*
X230Y3634D02*
X245Y3634D01*
X489Y3634D02*
X504Y3634D01*
X749Y3634D02*
X764Y3634D01*
X1008Y3634D02*
X1023Y3634D01*
X229Y3633D02*
X245Y3633D01*
X489Y3633D02*
X505Y3633D01*
X748Y3633D02*
X764Y3633D01*
X1008Y3633D02*
X1024Y3633D01*
X229Y3632D02*
X246Y3632D01*
X488Y3632D02*
X505Y3632D01*
X748Y3632D02*
X765Y3632D01*
X1007Y3632D02*
X1024Y3632D01*
X163Y3631D02*
X185Y3631D01*
X229Y3631D02*
X246Y3631D01*
X423Y3631D02*
X445Y3631D01*
X488Y3631D02*
X505Y3631D01*
X682Y3631D02*
X704Y3631D01*
X748Y3631D02*
X765Y3631D01*
X942Y3631D02*
X964Y3631D01*
X1007Y3631D02*
X1024Y3631D01*
X162Y3630D02*
X187Y3630D01*
X229Y3630D02*
X246Y3630D01*
X421Y3630D02*
X446Y3630D01*
X488Y3630D02*
X505Y3630D01*
X681Y3630D02*
X706Y3630D01*
X748Y3630D02*
X765Y3630D01*
X940Y3630D02*
X965Y3630D01*
X1007Y3630D02*
X1024Y3630D01*
X161Y3629D02*
X188Y3629D01*
X229Y3629D02*
X246Y3629D01*
X421Y3629D02*
X447Y3629D01*
X488Y3629D02*
X505Y3629D01*
X680Y3629D02*
X707Y3629D01*
X748Y3629D02*
X765Y3629D01*
X940Y3629D02*
X966Y3629D01*
X1007Y3629D02*
X1024Y3629D01*
X160Y3628D02*
X188Y3628D01*
X229Y3628D02*
X246Y3628D01*
X420Y3628D02*
X448Y3628D01*
X488Y3628D02*
X505Y3628D01*
X679Y3628D02*
X707Y3628D01*
X748Y3628D02*
X765Y3628D01*
X939Y3628D02*
X967Y3628D01*
X1007Y3628D02*
X1024Y3628D01*
X160Y3627D02*
X189Y3627D01*
X229Y3627D02*
X246Y3627D01*
X420Y3627D02*
X448Y3627D01*
X488Y3627D02*
X505Y3627D01*
X679Y3627D02*
X708Y3627D01*
X748Y3627D02*
X765Y3627D01*
X939Y3627D02*
X967Y3627D01*
X1007Y3627D02*
X1024Y3627D01*
X160Y3626D02*
X189Y3626D01*
X229Y3626D02*
X246Y3626D01*
X419Y3626D02*
X448Y3626D01*
X488Y3626D02*
X505Y3626D01*
X679Y3626D02*
X708Y3626D01*
X748Y3626D02*
X765Y3626D01*
X938Y3626D02*
X967Y3626D01*
X1007Y3626D02*
X1024Y3626D01*
X160Y3625D02*
X189Y3625D01*
X229Y3625D02*
X246Y3625D01*
X419Y3625D02*
X448Y3625D01*
X488Y3625D02*
X505Y3625D01*
X679Y3625D02*
X708Y3625D01*
X748Y3625D02*
X765Y3625D01*
X938Y3625D02*
X967Y3625D01*
X1007Y3625D02*
X1024Y3625D01*
X160Y3624D02*
X189Y3624D01*
X229Y3624D02*
X245Y3624D01*
X419Y3624D02*
X448Y3624D01*
X488Y3624D02*
X505Y3624D01*
X679Y3624D02*
X708Y3624D01*
X748Y3624D02*
X764Y3624D01*
X938Y3624D02*
X967Y3624D01*
X1007Y3624D02*
X1024Y3624D01*
X160Y3623D02*
X188Y3623D01*
X229Y3623D02*
X245Y3623D01*
X419Y3623D02*
X448Y3623D01*
X489Y3623D02*
X504Y3623D01*
X679Y3623D02*
X707Y3623D01*
X748Y3623D02*
X764Y3623D01*
X938Y3623D02*
X967Y3623D01*
X1008Y3623D02*
X1023Y3623D01*
X160Y3622D02*
X187Y3622D01*
X230Y3622D02*
X244Y3622D01*
X419Y3622D02*
X447Y3622D01*
X489Y3622D02*
X504Y3622D01*
X679Y3622D02*
X706Y3622D01*
X749Y3622D02*
X763Y3622D01*
X938Y3622D02*
X966Y3622D01*
X1009Y3622D02*
X1023Y3622D01*
X160Y3621D02*
X186Y3621D01*
X231Y3621D02*
X243Y3621D01*
X419Y3621D02*
X446Y3621D01*
X491Y3621D02*
X503Y3621D01*
X679Y3621D02*
X705Y3621D01*
X750Y3621D02*
X762Y3621D01*
X938Y3621D02*
X965Y3621D01*
X1010Y3621D02*
X1022Y3621D01*
X160Y3620D02*
X185Y3620D01*
X233Y3620D02*
X241Y3620D01*
X419Y3620D02*
X444Y3620D01*
X492Y3620D02*
X501Y3620D01*
X679Y3620D02*
X704Y3620D01*
X752Y3620D02*
X760Y3620D01*
X938Y3620D02*
X963Y3620D01*
X1011Y3620D02*
X1020Y3620D01*
X160Y3619D02*
X171Y3619D01*
X419Y3619D02*
X430Y3619D01*
X679Y3619D02*
X690Y3619D01*
X938Y3619D02*
X950Y3619D01*
X160Y3618D02*
X171Y3618D01*
X419Y3618D02*
X430Y3618D01*
X679Y3618D02*
X690Y3618D01*
X938Y3618D02*
X950Y3618D01*
X160Y3617D02*
X171Y3617D01*
X419Y3617D02*
X430Y3617D01*
X679Y3617D02*
X690Y3617D01*
X938Y3617D02*
X950Y3617D01*
X160Y3616D02*
X171Y3616D01*
X419Y3616D02*
X430Y3616D01*
X679Y3616D02*
X690Y3616D01*
X938Y3616D02*
X950Y3616D01*
X160Y3615D02*
X171Y3615D01*
X419Y3615D02*
X430Y3615D01*
X679Y3615D02*
X690Y3615D01*
X938Y3615D02*
X950Y3615D01*
X160Y3614D02*
X171Y3614D01*
X419Y3614D02*
X430Y3614D01*
X679Y3614D02*
X690Y3614D01*
X938Y3614D02*
X950Y3614D01*
X160Y3613D02*
X171Y3613D01*
X419Y3613D02*
X430Y3613D01*
X679Y3613D02*
X690Y3613D01*
X938Y3613D02*
X950Y3613D01*
X160Y3612D02*
X171Y3612D01*
X419Y3612D02*
X430Y3612D01*
X679Y3612D02*
X690Y3612D01*
X938Y3612D02*
X950Y3612D01*
X160Y3611D02*
X171Y3611D01*
X419Y3611D02*
X430Y3611D01*
X679Y3611D02*
X690Y3611D01*
X938Y3611D02*
X950Y3611D01*
X160Y3610D02*
X171Y3610D01*
X419Y3610D02*
X430Y3610D01*
X679Y3610D02*
X690Y3610D01*
X938Y3610D02*
X950Y3610D01*
X160Y3609D02*
X171Y3609D01*
X419Y3609D02*
X430Y3609D01*
X679Y3609D02*
X690Y3609D01*
X938Y3609D02*
X950Y3609D01*
X160Y3608D02*
X171Y3608D01*
X419Y3608D02*
X430Y3608D01*
X679Y3608D02*
X690Y3608D01*
X938Y3608D02*
X950Y3608D01*
X160Y3607D02*
X171Y3607D01*
X419Y3607D02*
X430Y3607D01*
X679Y3607D02*
X690Y3607D01*
X938Y3607D02*
X950Y3607D01*
X54Y3606D02*
X84Y3606D01*
X160Y3606D02*
X171Y3606D01*
X233Y3606D02*
X259Y3606D01*
X313Y3606D02*
X343Y3606D01*
X419Y3606D02*
X430Y3606D01*
X492Y3606D02*
X519Y3606D01*
X573Y3606D02*
X603Y3606D01*
X679Y3606D02*
X690Y3606D01*
X752Y3606D02*
X778Y3606D01*
X832Y3606D02*
X862Y3606D01*
X938Y3606D02*
X950Y3606D01*
X1011Y3606D02*
X1038Y3606D01*
X52Y3605D02*
X87Y3605D01*
X160Y3605D02*
X171Y3605D01*
X231Y3605D02*
X261Y3605D01*
X312Y3605D02*
X347Y3605D01*
X419Y3605D02*
X430Y3605D01*
X490Y3605D02*
X521Y3605D01*
X571Y3605D02*
X606Y3605D01*
X679Y3605D02*
X690Y3605D01*
X750Y3605D02*
X780Y3605D01*
X831Y3605D02*
X866Y3605D01*
X938Y3605D02*
X950Y3605D01*
X1010Y3605D02*
X1040Y3605D01*
X51Y3604D02*
X89Y3604D01*
X160Y3604D02*
X171Y3604D01*
X230Y3604D02*
X262Y3604D01*
X310Y3604D02*
X349Y3604D01*
X419Y3604D02*
X430Y3604D01*
X489Y3604D02*
X522Y3604D01*
X570Y3604D02*
X608Y3604D01*
X679Y3604D02*
X690Y3604D01*
X749Y3604D02*
X781Y3604D01*
X830Y3604D02*
X868Y3604D01*
X938Y3604D02*
X950Y3604D01*
X1008Y3604D02*
X1041Y3604D01*
X50Y3603D02*
X91Y3603D01*
X160Y3603D02*
X171Y3603D01*
X229Y3603D02*
X263Y3603D01*
X310Y3603D02*
X350Y3603D01*
X419Y3603D02*
X430Y3603D01*
X489Y3603D02*
X522Y3603D01*
X569Y3603D02*
X610Y3603D01*
X679Y3603D02*
X690Y3603D01*
X748Y3603D02*
X782Y3603D01*
X829Y3603D02*
X869Y3603D01*
X938Y3603D02*
X950Y3603D01*
X1008Y3603D02*
X1041Y3603D01*
X50Y3602D02*
X92Y3602D01*
X160Y3602D02*
X171Y3602D01*
X229Y3602D02*
X263Y3602D01*
X309Y3602D02*
X352Y3602D01*
X419Y3602D02*
X430Y3602D01*
X488Y3602D02*
X523Y3602D01*
X569Y3602D02*
X611Y3602D01*
X679Y3602D02*
X690Y3602D01*
X748Y3602D02*
X782Y3602D01*
X828Y3602D02*
X871Y3602D01*
X938Y3602D02*
X950Y3602D01*
X1007Y3602D02*
X1042Y3602D01*
X50Y3601D02*
X94Y3601D01*
X160Y3601D02*
X171Y3601D01*
X229Y3601D02*
X263Y3601D01*
X309Y3601D02*
X353Y3601D01*
X419Y3601D02*
X430Y3601D01*
X488Y3601D02*
X523Y3601D01*
X569Y3601D02*
X613Y3601D01*
X679Y3601D02*
X690Y3601D01*
X748Y3601D02*
X782Y3601D01*
X828Y3601D02*
X872Y3601D01*
X938Y3601D02*
X950Y3601D01*
X1007Y3601D02*
X1042Y3601D01*
X50Y3600D02*
X95Y3600D01*
X160Y3600D02*
X171Y3600D01*
X229Y3600D02*
X263Y3600D01*
X309Y3600D02*
X354Y3600D01*
X419Y3600D02*
X430Y3600D01*
X488Y3600D02*
X523Y3600D01*
X569Y3600D02*
X614Y3600D01*
X679Y3600D02*
X690Y3600D01*
X748Y3600D02*
X782Y3600D01*
X828Y3600D02*
X873Y3600D01*
X938Y3600D02*
X950Y3600D01*
X1007Y3600D02*
X1042Y3600D01*
X50Y3599D02*
X96Y3599D01*
X160Y3599D02*
X171Y3599D01*
X229Y3599D02*
X263Y3599D01*
X309Y3599D02*
X355Y3599D01*
X419Y3599D02*
X430Y3599D01*
X488Y3599D02*
X523Y3599D01*
X569Y3599D02*
X615Y3599D01*
X679Y3599D02*
X690Y3599D01*
X748Y3599D02*
X782Y3599D01*
X828Y3599D02*
X874Y3599D01*
X938Y3599D02*
X950Y3599D01*
X1007Y3599D02*
X1042Y3599D01*
X50Y3598D02*
X97Y3598D01*
X160Y3598D02*
X171Y3598D01*
X229Y3598D02*
X263Y3598D01*
X310Y3598D02*
X357Y3598D01*
X419Y3598D02*
X430Y3598D01*
X488Y3598D02*
X522Y3598D01*
X569Y3598D02*
X616Y3598D01*
X679Y3598D02*
X690Y3598D01*
X748Y3598D02*
X782Y3598D01*
X829Y3598D02*
X876Y3598D01*
X938Y3598D02*
X950Y3598D01*
X1007Y3598D02*
X1041Y3598D01*
X51Y3597D02*
X98Y3597D01*
X160Y3597D02*
X171Y3597D01*
X229Y3597D02*
X262Y3597D01*
X310Y3597D02*
X358Y3597D01*
X419Y3597D02*
X430Y3597D01*
X488Y3597D02*
X522Y3597D01*
X570Y3597D02*
X617Y3597D01*
X679Y3597D02*
X690Y3597D01*
X748Y3597D02*
X781Y3597D01*
X829Y3597D02*
X877Y3597D01*
X938Y3597D02*
X950Y3597D01*
X1007Y3597D02*
X1041Y3597D01*
X52Y3596D02*
X99Y3596D01*
X160Y3596D02*
X171Y3596D01*
X229Y3596D02*
X262Y3596D01*
X311Y3596D02*
X359Y3596D01*
X419Y3596D02*
X430Y3596D01*
X488Y3596D02*
X521Y3596D01*
X571Y3596D02*
X618Y3596D01*
X679Y3596D02*
X690Y3596D01*
X748Y3596D02*
X781Y3596D01*
X830Y3596D02*
X878Y3596D01*
X938Y3596D02*
X950Y3596D01*
X1007Y3596D02*
X1040Y3596D01*
X53Y3595D02*
X100Y3595D01*
X160Y3595D02*
X171Y3595D01*
X229Y3595D02*
X260Y3595D01*
X312Y3595D02*
X360Y3595D01*
X419Y3595D02*
X430Y3595D01*
X488Y3595D02*
X520Y3595D01*
X572Y3595D02*
X619Y3595D01*
X679Y3595D02*
X690Y3595D01*
X748Y3595D02*
X779Y3595D01*
X831Y3595D02*
X879Y3595D01*
X938Y3595D02*
X950Y3595D01*
X1007Y3595D02*
X1039Y3595D01*
X83Y3594D02*
X101Y3594D01*
X160Y3594D02*
X171Y3594D01*
X229Y3594D02*
X240Y3594D01*
X342Y3594D02*
X361Y3594D01*
X419Y3594D02*
X430Y3594D01*
X488Y3594D02*
X499Y3594D01*
X602Y3594D02*
X620Y3594D01*
X679Y3594D02*
X690Y3594D01*
X748Y3594D02*
X759Y3594D01*
X861Y3594D02*
X880Y3594D01*
X938Y3594D02*
X950Y3594D01*
X1007Y3594D02*
X1018Y3594D01*
X85Y3593D02*
X102Y3593D01*
X160Y3593D02*
X171Y3593D01*
X229Y3593D02*
X240Y3593D01*
X344Y3593D02*
X362Y3593D01*
X419Y3593D02*
X430Y3593D01*
X488Y3593D02*
X499Y3593D01*
X604Y3593D02*
X621Y3593D01*
X679Y3593D02*
X690Y3593D01*
X748Y3593D02*
X759Y3593D01*
X863Y3593D02*
X881Y3593D01*
X938Y3593D02*
X950Y3593D01*
X1007Y3593D02*
X1018Y3593D01*
X86Y3592D02*
X103Y3592D01*
X160Y3592D02*
X171Y3592D01*
X229Y3592D02*
X240Y3592D01*
X345Y3592D02*
X363Y3592D01*
X419Y3592D02*
X430Y3592D01*
X488Y3592D02*
X499Y3592D01*
X605Y3592D02*
X622Y3592D01*
X679Y3592D02*
X690Y3592D01*
X748Y3592D02*
X759Y3592D01*
X864Y3592D02*
X882Y3592D01*
X938Y3592D02*
X950Y3592D01*
X1007Y3592D02*
X1018Y3592D01*
X87Y3591D02*
X104Y3591D01*
X160Y3591D02*
X171Y3591D01*
X229Y3591D02*
X240Y3591D01*
X346Y3591D02*
X364Y3591D01*
X419Y3591D02*
X430Y3591D01*
X488Y3591D02*
X499Y3591D01*
X606Y3591D02*
X623Y3591D01*
X679Y3591D02*
X690Y3591D01*
X748Y3591D02*
X759Y3591D01*
X865Y3591D02*
X883Y3591D01*
X938Y3591D02*
X950Y3591D01*
X1007Y3591D02*
X1018Y3591D01*
X88Y3590D02*
X105Y3590D01*
X160Y3590D02*
X171Y3590D01*
X229Y3590D02*
X240Y3590D01*
X348Y3590D02*
X364Y3590D01*
X419Y3590D02*
X430Y3590D01*
X488Y3590D02*
X499Y3590D01*
X607Y3590D02*
X624Y3590D01*
X679Y3590D02*
X690Y3590D01*
X748Y3590D02*
X759Y3590D01*
X867Y3590D02*
X883Y3590D01*
X938Y3590D02*
X950Y3590D01*
X1007Y3590D02*
X1018Y3590D01*
X89Y3589D02*
X105Y3589D01*
X160Y3589D02*
X171Y3589D01*
X229Y3589D02*
X240Y3589D01*
X349Y3589D02*
X365Y3589D01*
X419Y3589D02*
X430Y3589D01*
X488Y3589D02*
X499Y3589D01*
X608Y3589D02*
X624Y3589D01*
X679Y3589D02*
X690Y3589D01*
X748Y3589D02*
X759Y3589D01*
X868Y3589D02*
X884Y3589D01*
X938Y3589D02*
X950Y3589D01*
X1007Y3589D02*
X1018Y3589D01*
X90Y3588D02*
X106Y3588D01*
X160Y3588D02*
X171Y3588D01*
X229Y3588D02*
X240Y3588D01*
X350Y3588D02*
X366Y3588D01*
X419Y3588D02*
X430Y3588D01*
X488Y3588D02*
X499Y3588D01*
X609Y3588D02*
X625Y3588D01*
X679Y3588D02*
X690Y3588D01*
X748Y3588D02*
X759Y3588D01*
X869Y3588D02*
X885Y3588D01*
X938Y3588D02*
X950Y3588D01*
X1007Y3588D02*
X1018Y3588D01*
X92Y3587D02*
X107Y3587D01*
X160Y3587D02*
X171Y3587D01*
X229Y3587D02*
X240Y3587D01*
X351Y3587D02*
X366Y3587D01*
X419Y3587D02*
X430Y3587D01*
X488Y3587D02*
X499Y3587D01*
X611Y3587D02*
X626Y3587D01*
X679Y3587D02*
X690Y3587D01*
X748Y3587D02*
X759Y3587D01*
X870Y3587D02*
X885Y3587D01*
X938Y3587D02*
X950Y3587D01*
X1007Y3587D02*
X1018Y3587D01*
X93Y3586D02*
X107Y3586D01*
X160Y3586D02*
X171Y3586D01*
X229Y3586D02*
X240Y3586D01*
X352Y3586D02*
X366Y3586D01*
X419Y3586D02*
X430Y3586D01*
X488Y3586D02*
X499Y3586D01*
X612Y3586D02*
X626Y3586D01*
X679Y3586D02*
X690Y3586D01*
X748Y3586D02*
X759Y3586D01*
X871Y3586D02*
X885Y3586D01*
X938Y3586D02*
X950Y3586D01*
X1007Y3586D02*
X1018Y3586D01*
X94Y3585D02*
X107Y3585D01*
X160Y3585D02*
X171Y3585D01*
X229Y3585D02*
X240Y3585D01*
X353Y3585D02*
X367Y3585D01*
X419Y3585D02*
X430Y3585D01*
X488Y3585D02*
X499Y3585D01*
X613Y3585D02*
X626Y3585D01*
X679Y3585D02*
X690Y3585D01*
X748Y3585D02*
X759Y3585D01*
X872Y3585D02*
X886Y3585D01*
X938Y3585D02*
X950Y3585D01*
X1007Y3585D02*
X1018Y3585D01*
X95Y3584D02*
X108Y3584D01*
X160Y3584D02*
X171Y3584D01*
X229Y3584D02*
X240Y3584D01*
X355Y3584D02*
X367Y3584D01*
X419Y3584D02*
X430Y3584D01*
X488Y3584D02*
X499Y3584D01*
X614Y3584D02*
X627Y3584D01*
X679Y3584D02*
X690Y3584D01*
X748Y3584D02*
X759Y3584D01*
X874Y3584D02*
X886Y3584D01*
X938Y3584D02*
X950Y3584D01*
X1007Y3584D02*
X1018Y3584D01*
X96Y3583D02*
X108Y3583D01*
X160Y3583D02*
X171Y3583D01*
X229Y3583D02*
X240Y3583D01*
X356Y3583D02*
X367Y3583D01*
X419Y3583D02*
X430Y3583D01*
X488Y3583D02*
X499Y3583D01*
X615Y3583D02*
X627Y3583D01*
X679Y3583D02*
X690Y3583D01*
X748Y3583D02*
X759Y3583D01*
X875Y3583D02*
X886Y3583D01*
X938Y3583D02*
X950Y3583D01*
X1007Y3583D02*
X1018Y3583D01*
X97Y3582D02*
X108Y3582D01*
X160Y3582D02*
X171Y3582D01*
X229Y3582D02*
X240Y3582D01*
X356Y3582D02*
X367Y3582D01*
X419Y3582D02*
X430Y3582D01*
X488Y3582D02*
X499Y3582D01*
X616Y3582D02*
X627Y3582D01*
X679Y3582D02*
X690Y3582D01*
X748Y3582D02*
X759Y3582D01*
X875Y3582D02*
X886Y3582D01*
X938Y3582D02*
X950Y3582D01*
X1007Y3582D02*
X1018Y3582D01*
X97Y3581D02*
X108Y3581D01*
X160Y3581D02*
X171Y3581D01*
X229Y3581D02*
X240Y3581D01*
X356Y3581D02*
X368Y3581D01*
X419Y3581D02*
X430Y3581D01*
X488Y3581D02*
X499Y3581D01*
X616Y3581D02*
X627Y3581D01*
X679Y3581D02*
X690Y3581D01*
X748Y3581D02*
X759Y3581D01*
X875Y3581D02*
X887Y3581D01*
X938Y3581D02*
X950Y3581D01*
X1007Y3581D02*
X1018Y3581D01*
X97Y3580D02*
X108Y3580D01*
X160Y3580D02*
X171Y3580D01*
X229Y3580D02*
X240Y3580D01*
X357Y3580D02*
X368Y3580D01*
X419Y3580D02*
X430Y3580D01*
X488Y3580D02*
X499Y3580D01*
X616Y3580D02*
X627Y3580D01*
X679Y3580D02*
X690Y3580D01*
X748Y3580D02*
X759Y3580D01*
X876Y3580D02*
X887Y3580D01*
X938Y3580D02*
X950Y3580D01*
X1007Y3580D02*
X1018Y3580D01*
X97Y3579D02*
X108Y3579D01*
X160Y3579D02*
X171Y3579D01*
X229Y3579D02*
X240Y3579D01*
X357Y3579D02*
X368Y3579D01*
X419Y3579D02*
X430Y3579D01*
X488Y3579D02*
X499Y3579D01*
X616Y3579D02*
X627Y3579D01*
X679Y3579D02*
X690Y3579D01*
X748Y3579D02*
X759Y3579D01*
X876Y3579D02*
X887Y3579D01*
X938Y3579D02*
X950Y3579D01*
X1007Y3579D02*
X1018Y3579D01*
X97Y3578D02*
X108Y3578D01*
X160Y3578D02*
X171Y3578D01*
X229Y3578D02*
X240Y3578D01*
X357Y3578D02*
X368Y3578D01*
X419Y3578D02*
X430Y3578D01*
X488Y3578D02*
X499Y3578D01*
X616Y3578D02*
X627Y3578D01*
X679Y3578D02*
X690Y3578D01*
X748Y3578D02*
X759Y3578D01*
X876Y3578D02*
X887Y3578D01*
X938Y3578D02*
X950Y3578D01*
X1007Y3578D02*
X1018Y3578D01*
X97Y3577D02*
X108Y3577D01*
X160Y3577D02*
X171Y3577D01*
X229Y3577D02*
X240Y3577D01*
X357Y3577D02*
X368Y3577D01*
X419Y3577D02*
X430Y3577D01*
X488Y3577D02*
X499Y3577D01*
X616Y3577D02*
X627Y3577D01*
X679Y3577D02*
X690Y3577D01*
X748Y3577D02*
X759Y3577D01*
X876Y3577D02*
X887Y3577D01*
X938Y3577D02*
X950Y3577D01*
X1007Y3577D02*
X1018Y3577D01*
X97Y3576D02*
X108Y3576D01*
X160Y3576D02*
X171Y3576D01*
X229Y3576D02*
X240Y3576D01*
X357Y3576D02*
X368Y3576D01*
X419Y3576D02*
X430Y3576D01*
X488Y3576D02*
X499Y3576D01*
X616Y3576D02*
X627Y3576D01*
X679Y3576D02*
X690Y3576D01*
X748Y3576D02*
X759Y3576D01*
X876Y3576D02*
X887Y3576D01*
X938Y3576D02*
X950Y3576D01*
X1007Y3576D02*
X1018Y3576D01*
X97Y3575D02*
X108Y3575D01*
X160Y3575D02*
X171Y3575D01*
X229Y3575D02*
X240Y3575D01*
X357Y3575D02*
X368Y3575D01*
X419Y3575D02*
X430Y3575D01*
X488Y3575D02*
X499Y3575D01*
X616Y3575D02*
X627Y3575D01*
X679Y3575D02*
X690Y3575D01*
X748Y3575D02*
X759Y3575D01*
X876Y3575D02*
X887Y3575D01*
X938Y3575D02*
X950Y3575D01*
X1007Y3575D02*
X1018Y3575D01*
X97Y3574D02*
X108Y3574D01*
X160Y3574D02*
X171Y3574D01*
X229Y3574D02*
X240Y3574D01*
X357Y3574D02*
X368Y3574D01*
X419Y3574D02*
X430Y3574D01*
X488Y3574D02*
X499Y3574D01*
X616Y3574D02*
X627Y3574D01*
X679Y3574D02*
X690Y3574D01*
X748Y3574D02*
X759Y3574D01*
X876Y3574D02*
X887Y3574D01*
X938Y3574D02*
X950Y3574D01*
X1007Y3574D02*
X1018Y3574D01*
X97Y3573D02*
X108Y3573D01*
X160Y3573D02*
X171Y3573D01*
X229Y3573D02*
X240Y3573D01*
X357Y3573D02*
X368Y3573D01*
X419Y3573D02*
X430Y3573D01*
X488Y3573D02*
X499Y3573D01*
X616Y3573D02*
X627Y3573D01*
X679Y3573D02*
X690Y3573D01*
X748Y3573D02*
X759Y3573D01*
X876Y3573D02*
X887Y3573D01*
X938Y3573D02*
X950Y3573D01*
X1007Y3573D02*
X1018Y3573D01*
X97Y3572D02*
X108Y3572D01*
X160Y3572D02*
X171Y3572D01*
X229Y3572D02*
X240Y3572D01*
X357Y3572D02*
X368Y3572D01*
X419Y3572D02*
X430Y3572D01*
X488Y3572D02*
X499Y3572D01*
X616Y3572D02*
X627Y3572D01*
X679Y3572D02*
X690Y3572D01*
X748Y3572D02*
X759Y3572D01*
X876Y3572D02*
X887Y3572D01*
X938Y3572D02*
X950Y3572D01*
X1007Y3572D02*
X1018Y3572D01*
X97Y3571D02*
X108Y3571D01*
X160Y3571D02*
X171Y3571D01*
X229Y3571D02*
X240Y3571D01*
X357Y3571D02*
X368Y3571D01*
X419Y3571D02*
X430Y3571D01*
X488Y3571D02*
X499Y3571D01*
X616Y3571D02*
X627Y3571D01*
X679Y3571D02*
X690Y3571D01*
X748Y3571D02*
X759Y3571D01*
X876Y3571D02*
X887Y3571D01*
X938Y3571D02*
X950Y3571D01*
X1007Y3571D02*
X1018Y3571D01*
X97Y3570D02*
X108Y3570D01*
X160Y3570D02*
X171Y3570D01*
X229Y3570D02*
X240Y3570D01*
X357Y3570D02*
X368Y3570D01*
X419Y3570D02*
X430Y3570D01*
X488Y3570D02*
X499Y3570D01*
X616Y3570D02*
X627Y3570D01*
X679Y3570D02*
X690Y3570D01*
X748Y3570D02*
X759Y3570D01*
X876Y3570D02*
X887Y3570D01*
X938Y3570D02*
X950Y3570D01*
X1007Y3570D02*
X1018Y3570D01*
X97Y3569D02*
X108Y3569D01*
X160Y3569D02*
X171Y3569D01*
X229Y3569D02*
X240Y3569D01*
X357Y3569D02*
X368Y3569D01*
X419Y3569D02*
X430Y3569D01*
X488Y3569D02*
X499Y3569D01*
X616Y3569D02*
X627Y3569D01*
X679Y3569D02*
X690Y3569D01*
X748Y3569D02*
X759Y3569D01*
X876Y3569D02*
X887Y3569D01*
X938Y3569D02*
X950Y3569D01*
X1007Y3569D02*
X1018Y3569D01*
X97Y3568D02*
X108Y3568D01*
X160Y3568D02*
X171Y3568D01*
X229Y3568D02*
X240Y3568D01*
X357Y3568D02*
X368Y3568D01*
X419Y3568D02*
X430Y3568D01*
X488Y3568D02*
X499Y3568D01*
X616Y3568D02*
X627Y3568D01*
X679Y3568D02*
X690Y3568D01*
X748Y3568D02*
X759Y3568D01*
X876Y3568D02*
X887Y3568D01*
X938Y3568D02*
X950Y3568D01*
X1007Y3568D02*
X1018Y3568D01*
X97Y3567D02*
X108Y3567D01*
X160Y3567D02*
X171Y3567D01*
X229Y3567D02*
X240Y3567D01*
X357Y3567D02*
X368Y3567D01*
X419Y3567D02*
X430Y3567D01*
X488Y3567D02*
X499Y3567D01*
X616Y3567D02*
X627Y3567D01*
X679Y3567D02*
X690Y3567D01*
X748Y3567D02*
X759Y3567D01*
X876Y3567D02*
X887Y3567D01*
X938Y3567D02*
X950Y3567D01*
X1007Y3567D02*
X1018Y3567D01*
X97Y3566D02*
X108Y3566D01*
X160Y3566D02*
X171Y3566D01*
X229Y3566D02*
X240Y3566D01*
X357Y3566D02*
X368Y3566D01*
X419Y3566D02*
X430Y3566D01*
X488Y3566D02*
X499Y3566D01*
X616Y3566D02*
X627Y3566D01*
X679Y3566D02*
X690Y3566D01*
X748Y3566D02*
X759Y3566D01*
X876Y3566D02*
X887Y3566D01*
X938Y3566D02*
X950Y3566D01*
X1007Y3566D02*
X1018Y3566D01*
X97Y3565D02*
X108Y3565D01*
X160Y3565D02*
X171Y3565D01*
X229Y3565D02*
X240Y3565D01*
X357Y3565D02*
X368Y3565D01*
X419Y3565D02*
X430Y3565D01*
X488Y3565D02*
X499Y3565D01*
X616Y3565D02*
X627Y3565D01*
X679Y3565D02*
X690Y3565D01*
X748Y3565D02*
X759Y3565D01*
X876Y3565D02*
X887Y3565D01*
X938Y3565D02*
X950Y3565D01*
X1007Y3565D02*
X1018Y3565D01*
X97Y3564D02*
X108Y3564D01*
X160Y3564D02*
X171Y3564D01*
X229Y3564D02*
X240Y3564D01*
X356Y3564D02*
X368Y3564D01*
X419Y3564D02*
X430Y3564D01*
X488Y3564D02*
X499Y3564D01*
X616Y3564D02*
X627Y3564D01*
X679Y3564D02*
X690Y3564D01*
X748Y3564D02*
X759Y3564D01*
X875Y3564D02*
X887Y3564D01*
X938Y3564D02*
X950Y3564D01*
X1007Y3564D02*
X1018Y3564D01*
X97Y3563D02*
X108Y3563D01*
X160Y3563D02*
X171Y3563D01*
X229Y3563D02*
X240Y3563D01*
X356Y3563D02*
X367Y3563D01*
X419Y3563D02*
X430Y3563D01*
X488Y3563D02*
X499Y3563D01*
X616Y3563D02*
X627Y3563D01*
X679Y3563D02*
X690Y3563D01*
X748Y3563D02*
X759Y3563D01*
X875Y3563D02*
X886Y3563D01*
X938Y3563D02*
X950Y3563D01*
X1007Y3563D02*
X1018Y3563D01*
X96Y3562D02*
X108Y3562D01*
X160Y3562D02*
X171Y3562D01*
X229Y3562D02*
X240Y3562D01*
X356Y3562D02*
X367Y3562D01*
X419Y3562D02*
X430Y3562D01*
X488Y3562D02*
X499Y3562D01*
X615Y3562D02*
X627Y3562D01*
X679Y3562D02*
X690Y3562D01*
X748Y3562D02*
X759Y3562D01*
X875Y3562D02*
X886Y3562D01*
X938Y3562D02*
X950Y3562D01*
X1007Y3562D02*
X1018Y3562D01*
X95Y3561D02*
X108Y3561D01*
X160Y3561D02*
X171Y3561D01*
X229Y3561D02*
X240Y3561D01*
X355Y3561D02*
X367Y3561D01*
X419Y3561D02*
X430Y3561D01*
X488Y3561D02*
X499Y3561D01*
X614Y3561D02*
X627Y3561D01*
X679Y3561D02*
X690Y3561D01*
X748Y3561D02*
X759Y3561D01*
X874Y3561D02*
X886Y3561D01*
X938Y3561D02*
X950Y3561D01*
X1007Y3561D02*
X1018Y3561D01*
X94Y3560D02*
X107Y3560D01*
X160Y3560D02*
X171Y3560D01*
X229Y3560D02*
X240Y3560D01*
X354Y3560D02*
X367Y3560D01*
X419Y3560D02*
X430Y3560D01*
X488Y3560D02*
X499Y3560D01*
X613Y3560D02*
X626Y3560D01*
X679Y3560D02*
X690Y3560D01*
X748Y3560D02*
X759Y3560D01*
X873Y3560D02*
X886Y3560D01*
X938Y3560D02*
X950Y3560D01*
X1007Y3560D02*
X1018Y3560D01*
X93Y3559D02*
X107Y3559D01*
X160Y3559D02*
X171Y3559D01*
X229Y3559D02*
X240Y3559D01*
X353Y3559D02*
X367Y3559D01*
X419Y3559D02*
X430Y3559D01*
X488Y3559D02*
X499Y3559D01*
X612Y3559D02*
X626Y3559D01*
X679Y3559D02*
X690Y3559D01*
X748Y3559D02*
X759Y3559D01*
X872Y3559D02*
X886Y3559D01*
X938Y3559D02*
X950Y3559D01*
X1007Y3559D02*
X1018Y3559D01*
X92Y3558D02*
X107Y3558D01*
X160Y3558D02*
X171Y3558D01*
X229Y3558D02*
X240Y3558D01*
X351Y3558D02*
X366Y3558D01*
X419Y3558D02*
X430Y3558D01*
X488Y3558D02*
X499Y3558D01*
X611Y3558D02*
X626Y3558D01*
X679Y3558D02*
X690Y3558D01*
X748Y3558D02*
X759Y3558D01*
X870Y3558D02*
X885Y3558D01*
X938Y3558D02*
X950Y3558D01*
X1007Y3558D02*
X1018Y3558D01*
X91Y3557D02*
X106Y3557D01*
X160Y3557D02*
X171Y3557D01*
X229Y3557D02*
X240Y3557D01*
X350Y3557D02*
X366Y3557D01*
X419Y3557D02*
X430Y3557D01*
X488Y3557D02*
X499Y3557D01*
X610Y3557D02*
X625Y3557D01*
X679Y3557D02*
X690Y3557D01*
X748Y3557D02*
X759Y3557D01*
X869Y3557D02*
X885Y3557D01*
X938Y3557D02*
X950Y3557D01*
X1007Y3557D02*
X1018Y3557D01*
X90Y3556D02*
X106Y3556D01*
X160Y3556D02*
X171Y3556D01*
X229Y3556D02*
X240Y3556D01*
X349Y3556D02*
X365Y3556D01*
X419Y3556D02*
X430Y3556D01*
X488Y3556D02*
X499Y3556D01*
X609Y3556D02*
X625Y3556D01*
X679Y3556D02*
X690Y3556D01*
X748Y3556D02*
X759Y3556D01*
X868Y3556D02*
X884Y3556D01*
X938Y3556D02*
X950Y3556D01*
X1007Y3556D02*
X1018Y3556D01*
X88Y3555D02*
X105Y3555D01*
X160Y3555D02*
X171Y3555D01*
X229Y3555D02*
X240Y3555D01*
X348Y3555D02*
X365Y3555D01*
X419Y3555D02*
X430Y3555D01*
X488Y3555D02*
X499Y3555D01*
X607Y3555D02*
X624Y3555D01*
X679Y3555D02*
X690Y3555D01*
X748Y3555D02*
X759Y3555D01*
X867Y3555D02*
X884Y3555D01*
X938Y3555D02*
X950Y3555D01*
X1007Y3555D02*
X1018Y3555D01*
X87Y3554D02*
X104Y3554D01*
X160Y3554D02*
X171Y3554D01*
X229Y3554D02*
X240Y3554D01*
X347Y3554D02*
X364Y3554D01*
X419Y3554D02*
X430Y3554D01*
X488Y3554D02*
X499Y3554D01*
X606Y3554D02*
X623Y3554D01*
X679Y3554D02*
X690Y3554D01*
X748Y3554D02*
X759Y3554D01*
X866Y3554D02*
X883Y3554D01*
X938Y3554D02*
X950Y3554D01*
X1007Y3554D02*
X1018Y3554D01*
X86Y3553D02*
X103Y3553D01*
X160Y3553D02*
X171Y3553D01*
X229Y3553D02*
X240Y3553D01*
X346Y3553D02*
X363Y3553D01*
X419Y3553D02*
X430Y3553D01*
X488Y3553D02*
X499Y3553D01*
X605Y3553D02*
X622Y3553D01*
X679Y3553D02*
X690Y3553D01*
X748Y3553D02*
X759Y3553D01*
X865Y3553D02*
X882Y3553D01*
X938Y3553D02*
X950Y3553D01*
X1007Y3553D02*
X1018Y3553D01*
X85Y3552D02*
X102Y3552D01*
X160Y3552D02*
X171Y3552D01*
X229Y3552D02*
X240Y3552D01*
X344Y3552D02*
X362Y3552D01*
X419Y3552D02*
X430Y3552D01*
X488Y3552D02*
X499Y3552D01*
X604Y3552D02*
X621Y3552D01*
X679Y3552D02*
X690Y3552D01*
X748Y3552D02*
X759Y3552D01*
X863Y3552D02*
X881Y3552D01*
X938Y3552D02*
X950Y3552D01*
X1007Y3552D02*
X1018Y3552D01*
X83Y3551D02*
X101Y3551D01*
X160Y3551D02*
X171Y3551D01*
X229Y3551D02*
X240Y3551D01*
X343Y3551D02*
X361Y3551D01*
X419Y3551D02*
X430Y3551D01*
X488Y3551D02*
X499Y3551D01*
X602Y3551D02*
X620Y3551D01*
X679Y3551D02*
X690Y3551D01*
X748Y3551D02*
X759Y3551D01*
X862Y3551D02*
X880Y3551D01*
X938Y3551D02*
X950Y3551D01*
X1007Y3551D02*
X1018Y3551D01*
X53Y3550D02*
X100Y3550D01*
X146Y3550D02*
X185Y3550D01*
X229Y3550D02*
X240Y3550D01*
X313Y3550D02*
X360Y3550D01*
X405Y3550D02*
X444Y3550D01*
X488Y3550D02*
X499Y3550D01*
X572Y3550D02*
X619Y3550D01*
X665Y3550D02*
X704Y3550D01*
X748Y3550D02*
X759Y3550D01*
X832Y3550D02*
X879Y3550D01*
X924Y3550D02*
X963Y3550D01*
X1007Y3550D02*
X1018Y3550D01*
X52Y3549D02*
X99Y3549D01*
X144Y3549D02*
X187Y3549D01*
X229Y3549D02*
X240Y3549D01*
X311Y3549D02*
X358Y3549D01*
X404Y3549D02*
X446Y3549D01*
X488Y3549D02*
X499Y3549D01*
X571Y3549D02*
X618Y3549D01*
X663Y3549D02*
X706Y3549D01*
X748Y3549D02*
X759Y3549D01*
X830Y3549D02*
X877Y3549D01*
X923Y3549D02*
X965Y3549D01*
X1007Y3549D02*
X1018Y3549D01*
X51Y3548D02*
X98Y3548D01*
X143Y3548D02*
X187Y3548D01*
X229Y3548D02*
X240Y3548D01*
X310Y3548D02*
X357Y3548D01*
X403Y3548D02*
X447Y3548D01*
X488Y3548D02*
X499Y3548D01*
X570Y3548D02*
X617Y3548D01*
X662Y3548D02*
X706Y3548D01*
X748Y3548D02*
X759Y3548D01*
X829Y3548D02*
X876Y3548D01*
X922Y3548D02*
X966Y3548D01*
X1007Y3548D02*
X1018Y3548D01*
X50Y3547D02*
X97Y3547D01*
X143Y3547D02*
X188Y3547D01*
X229Y3547D02*
X240Y3547D01*
X310Y3547D02*
X356Y3547D01*
X402Y3547D02*
X448Y3547D01*
X488Y3547D02*
X499Y3547D01*
X569Y3547D02*
X616Y3547D01*
X662Y3547D02*
X707Y3547D01*
X748Y3547D02*
X759Y3547D01*
X829Y3547D02*
X875Y3547D01*
X921Y3547D02*
X967Y3547D01*
X1007Y3547D02*
X1018Y3547D01*
X50Y3546D02*
X95Y3546D01*
X142Y3546D02*
X189Y3546D01*
X229Y3546D02*
X240Y3546D01*
X309Y3546D02*
X355Y3546D01*
X402Y3546D02*
X448Y3546D01*
X488Y3546D02*
X499Y3546D01*
X569Y3546D02*
X614Y3546D01*
X661Y3546D02*
X708Y3546D01*
X748Y3546D02*
X759Y3546D01*
X828Y3546D02*
X874Y3546D01*
X921Y3546D02*
X967Y3546D01*
X1007Y3546D02*
X1018Y3546D01*
X50Y3545D02*
X94Y3545D01*
X142Y3545D02*
X189Y3545D01*
X229Y3545D02*
X240Y3545D01*
X309Y3545D02*
X354Y3545D01*
X402Y3545D02*
X448Y3545D01*
X488Y3545D02*
X499Y3545D01*
X569Y3545D02*
X613Y3545D01*
X661Y3545D02*
X708Y3545D01*
X748Y3545D02*
X759Y3545D01*
X828Y3545D02*
X873Y3545D01*
X921Y3545D02*
X967Y3545D01*
X1007Y3545D02*
X1018Y3545D01*
X50Y3544D02*
X93Y3544D01*
X142Y3544D02*
X189Y3544D01*
X229Y3544D02*
X240Y3544D01*
X309Y3544D02*
X353Y3544D01*
X402Y3544D02*
X448Y3544D01*
X488Y3544D02*
X499Y3544D01*
X569Y3544D02*
X612Y3544D01*
X661Y3544D02*
X708Y3544D01*
X748Y3544D02*
X759Y3544D01*
X828Y3544D02*
X872Y3544D01*
X921Y3544D02*
X967Y3544D01*
X1007Y3544D02*
X1018Y3544D01*
X50Y3543D02*
X92Y3543D01*
X142Y3543D02*
X189Y3543D01*
X229Y3543D02*
X240Y3543D01*
X309Y3543D02*
X352Y3543D01*
X402Y3543D02*
X448Y3543D01*
X488Y3543D02*
X499Y3543D01*
X569Y3543D02*
X611Y3543D01*
X661Y3543D02*
X708Y3543D01*
X748Y3543D02*
X759Y3543D01*
X828Y3543D02*
X871Y3543D01*
X921Y3543D02*
X967Y3543D01*
X1007Y3543D02*
X1018Y3543D01*
X50Y3542D02*
X91Y3542D01*
X143Y3542D02*
X188Y3542D01*
X229Y3542D02*
X240Y3542D01*
X310Y3542D02*
X350Y3542D01*
X402Y3542D02*
X448Y3542D01*
X488Y3542D02*
X499Y3542D01*
X569Y3542D02*
X610Y3542D01*
X662Y3542D02*
X707Y3542D01*
X748Y3542D02*
X759Y3542D01*
X829Y3542D02*
X869Y3542D01*
X921Y3542D02*
X967Y3542D01*
X1007Y3542D02*
X1018Y3542D01*
X51Y3541D02*
X89Y3541D01*
X143Y3541D02*
X188Y3541D01*
X229Y3541D02*
X240Y3541D01*
X310Y3541D02*
X349Y3541D01*
X403Y3541D02*
X447Y3541D01*
X488Y3541D02*
X499Y3541D01*
X570Y3541D02*
X608Y3541D01*
X662Y3541D02*
X707Y3541D01*
X748Y3541D02*
X759Y3541D01*
X829Y3541D02*
X868Y3541D01*
X922Y3541D02*
X966Y3541D01*
X1007Y3541D02*
X1018Y3541D01*
X52Y3540D02*
X87Y3540D01*
X144Y3540D02*
X187Y3540D01*
X229Y3540D02*
X240Y3540D01*
X311Y3540D02*
X347Y3540D01*
X404Y3540D02*
X446Y3540D01*
X488Y3540D02*
X499Y3540D01*
X571Y3540D02*
X606Y3540D01*
X663Y3540D02*
X706Y3540D01*
X748Y3540D02*
X759Y3540D01*
X830Y3540D02*
X866Y3540D01*
X923Y3540D02*
X965Y3540D01*
X1007Y3540D02*
X1018Y3540D01*
X53Y3539D02*
X84Y3539D01*
X146Y3539D02*
X185Y3539D01*
X229Y3539D02*
X240Y3539D01*
X313Y3539D02*
X344Y3539D01*
X405Y3539D02*
X445Y3539D01*
X488Y3539D02*
X499Y3539D01*
X572Y3539D02*
X603Y3539D01*
X665Y3539D02*
X704Y3539D01*
X748Y3539D02*
X759Y3539D01*
X832Y3539D02*
X863Y3539D01*
X924Y3539D02*
X964Y3539D01*
X1007Y3539D02*
X1018Y3539D01*
X229Y3538D02*
X240Y3538D01*
X488Y3538D02*
X499Y3538D01*
X748Y3538D02*
X759Y3538D01*
X1007Y3538D02*
X1018Y3538D01*
X229Y3537D02*
X240Y3537D01*
X488Y3537D02*
X499Y3537D01*
X748Y3537D02*
X759Y3537D01*
X1007Y3537D02*
X1018Y3537D01*
X229Y3536D02*
X240Y3536D01*
X488Y3536D02*
X499Y3536D01*
X748Y3536D02*
X759Y3536D01*
X1007Y3536D02*
X1018Y3536D01*
X229Y3535D02*
X240Y3535D01*
X268Y3535D02*
X271Y3535D01*
X488Y3535D02*
X499Y3535D01*
X528Y3535D02*
X531Y3535D01*
X748Y3535D02*
X759Y3535D01*
X787Y3535D02*
X790Y3535D01*
X1007Y3535D02*
X1018Y3535D01*
X1047Y3535D02*
X1050Y3535D01*
X229Y3534D02*
X240Y3534D01*
X267Y3534D02*
X273Y3534D01*
X488Y3534D02*
X499Y3534D01*
X526Y3534D02*
X532Y3534D01*
X748Y3534D02*
X759Y3534D01*
X786Y3534D02*
X792Y3534D01*
X1007Y3534D02*
X1018Y3534D01*
X1045Y3534D02*
X1051Y3534D01*
X229Y3533D02*
X240Y3533D01*
X266Y3533D02*
X274Y3533D01*
X488Y3533D02*
X499Y3533D01*
X525Y3533D02*
X533Y3533D01*
X748Y3533D02*
X759Y3533D01*
X785Y3533D02*
X793Y3533D01*
X1007Y3533D02*
X1018Y3533D01*
X1044Y3533D02*
X1052Y3533D01*
X229Y3532D02*
X240Y3532D01*
X265Y3532D02*
X275Y3532D01*
X488Y3532D02*
X499Y3532D01*
X525Y3532D02*
X534Y3532D01*
X748Y3532D02*
X759Y3532D01*
X784Y3532D02*
X794Y3532D01*
X1007Y3532D02*
X1018Y3532D01*
X1044Y3532D02*
X1053Y3532D01*
X229Y3531D02*
X240Y3531D01*
X265Y3531D02*
X275Y3531D01*
X488Y3531D02*
X499Y3531D01*
X524Y3531D02*
X535Y3531D01*
X748Y3531D02*
X759Y3531D01*
X784Y3531D02*
X794Y3531D01*
X1007Y3531D02*
X1018Y3531D01*
X1043Y3531D02*
X1054Y3531D01*
X229Y3530D02*
X240Y3530D01*
X264Y3530D02*
X275Y3530D01*
X488Y3530D02*
X499Y3530D01*
X524Y3530D02*
X535Y3530D01*
X748Y3530D02*
X759Y3530D01*
X783Y3530D02*
X794Y3530D01*
X1007Y3530D02*
X1018Y3530D01*
X1043Y3530D02*
X1054Y3530D01*
X229Y3529D02*
X240Y3529D01*
X264Y3529D02*
X275Y3529D01*
X488Y3529D02*
X499Y3529D01*
X523Y3529D02*
X535Y3529D01*
X748Y3529D02*
X759Y3529D01*
X783Y3529D02*
X794Y3529D01*
X1007Y3529D02*
X1018Y3529D01*
X1042Y3529D02*
X1054Y3529D01*
X229Y3528D02*
X241Y3528D01*
X263Y3528D02*
X275Y3528D01*
X488Y3528D02*
X500Y3528D01*
X523Y3528D02*
X535Y3528D01*
X748Y3528D02*
X760Y3528D01*
X782Y3528D02*
X794Y3528D01*
X1007Y3528D02*
X1019Y3528D01*
X1042Y3528D02*
X1054Y3528D01*
X229Y3527D02*
X241Y3527D01*
X263Y3527D02*
X275Y3527D01*
X489Y3527D02*
X501Y3527D01*
X522Y3527D02*
X535Y3527D01*
X748Y3527D02*
X760Y3527D01*
X782Y3527D02*
X794Y3527D01*
X1008Y3527D02*
X1020Y3527D01*
X1041Y3527D02*
X1054Y3527D01*
X229Y3526D02*
X243Y3526D01*
X261Y3526D02*
X275Y3526D01*
X489Y3526D02*
X502Y3526D01*
X521Y3526D02*
X534Y3526D01*
X748Y3526D02*
X762Y3526D01*
X780Y3526D02*
X794Y3526D01*
X1008Y3526D02*
X1021Y3526D01*
X1040Y3526D02*
X1053Y3526D01*
X230Y3525D02*
X275Y3525D01*
X489Y3525D02*
X534Y3525D01*
X749Y3525D02*
X794Y3525D01*
X1008Y3525D02*
X1053Y3525D01*
X230Y3524D02*
X274Y3524D01*
X490Y3524D02*
X534Y3524D01*
X749Y3524D02*
X793Y3524D01*
X1009Y3524D02*
X1053Y3524D01*
X231Y3523D02*
X274Y3523D01*
X490Y3523D02*
X533Y3523D01*
X750Y3523D02*
X793Y3523D01*
X1009Y3523D02*
X1052Y3523D01*
X231Y3522D02*
X273Y3522D01*
X491Y3522D02*
X533Y3522D01*
X750Y3522D02*
X792Y3522D01*
X1010Y3522D02*
X1052Y3522D01*
X232Y3521D02*
X272Y3521D01*
X491Y3521D02*
X532Y3521D01*
X751Y3521D02*
X791Y3521D01*
X1010Y3521D02*
X1051Y3521D01*
X232Y3520D02*
X272Y3520D01*
X492Y3520D02*
X531Y3520D01*
X751Y3520D02*
X791Y3520D01*
X1011Y3520D02*
X1050Y3520D01*
X233Y3519D02*
X271Y3519D01*
X493Y3519D02*
X530Y3519D01*
X752Y3519D02*
X790Y3519D01*
X1012Y3519D02*
X1049Y3519D01*
X234Y3518D02*
X270Y3518D01*
X494Y3518D02*
X529Y3518D01*
X753Y3518D02*
X789Y3518D01*
X1013Y3518D02*
X1048Y3518D01*
X235Y3517D02*
X268Y3517D01*
X495Y3517D02*
X528Y3517D01*
X754Y3517D02*
X787Y3517D01*
X1014Y3517D02*
X1047Y3517D01*
X237Y3516D02*
X267Y3516D01*
X496Y3516D02*
X527Y3516D01*
X756Y3516D02*
X786Y3516D01*
X1015Y3516D02*
X1046Y3516D01*
X239Y3515D02*
X265Y3515D01*
X498Y3515D02*
X525Y3515D01*
X758Y3515D02*
X784Y3515D01*
X1017Y3515D02*
X1044Y3515D01*
X241Y3514D02*
X263Y3514D01*
X501Y3514D02*
X522Y3514D01*
X760Y3514D02*
X782Y3514D01*
X1020Y3514D02*
X1041Y3514D01*
D02*
G04 End of Silk0*
M02*