G04 MADE WITH FRITZING*
G04 WWW.FRITZING.ORG*
G04 DOUBLE SIDED*
G04 HOLES PLATED*
G04 CONTOUR ON CENTER OF CONTOUR VECTOR*
%ASAXBY*%
%FSLAX23Y23*%
%MOIN*%
%OFA0B0*%
%SFA1.0B1.0*%
%ADD10C,0.005000*%
%ADD10C,0.008*%
%LNCONTOUR*%
G90*
G70*
G54D10*
G54D10*
X37Y5079D02*
X38Y5079D01*
X39Y5079D01*
X40Y5079D01*
X41Y5079D01*
X42Y5079D01*
X43Y5079D01*
X44Y5079D01*
X45Y5079D01*
X46Y5079D01*
X47Y5079D01*
X48Y5079D01*
X49Y5079D01*
X50Y5079D01*
X51Y5079D01*
X52Y5079D01*
X53Y5079D01*
X54Y5079D01*
X55Y5079D01*
X56Y5079D01*
X57Y5079D01*
X58Y5079D01*
X59Y5079D01*
X60Y5079D01*
X61Y5079D01*
X62Y5079D01*
X63Y5079D01*
X64Y5079D01*
X65Y5079D01*
X66Y5079D01*
X67Y5079D01*
X68Y5079D01*
X69Y5079D01*
X70Y5079D01*
X71Y5079D01*
X72Y5079D01*
X73Y5079D01*
X74Y5079D01*
X75Y5079D01*
X76Y5079D01*
X77Y5079D01*
X78Y5079D01*
X79Y5079D01*
X80Y5079D01*
X81Y5079D01*
X82Y5079D01*
X83Y5079D01*
X84Y5079D01*
X85Y5079D01*
X86Y5079D01*
X87Y5079D01*
X88Y5079D01*
X89Y5079D01*
X90Y5079D01*
X91Y5079D01*
X92Y5079D01*
X93Y5079D01*
X94Y5079D01*
X95Y5079D01*
X96Y5079D01*
X97Y5079D01*
X98Y5079D01*
X99Y5079D01*
X100Y5079D01*
X101Y5079D01*
X102Y5079D01*
X103Y5079D01*
X104Y5079D01*
X105Y5079D01*
X106Y5079D01*
X107Y5079D01*
X108Y5079D01*
X109Y5079D01*
X110Y5079D01*
X111Y5079D01*
X112Y5079D01*
X113Y5079D01*
X114Y5079D01*
X115Y5079D01*
X116Y5079D01*
X117Y5079D01*
X118Y5079D01*
X119Y5079D01*
X120Y5079D01*
X121Y5079D01*
X122Y5079D01*
X123Y5079D01*
X124Y5079D01*
X125Y5079D01*
X126Y5079D01*
X127Y5079D01*
X128Y5079D01*
X129Y5079D01*
X130Y5079D01*
X131Y5079D01*
X132Y5079D01*
X133Y5079D01*
X134Y5079D01*
X135Y5079D01*
X136Y5079D01*
X137Y5079D01*
X138Y5079D01*
X139Y5079D01*
X140Y5079D01*
X141Y5079D01*
X142Y5079D01*
X143Y5079D01*
X144Y5079D01*
X145Y5079D01*
X146Y5079D01*
X147Y5079D01*
X148Y5079D01*
X149Y5079D01*
X150Y5079D01*
X151Y5079D01*
X152Y5079D01*
X153Y5079D01*
X154Y5079D01*
X155Y5079D01*
X156Y5079D01*
X157Y5079D01*
X158Y5079D01*
X159Y5079D01*
X160Y5079D01*
X161Y5079D01*
X162Y5079D01*
X163Y5079D01*
X164Y5079D01*
X165Y5079D01*
X166Y5079D01*
X167Y5079D01*
X168Y5079D01*
X169Y5079D01*
X170Y5079D01*
X171Y5079D01*
X172Y5079D01*
X173Y5079D01*
X174Y5079D01*
X175Y5079D01*
X176Y5079D01*
X177Y5079D01*
X178Y5079D01*
X179Y5079D01*
X180Y5079D01*
X181Y5079D01*
X182Y5079D01*
X183Y5079D01*
X184Y5079D01*
X185Y5079D01*
X186Y5079D01*
X187Y5079D01*
X188Y5079D01*
X189Y5079D01*
X190Y5079D01*
X191Y5079D01*
X192Y5079D01*
X193Y5079D01*
X194Y5079D01*
X195Y5079D01*
X196Y5079D01*
X197Y5079D01*
X198Y5079D01*
X199Y5079D01*
X200Y5079D01*
X201Y5079D01*
X202Y5079D01*
X203Y5079D01*
X204Y5079D01*
X205Y5079D01*
X206Y5079D01*
X207Y5079D01*
X208Y5079D01*
X209Y5079D01*
X210Y5079D01*
X211Y5079D01*
X212Y5079D01*
X213Y5079D01*
X214Y5079D01*
X215Y5079D01*
X216Y5079D01*
X217Y5079D01*
X218Y5079D01*
X219Y5079D01*
X220Y5079D01*
X221Y5079D01*
X222Y5079D01*
X223Y5079D01*
X224Y5079D01*
X225Y5079D01*
X226Y5079D01*
X227Y5079D01*
X228Y5079D01*
X229Y5079D01*
X230Y5079D01*
X231Y5079D01*
X232Y5079D01*
X233Y5079D01*
X234Y5079D01*
X235Y5079D01*
X236Y5079D01*
X237Y5079D01*
X238Y5079D01*
X239Y5079D01*
X240Y5079D01*
X241Y5079D01*
X242Y5079D01*
X243Y5079D01*
X244Y5079D01*
X245Y5079D01*
X246Y5079D01*
X247Y5079D01*
X248Y5079D01*
X249Y5079D01*
X250Y5079D01*
X251Y5079D01*
X252Y5079D01*
X253Y5079D01*
X254Y5079D01*
X255Y5079D01*
X256Y5079D01*
X257Y5079D01*
X258Y5079D01*
X259Y5079D01*
X260Y5079D01*
X261Y5079D01*
X262Y5079D01*
X263Y5079D01*
X264Y5079D01*
X265Y5079D01*
X266Y5079D01*
X267Y5079D01*
X268Y5079D01*
X269Y5079D01*
X270Y5079D01*
X271Y5079D01*
X272Y5079D01*
X273Y5079D01*
X274Y5079D01*
X275Y5079D01*
X276Y5079D01*
X277Y5079D01*
X278Y5079D01*
X279Y5079D01*
X280Y5079D01*
X281Y5079D01*
X282Y5079D01*
X283Y5079D01*
X284Y5079D01*
X285Y5079D01*
X286Y5079D01*
X287Y5079D01*
X288Y5079D01*
X289Y5079D01*
X290Y5079D01*
X291Y5079D01*
X292Y5079D01*
X293Y5079D01*
X294Y5079D01*
X295Y5079D01*
X296Y5079D01*
X297Y5079D01*
X298Y5079D01*
X299Y5079D01*
X300Y5079D01*
X301Y5079D01*
X302Y5079D01*
X303Y5079D01*
X304Y5079D01*
X305Y5079D01*
X306Y5079D01*
X307Y5079D01*
X308Y5079D01*
X309Y5079D01*
X310Y5079D01*
X311Y5079D01*
X312Y5079D01*
X313Y5079D01*
X314Y5079D01*
X315Y5079D01*
X316Y5079D01*
X317Y5079D01*
X318Y5079D01*
X319Y5079D01*
X320Y5079D01*
X321Y5079D01*
X322Y5079D01*
X323Y5079D01*
X324Y5079D01*
X325Y5079D01*
X326Y5079D01*
X327Y5079D01*
X328Y5079D01*
X329Y5079D01*
X330Y5079D01*
X331Y5079D01*
X332Y5079D01*
X333Y5079D01*
X334Y5079D01*
X335Y5079D01*
X336Y5079D01*
X337Y5079D01*
X338Y5079D01*
X339Y5079D01*
X340Y5079D01*
X341Y5079D01*
X342Y5079D01*
X343Y5079D01*
X344Y5079D01*
X345Y5079D01*
X346Y5079D01*
X347Y5079D01*
X348Y5079D01*
X349Y5079D01*
X350Y5079D01*
X351Y5079D01*
X352Y5079D01*
X353Y5079D01*
X354Y5079D01*
X355Y5079D01*
X356Y5079D01*
X357Y5079D01*
X358Y5079D01*
X359Y5079D01*
X360Y5079D01*
X361Y5079D01*
X362Y5079D01*
X363Y5079D01*
X364Y5079D01*
X365Y5079D01*
X366Y5079D01*
X367Y5079D01*
X368Y5079D01*
X369Y5079D01*
X370Y5079D01*
X371Y5079D01*
X372Y5079D01*
X373Y5079D01*
X374Y5079D01*
X375Y5079D01*
X376Y5079D01*
X377Y5079D01*
X378Y5079D01*
X379Y5079D01*
X380Y5079D01*
X381Y5079D01*
X382Y5079D01*
X383Y5079D01*
X384Y5079D01*
X385Y5079D01*
X386Y5079D01*
X387Y5079D01*
X388Y5079D01*
X389Y5079D01*
X390Y5079D01*
X391Y5079D01*
X392Y5079D01*
X393Y5079D01*
X394Y5079D01*
X395Y5079D01*
X396Y5079D01*
X397Y5079D01*
X398Y5079D01*
X399Y5079D01*
X400Y5079D01*
X401Y5079D01*
X402Y5079D01*
X403Y5079D01*
X404Y5079D01*
X405Y5079D01*
X406Y5079D01*
X407Y5079D01*
X408Y5079D01*
X409Y5079D01*
X410Y5079D01*
X411Y5079D01*
X412Y5079D01*
X413Y5079D01*
X414Y5079D01*
X415Y5079D01*
X416Y5079D01*
X417Y5079D01*
X418Y5079D01*
X419Y5079D01*
X420Y5079D01*
X421Y5079D01*
X422Y5079D01*
X423Y5079D01*
X424Y5079D01*
X425Y5079D01*
X426Y5079D01*
X427Y5079D01*
X428Y5079D01*
X429Y5079D01*
X430Y5079D01*
X431Y5079D01*
X432Y5079D01*
X433Y5079D01*
X434Y5079D01*
X435Y5079D01*
X436Y5079D01*
X437Y5079D01*
X438Y5079D01*
X439Y5079D01*
X440Y5079D01*
X441Y5079D01*
X442Y5079D01*
X443Y5079D01*
X444Y5079D01*
X445Y5079D01*
X446Y5079D01*
X447Y5079D01*
X448Y5079D01*
X449Y5079D01*
X450Y5079D01*
X451Y5079D01*
X452Y5079D01*
X453Y5079D01*
X454Y5079D01*
X455Y5079D01*
X456Y5079D01*
X457Y5079D01*
X458Y5079D01*
X459Y5079D01*
X460Y5079D01*
X461Y5079D01*
X462Y5079D01*
X463Y5079D01*
X464Y5079D01*
X465Y5079D01*
X466Y5079D01*
X467Y5079D01*
X468Y5079D01*
X469Y5079D01*
X470Y5079D01*
X471Y5079D01*
X472Y5079D01*
X473Y5079D01*
X474Y5079D01*
X475Y5079D01*
X476Y5079D01*
X477Y5079D01*
X478Y5079D01*
X479Y5079D01*
X480Y5079D01*
X481Y5079D01*
X482Y5079D01*
X483Y5079D01*
X484Y5079D01*
X485Y5079D01*
X486Y5079D01*
X487Y5079D01*
X488Y5079D01*
X489Y5079D01*
X490Y5079D01*
X491Y5079D01*
X492Y5079D01*
X493Y5079D01*
X494Y5079D01*
X495Y5079D01*
X496Y5079D01*
X497Y5079D01*
X498Y5079D01*
X499Y5079D01*
X500Y5079D01*
X501Y5079D01*
X502Y5079D01*
X503Y5079D01*
X504Y5079D01*
X505Y5079D01*
X506Y5079D01*
X507Y5079D01*
X508Y5079D01*
X509Y5079D01*
X510Y5079D01*
X511Y5079D01*
X512Y5079D01*
X513Y5079D01*
X514Y5079D01*
X515Y5079D01*
X516Y5079D01*
X517Y5079D01*
X518Y5079D01*
X519Y5079D01*
X520Y5079D01*
X521Y5079D01*
X522Y5079D01*
X523Y5079D01*
X524Y5079D01*
X525Y5079D01*
X526Y5079D01*
X527Y5079D01*
X528Y5079D01*
X529Y5079D01*
X530Y5079D01*
X531Y5079D01*
X532Y5079D01*
X533Y5079D01*
X534Y5079D01*
X535Y5079D01*
X536Y5079D01*
X537Y5079D01*
X538Y5079D01*
X539Y5079D01*
X540Y5079D01*
X541Y5079D01*
X542Y5079D01*
X543Y5079D01*
X544Y5079D01*
X545Y5079D01*
X546Y5079D01*
X547Y5079D01*
X548Y5079D01*
X549Y5079D01*
X550Y5079D01*
X551Y5079D01*
X552Y5079D01*
X553Y5079D01*
X554Y5079D01*
X555Y5079D01*
X556Y5079D01*
X557Y5079D01*
X558Y5079D01*
X559Y5079D01*
X560Y5079D01*
X561Y5079D01*
X562Y5079D01*
X563Y5079D01*
X564Y5079D01*
X565Y5079D01*
X566Y5079D01*
X567Y5079D01*
X568Y5079D01*
X569Y5079D01*
X570Y5079D01*
X571Y5079D01*
X572Y5079D01*
X573Y5079D01*
X574Y5079D01*
X575Y5079D01*
X576Y5079D01*
X577Y5079D01*
X578Y5079D01*
X579Y5079D01*
X580Y5079D01*
X581Y5079D01*
X582Y5079D01*
X583Y5079D01*
X584Y5079D01*
X585Y5079D01*
X586Y5079D01*
X587Y5079D01*
X588Y5079D01*
X589Y5079D01*
X590Y5079D01*
X591Y5079D01*
X592Y5079D01*
X593Y5079D01*
X594Y5079D01*
X595Y5079D01*
X596Y5079D01*
X597Y5079D01*
X598Y5079D01*
X599Y5079D01*
X600Y5079D01*
X601Y5079D01*
X602Y5079D01*
X603Y5079D01*
X604Y5079D01*
X605Y5079D01*
X606Y5079D01*
X607Y5079D01*
X608Y5079D01*
X609Y5079D01*
X610Y5079D01*
X611Y5079D01*
X612Y5079D01*
X613Y5079D01*
X614Y5079D01*
X615Y5079D01*
X616Y5079D01*
X617Y5079D01*
X618Y5079D01*
X619Y5079D01*
X620Y5079D01*
X621Y5079D01*
X622Y5079D01*
X623Y5079D01*
X624Y5079D01*
X625Y5079D01*
X626Y5079D01*
X627Y5079D01*
X628Y5079D01*
X629Y5079D01*
X630Y5079D01*
X631Y5079D01*
X632Y5079D01*
X633Y5079D01*
X634Y5079D01*
X635Y5079D01*
X636Y5079D01*
X637Y5079D01*
X638Y5079D01*
X639Y5079D01*
X640Y5079D01*
X641Y5079D01*
X642Y5079D01*
X643Y5079D01*
X644Y5079D01*
X645Y5079D01*
X646Y5079D01*
X647Y5079D01*
X648Y5079D01*
X649Y5079D01*
X650Y5079D01*
X651Y5079D01*
X652Y5079D01*
X653Y5079D01*
X654Y5079D01*
X655Y5079D01*
X656Y5079D01*
X657Y5079D01*
X658Y5079D01*
X659Y5079D01*
X660Y5079D01*
X661Y5079D01*
X662Y5079D01*
X663Y5079D01*
X664Y5079D01*
X665Y5079D01*
X666Y5079D01*
X667Y5079D01*
X668Y5079D01*
X669Y5079D01*
X670Y5079D01*
X671Y5079D01*
X672Y5079D01*
X673Y5079D01*
X674Y5079D01*
X675Y5079D01*
X676Y5079D01*
X677Y5079D01*
X678Y5079D01*
X679Y5079D01*
X680Y5079D01*
X681Y5079D01*
X682Y5079D01*
X683Y5079D01*
X684Y5079D01*
X685Y5079D01*
X686Y5079D01*
X687Y5079D01*
X688Y5079D01*
X689Y5079D01*
X690Y5079D01*
X691Y5079D01*
X692Y5079D01*
X693Y5079D01*
X694Y5079D01*
X695Y5079D01*
X696Y5079D01*
X697Y5079D01*
X698Y5079D01*
X699Y5079D01*
X700Y5079D01*
X701Y5079D01*
X702Y5079D01*
X703Y5079D01*
X704Y5079D01*
X705Y5079D01*
X706Y5079D01*
X707Y5079D01*
X708Y5079D01*
X709Y5079D01*
X710Y5079D01*
X711Y5079D01*
X712Y5079D01*
X713Y5079D01*
X714Y5079D01*
X715Y5079D01*
X716Y5079D01*
X717Y5079D01*
X718Y5079D01*
X719Y5079D01*
X720Y5079D01*
X721Y5079D01*
X722Y5079D01*
X723Y5079D01*
X724Y5079D01*
X725Y5079D01*
X726Y5079D01*
X727Y5079D01*
X728Y5079D01*
X729Y5079D01*
X730Y5079D01*
X731Y5079D01*
X732Y5079D01*
X733Y5079D01*
X734Y5079D01*
X735Y5079D01*
X736Y5079D01*
X737Y5079D01*
X738Y5079D01*
X739Y5079D01*
X740Y5079D01*
X741Y5079D01*
X742Y5079D01*
X743Y5079D01*
X744Y5079D01*
X745Y5079D01*
X746Y5079D01*
X747Y5079D01*
X748Y5079D01*
X749Y5079D01*
X750Y5079D01*
X751Y5079D01*
X752Y5079D01*
X753Y5079D01*
X754Y5079D01*
X755Y5079D01*
X756Y5079D01*
X757Y5079D01*
X758Y5079D01*
X759Y5079D01*
X760Y5079D01*
X761Y5079D01*
X762Y5079D01*
X763Y5079D01*
X764Y5079D01*
X765Y5079D01*
X766Y5079D01*
X767Y5079D01*
X768Y5079D01*
X769Y5079D01*
X770Y5079D01*
X771Y5079D01*
X772Y5079D01*
X773Y5079D01*
X774Y5079D01*
X775Y5079D01*
X776Y5079D01*
X777Y5079D01*
X778Y5079D01*
X779Y5079D01*
X780Y5079D01*
X781Y5079D01*
X782Y5079D01*
X783Y5079D01*
X784Y5079D01*
X785Y5079D01*
X786Y5079D01*
X787Y5079D01*
X788Y5079D01*
X789Y5079D01*
X790Y5079D01*
X791Y5079D01*
X792Y5079D01*
X793Y5079D01*
X794Y5079D01*
X795Y5079D01*
X796Y5079D01*
X797Y5079D01*
X798Y5079D01*
X799Y5079D01*
X800Y5079D01*
X801Y5079D01*
X802Y5079D01*
X803Y5079D01*
X804Y5079D01*
X805Y5079D01*
X806Y5079D01*
X807Y5079D01*
X808Y5079D01*
X809Y5079D01*
X810Y5079D01*
X811Y5079D01*
X812Y5079D01*
X813Y5079D01*
X814Y5079D01*
X815Y5079D01*
X816Y5079D01*
X817Y5079D01*
X818Y5079D01*
X819Y5079D01*
X820Y5079D01*
X821Y5079D01*
X822Y5079D01*
X823Y5079D01*
X824Y5079D01*
X825Y5079D01*
X826Y5079D01*
X827Y5079D01*
X828Y5079D01*
X829Y5079D01*
X830Y5079D01*
X831Y5079D01*
X832Y5079D01*
X833Y5079D01*
X834Y5079D01*
X835Y5079D01*
X836Y5079D01*
X837Y5079D01*
X838Y5079D01*
X839Y5079D01*
X840Y5079D01*
X841Y5079D01*
X842Y5079D01*
X843Y5079D01*
X844Y5079D01*
X845Y5079D01*
X846Y5079D01*
X847Y5079D01*
X848Y5079D01*
X849Y5079D01*
X850Y5079D01*
X851Y5079D01*
X852Y5079D01*
X853Y5079D01*
X854Y5079D01*
X855Y5079D01*
X856Y5079D01*
X857Y5079D01*
X858Y5079D01*
X859Y5079D01*
X860Y5079D01*
X861Y5079D01*
X862Y5079D01*
X863Y5079D01*
X864Y5079D01*
X865Y5079D01*
X866Y5079D01*
X867Y5079D01*
X868Y5079D01*
X869Y5079D01*
X870Y5079D01*
X871Y5079D01*
X872Y5079D01*
X873Y5079D01*
X874Y5079D01*
X875Y5079D01*
X876Y5079D01*
X877Y5079D01*
X878Y5079D01*
X879Y5079D01*
X880Y5079D01*
X881Y5079D01*
X882Y5079D01*
X883Y5079D01*
X884Y5079D01*
X885Y5079D01*
X886Y5079D01*
X887Y5079D01*
X888Y5079D01*
X889Y5079D01*
X890Y5079D01*
X891Y5079D01*
X892Y5079D01*
X893Y5079D01*
X894Y5079D01*
X895Y5079D01*
X896Y5079D01*
X897Y5079D01*
X898Y5079D01*
X899Y5079D01*
X900Y5079D01*
X901Y5079D01*
X902Y5079D01*
X903Y5079D01*
X904Y5079D01*
X905Y5079D01*
X906Y5079D01*
X907Y5079D01*
X908Y5079D01*
X909Y5079D01*
X910Y5079D01*
X911Y5079D01*
X912Y5079D01*
X913Y5079D01*
X914Y5079D01*
X915Y5079D01*
X916Y5079D01*
X917Y5079D01*
X918Y5079D01*
X919Y5079D01*
X920Y5079D01*
X921Y5079D01*
X922Y5079D01*
X923Y5079D01*
X924Y5079D01*
X925Y5079D01*
X926Y5079D01*
X927Y5079D01*
X928Y5079D01*
X929Y5079D01*
X930Y5079D01*
X931Y5079D01*
X932Y5079D01*
X933Y5079D01*
X934Y5079D01*
X935Y5079D01*
X936Y5079D01*
X937Y5079D01*
X938Y5079D01*
X939Y5079D01*
X940Y5079D01*
X941Y5079D01*
X942Y5079D01*
X943Y5079D01*
X944Y5079D01*
X945Y5079D01*
X946Y5079D01*
X947Y5079D01*
X948Y5079D01*
X949Y5079D01*
X950Y5079D01*
X951Y5079D01*
X952Y5079D01*
X953Y5079D01*
X954Y5079D01*
X955Y5079D01*
X956Y5079D01*
X957Y5079D01*
X958Y5079D01*
X959Y5079D01*
X960Y5079D01*
X961Y5079D01*
X962Y5079D01*
X963Y5079D01*
X964Y5079D01*
X965Y5079D01*
X966Y5079D01*
X967Y5079D01*
X968Y5079D01*
X969Y5079D01*
X970Y5079D01*
X971Y5079D01*
X972Y5079D01*
X973Y5079D01*
X974Y5079D01*
X975Y5079D01*
X976Y5079D01*
X977Y5079D01*
X978Y5079D01*
X979Y5079D01*
X980Y5079D01*
X981Y5079D01*
X982Y5079D01*
X983Y5079D01*
X984Y5079D01*
X985Y5079D01*
X986Y5079D01*
X987Y5079D01*
X988Y5079D01*
X989Y5079D01*
X990Y5079D01*
X991Y5079D01*
X992Y5079D01*
X993Y5079D01*
X994Y5079D01*
X995Y5079D01*
X996Y5079D01*
X997Y5079D01*
X998Y5079D01*
X999Y5079D01*
X1000Y5079D01*
X1001Y5079D01*
X1002Y5079D01*
X1003Y5079D01*
X1004Y5079D01*
X1005Y5079D01*
X1006Y5079D01*
X1007Y5079D01*
X1008Y5079D01*
X1009Y5079D01*
X1010Y5079D01*
X1011Y5079D01*
X1012Y5079D01*
X1013Y5079D01*
X1014Y5079D01*
X1015Y5079D01*
X1016Y5079D01*
X1017Y5079D01*
X1018Y5079D01*
X1019Y5079D01*
X1020Y5079D01*
X1021Y5079D01*
X1022Y5079D01*
X1023Y5079D01*
X1024Y5079D01*
X1025Y5079D01*
X1026Y5079D01*
X1027Y5079D01*
X1028Y5079D01*
X1029Y5079D01*
X1030Y5079D01*
X1031Y5079D01*
X1032Y5079D01*
X1033Y5079D01*
X1034Y5079D01*
X1035Y5079D01*
X1036Y5079D01*
X1037Y5079D01*
X1038Y5079D01*
X1039Y5079D01*
X1040Y5079D01*
X1041Y5079D01*
X1042Y5079D01*
X1043Y5079D01*
X1044Y5079D01*
X1045Y5079D01*
X1046Y5079D01*
X1047Y5079D01*
X1048Y5079D01*
X1049Y5079D01*
X1050Y5079D01*
X1051Y5079D01*
X1052Y5079D01*
X1053Y5079D01*
X1054Y5079D01*
X1055Y5079D01*
X1056Y5079D01*
X1057Y5079D01*
X1058Y5079D01*
X1059Y5079D01*
X1060Y5079D01*
X1061Y5079D01*
X1062Y5079D01*
X1063Y5079D01*
X1064Y5079D01*
X1065Y5079D01*
X1066Y5079D01*
X1067Y5079D01*
X1068Y5079D01*
X1069Y5079D01*
X1070Y5079D01*
X1071Y5079D01*
X1072Y5079D01*
X1073Y5079D01*
X1074Y5079D01*
X1075Y5079D01*
X1076Y5079D01*
X1077Y5079D01*
X1078Y5079D01*
X1079Y5079D01*
X1080Y5079D01*
X1081Y5079D01*
X1082Y5079D01*
X1083Y5079D01*
X1084Y5079D01*
X1085Y5079D01*
X1086Y5079D01*
X1087Y5079D01*
X1088Y5079D01*
X1089Y5079D01*
X1090Y5079D01*
X1091Y5079D01*
X1092Y5079D01*
X1093Y5079D01*
X1094Y5079D01*
X1095Y5079D01*
X1096Y5079D01*
X1097Y5079D01*
X1098Y5079D01*
X1099Y5079D01*
X1100Y5079D01*
X1101Y5079D01*
X1102Y5079D01*
X1103Y5079D01*
X1104Y5079D01*
X1105Y5079D01*
X1106Y5079D01*
X1107Y5079D01*
X1108Y5079D01*
X1109Y5079D01*
X1110Y5079D01*
X1111Y5079D01*
X1112Y5079D01*
X1113Y5079D01*
X1114Y5079D01*
X1115Y5079D01*
X1116Y5079D01*
X1117Y5079D01*
X1118Y5079D01*
X1119Y5079D01*
X1120Y5079D01*
X1121Y5079D01*
X1122Y5079D01*
X1123Y5079D01*
X1124Y5079D01*
X1125Y5079D01*
X1126Y5079D01*
X1127Y5079D01*
X1128Y5079D01*
X1129Y5079D01*
X1130Y5079D01*
X1131Y5079D01*
X1132Y5079D01*
X1133Y5079D01*
X1134Y5079D01*
X1135Y5079D01*
X1136Y5079D01*
X1137Y5079D01*
X1138Y5079D01*
X1139Y5079D01*
X1140Y5079D01*
X1141Y5079D01*
X1142Y5079D01*
X1143Y5079D01*
X1144Y5078D01*
X1145Y5078D01*
X1146Y5078D01*
X1147Y5078D01*
X1148Y5077D01*
X1149Y5077D01*
X1150Y5076D01*
X1151Y5076D01*
X1152Y5075D01*
X1153Y5075D01*
X1154Y5074D01*
X1155Y5073D01*
X1156Y5072D01*
X1157Y5071D01*
X1158Y5071D01*
X1159Y5070D01*
X1160Y5069D01*
X1160Y5068D01*
X1161Y5067D01*
X1162Y5066D01*
X1163Y5065D01*
X1164Y5064D01*
X1164Y5063D01*
X1165Y5062D01*
X1166Y5061D01*
X1166Y5060D01*
X1167Y5059D01*
X1167Y5058D01*
X1168Y5057D01*
X1168Y5056D01*
X1169Y5055D01*
X1169Y5054D01*
X1170Y5053D01*
X1170Y5052D01*
X1171Y5051D01*
X1171Y5050D01*
X1172Y5049D01*
X1172Y5048D01*
X1173Y5047D01*
X1173Y5045D01*
X1174Y5044D01*
X1174Y5042D01*
X1175Y5041D01*
X1175Y5038D01*
X1176Y5037D01*
X1176Y5034D01*
X1177Y5033D01*
X1177Y5030D01*
X1178Y5029D01*
X1178Y5024D01*
X1179Y5023D01*
X1179Y5015D01*
X1180Y5014D01*
X1180Y67D01*
X1179Y66D01*
X1179Y58D01*
X1178Y57D01*
X1178Y52D01*
X1177Y51D01*
X1177Y48D01*
X1176Y47D01*
X1176Y44D01*
X1175Y43D01*
X1175Y40D01*
X1174Y39D01*
X1174Y37D01*
X1173Y36D01*
X1173Y34D01*
X1172Y33D01*
X1172Y32D01*
X1171Y31D01*
X1171Y30D01*
X1170Y29D01*
X1170Y28D01*
X1169Y27D01*
X1169Y26D01*
X1168Y25D01*
X1168Y24D01*
X1167Y23D01*
X1167Y22D01*
X1166Y21D01*
X1166Y20D01*
X1165Y19D01*
X1164Y18D01*
X1164Y17D01*
X1163Y16D01*
X1162Y15D01*
X1161Y14D01*
X1160Y13D01*
X1160Y12D01*
X1159Y11D01*
X1158Y10D01*
X1157Y10D01*
X1156Y9D01*
X1155Y8D01*
X1154Y7D01*
X1153Y6D01*
X1152Y6D01*
X1151Y5D01*
X1150Y5D01*
X1149Y4D01*
X1148Y4D01*
X1147Y3D01*
X1146Y3D01*
X1145Y3D01*
X1144Y3D01*
X1143Y2D01*
X1142Y2D01*
X1141Y2D01*
X1140Y2D01*
X1139Y2D01*
X1138Y2D01*
X1137Y2D01*
X1136Y2D01*
X1135Y2D01*
X1134Y2D01*
X1133Y2D01*
X1132Y2D01*
X1131Y2D01*
X1130Y2D01*
X1129Y2D01*
X1128Y2D01*
X1127Y2D01*
X1126Y2D01*
X1125Y2D01*
X1124Y2D01*
X1123Y2D01*
X1122Y2D01*
X1121Y2D01*
X1120Y2D01*
X1119Y2D01*
X1118Y2D01*
X1117Y2D01*
X1116Y2D01*
X1115Y2D01*
X1114Y2D01*
X1113Y2D01*
X1112Y2D01*
X1111Y2D01*
X1110Y2D01*
X1109Y2D01*
X1108Y2D01*
X1107Y2D01*
X1106Y2D01*
X1105Y2D01*
X1104Y2D01*
X1103Y2D01*
X1102Y2D01*
X1101Y2D01*
X1100Y2D01*
X1099Y2D01*
X1098Y2D01*
X1097Y2D01*
X1096Y2D01*
X1095Y2D01*
X1094Y2D01*
X1093Y2D01*
X1092Y2D01*
X1091Y2D01*
X1090Y2D01*
X1089Y2D01*
X1088Y2D01*
X1087Y2D01*
X1086Y2D01*
X1085Y2D01*
X1084Y2D01*
X1083Y2D01*
X1082Y2D01*
X1081Y2D01*
X1080Y2D01*
X1079Y2D01*
X1078Y2D01*
X1077Y2D01*
X1076Y2D01*
X1075Y2D01*
X1074Y2D01*
X1073Y2D01*
X1072Y2D01*
X1071Y2D01*
X1070Y2D01*
X1069Y2D01*
X1068Y2D01*
X1067Y2D01*
X1066Y2D01*
X1065Y2D01*
X1064Y2D01*
X1063Y2D01*
X1062Y2D01*
X1061Y2D01*
X1060Y2D01*
X1059Y2D01*
X1058Y2D01*
X1057Y2D01*
X1056Y2D01*
X1055Y2D01*
X1054Y2D01*
X1053Y2D01*
X1052Y2D01*
X1051Y2D01*
X1050Y2D01*
X1049Y2D01*
X1048Y2D01*
X1047Y2D01*
X1046Y2D01*
X1045Y2D01*
X1044Y2D01*
X1043Y2D01*
X1042Y2D01*
X1041Y2D01*
X1040Y2D01*
X1039Y2D01*
X1038Y2D01*
X1037Y2D01*
X1036Y2D01*
X1035Y2D01*
X1034Y2D01*
X1033Y2D01*
X1032Y2D01*
X1031Y2D01*
X1030Y2D01*
X1029Y2D01*
X1028Y2D01*
X1027Y2D01*
X1026Y2D01*
X1025Y2D01*
X1024Y2D01*
X1023Y2D01*
X1022Y2D01*
X1021Y2D01*
X1020Y2D01*
X1019Y2D01*
X1018Y2D01*
X1017Y2D01*
X1016Y2D01*
X1015Y2D01*
X1014Y2D01*
X1013Y2D01*
X1012Y2D01*
X1011Y2D01*
X1010Y2D01*
X1009Y2D01*
X1008Y2D01*
X1007Y2D01*
X1006Y2D01*
X1005Y2D01*
X1004Y2D01*
X1003Y2D01*
X1002Y2D01*
X1001Y2D01*
X1000Y2D01*
X999Y2D01*
X998Y2D01*
X997Y2D01*
X996Y2D01*
X995Y2D01*
X994Y2D01*
X993Y2D01*
X992Y2D01*
X991Y2D01*
X990Y2D01*
X989Y2D01*
X988Y2D01*
X987Y2D01*
X986Y2D01*
X985Y2D01*
X984Y2D01*
X983Y2D01*
X982Y2D01*
X981Y2D01*
X980Y2D01*
X979Y2D01*
X978Y2D01*
X977Y2D01*
X976Y2D01*
X975Y2D01*
X974Y2D01*
X973Y2D01*
X972Y2D01*
X971Y2D01*
X970Y2D01*
X969Y2D01*
X968Y2D01*
X967Y2D01*
X966Y2D01*
X965Y2D01*
X964Y2D01*
X963Y2D01*
X962Y2D01*
X961Y2D01*
X960Y2D01*
X959Y2D01*
X958Y2D01*
X957Y2D01*
X956Y2D01*
X955Y2D01*
X954Y2D01*
X953Y2D01*
X952Y2D01*
X951Y2D01*
X950Y2D01*
X949Y2D01*
X948Y2D01*
X947Y2D01*
X946Y2D01*
X945Y2D01*
X944Y2D01*
X943Y2D01*
X942Y2D01*
X941Y2D01*
X940Y2D01*
X939Y2D01*
X938Y2D01*
X937Y2D01*
X936Y2D01*
X935Y2D01*
X934Y2D01*
X933Y2D01*
X932Y2D01*
X931Y2D01*
X930Y2D01*
X929Y2D01*
X928Y2D01*
X927Y2D01*
X926Y2D01*
X925Y2D01*
X924Y2D01*
X923Y2D01*
X922Y2D01*
X921Y2D01*
X920Y2D01*
X919Y2D01*
X918Y2D01*
X917Y2D01*
X916Y2D01*
X915Y2D01*
X914Y2D01*
X913Y2D01*
X912Y2D01*
X911Y2D01*
X910Y2D01*
X909Y2D01*
X908Y2D01*
X907Y2D01*
X906Y2D01*
X905Y2D01*
X904Y2D01*
X903Y2D01*
X902Y2D01*
X901Y2D01*
X900Y2D01*
X899Y2D01*
X898Y2D01*
X897Y2D01*
X896Y2D01*
X895Y2D01*
X894Y2D01*
X893Y2D01*
X892Y2D01*
X891Y2D01*
X890Y2D01*
X889Y2D01*
X888Y2D01*
X887Y2D01*
X886Y2D01*
X885Y2D01*
X884Y2D01*
X883Y2D01*
X882Y2D01*
X881Y2D01*
X880Y2D01*
X879Y2D01*
X878Y2D01*
X877Y2D01*
X876Y2D01*
X875Y2D01*
X874Y2D01*
X873Y2D01*
X872Y2D01*
X871Y2D01*
X870Y2D01*
X869Y2D01*
X868Y2D01*
X867Y2D01*
X866Y2D01*
X865Y2D01*
X864Y2D01*
X863Y2D01*
X862Y2D01*
X861Y2D01*
X860Y2D01*
X859Y2D01*
X858Y2D01*
X857Y2D01*
X856Y2D01*
X855Y2D01*
X854Y2D01*
X853Y2D01*
X852Y2D01*
X851Y2D01*
X850Y2D01*
X849Y2D01*
X848Y2D01*
X847Y2D01*
X846Y2D01*
X845Y2D01*
X844Y2D01*
X843Y2D01*
X842Y2D01*
X841Y2D01*
X840Y2D01*
X839Y2D01*
X838Y2D01*
X837Y2D01*
X836Y2D01*
X835Y2D01*
X834Y2D01*
X833Y2D01*
X832Y2D01*
X831Y2D01*
X830Y2D01*
X829Y2D01*
X828Y2D01*
X827Y2D01*
X826Y2D01*
X825Y2D01*
X824Y2D01*
X823Y2D01*
X822Y2D01*
X821Y2D01*
X820Y2D01*
X819Y2D01*
X818Y2D01*
X817Y2D01*
X816Y2D01*
X815Y2D01*
X814Y2D01*
X813Y2D01*
X812Y2D01*
X811Y2D01*
X810Y2D01*
X809Y2D01*
X808Y2D01*
X807Y2D01*
X806Y2D01*
X805Y2D01*
X804Y2D01*
X803Y2D01*
X802Y2D01*
X801Y2D01*
X800Y2D01*
X799Y2D01*
X798Y2D01*
X797Y2D01*
X796Y2D01*
X795Y2D01*
X794Y2D01*
X793Y2D01*
X792Y2D01*
X791Y2D01*
X790Y2D01*
X789Y2D01*
X788Y2D01*
X787Y2D01*
X786Y2D01*
X785Y2D01*
X784Y2D01*
X783Y2D01*
X782Y2D01*
X781Y2D01*
X780Y2D01*
X779Y2D01*
X778Y2D01*
X777Y2D01*
X776Y2D01*
X775Y2D01*
X774Y2D01*
X773Y2D01*
X772Y2D01*
X771Y2D01*
X770Y2D01*
X769Y2D01*
X768Y2D01*
X767Y2D01*
X766Y2D01*
X765Y2D01*
X764Y2D01*
X763Y2D01*
X762Y2D01*
X761Y2D01*
X760Y2D01*
X759Y2D01*
X758Y2D01*
X757Y2D01*
X756Y2D01*
X755Y2D01*
X754Y2D01*
X753Y2D01*
X752Y2D01*
X751Y2D01*
X750Y2D01*
X749Y2D01*
X748Y2D01*
X747Y2D01*
X746Y2D01*
X745Y2D01*
X744Y2D01*
X743Y2D01*
X742Y2D01*
X741Y2D01*
X740Y2D01*
X739Y2D01*
X738Y2D01*
X737Y2D01*
X736Y2D01*
X735Y2D01*
X734Y2D01*
X733Y2D01*
X732Y2D01*
X731Y2D01*
X730Y2D01*
X729Y2D01*
X728Y2D01*
X727Y2D01*
X726Y2D01*
X725Y2D01*
X724Y2D01*
X723Y2D01*
X722Y2D01*
X721Y2D01*
X720Y2D01*
X719Y2D01*
X718Y2D01*
X717Y2D01*
X716Y2D01*
X715Y2D01*
X714Y2D01*
X713Y2D01*
X712Y2D01*
X711Y2D01*
X710Y2D01*
X709Y2D01*
X708Y2D01*
X707Y2D01*
X706Y2D01*
X705Y2D01*
X704Y2D01*
X703Y2D01*
X702Y2D01*
X701Y2D01*
X700Y2D01*
X699Y2D01*
X698Y2D01*
X697Y2D01*
X696Y2D01*
X695Y2D01*
X694Y2D01*
X693Y2D01*
X692Y2D01*
X691Y2D01*
X690Y2D01*
X689Y2D01*
X688Y2D01*
X687Y2D01*
X686Y2D01*
X685Y2D01*
X684Y2D01*
X683Y2D01*
X682Y2D01*
X681Y2D01*
X680Y2D01*
X679Y2D01*
X678Y2D01*
X677Y2D01*
X676Y2D01*
X675Y2D01*
X674Y2D01*
X673Y2D01*
X672Y2D01*
X671Y2D01*
X670Y2D01*
X669Y2D01*
X668Y2D01*
X667Y2D01*
X666Y2D01*
X665Y2D01*
X664Y2D01*
X663Y2D01*
X662Y2D01*
X661Y2D01*
X660Y2D01*
X659Y2D01*
X658Y2D01*
X657Y2D01*
X656Y2D01*
X655Y2D01*
X654Y2D01*
X653Y2D01*
X652Y2D01*
X651Y2D01*
X650Y2D01*
X649Y2D01*
X648Y2D01*
X647Y2D01*
X646Y2D01*
X645Y2D01*
X644Y2D01*
X643Y2D01*
X642Y2D01*
X641Y2D01*
X640Y2D01*
X639Y2D01*
X638Y2D01*
X637Y2D01*
X636Y2D01*
X635Y2D01*
X634Y2D01*
X633Y2D01*
X632Y2D01*
X631Y2D01*
X630Y2D01*
X629Y2D01*
X628Y2D01*
X627Y2D01*
X626Y2D01*
X625Y2D01*
X624Y2D01*
X623Y2D01*
X622Y2D01*
X621Y2D01*
X620Y2D01*
X619Y2D01*
X618Y2D01*
X617Y2D01*
X616Y2D01*
X615Y2D01*
X614Y2D01*
X613Y2D01*
X612Y2D01*
X611Y2D01*
X610Y2D01*
X609Y2D01*
X608Y2D01*
X607Y2D01*
X606Y2D01*
X605Y2D01*
X604Y2D01*
X603Y2D01*
X602Y2D01*
X601Y2D01*
X600Y2D01*
X599Y2D01*
X598Y2D01*
X597Y2D01*
X596Y2D01*
X595Y2D01*
X594Y2D01*
X593Y2D01*
X592Y2D01*
X591Y2D01*
X590Y2D01*
X589Y2D01*
X588Y2D01*
X587Y2D01*
X586Y2D01*
X585Y2D01*
X584Y2D01*
X583Y2D01*
X582Y2D01*
X581Y2D01*
X580Y2D01*
X579Y2D01*
X578Y2D01*
X577Y2D01*
X576Y2D01*
X575Y2D01*
X574Y2D01*
X573Y2D01*
X572Y2D01*
X571Y2D01*
X570Y2D01*
X569Y2D01*
X568Y2D01*
X567Y2D01*
X566Y2D01*
X565Y2D01*
X564Y2D01*
X563Y2D01*
X562Y2D01*
X561Y2D01*
X560Y2D01*
X559Y2D01*
X558Y2D01*
X557Y2D01*
X556Y2D01*
X555Y2D01*
X554Y2D01*
X553Y2D01*
X552Y2D01*
X551Y2D01*
X550Y2D01*
X549Y2D01*
X548Y2D01*
X547Y2D01*
X546Y2D01*
X545Y2D01*
X544Y2D01*
X543Y2D01*
X542Y2D01*
X541Y2D01*
X540Y2D01*
X539Y2D01*
X538Y2D01*
X537Y2D01*
X536Y2D01*
X535Y2D01*
X534Y2D01*
X533Y2D01*
X532Y2D01*
X531Y2D01*
X530Y2D01*
X529Y2D01*
X528Y2D01*
X527Y2D01*
X526Y2D01*
X525Y2D01*
X524Y2D01*
X523Y2D01*
X522Y2D01*
X521Y2D01*
X520Y2D01*
X519Y2D01*
X518Y2D01*
X517Y2D01*
X516Y2D01*
X515Y2D01*
X514Y2D01*
X513Y2D01*
X512Y2D01*
X511Y2D01*
X510Y2D01*
X509Y2D01*
X508Y2D01*
X507Y2D01*
X506Y2D01*
X505Y2D01*
X504Y2D01*
X503Y2D01*
X502Y2D01*
X501Y2D01*
X500Y2D01*
X499Y2D01*
X498Y2D01*
X497Y2D01*
X496Y2D01*
X495Y2D01*
X494Y2D01*
X493Y2D01*
X492Y2D01*
X491Y2D01*
X490Y2D01*
X489Y2D01*
X488Y2D01*
X487Y2D01*
X486Y2D01*
X485Y2D01*
X484Y2D01*
X483Y2D01*
X482Y2D01*
X481Y2D01*
X480Y2D01*
X479Y2D01*
X478Y2D01*
X477Y2D01*
X476Y2D01*
X475Y2D01*
X474Y2D01*
X473Y2D01*
X472Y2D01*
X471Y2D01*
X470Y2D01*
X469Y2D01*
X468Y2D01*
X467Y2D01*
X466Y2D01*
X465Y2D01*
X464Y2D01*
X463Y2D01*
X462Y2D01*
X461Y2D01*
X460Y2D01*
X459Y2D01*
X458Y2D01*
X457Y2D01*
X456Y2D01*
X455Y2D01*
X454Y2D01*
X453Y2D01*
X452Y2D01*
X451Y2D01*
X450Y2D01*
X449Y2D01*
X448Y2D01*
X447Y2D01*
X446Y2D01*
X445Y2D01*
X444Y2D01*
X443Y2D01*
X442Y2D01*
X441Y2D01*
X440Y2D01*
X439Y2D01*
X438Y2D01*
X437Y2D01*
X436Y2D01*
X435Y2D01*
X434Y2D01*
X433Y2D01*
X432Y2D01*
X431Y2D01*
X430Y2D01*
X429Y2D01*
X428Y2D01*
X427Y2D01*
X426Y2D01*
X425Y2D01*
X424Y2D01*
X423Y2D01*
X422Y2D01*
X421Y2D01*
X420Y2D01*
X419Y2D01*
X418Y2D01*
X417Y2D01*
X416Y2D01*
X415Y2D01*
X414Y2D01*
X413Y2D01*
X412Y2D01*
X411Y2D01*
X410Y2D01*
X409Y2D01*
X408Y2D01*
X407Y2D01*
X406Y2D01*
X405Y2D01*
X404Y2D01*
X403Y2D01*
X402Y2D01*
X401Y2D01*
X400Y2D01*
X399Y2D01*
X398Y2D01*
X397Y2D01*
X396Y2D01*
X395Y2D01*
X394Y2D01*
X393Y2D01*
X392Y2D01*
X391Y2D01*
X390Y2D01*
X389Y2D01*
X388Y2D01*
X387Y2D01*
X386Y2D01*
X385Y2D01*
X384Y2D01*
X383Y2D01*
X382Y2D01*
X381Y2D01*
X380Y2D01*
X379Y2D01*
X378Y2D01*
X377Y2D01*
X376Y2D01*
X375Y2D01*
X374Y2D01*
X373Y2D01*
X372Y2D01*
X371Y2D01*
X370Y2D01*
X369Y2D01*
X368Y2D01*
X367Y2D01*
X366Y2D01*
X365Y2D01*
X364Y2D01*
X363Y2D01*
X362Y2D01*
X361Y2D01*
X360Y2D01*
X359Y2D01*
X358Y2D01*
X357Y2D01*
X356Y2D01*
X355Y2D01*
X354Y2D01*
X353Y2D01*
X352Y2D01*
X351Y2D01*
X350Y2D01*
X349Y2D01*
X348Y2D01*
X347Y2D01*
X346Y2D01*
X345Y2D01*
X344Y2D01*
X343Y2D01*
X342Y2D01*
X341Y2D01*
X340Y2D01*
X339Y2D01*
X338Y2D01*
X337Y2D01*
X336Y2D01*
X335Y2D01*
X334Y2D01*
X333Y2D01*
X332Y2D01*
X331Y2D01*
X330Y2D01*
X329Y2D01*
X328Y2D01*
X327Y2D01*
X326Y2D01*
X325Y2D01*
X324Y2D01*
X323Y2D01*
X322Y2D01*
X321Y2D01*
X320Y2D01*
X319Y2D01*
X318Y2D01*
X317Y2D01*
X316Y2D01*
X315Y2D01*
X314Y2D01*
X313Y2D01*
X312Y2D01*
X311Y2D01*
X310Y2D01*
X309Y2D01*
X308Y2D01*
X307Y2D01*
X306Y2D01*
X305Y2D01*
X304Y2D01*
X303Y2D01*
X302Y2D01*
X301Y2D01*
X300Y2D01*
X299Y2D01*
X298Y2D01*
X297Y2D01*
X296Y2D01*
X295Y2D01*
X294Y2D01*
X293Y2D01*
X292Y2D01*
X291Y2D01*
X290Y2D01*
X289Y2D01*
X288Y2D01*
X287Y2D01*
X286Y2D01*
X285Y2D01*
X284Y2D01*
X283Y2D01*
X282Y2D01*
X281Y2D01*
X280Y2D01*
X279Y2D01*
X278Y2D01*
X277Y2D01*
X276Y2D01*
X275Y2D01*
X274Y2D01*
X273Y2D01*
X272Y2D01*
X271Y2D01*
X270Y2D01*
X269Y2D01*
X268Y2D01*
X267Y2D01*
X266Y2D01*
X265Y2D01*
X264Y2D01*
X263Y2D01*
X262Y2D01*
X261Y2D01*
X260Y2D01*
X259Y2D01*
X258Y2D01*
X257Y2D01*
X256Y2D01*
X255Y2D01*
X254Y2D01*
X253Y2D01*
X252Y2D01*
X251Y2D01*
X250Y2D01*
X249Y2D01*
X248Y2D01*
X247Y2D01*
X246Y2D01*
X245Y2D01*
X244Y2D01*
X243Y2D01*
X242Y2D01*
X241Y2D01*
X240Y2D01*
X239Y2D01*
X238Y2D01*
X237Y2D01*
X236Y2D01*
X235Y2D01*
X234Y2D01*
X233Y2D01*
X232Y2D01*
X231Y2D01*
X230Y2D01*
X229Y2D01*
X228Y2D01*
X227Y2D01*
X226Y2D01*
X225Y2D01*
X224Y2D01*
X223Y2D01*
X222Y2D01*
X221Y2D01*
X220Y2D01*
X219Y2D01*
X218Y2D01*
X217Y2D01*
X216Y2D01*
X215Y2D01*
X214Y2D01*
X213Y2D01*
X212Y2D01*
X211Y2D01*
X210Y2D01*
X209Y2D01*
X208Y2D01*
X207Y2D01*
X206Y2D01*
X205Y2D01*
X204Y2D01*
X203Y2D01*
X202Y2D01*
X201Y2D01*
X200Y2D01*
X199Y2D01*
X198Y2D01*
X197Y2D01*
X196Y2D01*
X195Y2D01*
X194Y2D01*
X193Y2D01*
X192Y2D01*
X191Y2D01*
X190Y2D01*
X189Y2D01*
X188Y2D01*
X187Y2D01*
X186Y2D01*
X185Y2D01*
X184Y2D01*
X183Y2D01*
X182Y2D01*
X181Y2D01*
X180Y2D01*
X179Y2D01*
X178Y2D01*
X177Y2D01*
X176Y2D01*
X175Y2D01*
X174Y2D01*
X173Y2D01*
X172Y2D01*
X171Y2D01*
X170Y2D01*
X169Y2D01*
X168Y2D01*
X167Y2D01*
X166Y2D01*
X165Y2D01*
X164Y2D01*
X163Y2D01*
X162Y2D01*
X161Y2D01*
X160Y2D01*
X159Y2D01*
X158Y2D01*
X157Y2D01*
X156Y2D01*
X155Y2D01*
X154Y2D01*
X153Y2D01*
X152Y2D01*
X151Y2D01*
X150Y2D01*
X149Y2D01*
X148Y2D01*
X147Y2D01*
X146Y2D01*
X145Y2D01*
X144Y2D01*
X143Y2D01*
X142Y2D01*
X141Y2D01*
X140Y2D01*
X139Y2D01*
X138Y2D01*
X137Y2D01*
X136Y2D01*
X135Y2D01*
X134Y2D01*
X133Y2D01*
X132Y2D01*
X131Y2D01*
X130Y2D01*
X129Y2D01*
X128Y2D01*
X127Y2D01*
X126Y2D01*
X125Y2D01*
X124Y2D01*
X123Y2D01*
X122Y2D01*
X121Y2D01*
X120Y2D01*
X119Y2D01*
X118Y2D01*
X117Y2D01*
X116Y2D01*
X115Y2D01*
X114Y2D01*
X113Y2D01*
X112Y2D01*
X111Y2D01*
X110Y2D01*
X109Y2D01*
X108Y2D01*
X107Y2D01*
X106Y2D01*
X105Y2D01*
X104Y2D01*
X103Y2D01*
X102Y2D01*
X101Y2D01*
X100Y2D01*
X99Y2D01*
X98Y2D01*
X97Y2D01*
X96Y2D01*
X95Y2D01*
X94Y2D01*
X93Y2D01*
X92Y2D01*
X91Y2D01*
X90Y2D01*
X89Y2D01*
X88Y2D01*
X87Y2D01*
X86Y2D01*
X85Y2D01*
X84Y2D01*
X83Y2D01*
X82Y2D01*
X81Y2D01*
X80Y2D01*
X79Y2D01*
X78Y2D01*
X77Y2D01*
X76Y2D01*
X75Y2D01*
X74Y2D01*
X73Y2D01*
X72Y2D01*
X71Y2D01*
X70Y2D01*
X69Y2D01*
X68Y2D01*
X67Y2D01*
X66Y2D01*
X65Y2D01*
X64Y2D01*
X63Y2D01*
X62Y2D01*
X61Y2D01*
X60Y2D01*
X59Y2D01*
X58Y2D01*
X57Y2D01*
X56Y2D01*
X55Y2D01*
X54Y2D01*
X53Y2D01*
X52Y2D01*
X51Y2D01*
X50Y2D01*
X49Y2D01*
X48Y2D01*
X47Y2D01*
X46Y2D01*
X45Y2D01*
X44Y2D01*
X43Y2D01*
X42Y2D01*
X41Y2D01*
X40Y2D01*
X39Y2D01*
X38Y2D01*
X37Y2D01*
X36Y3D01*
X35Y3D01*
X34Y3D01*
X33Y3D01*
X32Y4D01*
X31Y4D01*
X30Y5D01*
X29Y5D01*
X28Y6D01*
X27Y6D01*
X26Y7D01*
X25Y8D01*
X24Y9D01*
X23Y10D01*
X22Y10D01*
X21Y11D01*
X20Y12D01*
X20Y13D01*
X19Y14D01*
X18Y15D01*
X17Y16D01*
X16Y17D01*
X16Y18D01*
X15Y19D01*
X14Y20D01*
X14Y21D01*
X13Y22D01*
X13Y23D01*
X12Y24D01*
X12Y25D01*
X11Y26D01*
X11Y27D01*
X10Y28D01*
X10Y29D01*
X9Y30D01*
X9Y31D01*
X8Y32D01*
X8Y33D01*
X7Y34D01*
X7Y36D01*
X6Y37D01*
X6Y39D01*
X5Y40D01*
X5Y43D01*
X4Y44D01*
X4Y47D01*
X3Y48D01*
X3Y51D01*
X2Y52D01*
X2Y57D01*
X1Y58D01*
X1Y66D01*
X0Y67D01*
X0Y5014D01*
X1Y5015D01*
X1Y5023D01*
X2Y5024D01*
X2Y5029D01*
X3Y5030D01*
X3Y5033D01*
X4Y5034D01*
X4Y5037D01*
X5Y5038D01*
X5Y5041D01*
X6Y5042D01*
X6Y5044D01*
X7Y5045D01*
X7Y5047D01*
X8Y5048D01*
X8Y5049D01*
X9Y5050D01*
X9Y5051D01*
X10Y5052D01*
X10Y5053D01*
X11Y5054D01*
X11Y5055D01*
X12Y5056D01*
X12Y5057D01*
X13Y5058D01*
X13Y5059D01*
X14Y5060D01*
X14Y5061D01*
X15Y5062D01*
X16Y5063D01*
X16Y5064D01*
X17Y5065D01*
X18Y5066D01*
X19Y5067D01*
X20Y5068D01*
X20Y5069D01*
X21Y5070D01*
X22Y5071D01*
X23Y5071D01*
X24Y5072D01*
X25Y5073D01*
X26Y5074D01*
X27Y5075D01*
X28Y5075D01*
X29Y5076D01*
X30Y5076D01*
X31Y5077D01*
X32Y5077D01*
X33Y5078D01*
X34Y5078D01*
X35Y5078D01*
X36Y5078D01*
X37Y5079D01*
D02*
G04 End of contour*
M02*