G04 MADE WITH FRITZING*
G04 WWW.FRITZING.ORG*
G04 DOUBLE SIDED*
G04 HOLES PLATED*
G04 CONTOUR ON CENTER OF CONTOUR VECTOR*
%ASAXBY*%
%FSLAX23Y23*%
%MOIN*%
%OFA0B0*%
%SFA1.0B1.0*%
%ADD10R,0.001000X0.001000*%
%LNSILK0*%
G90*
G70*
G54D10*
X232Y3525D02*
X242Y3525D01*
X491Y3525D02*
X502Y3525D01*
X751Y3525D02*
X761Y3525D01*
X1010Y3525D02*
X1021Y3525D01*
X231Y3524D02*
X244Y3524D01*
X490Y3524D02*
X503Y3524D01*
X750Y3524D02*
X763Y3524D01*
X1009Y3524D02*
X1022Y3524D01*
X230Y3523D02*
X245Y3523D01*
X489Y3523D02*
X504Y3523D01*
X749Y3523D02*
X764Y3523D01*
X1008Y3523D02*
X1023Y3523D01*
X229Y3522D02*
X245Y3522D01*
X489Y3522D02*
X505Y3522D01*
X748Y3522D02*
X764Y3522D01*
X1008Y3522D02*
X1024Y3522D01*
X229Y3521D02*
X245Y3521D01*
X488Y3521D02*
X505Y3521D01*
X748Y3521D02*
X764Y3521D01*
X1007Y3521D02*
X1024Y3521D01*
X163Y3520D02*
X185Y3520D01*
X229Y3520D02*
X246Y3520D01*
X423Y3520D02*
X445Y3520D01*
X488Y3520D02*
X505Y3520D01*
X682Y3520D02*
X704Y3520D01*
X748Y3520D02*
X765Y3520D01*
X942Y3520D02*
X964Y3520D01*
X1007Y3520D02*
X1024Y3520D01*
X162Y3519D02*
X187Y3519D01*
X229Y3519D02*
X246Y3519D01*
X421Y3519D02*
X446Y3519D01*
X488Y3519D02*
X505Y3519D01*
X681Y3519D02*
X706Y3519D01*
X748Y3519D02*
X765Y3519D01*
X940Y3519D02*
X965Y3519D01*
X1007Y3519D02*
X1024Y3519D01*
X161Y3518D02*
X188Y3518D01*
X229Y3518D02*
X246Y3518D01*
X421Y3518D02*
X447Y3518D01*
X488Y3518D02*
X505Y3518D01*
X680Y3518D02*
X707Y3518D01*
X748Y3518D02*
X765Y3518D01*
X940Y3518D02*
X966Y3518D01*
X1007Y3518D02*
X1024Y3518D01*
X160Y3517D02*
X188Y3517D01*
X229Y3517D02*
X246Y3517D01*
X420Y3517D02*
X448Y3517D01*
X488Y3517D02*
X505Y3517D01*
X679Y3517D02*
X707Y3517D01*
X748Y3517D02*
X765Y3517D01*
X939Y3517D02*
X967Y3517D01*
X1007Y3517D02*
X1024Y3517D01*
X160Y3516D02*
X189Y3516D01*
X229Y3516D02*
X246Y3516D01*
X420Y3516D02*
X448Y3516D01*
X488Y3516D02*
X505Y3516D01*
X679Y3516D02*
X708Y3516D01*
X748Y3516D02*
X765Y3516D01*
X939Y3516D02*
X967Y3516D01*
X1007Y3516D02*
X1024Y3516D01*
X160Y3515D02*
X189Y3515D01*
X229Y3515D02*
X246Y3515D01*
X419Y3515D02*
X448Y3515D01*
X488Y3515D02*
X505Y3515D01*
X679Y3515D02*
X708Y3515D01*
X748Y3515D02*
X765Y3515D01*
X938Y3515D02*
X967Y3515D01*
X1007Y3515D02*
X1024Y3515D01*
X160Y3514D02*
X189Y3514D01*
X229Y3514D02*
X246Y3514D01*
X419Y3514D02*
X448Y3514D01*
X488Y3514D02*
X505Y3514D01*
X679Y3514D02*
X708Y3514D01*
X748Y3514D02*
X765Y3514D01*
X938Y3514D02*
X967Y3514D01*
X1007Y3514D02*
X1024Y3514D01*
X160Y3513D02*
X189Y3513D01*
X229Y3513D02*
X245Y3513D01*
X419Y3513D02*
X448Y3513D01*
X488Y3513D02*
X505Y3513D01*
X679Y3513D02*
X708Y3513D01*
X748Y3513D02*
X764Y3513D01*
X938Y3513D02*
X967Y3513D01*
X1007Y3513D02*
X1024Y3513D01*
X160Y3512D02*
X188Y3512D01*
X229Y3512D02*
X245Y3512D01*
X419Y3512D02*
X448Y3512D01*
X489Y3512D02*
X504Y3512D01*
X679Y3512D02*
X707Y3512D01*
X748Y3512D02*
X764Y3512D01*
X938Y3512D02*
X967Y3512D01*
X1008Y3512D02*
X1023Y3512D01*
X160Y3511D02*
X187Y3511D01*
X230Y3511D02*
X244Y3511D01*
X419Y3511D02*
X447Y3511D01*
X489Y3511D02*
X504Y3511D01*
X679Y3511D02*
X706Y3511D01*
X749Y3511D02*
X763Y3511D01*
X938Y3511D02*
X966Y3511D01*
X1008Y3511D02*
X1023Y3511D01*
X160Y3510D02*
X186Y3510D01*
X231Y3510D02*
X243Y3510D01*
X419Y3510D02*
X446Y3510D01*
X490Y3510D02*
X503Y3510D01*
X679Y3510D02*
X706Y3510D01*
X750Y3510D02*
X762Y3510D01*
X938Y3510D02*
X965Y3510D01*
X1009Y3510D02*
X1022Y3510D01*
X160Y3509D02*
X185Y3509D01*
X233Y3509D02*
X242Y3509D01*
X419Y3509D02*
X444Y3509D01*
X492Y3509D02*
X501Y3509D01*
X679Y3509D02*
X704Y3509D01*
X752Y3509D02*
X761Y3509D01*
X938Y3509D02*
X963Y3509D01*
X1011Y3509D02*
X1020Y3509D01*
X160Y3508D02*
X171Y3508D01*
X419Y3508D02*
X430Y3508D01*
X679Y3508D02*
X690Y3508D01*
X938Y3508D02*
X950Y3508D01*
X160Y3507D02*
X171Y3507D01*
X419Y3507D02*
X430Y3507D01*
X679Y3507D02*
X690Y3507D01*
X938Y3507D02*
X950Y3507D01*
X160Y3506D02*
X171Y3506D01*
X419Y3506D02*
X430Y3506D01*
X679Y3506D02*
X690Y3506D01*
X938Y3506D02*
X950Y3506D01*
X160Y3505D02*
X171Y3505D01*
X419Y3505D02*
X430Y3505D01*
X679Y3505D02*
X690Y3505D01*
X938Y3505D02*
X950Y3505D01*
X160Y3504D02*
X171Y3504D01*
X419Y3504D02*
X430Y3504D01*
X679Y3504D02*
X690Y3504D01*
X938Y3504D02*
X950Y3504D01*
X160Y3503D02*
X171Y3503D01*
X419Y3503D02*
X430Y3503D01*
X679Y3503D02*
X690Y3503D01*
X938Y3503D02*
X950Y3503D01*
X160Y3502D02*
X171Y3502D01*
X419Y3502D02*
X430Y3502D01*
X679Y3502D02*
X690Y3502D01*
X938Y3502D02*
X950Y3502D01*
X160Y3501D02*
X171Y3501D01*
X419Y3501D02*
X430Y3501D01*
X679Y3501D02*
X690Y3501D01*
X938Y3501D02*
X950Y3501D01*
X160Y3500D02*
X171Y3500D01*
X419Y3500D02*
X430Y3500D01*
X679Y3500D02*
X690Y3500D01*
X938Y3500D02*
X950Y3500D01*
X160Y3499D02*
X171Y3499D01*
X419Y3499D02*
X430Y3499D01*
X679Y3499D02*
X690Y3499D01*
X938Y3499D02*
X950Y3499D01*
X160Y3498D02*
X171Y3498D01*
X419Y3498D02*
X430Y3498D01*
X679Y3498D02*
X690Y3498D01*
X938Y3498D02*
X950Y3498D01*
X160Y3497D02*
X171Y3497D01*
X419Y3497D02*
X430Y3497D01*
X679Y3497D02*
X690Y3497D01*
X938Y3497D02*
X950Y3497D01*
X160Y3496D02*
X171Y3496D01*
X419Y3496D02*
X430Y3496D01*
X679Y3496D02*
X690Y3496D01*
X938Y3496D02*
X950Y3496D01*
X54Y3495D02*
X83Y3495D01*
X160Y3495D02*
X171Y3495D01*
X233Y3495D02*
X259Y3495D01*
X313Y3495D02*
X343Y3495D01*
X419Y3495D02*
X430Y3495D01*
X492Y3495D02*
X519Y3495D01*
X573Y3495D02*
X602Y3495D01*
X679Y3495D02*
X690Y3495D01*
X752Y3495D02*
X778Y3495D01*
X832Y3495D02*
X862Y3495D01*
X938Y3495D02*
X950Y3495D01*
X1011Y3495D02*
X1038Y3495D01*
X52Y3494D02*
X87Y3494D01*
X160Y3494D02*
X171Y3494D01*
X231Y3494D02*
X261Y3494D01*
X312Y3494D02*
X346Y3494D01*
X419Y3494D02*
X430Y3494D01*
X491Y3494D02*
X520Y3494D01*
X571Y3494D02*
X606Y3494D01*
X679Y3494D02*
X690Y3494D01*
X750Y3494D02*
X780Y3494D01*
X831Y3494D02*
X865Y3494D01*
X938Y3494D02*
X950Y3494D01*
X1010Y3494D02*
X1039Y3494D01*
X51Y3493D02*
X89Y3493D01*
X160Y3493D02*
X171Y3493D01*
X230Y3493D02*
X262Y3493D01*
X311Y3493D02*
X349Y3493D01*
X419Y3493D02*
X430Y3493D01*
X490Y3493D02*
X522Y3493D01*
X570Y3493D02*
X608Y3493D01*
X679Y3493D02*
X690Y3493D01*
X749Y3493D02*
X781Y3493D01*
X830Y3493D02*
X868Y3493D01*
X938Y3493D02*
X950Y3493D01*
X1009Y3493D02*
X1041Y3493D01*
X50Y3492D02*
X91Y3492D01*
X160Y3492D02*
X171Y3492D01*
X229Y3492D02*
X263Y3492D01*
X310Y3492D02*
X350Y3492D01*
X419Y3492D02*
X430Y3492D01*
X489Y3492D02*
X522Y3492D01*
X569Y3492D02*
X610Y3492D01*
X679Y3492D02*
X690Y3492D01*
X748Y3492D02*
X782Y3492D01*
X829Y3492D02*
X869Y3492D01*
X938Y3492D02*
X950Y3492D01*
X1008Y3492D02*
X1041Y3492D01*
X50Y3491D02*
X92Y3491D01*
X160Y3491D02*
X171Y3491D01*
X229Y3491D02*
X263Y3491D01*
X309Y3491D02*
X352Y3491D01*
X419Y3491D02*
X430Y3491D01*
X488Y3491D02*
X523Y3491D01*
X569Y3491D02*
X611Y3491D01*
X679Y3491D02*
X690Y3491D01*
X748Y3491D02*
X782Y3491D01*
X828Y3491D02*
X871Y3491D01*
X938Y3491D02*
X950Y3491D01*
X1007Y3491D02*
X1042Y3491D01*
X50Y3490D02*
X93Y3490D01*
X160Y3490D02*
X171Y3490D01*
X229Y3490D02*
X263Y3490D01*
X309Y3490D02*
X353Y3490D01*
X419Y3490D02*
X430Y3490D01*
X488Y3490D02*
X523Y3490D01*
X569Y3490D02*
X612Y3490D01*
X679Y3490D02*
X690Y3490D01*
X748Y3490D02*
X782Y3490D01*
X828Y3490D02*
X872Y3490D01*
X938Y3490D02*
X950Y3490D01*
X1007Y3490D02*
X1042Y3490D01*
X50Y3489D02*
X95Y3489D01*
X160Y3489D02*
X171Y3489D01*
X229Y3489D02*
X263Y3489D01*
X309Y3489D02*
X354Y3489D01*
X419Y3489D02*
X430Y3489D01*
X488Y3489D02*
X523Y3489D01*
X569Y3489D02*
X614Y3489D01*
X679Y3489D02*
X690Y3489D01*
X748Y3489D02*
X782Y3489D01*
X828Y3489D02*
X873Y3489D01*
X938Y3489D02*
X950Y3489D01*
X1007Y3489D02*
X1042Y3489D01*
X50Y3488D02*
X96Y3488D01*
X160Y3488D02*
X171Y3488D01*
X229Y3488D02*
X263Y3488D01*
X309Y3488D02*
X355Y3488D01*
X419Y3488D02*
X430Y3488D01*
X488Y3488D02*
X523Y3488D01*
X569Y3488D02*
X615Y3488D01*
X679Y3488D02*
X690Y3488D01*
X748Y3488D02*
X782Y3488D01*
X828Y3488D02*
X874Y3488D01*
X938Y3488D02*
X950Y3488D01*
X1007Y3488D02*
X1042Y3488D01*
X50Y3487D02*
X97Y3487D01*
X160Y3487D02*
X171Y3487D01*
X229Y3487D02*
X263Y3487D01*
X310Y3487D02*
X356Y3487D01*
X419Y3487D02*
X430Y3487D01*
X488Y3487D02*
X523Y3487D01*
X569Y3487D02*
X616Y3487D01*
X679Y3487D02*
X690Y3487D01*
X748Y3487D02*
X782Y3487D01*
X829Y3487D02*
X875Y3487D01*
X938Y3487D02*
X950Y3487D01*
X1007Y3487D02*
X1042Y3487D01*
X51Y3486D02*
X98Y3486D01*
X160Y3486D02*
X171Y3486D01*
X229Y3486D02*
X262Y3486D01*
X310Y3486D02*
X358Y3486D01*
X419Y3486D02*
X430Y3486D01*
X488Y3486D02*
X522Y3486D01*
X570Y3486D02*
X617Y3486D01*
X679Y3486D02*
X690Y3486D01*
X748Y3486D02*
X781Y3486D01*
X829Y3486D02*
X877Y3486D01*
X938Y3486D02*
X950Y3486D01*
X1007Y3486D02*
X1041Y3486D01*
X51Y3485D02*
X99Y3485D01*
X160Y3485D02*
X171Y3485D01*
X229Y3485D02*
X262Y3485D01*
X311Y3485D02*
X359Y3485D01*
X419Y3485D02*
X430Y3485D01*
X488Y3485D02*
X521Y3485D01*
X570Y3485D02*
X618Y3485D01*
X679Y3485D02*
X690Y3485D01*
X748Y3485D02*
X781Y3485D01*
X830Y3485D02*
X878Y3485D01*
X938Y3485D02*
X950Y3485D01*
X1007Y3485D02*
X1040Y3485D01*
X53Y3484D02*
X100Y3484D01*
X160Y3484D02*
X171Y3484D01*
X229Y3484D02*
X260Y3484D01*
X312Y3484D02*
X360Y3484D01*
X419Y3484D02*
X430Y3484D01*
X488Y3484D02*
X520Y3484D01*
X572Y3484D02*
X619Y3484D01*
X679Y3484D02*
X690Y3484D01*
X748Y3484D02*
X779Y3484D01*
X831Y3484D02*
X879Y3484D01*
X938Y3484D02*
X950Y3484D01*
X1007Y3484D02*
X1039Y3484D01*
X82Y3483D02*
X101Y3483D01*
X160Y3483D02*
X171Y3483D01*
X229Y3483D02*
X240Y3483D01*
X342Y3483D02*
X361Y3483D01*
X419Y3483D02*
X430Y3483D01*
X488Y3483D02*
X499Y3483D01*
X601Y3483D02*
X620Y3483D01*
X679Y3483D02*
X690Y3483D01*
X748Y3483D02*
X759Y3483D01*
X861Y3483D02*
X880Y3483D01*
X938Y3483D02*
X950Y3483D01*
X1007Y3483D02*
X1018Y3483D01*
X84Y3482D02*
X102Y3482D01*
X160Y3482D02*
X171Y3482D01*
X229Y3482D02*
X240Y3482D01*
X344Y3482D02*
X362Y3482D01*
X419Y3482D02*
X430Y3482D01*
X488Y3482D02*
X499Y3482D01*
X603Y3482D02*
X621Y3482D01*
X679Y3482D02*
X690Y3482D01*
X748Y3482D02*
X759Y3482D01*
X863Y3482D02*
X881Y3482D01*
X938Y3482D02*
X950Y3482D01*
X1007Y3482D02*
X1018Y3482D01*
X86Y3481D02*
X103Y3481D01*
X160Y3481D02*
X171Y3481D01*
X229Y3481D02*
X240Y3481D01*
X345Y3481D02*
X363Y3481D01*
X419Y3481D02*
X430Y3481D01*
X488Y3481D02*
X499Y3481D01*
X605Y3481D02*
X622Y3481D01*
X679Y3481D02*
X690Y3481D01*
X748Y3481D02*
X759Y3481D01*
X864Y3481D02*
X882Y3481D01*
X938Y3481D02*
X950Y3481D01*
X1007Y3481D02*
X1018Y3481D01*
X87Y3480D02*
X104Y3480D01*
X160Y3480D02*
X171Y3480D01*
X229Y3480D02*
X240Y3480D01*
X346Y3480D02*
X363Y3480D01*
X419Y3480D02*
X430Y3480D01*
X488Y3480D02*
X499Y3480D01*
X606Y3480D02*
X623Y3480D01*
X679Y3480D02*
X690Y3480D01*
X748Y3480D02*
X759Y3480D01*
X865Y3480D02*
X882Y3480D01*
X938Y3480D02*
X950Y3480D01*
X1007Y3480D02*
X1018Y3480D01*
X88Y3479D02*
X105Y3479D01*
X160Y3479D02*
X171Y3479D01*
X229Y3479D02*
X240Y3479D01*
X347Y3479D02*
X364Y3479D01*
X419Y3479D02*
X430Y3479D01*
X488Y3479D02*
X499Y3479D01*
X607Y3479D02*
X624Y3479D01*
X679Y3479D02*
X690Y3479D01*
X748Y3479D02*
X759Y3479D01*
X866Y3479D02*
X883Y3479D01*
X938Y3479D02*
X950Y3479D01*
X1007Y3479D02*
X1018Y3479D01*
X89Y3478D02*
X105Y3478D01*
X160Y3478D02*
X171Y3478D01*
X229Y3478D02*
X240Y3478D01*
X349Y3478D02*
X365Y3478D01*
X419Y3478D02*
X430Y3478D01*
X488Y3478D02*
X499Y3478D01*
X608Y3478D02*
X624Y3478D01*
X679Y3478D02*
X690Y3478D01*
X748Y3478D02*
X759Y3478D01*
X868Y3478D02*
X884Y3478D01*
X938Y3478D02*
X950Y3478D01*
X1007Y3478D02*
X1018Y3478D01*
X90Y3477D02*
X106Y3477D01*
X160Y3477D02*
X171Y3477D01*
X229Y3477D02*
X240Y3477D01*
X350Y3477D02*
X366Y3477D01*
X419Y3477D02*
X430Y3477D01*
X488Y3477D02*
X499Y3477D01*
X609Y3477D02*
X625Y3477D01*
X679Y3477D02*
X690Y3477D01*
X748Y3477D02*
X759Y3477D01*
X869Y3477D02*
X885Y3477D01*
X938Y3477D02*
X950Y3477D01*
X1007Y3477D02*
X1018Y3477D01*
X91Y3476D02*
X107Y3476D01*
X160Y3476D02*
X171Y3476D01*
X229Y3476D02*
X240Y3476D01*
X351Y3476D02*
X366Y3476D01*
X419Y3476D02*
X430Y3476D01*
X488Y3476D02*
X499Y3476D01*
X610Y3476D02*
X626Y3476D01*
X679Y3476D02*
X690Y3476D01*
X748Y3476D02*
X759Y3476D01*
X870Y3476D02*
X885Y3476D01*
X938Y3476D02*
X950Y3476D01*
X1007Y3476D02*
X1018Y3476D01*
X93Y3475D02*
X107Y3475D01*
X160Y3475D02*
X171Y3475D01*
X229Y3475D02*
X240Y3475D01*
X352Y3475D02*
X366Y3475D01*
X419Y3475D02*
X430Y3475D01*
X488Y3475D02*
X499Y3475D01*
X612Y3475D02*
X626Y3475D01*
X679Y3475D02*
X690Y3475D01*
X748Y3475D02*
X759Y3475D01*
X871Y3475D02*
X885Y3475D01*
X938Y3475D02*
X950Y3475D01*
X1007Y3475D02*
X1018Y3475D01*
X94Y3474D02*
X107Y3474D01*
X160Y3474D02*
X171Y3474D01*
X229Y3474D02*
X240Y3474D01*
X353Y3474D02*
X367Y3474D01*
X419Y3474D02*
X430Y3474D01*
X488Y3474D02*
X499Y3474D01*
X613Y3474D02*
X626Y3474D01*
X679Y3474D02*
X690Y3474D01*
X748Y3474D02*
X759Y3474D01*
X872Y3474D02*
X886Y3474D01*
X938Y3474D02*
X950Y3474D01*
X1007Y3474D02*
X1018Y3474D01*
X95Y3473D02*
X108Y3473D01*
X160Y3473D02*
X171Y3473D01*
X229Y3473D02*
X240Y3473D01*
X354Y3473D02*
X367Y3473D01*
X419Y3473D02*
X430Y3473D01*
X488Y3473D02*
X499Y3473D01*
X614Y3473D02*
X627Y3473D01*
X679Y3473D02*
X690Y3473D01*
X748Y3473D02*
X759Y3473D01*
X873Y3473D02*
X886Y3473D01*
X938Y3473D02*
X950Y3473D01*
X1007Y3473D02*
X1018Y3473D01*
X96Y3472D02*
X108Y3472D01*
X160Y3472D02*
X171Y3472D01*
X229Y3472D02*
X240Y3472D01*
X355Y3472D02*
X367Y3472D01*
X419Y3472D02*
X430Y3472D01*
X488Y3472D02*
X499Y3472D01*
X615Y3472D02*
X627Y3472D01*
X679Y3472D02*
X690Y3472D01*
X748Y3472D02*
X759Y3472D01*
X874Y3472D02*
X886Y3472D01*
X938Y3472D02*
X950Y3472D01*
X1007Y3472D02*
X1018Y3472D01*
X97Y3471D02*
X108Y3471D01*
X160Y3471D02*
X171Y3471D01*
X229Y3471D02*
X240Y3471D01*
X356Y3471D02*
X367Y3471D01*
X419Y3471D02*
X430Y3471D01*
X488Y3471D02*
X499Y3471D01*
X616Y3471D02*
X627Y3471D01*
X679Y3471D02*
X690Y3471D01*
X748Y3471D02*
X759Y3471D01*
X875Y3471D02*
X886Y3471D01*
X938Y3471D02*
X950Y3471D01*
X1007Y3471D02*
X1018Y3471D01*
X97Y3470D02*
X108Y3470D01*
X160Y3470D02*
X171Y3470D01*
X229Y3470D02*
X240Y3470D01*
X356Y3470D02*
X368Y3470D01*
X419Y3470D02*
X430Y3470D01*
X488Y3470D02*
X499Y3470D01*
X616Y3470D02*
X627Y3470D01*
X679Y3470D02*
X690Y3470D01*
X748Y3470D02*
X759Y3470D01*
X875Y3470D02*
X887Y3470D01*
X938Y3470D02*
X950Y3470D01*
X1007Y3470D02*
X1018Y3470D01*
X97Y3469D02*
X108Y3469D01*
X160Y3469D02*
X171Y3469D01*
X229Y3469D02*
X240Y3469D01*
X357Y3469D02*
X368Y3469D01*
X419Y3469D02*
X430Y3469D01*
X488Y3469D02*
X499Y3469D01*
X616Y3469D02*
X627Y3469D01*
X679Y3469D02*
X690Y3469D01*
X748Y3469D02*
X759Y3469D01*
X876Y3469D02*
X887Y3469D01*
X938Y3469D02*
X950Y3469D01*
X1007Y3469D02*
X1018Y3469D01*
X97Y3468D02*
X108Y3468D01*
X160Y3468D02*
X171Y3468D01*
X229Y3468D02*
X240Y3468D01*
X357Y3468D02*
X368Y3468D01*
X419Y3468D02*
X430Y3468D01*
X488Y3468D02*
X499Y3468D01*
X616Y3468D02*
X627Y3468D01*
X679Y3468D02*
X690Y3468D01*
X748Y3468D02*
X759Y3468D01*
X876Y3468D02*
X887Y3468D01*
X938Y3468D02*
X950Y3468D01*
X1007Y3468D02*
X1018Y3468D01*
X97Y3467D02*
X108Y3467D01*
X160Y3467D02*
X171Y3467D01*
X229Y3467D02*
X240Y3467D01*
X357Y3467D02*
X368Y3467D01*
X419Y3467D02*
X430Y3467D01*
X488Y3467D02*
X499Y3467D01*
X616Y3467D02*
X627Y3467D01*
X679Y3467D02*
X690Y3467D01*
X748Y3467D02*
X759Y3467D01*
X876Y3467D02*
X887Y3467D01*
X938Y3467D02*
X950Y3467D01*
X1007Y3467D02*
X1018Y3467D01*
X97Y3466D02*
X108Y3466D01*
X160Y3466D02*
X171Y3466D01*
X229Y3466D02*
X240Y3466D01*
X357Y3466D02*
X368Y3466D01*
X419Y3466D02*
X430Y3466D01*
X488Y3466D02*
X499Y3466D01*
X616Y3466D02*
X627Y3466D01*
X679Y3466D02*
X690Y3466D01*
X748Y3466D02*
X759Y3466D01*
X876Y3466D02*
X887Y3466D01*
X938Y3466D02*
X950Y3466D01*
X1007Y3466D02*
X1018Y3466D01*
X97Y3465D02*
X108Y3465D01*
X160Y3465D02*
X171Y3465D01*
X229Y3465D02*
X240Y3465D01*
X357Y3465D02*
X368Y3465D01*
X419Y3465D02*
X430Y3465D01*
X488Y3465D02*
X499Y3465D01*
X616Y3465D02*
X627Y3465D01*
X679Y3465D02*
X690Y3465D01*
X748Y3465D02*
X759Y3465D01*
X876Y3465D02*
X887Y3465D01*
X938Y3465D02*
X950Y3465D01*
X1007Y3465D02*
X1018Y3465D01*
X97Y3464D02*
X108Y3464D01*
X160Y3464D02*
X171Y3464D01*
X229Y3464D02*
X240Y3464D01*
X357Y3464D02*
X368Y3464D01*
X419Y3464D02*
X430Y3464D01*
X488Y3464D02*
X499Y3464D01*
X616Y3464D02*
X627Y3464D01*
X679Y3464D02*
X690Y3464D01*
X748Y3464D02*
X759Y3464D01*
X876Y3464D02*
X887Y3464D01*
X938Y3464D02*
X950Y3464D01*
X1007Y3464D02*
X1018Y3464D01*
X97Y3463D02*
X108Y3463D01*
X160Y3463D02*
X171Y3463D01*
X229Y3463D02*
X240Y3463D01*
X357Y3463D02*
X368Y3463D01*
X419Y3463D02*
X430Y3463D01*
X488Y3463D02*
X499Y3463D01*
X616Y3463D02*
X627Y3463D01*
X679Y3463D02*
X690Y3463D01*
X748Y3463D02*
X759Y3463D01*
X876Y3463D02*
X887Y3463D01*
X938Y3463D02*
X950Y3463D01*
X1007Y3463D02*
X1018Y3463D01*
X97Y3462D02*
X108Y3462D01*
X160Y3462D02*
X171Y3462D01*
X229Y3462D02*
X240Y3462D01*
X357Y3462D02*
X368Y3462D01*
X419Y3462D02*
X430Y3462D01*
X488Y3462D02*
X499Y3462D01*
X616Y3462D02*
X627Y3462D01*
X679Y3462D02*
X690Y3462D01*
X748Y3462D02*
X759Y3462D01*
X876Y3462D02*
X887Y3462D01*
X938Y3462D02*
X950Y3462D01*
X1007Y3462D02*
X1018Y3462D01*
X97Y3461D02*
X108Y3461D01*
X160Y3461D02*
X171Y3461D01*
X229Y3461D02*
X240Y3461D01*
X357Y3461D02*
X368Y3461D01*
X419Y3461D02*
X430Y3461D01*
X488Y3461D02*
X499Y3461D01*
X616Y3461D02*
X627Y3461D01*
X679Y3461D02*
X690Y3461D01*
X748Y3461D02*
X759Y3461D01*
X876Y3461D02*
X887Y3461D01*
X938Y3461D02*
X950Y3461D01*
X1007Y3461D02*
X1018Y3461D01*
X97Y3460D02*
X108Y3460D01*
X160Y3460D02*
X171Y3460D01*
X229Y3460D02*
X240Y3460D01*
X357Y3460D02*
X368Y3460D01*
X419Y3460D02*
X430Y3460D01*
X488Y3460D02*
X499Y3460D01*
X616Y3460D02*
X627Y3460D01*
X679Y3460D02*
X690Y3460D01*
X748Y3460D02*
X759Y3460D01*
X876Y3460D02*
X887Y3460D01*
X938Y3460D02*
X950Y3460D01*
X1007Y3460D02*
X1018Y3460D01*
X97Y3459D02*
X108Y3459D01*
X160Y3459D02*
X171Y3459D01*
X229Y3459D02*
X240Y3459D01*
X357Y3459D02*
X368Y3459D01*
X419Y3459D02*
X430Y3459D01*
X488Y3459D02*
X499Y3459D01*
X616Y3459D02*
X627Y3459D01*
X679Y3459D02*
X690Y3459D01*
X748Y3459D02*
X759Y3459D01*
X876Y3459D02*
X887Y3459D01*
X938Y3459D02*
X950Y3459D01*
X1007Y3459D02*
X1018Y3459D01*
X97Y3458D02*
X108Y3458D01*
X160Y3458D02*
X171Y3458D01*
X229Y3458D02*
X240Y3458D01*
X357Y3458D02*
X368Y3458D01*
X419Y3458D02*
X430Y3458D01*
X488Y3458D02*
X499Y3458D01*
X616Y3458D02*
X627Y3458D01*
X679Y3458D02*
X690Y3458D01*
X748Y3458D02*
X759Y3458D01*
X876Y3458D02*
X887Y3458D01*
X938Y3458D02*
X950Y3458D01*
X1007Y3458D02*
X1018Y3458D01*
X97Y3457D02*
X108Y3457D01*
X160Y3457D02*
X171Y3457D01*
X229Y3457D02*
X240Y3457D01*
X357Y3457D02*
X368Y3457D01*
X419Y3457D02*
X430Y3457D01*
X488Y3457D02*
X499Y3457D01*
X616Y3457D02*
X627Y3457D01*
X679Y3457D02*
X690Y3457D01*
X748Y3457D02*
X759Y3457D01*
X876Y3457D02*
X887Y3457D01*
X938Y3457D02*
X950Y3457D01*
X1007Y3457D02*
X1018Y3457D01*
X97Y3456D02*
X108Y3456D01*
X160Y3456D02*
X171Y3456D01*
X229Y3456D02*
X240Y3456D01*
X357Y3456D02*
X368Y3456D01*
X419Y3456D02*
X430Y3456D01*
X488Y3456D02*
X499Y3456D01*
X616Y3456D02*
X627Y3456D01*
X679Y3456D02*
X690Y3456D01*
X748Y3456D02*
X759Y3456D01*
X876Y3456D02*
X887Y3456D01*
X938Y3456D02*
X950Y3456D01*
X1007Y3456D02*
X1018Y3456D01*
X97Y3455D02*
X108Y3455D01*
X160Y3455D02*
X171Y3455D01*
X229Y3455D02*
X240Y3455D01*
X357Y3455D02*
X368Y3455D01*
X419Y3455D02*
X430Y3455D01*
X488Y3455D02*
X499Y3455D01*
X616Y3455D02*
X627Y3455D01*
X679Y3455D02*
X690Y3455D01*
X748Y3455D02*
X759Y3455D01*
X876Y3455D02*
X887Y3455D01*
X938Y3455D02*
X950Y3455D01*
X1007Y3455D02*
X1018Y3455D01*
X97Y3454D02*
X108Y3454D01*
X160Y3454D02*
X171Y3454D01*
X229Y3454D02*
X240Y3454D01*
X357Y3454D02*
X368Y3454D01*
X419Y3454D02*
X430Y3454D01*
X488Y3454D02*
X499Y3454D01*
X616Y3454D02*
X627Y3454D01*
X679Y3454D02*
X690Y3454D01*
X748Y3454D02*
X759Y3454D01*
X876Y3454D02*
X887Y3454D01*
X938Y3454D02*
X950Y3454D01*
X1007Y3454D02*
X1018Y3454D01*
X97Y3453D02*
X108Y3453D01*
X160Y3453D02*
X171Y3453D01*
X229Y3453D02*
X240Y3453D01*
X356Y3453D02*
X368Y3453D01*
X419Y3453D02*
X430Y3453D01*
X488Y3453D02*
X499Y3453D01*
X616Y3453D02*
X627Y3453D01*
X679Y3453D02*
X690Y3453D01*
X748Y3453D02*
X759Y3453D01*
X875Y3453D02*
X887Y3453D01*
X938Y3453D02*
X950Y3453D01*
X1007Y3453D02*
X1018Y3453D01*
X97Y3452D02*
X108Y3452D01*
X160Y3452D02*
X171Y3452D01*
X229Y3452D02*
X240Y3452D01*
X356Y3452D02*
X367Y3452D01*
X419Y3452D02*
X430Y3452D01*
X488Y3452D02*
X499Y3452D01*
X616Y3452D02*
X627Y3452D01*
X679Y3452D02*
X690Y3452D01*
X748Y3452D02*
X759Y3452D01*
X875Y3452D02*
X886Y3452D01*
X938Y3452D02*
X950Y3452D01*
X1007Y3452D02*
X1018Y3452D01*
X96Y3451D02*
X108Y3451D01*
X160Y3451D02*
X171Y3451D01*
X229Y3451D02*
X240Y3451D01*
X356Y3451D02*
X367Y3451D01*
X419Y3451D02*
X430Y3451D01*
X488Y3451D02*
X499Y3451D01*
X615Y3451D02*
X627Y3451D01*
X679Y3451D02*
X690Y3451D01*
X748Y3451D02*
X759Y3451D01*
X875Y3451D02*
X886Y3451D01*
X938Y3451D02*
X950Y3451D01*
X1007Y3451D02*
X1018Y3451D01*
X95Y3450D02*
X108Y3450D01*
X160Y3450D02*
X171Y3450D01*
X229Y3450D02*
X240Y3450D01*
X355Y3450D02*
X367Y3450D01*
X419Y3450D02*
X430Y3450D01*
X488Y3450D02*
X499Y3450D01*
X614Y3450D02*
X627Y3450D01*
X679Y3450D02*
X690Y3450D01*
X748Y3450D02*
X759Y3450D01*
X874Y3450D02*
X886Y3450D01*
X938Y3450D02*
X950Y3450D01*
X1007Y3450D02*
X1018Y3450D01*
X94Y3449D02*
X107Y3449D01*
X160Y3449D02*
X171Y3449D01*
X229Y3449D02*
X240Y3449D01*
X354Y3449D02*
X367Y3449D01*
X419Y3449D02*
X430Y3449D01*
X488Y3449D02*
X499Y3449D01*
X613Y3449D02*
X626Y3449D01*
X679Y3449D02*
X690Y3449D01*
X748Y3449D02*
X759Y3449D01*
X873Y3449D02*
X886Y3449D01*
X938Y3449D02*
X950Y3449D01*
X1007Y3449D02*
X1018Y3449D01*
X93Y3448D02*
X107Y3448D01*
X160Y3448D02*
X171Y3448D01*
X229Y3448D02*
X240Y3448D01*
X353Y3448D02*
X367Y3448D01*
X419Y3448D02*
X430Y3448D01*
X488Y3448D02*
X499Y3448D01*
X612Y3448D02*
X626Y3448D01*
X679Y3448D02*
X690Y3448D01*
X748Y3448D02*
X759Y3448D01*
X872Y3448D02*
X886Y3448D01*
X938Y3448D02*
X950Y3448D01*
X1007Y3448D02*
X1018Y3448D01*
X92Y3447D02*
X107Y3447D01*
X160Y3447D02*
X171Y3447D01*
X229Y3447D02*
X240Y3447D01*
X352Y3447D02*
X366Y3447D01*
X419Y3447D02*
X430Y3447D01*
X488Y3447D02*
X499Y3447D01*
X611Y3447D02*
X626Y3447D01*
X679Y3447D02*
X690Y3447D01*
X748Y3447D02*
X759Y3447D01*
X871Y3447D02*
X885Y3447D01*
X938Y3447D02*
X950Y3447D01*
X1007Y3447D02*
X1018Y3447D01*
X91Y3446D02*
X106Y3446D01*
X160Y3446D02*
X171Y3446D01*
X229Y3446D02*
X240Y3446D01*
X350Y3446D02*
X366Y3446D01*
X419Y3446D02*
X430Y3446D01*
X488Y3446D02*
X499Y3446D01*
X610Y3446D02*
X625Y3446D01*
X679Y3446D02*
X690Y3446D01*
X748Y3446D02*
X759Y3446D01*
X869Y3446D02*
X885Y3446D01*
X938Y3446D02*
X950Y3446D01*
X1007Y3446D02*
X1018Y3446D01*
X90Y3445D02*
X106Y3445D01*
X160Y3445D02*
X171Y3445D01*
X229Y3445D02*
X240Y3445D01*
X349Y3445D02*
X365Y3445D01*
X419Y3445D02*
X430Y3445D01*
X488Y3445D02*
X499Y3445D01*
X609Y3445D02*
X625Y3445D01*
X679Y3445D02*
X690Y3445D01*
X748Y3445D02*
X759Y3445D01*
X868Y3445D02*
X884Y3445D01*
X938Y3445D02*
X950Y3445D01*
X1007Y3445D02*
X1018Y3445D01*
X88Y3444D02*
X105Y3444D01*
X160Y3444D02*
X171Y3444D01*
X229Y3444D02*
X240Y3444D01*
X348Y3444D02*
X365Y3444D01*
X419Y3444D02*
X430Y3444D01*
X488Y3444D02*
X499Y3444D01*
X607Y3444D02*
X624Y3444D01*
X679Y3444D02*
X690Y3444D01*
X748Y3444D02*
X759Y3444D01*
X867Y3444D02*
X884Y3444D01*
X938Y3444D02*
X950Y3444D01*
X1007Y3444D02*
X1018Y3444D01*
X87Y3443D02*
X104Y3443D01*
X160Y3443D02*
X171Y3443D01*
X229Y3443D02*
X240Y3443D01*
X347Y3443D02*
X364Y3443D01*
X419Y3443D02*
X430Y3443D01*
X488Y3443D02*
X499Y3443D01*
X606Y3443D02*
X623Y3443D01*
X679Y3443D02*
X690Y3443D01*
X748Y3443D02*
X759Y3443D01*
X866Y3443D02*
X883Y3443D01*
X938Y3443D02*
X950Y3443D01*
X1007Y3443D02*
X1018Y3443D01*
X86Y3442D02*
X103Y3442D01*
X160Y3442D02*
X171Y3442D01*
X229Y3442D02*
X240Y3442D01*
X346Y3442D02*
X363Y3442D01*
X419Y3442D02*
X430Y3442D01*
X488Y3442D02*
X499Y3442D01*
X605Y3442D02*
X622Y3442D01*
X679Y3442D02*
X690Y3442D01*
X748Y3442D02*
X759Y3442D01*
X865Y3442D02*
X882Y3442D01*
X938Y3442D02*
X950Y3442D01*
X1007Y3442D02*
X1018Y3442D01*
X85Y3441D02*
X102Y3441D01*
X160Y3441D02*
X171Y3441D01*
X229Y3441D02*
X240Y3441D01*
X344Y3441D02*
X362Y3441D01*
X419Y3441D02*
X430Y3441D01*
X488Y3441D02*
X499Y3441D01*
X604Y3441D02*
X621Y3441D01*
X679Y3441D02*
X690Y3441D01*
X748Y3441D02*
X759Y3441D01*
X863Y3441D02*
X881Y3441D01*
X938Y3441D02*
X950Y3441D01*
X1007Y3441D02*
X1018Y3441D01*
X83Y3440D02*
X101Y3440D01*
X160Y3440D02*
X171Y3440D01*
X229Y3440D02*
X240Y3440D01*
X343Y3440D02*
X361Y3440D01*
X419Y3440D02*
X430Y3440D01*
X488Y3440D02*
X499Y3440D01*
X602Y3440D02*
X620Y3440D01*
X679Y3440D02*
X690Y3440D01*
X748Y3440D02*
X759Y3440D01*
X862Y3440D02*
X880Y3440D01*
X938Y3440D02*
X950Y3440D01*
X1007Y3440D02*
X1018Y3440D01*
X54Y3439D02*
X100Y3439D01*
X146Y3439D02*
X185Y3439D01*
X229Y3439D02*
X240Y3439D01*
X313Y3439D02*
X360Y3439D01*
X406Y3439D02*
X444Y3439D01*
X488Y3439D02*
X499Y3439D01*
X573Y3439D02*
X619Y3439D01*
X665Y3439D02*
X704Y3439D01*
X748Y3439D02*
X759Y3439D01*
X832Y3439D02*
X879Y3439D01*
X925Y3439D02*
X963Y3439D01*
X1007Y3439D02*
X1018Y3439D01*
X52Y3438D02*
X99Y3438D01*
X144Y3438D02*
X186Y3438D01*
X229Y3438D02*
X240Y3438D01*
X311Y3438D02*
X359Y3438D01*
X404Y3438D02*
X446Y3438D01*
X488Y3438D02*
X499Y3438D01*
X571Y3438D02*
X618Y3438D01*
X663Y3438D02*
X705Y3438D01*
X748Y3438D02*
X759Y3438D01*
X830Y3438D02*
X878Y3438D01*
X923Y3438D02*
X965Y3438D01*
X1007Y3438D02*
X1018Y3438D01*
X51Y3437D02*
X98Y3437D01*
X143Y3437D02*
X187Y3437D01*
X229Y3437D02*
X240Y3437D01*
X310Y3437D02*
X357Y3437D01*
X403Y3437D02*
X447Y3437D01*
X488Y3437D02*
X499Y3437D01*
X570Y3437D02*
X617Y3437D01*
X662Y3437D02*
X706Y3437D01*
X748Y3437D02*
X759Y3437D01*
X829Y3437D02*
X876Y3437D01*
X922Y3437D02*
X966Y3437D01*
X1007Y3437D02*
X1018Y3437D01*
X50Y3436D02*
X97Y3436D01*
X143Y3436D02*
X188Y3436D01*
X229Y3436D02*
X240Y3436D01*
X310Y3436D02*
X356Y3436D01*
X402Y3436D02*
X448Y3436D01*
X488Y3436D02*
X499Y3436D01*
X569Y3436D02*
X616Y3436D01*
X662Y3436D02*
X707Y3436D01*
X748Y3436D02*
X759Y3436D01*
X829Y3436D02*
X875Y3436D01*
X921Y3436D02*
X967Y3436D01*
X1007Y3436D02*
X1018Y3436D01*
X50Y3435D02*
X96Y3435D01*
X142Y3435D02*
X189Y3435D01*
X229Y3435D02*
X240Y3435D01*
X309Y3435D02*
X355Y3435D01*
X402Y3435D02*
X448Y3435D01*
X488Y3435D02*
X499Y3435D01*
X569Y3435D02*
X615Y3435D01*
X661Y3435D02*
X708Y3435D01*
X748Y3435D02*
X759Y3435D01*
X828Y3435D02*
X874Y3435D01*
X921Y3435D02*
X967Y3435D01*
X1007Y3435D02*
X1018Y3435D01*
X50Y3434D02*
X94Y3434D01*
X142Y3434D02*
X189Y3434D01*
X229Y3434D02*
X240Y3434D01*
X309Y3434D02*
X354Y3434D01*
X402Y3434D02*
X448Y3434D01*
X488Y3434D02*
X499Y3434D01*
X569Y3434D02*
X613Y3434D01*
X661Y3434D02*
X708Y3434D01*
X748Y3434D02*
X759Y3434D01*
X828Y3434D02*
X873Y3434D01*
X921Y3434D02*
X967Y3434D01*
X1007Y3434D02*
X1018Y3434D01*
X50Y3433D02*
X93Y3433D01*
X142Y3433D02*
X189Y3433D01*
X229Y3433D02*
X240Y3433D01*
X309Y3433D02*
X353Y3433D01*
X402Y3433D02*
X448Y3433D01*
X488Y3433D02*
X499Y3433D01*
X569Y3433D02*
X612Y3433D01*
X661Y3433D02*
X708Y3433D01*
X748Y3433D02*
X759Y3433D01*
X828Y3433D02*
X872Y3433D01*
X921Y3433D02*
X967Y3433D01*
X1007Y3433D02*
X1018Y3433D01*
X50Y3432D02*
X92Y3432D01*
X142Y3432D02*
X189Y3432D01*
X229Y3432D02*
X240Y3432D01*
X309Y3432D02*
X352Y3432D01*
X402Y3432D02*
X448Y3432D01*
X488Y3432D02*
X499Y3432D01*
X569Y3432D02*
X611Y3432D01*
X661Y3432D02*
X708Y3432D01*
X748Y3432D02*
X759Y3432D01*
X828Y3432D02*
X871Y3432D01*
X921Y3432D02*
X967Y3432D01*
X1007Y3432D02*
X1018Y3432D01*
X50Y3431D02*
X91Y3431D01*
X143Y3431D02*
X188Y3431D01*
X229Y3431D02*
X240Y3431D01*
X310Y3431D02*
X350Y3431D01*
X402Y3431D02*
X448Y3431D01*
X488Y3431D02*
X499Y3431D01*
X569Y3431D02*
X610Y3431D01*
X662Y3431D02*
X707Y3431D01*
X748Y3431D02*
X759Y3431D01*
X829Y3431D02*
X869Y3431D01*
X921Y3431D02*
X967Y3431D01*
X1007Y3431D02*
X1018Y3431D01*
X51Y3430D02*
X89Y3430D01*
X143Y3430D02*
X188Y3430D01*
X229Y3430D02*
X240Y3430D01*
X310Y3430D02*
X349Y3430D01*
X403Y3430D02*
X447Y3430D01*
X488Y3430D02*
X499Y3430D01*
X570Y3430D02*
X608Y3430D01*
X662Y3430D02*
X707Y3430D01*
X748Y3430D02*
X759Y3430D01*
X829Y3430D02*
X868Y3430D01*
X922Y3430D02*
X966Y3430D01*
X1007Y3430D02*
X1018Y3430D01*
X52Y3429D02*
X88Y3429D01*
X144Y3429D02*
X187Y3429D01*
X229Y3429D02*
X240Y3429D01*
X311Y3429D02*
X347Y3429D01*
X404Y3429D02*
X446Y3429D01*
X488Y3429D02*
X499Y3429D01*
X571Y3429D02*
X607Y3429D01*
X663Y3429D02*
X706Y3429D01*
X748Y3429D02*
X759Y3429D01*
X830Y3429D02*
X866Y3429D01*
X923Y3429D02*
X965Y3429D01*
X1007Y3429D02*
X1018Y3429D01*
X53Y3428D02*
X85Y3428D01*
X146Y3428D02*
X185Y3428D01*
X229Y3428D02*
X240Y3428D01*
X313Y3428D02*
X344Y3428D01*
X405Y3428D02*
X445Y3428D01*
X488Y3428D02*
X499Y3428D01*
X572Y3428D02*
X604Y3428D01*
X665Y3428D02*
X704Y3428D01*
X748Y3428D02*
X759Y3428D01*
X832Y3428D02*
X863Y3428D01*
X924Y3428D02*
X964Y3428D01*
X1007Y3428D02*
X1018Y3428D01*
X229Y3427D02*
X240Y3427D01*
X488Y3427D02*
X499Y3427D01*
X748Y3427D02*
X759Y3427D01*
X1007Y3427D02*
X1018Y3427D01*
X229Y3426D02*
X240Y3426D01*
X488Y3426D02*
X499Y3426D01*
X748Y3426D02*
X759Y3426D01*
X1007Y3426D02*
X1018Y3426D01*
X229Y3425D02*
X240Y3425D01*
X488Y3425D02*
X499Y3425D01*
X748Y3425D02*
X759Y3425D01*
X1007Y3425D02*
X1018Y3425D01*
X229Y3424D02*
X240Y3424D01*
X269Y3424D02*
X271Y3424D01*
X488Y3424D02*
X499Y3424D01*
X528Y3424D02*
X530Y3424D01*
X748Y3424D02*
X759Y3424D01*
X788Y3424D02*
X790Y3424D01*
X1007Y3424D02*
X1018Y3424D01*
X1047Y3424D02*
X1049Y3424D01*
X229Y3423D02*
X240Y3423D01*
X267Y3423D02*
X273Y3423D01*
X488Y3423D02*
X499Y3423D01*
X526Y3423D02*
X532Y3423D01*
X748Y3423D02*
X759Y3423D01*
X786Y3423D02*
X792Y3423D01*
X1007Y3423D02*
X1018Y3423D01*
X1045Y3423D02*
X1051Y3423D01*
X229Y3422D02*
X240Y3422D01*
X266Y3422D02*
X274Y3422D01*
X488Y3422D02*
X499Y3422D01*
X525Y3422D02*
X533Y3422D01*
X748Y3422D02*
X759Y3422D01*
X785Y3422D02*
X793Y3422D01*
X1007Y3422D02*
X1018Y3422D01*
X1045Y3422D02*
X1052Y3422D01*
X229Y3421D02*
X240Y3421D01*
X265Y3421D02*
X274Y3421D01*
X488Y3421D02*
X499Y3421D01*
X525Y3421D02*
X534Y3421D01*
X748Y3421D02*
X759Y3421D01*
X784Y3421D02*
X793Y3421D01*
X1007Y3421D02*
X1018Y3421D01*
X1044Y3421D02*
X1053Y3421D01*
X229Y3420D02*
X240Y3420D01*
X265Y3420D02*
X275Y3420D01*
X488Y3420D02*
X499Y3420D01*
X524Y3420D02*
X534Y3420D01*
X748Y3420D02*
X759Y3420D01*
X784Y3420D02*
X794Y3420D01*
X1007Y3420D02*
X1018Y3420D01*
X1043Y3420D02*
X1053Y3420D01*
X229Y3419D02*
X240Y3419D01*
X264Y3419D02*
X275Y3419D01*
X488Y3419D02*
X499Y3419D01*
X524Y3419D02*
X535Y3419D01*
X748Y3419D02*
X759Y3419D01*
X783Y3419D02*
X794Y3419D01*
X1007Y3419D02*
X1018Y3419D01*
X1043Y3419D02*
X1054Y3419D01*
X229Y3418D02*
X240Y3418D01*
X264Y3418D02*
X275Y3418D01*
X488Y3418D02*
X499Y3418D01*
X523Y3418D02*
X535Y3418D01*
X748Y3418D02*
X759Y3418D01*
X783Y3418D02*
X794Y3418D01*
X1007Y3418D02*
X1018Y3418D01*
X1042Y3418D02*
X1054Y3418D01*
X229Y3417D02*
X240Y3417D01*
X263Y3417D02*
X275Y3417D01*
X488Y3417D02*
X500Y3417D01*
X523Y3417D02*
X535Y3417D01*
X748Y3417D02*
X760Y3417D01*
X782Y3417D02*
X794Y3417D01*
X1007Y3417D02*
X1019Y3417D01*
X1042Y3417D02*
X1054Y3417D01*
X229Y3416D02*
X241Y3416D01*
X263Y3416D02*
X275Y3416D01*
X489Y3416D02*
X501Y3416D01*
X522Y3416D02*
X535Y3416D01*
X748Y3416D02*
X760Y3416D01*
X782Y3416D02*
X794Y3416D01*
X1008Y3416D02*
X1020Y3416D01*
X1041Y3416D02*
X1054Y3416D01*
X229Y3415D02*
X243Y3415D01*
X262Y3415D02*
X275Y3415D01*
X489Y3415D02*
X502Y3415D01*
X521Y3415D02*
X534Y3415D01*
X748Y3415D02*
X762Y3415D01*
X781Y3415D02*
X794Y3415D01*
X1008Y3415D02*
X1021Y3415D01*
X1040Y3415D02*
X1053Y3415D01*
X230Y3414D02*
X275Y3414D01*
X489Y3414D02*
X534Y3414D01*
X749Y3414D02*
X794Y3414D01*
X1008Y3414D02*
X1053Y3414D01*
X230Y3413D02*
X274Y3413D01*
X489Y3413D02*
X534Y3413D01*
X749Y3413D02*
X793Y3413D01*
X1008Y3413D02*
X1053Y3413D01*
X230Y3412D02*
X274Y3412D01*
X490Y3412D02*
X533Y3412D01*
X749Y3412D02*
X793Y3412D01*
X1009Y3412D02*
X1052Y3412D01*
X231Y3411D02*
X273Y3411D01*
X491Y3411D02*
X533Y3411D01*
X750Y3411D02*
X792Y3411D01*
X1010Y3411D02*
X1052Y3411D01*
X232Y3410D02*
X273Y3410D01*
X491Y3410D02*
X532Y3410D01*
X751Y3410D02*
X792Y3410D01*
X1010Y3410D02*
X1051Y3410D01*
X232Y3409D02*
X272Y3409D01*
X492Y3409D02*
X531Y3409D01*
X751Y3409D02*
X791Y3409D01*
X1011Y3409D02*
X1050Y3409D01*
X233Y3408D02*
X271Y3408D01*
X493Y3408D02*
X530Y3408D01*
X752Y3408D02*
X790Y3408D01*
X1012Y3408D02*
X1049Y3408D01*
X234Y3407D02*
X270Y3407D01*
X494Y3407D02*
X529Y3407D01*
X753Y3407D02*
X789Y3407D01*
X1013Y3407D02*
X1048Y3407D01*
X235Y3406D02*
X269Y3406D01*
X495Y3406D02*
X528Y3406D01*
X754Y3406D02*
X788Y3406D01*
X1014Y3406D02*
X1047Y3406D01*
X237Y3405D02*
X267Y3405D01*
X496Y3405D02*
X527Y3405D01*
X756Y3405D02*
X786Y3405D01*
X1015Y3405D02*
X1046Y3405D01*
X238Y3404D02*
X265Y3404D01*
X498Y3404D02*
X525Y3404D01*
X757Y3404D02*
X784Y3404D01*
X1017Y3404D02*
X1044Y3404D01*
X241Y3403D02*
X263Y3403D01*
X500Y3403D02*
X523Y3403D01*
X760Y3403D02*
X782Y3403D01*
X1019Y3403D02*
X1042Y3403D01*
X246Y3402D02*
X258Y3402D01*
X506Y3402D02*
X517Y3402D01*
X765Y3402D02*
X777Y3402D01*
X1025Y3402D02*
X1036Y3402D01*
D02*
G04 End of Silk0*
M02*